%TF.GenerationSoftware,KiCad,Pcbnew,10.0.6*%
%TF.CreationDate,2026-09-24T20:33:40+03:00*%
%TF.ProjectId,drone-fc,64726f6e-652d-4666-932e-6b696361645f,rev?*%
%TF.SameCoordinates,Original*%
%TF.FileFunction,Legend,Bot*%
%TF.FilePolarity,Positive*%
%FSLAX46Y46*%
G04 Gerber Fmt 4.6, Leading zero omitted, Abs format (unit mm)*
G04 Created by KiCad (PCBNEW 10.0.6) date 2026-09-24 20:33:40*
%MOMM*%
%LPD*%
G01*
G04 APERTURE LIST*
%ADD10C,0.150000*%
%ADD11C,0.254000*%
%ADD12C,0.120000*%
%ADD13C,0.200000*%
G04 APERTURE END LIST*
D10*
X206642857Y-78159580D02*
X206690476Y-78207200D01*
X206690476Y-78207200D02*
X206833333Y-78254819D01*
X206833333Y-78254819D02*
X206928571Y-78254819D01*
X206928571Y-78254819D02*
X207071428Y-78207200D01*
X207071428Y-78207200D02*
X207166666Y-78111961D01*
X207166666Y-78111961D02*
X207214285Y-78016723D01*
X207214285Y-78016723D02*
X207261904Y-77826247D01*
X207261904Y-77826247D02*
X207261904Y-77683390D01*
X207261904Y-77683390D02*
X207214285Y-77492914D01*
X207214285Y-77492914D02*
X207166666Y-77397676D01*
X207166666Y-77397676D02*
X207071428Y-77302438D01*
X207071428Y-77302438D02*
X206928571Y-77254819D01*
X206928571Y-77254819D02*
X206833333Y-77254819D01*
X206833333Y-77254819D02*
X206690476Y-77302438D01*
X206690476Y-77302438D02*
X206642857Y-77350057D01*
X206261904Y-77350057D02*
X206214285Y-77302438D01*
X206214285Y-77302438D02*
X206119047Y-77254819D01*
X206119047Y-77254819D02*
X205880952Y-77254819D01*
X205880952Y-77254819D02*
X205785714Y-77302438D01*
X205785714Y-77302438D02*
X205738095Y-77350057D01*
X205738095Y-77350057D02*
X205690476Y-77445295D01*
X205690476Y-77445295D02*
X205690476Y-77540533D01*
X205690476Y-77540533D02*
X205738095Y-77683390D01*
X205738095Y-77683390D02*
X206309523Y-78254819D01*
X206309523Y-78254819D02*
X205690476Y-78254819D01*
X205071428Y-77254819D02*
X204976190Y-77254819D01*
X204976190Y-77254819D02*
X204880952Y-77302438D01*
X204880952Y-77302438D02*
X204833333Y-77350057D01*
X204833333Y-77350057D02*
X204785714Y-77445295D01*
X204785714Y-77445295D02*
X204738095Y-77635771D01*
X204738095Y-77635771D02*
X204738095Y-77873866D01*
X204738095Y-77873866D02*
X204785714Y-78064342D01*
X204785714Y-78064342D02*
X204833333Y-78159580D01*
X204833333Y-78159580D02*
X204880952Y-78207200D01*
X204880952Y-78207200D02*
X204976190Y-78254819D01*
X204976190Y-78254819D02*
X205071428Y-78254819D01*
X205071428Y-78254819D02*
X205166666Y-78207200D01*
X205166666Y-78207200D02*
X205214285Y-78159580D01*
X205214285Y-78159580D02*
X205261904Y-78064342D01*
X205261904Y-78064342D02*
X205309523Y-77873866D01*
X205309523Y-77873866D02*
X205309523Y-77635771D01*
X205309523Y-77635771D02*
X205261904Y-77445295D01*
X205261904Y-77445295D02*
X205214285Y-77350057D01*
X205214285Y-77350057D02*
X205166666Y-77302438D01*
X205166666Y-77302438D02*
X205071428Y-77254819D01*
X188094580Y-81902142D02*
X188142200Y-81854523D01*
X188142200Y-81854523D02*
X188189819Y-81711666D01*
X188189819Y-81711666D02*
X188189819Y-81616428D01*
X188189819Y-81616428D02*
X188142200Y-81473571D01*
X188142200Y-81473571D02*
X188046961Y-81378333D01*
X188046961Y-81378333D02*
X187951723Y-81330714D01*
X187951723Y-81330714D02*
X187761247Y-81283095D01*
X187761247Y-81283095D02*
X187618390Y-81283095D01*
X187618390Y-81283095D02*
X187427914Y-81330714D01*
X187427914Y-81330714D02*
X187332676Y-81378333D01*
X187332676Y-81378333D02*
X187237438Y-81473571D01*
X187237438Y-81473571D02*
X187189819Y-81616428D01*
X187189819Y-81616428D02*
X187189819Y-81711666D01*
X187189819Y-81711666D02*
X187237438Y-81854523D01*
X187237438Y-81854523D02*
X187285057Y-81902142D01*
X188189819Y-82854523D02*
X188189819Y-82283095D01*
X188189819Y-82568809D02*
X187189819Y-82568809D01*
X187189819Y-82568809D02*
X187332676Y-82473571D01*
X187332676Y-82473571D02*
X187427914Y-82378333D01*
X187427914Y-82378333D02*
X187475533Y-82283095D01*
X188189819Y-83330714D02*
X188189819Y-83521190D01*
X188189819Y-83521190D02*
X188142200Y-83616428D01*
X188142200Y-83616428D02*
X188094580Y-83664047D01*
X188094580Y-83664047D02*
X187951723Y-83759285D01*
X187951723Y-83759285D02*
X187761247Y-83806904D01*
X187761247Y-83806904D02*
X187380295Y-83806904D01*
X187380295Y-83806904D02*
X187285057Y-83759285D01*
X187285057Y-83759285D02*
X187237438Y-83711666D01*
X187237438Y-83711666D02*
X187189819Y-83616428D01*
X187189819Y-83616428D02*
X187189819Y-83425952D01*
X187189819Y-83425952D02*
X187237438Y-83330714D01*
X187237438Y-83330714D02*
X187285057Y-83283095D01*
X187285057Y-83283095D02*
X187380295Y-83235476D01*
X187380295Y-83235476D02*
X187618390Y-83235476D01*
X187618390Y-83235476D02*
X187713628Y-83283095D01*
X187713628Y-83283095D02*
X187761247Y-83330714D01*
X187761247Y-83330714D02*
X187808866Y-83425952D01*
X187808866Y-83425952D02*
X187808866Y-83616428D01*
X187808866Y-83616428D02*
X187761247Y-83711666D01*
X187761247Y-83711666D02*
X187713628Y-83759285D01*
X187713628Y-83759285D02*
X187618390Y-83806904D01*
X197402819Y-100016666D02*
X198117104Y-100016666D01*
X198117104Y-100016666D02*
X198259961Y-99969047D01*
X198259961Y-99969047D02*
X198355200Y-99873809D01*
X198355200Y-99873809D02*
X198402819Y-99730952D01*
X198402819Y-99730952D02*
X198402819Y-99635714D01*
X197736152Y-100921428D02*
X198402819Y-100921428D01*
X197355200Y-100683333D02*
X198069485Y-100445238D01*
X198069485Y-100445238D02*
X198069485Y-101064285D01*
X196016666Y-75814819D02*
X196349999Y-75338628D01*
X196588094Y-75814819D02*
X196588094Y-74814819D01*
X196588094Y-74814819D02*
X196207142Y-74814819D01*
X196207142Y-74814819D02*
X196111904Y-74862438D01*
X196111904Y-74862438D02*
X196064285Y-74910057D01*
X196064285Y-74910057D02*
X196016666Y-75005295D01*
X196016666Y-75005295D02*
X196016666Y-75148152D01*
X196016666Y-75148152D02*
X196064285Y-75243390D01*
X196064285Y-75243390D02*
X196111904Y-75291009D01*
X196111904Y-75291009D02*
X196207142Y-75338628D01*
X196207142Y-75338628D02*
X196588094Y-75338628D01*
X195111904Y-74814819D02*
X195588094Y-74814819D01*
X195588094Y-74814819D02*
X195635713Y-75291009D01*
X195635713Y-75291009D02*
X195588094Y-75243390D01*
X195588094Y-75243390D02*
X195492856Y-75195771D01*
X195492856Y-75195771D02*
X195254761Y-75195771D01*
X195254761Y-75195771D02*
X195159523Y-75243390D01*
X195159523Y-75243390D02*
X195111904Y-75291009D01*
X195111904Y-75291009D02*
X195064285Y-75386247D01*
X195064285Y-75386247D02*
X195064285Y-75624342D01*
X195064285Y-75624342D02*
X195111904Y-75719580D01*
X195111904Y-75719580D02*
X195159523Y-75767200D01*
X195159523Y-75767200D02*
X195254761Y-75814819D01*
X195254761Y-75814819D02*
X195492856Y-75814819D01*
X195492856Y-75814819D02*
X195588094Y-75767200D01*
X195588094Y-75767200D02*
X195635713Y-75719580D01*
X183512857Y-92744580D02*
X183560476Y-92792200D01*
X183560476Y-92792200D02*
X183703333Y-92839819D01*
X183703333Y-92839819D02*
X183798571Y-92839819D01*
X183798571Y-92839819D02*
X183941428Y-92792200D01*
X183941428Y-92792200D02*
X184036666Y-92696961D01*
X184036666Y-92696961D02*
X184084285Y-92601723D01*
X184084285Y-92601723D02*
X184131904Y-92411247D01*
X184131904Y-92411247D02*
X184131904Y-92268390D01*
X184131904Y-92268390D02*
X184084285Y-92077914D01*
X184084285Y-92077914D02*
X184036666Y-91982676D01*
X184036666Y-91982676D02*
X183941428Y-91887438D01*
X183941428Y-91887438D02*
X183798571Y-91839819D01*
X183798571Y-91839819D02*
X183703333Y-91839819D01*
X183703333Y-91839819D02*
X183560476Y-91887438D01*
X183560476Y-91887438D02*
X183512857Y-91935057D01*
X183179523Y-91839819D02*
X182560476Y-91839819D01*
X182560476Y-91839819D02*
X182893809Y-92220771D01*
X182893809Y-92220771D02*
X182750952Y-92220771D01*
X182750952Y-92220771D02*
X182655714Y-92268390D01*
X182655714Y-92268390D02*
X182608095Y-92316009D01*
X182608095Y-92316009D02*
X182560476Y-92411247D01*
X182560476Y-92411247D02*
X182560476Y-92649342D01*
X182560476Y-92649342D02*
X182608095Y-92744580D01*
X182608095Y-92744580D02*
X182655714Y-92792200D01*
X182655714Y-92792200D02*
X182750952Y-92839819D01*
X182750952Y-92839819D02*
X183036666Y-92839819D01*
X183036666Y-92839819D02*
X183131904Y-92792200D01*
X183131904Y-92792200D02*
X183179523Y-92744580D01*
X181989047Y-92268390D02*
X182084285Y-92220771D01*
X182084285Y-92220771D02*
X182131904Y-92173152D01*
X182131904Y-92173152D02*
X182179523Y-92077914D01*
X182179523Y-92077914D02*
X182179523Y-92030295D01*
X182179523Y-92030295D02*
X182131904Y-91935057D01*
X182131904Y-91935057D02*
X182084285Y-91887438D01*
X182084285Y-91887438D02*
X181989047Y-91839819D01*
X181989047Y-91839819D02*
X181798571Y-91839819D01*
X181798571Y-91839819D02*
X181703333Y-91887438D01*
X181703333Y-91887438D02*
X181655714Y-91935057D01*
X181655714Y-91935057D02*
X181608095Y-92030295D01*
X181608095Y-92030295D02*
X181608095Y-92077914D01*
X181608095Y-92077914D02*
X181655714Y-92173152D01*
X181655714Y-92173152D02*
X181703333Y-92220771D01*
X181703333Y-92220771D02*
X181798571Y-92268390D01*
X181798571Y-92268390D02*
X181989047Y-92268390D01*
X181989047Y-92268390D02*
X182084285Y-92316009D01*
X182084285Y-92316009D02*
X182131904Y-92363628D01*
X182131904Y-92363628D02*
X182179523Y-92458866D01*
X182179523Y-92458866D02*
X182179523Y-92649342D01*
X182179523Y-92649342D02*
X182131904Y-92744580D01*
X182131904Y-92744580D02*
X182084285Y-92792200D01*
X182084285Y-92792200D02*
X181989047Y-92839819D01*
X181989047Y-92839819D02*
X181798571Y-92839819D01*
X181798571Y-92839819D02*
X181703333Y-92792200D01*
X181703333Y-92792200D02*
X181655714Y-92744580D01*
X181655714Y-92744580D02*
X181608095Y-92649342D01*
X181608095Y-92649342D02*
X181608095Y-92458866D01*
X181608095Y-92458866D02*
X181655714Y-92363628D01*
X181655714Y-92363628D02*
X181703333Y-92316009D01*
X181703333Y-92316009D02*
X181798571Y-92268390D01*
X195019047Y-71831819D02*
X195019047Y-70831819D01*
X195019047Y-70831819D02*
X194447619Y-71831819D01*
X194447619Y-71831819D02*
X194447619Y-70831819D01*
X193400000Y-71831819D02*
X193733333Y-71355628D01*
X193971428Y-71831819D02*
X193971428Y-70831819D01*
X193971428Y-70831819D02*
X193590476Y-70831819D01*
X193590476Y-70831819D02*
X193495238Y-70879438D01*
X193495238Y-70879438D02*
X193447619Y-70927057D01*
X193447619Y-70927057D02*
X193400000Y-71022295D01*
X193400000Y-71022295D02*
X193400000Y-71165152D01*
X193400000Y-71165152D02*
X193447619Y-71260390D01*
X193447619Y-71260390D02*
X193495238Y-71308009D01*
X193495238Y-71308009D02*
X193590476Y-71355628D01*
X193590476Y-71355628D02*
X193971428Y-71355628D01*
X193019047Y-71784200D02*
X192876190Y-71831819D01*
X192876190Y-71831819D02*
X192638095Y-71831819D01*
X192638095Y-71831819D02*
X192542857Y-71784200D01*
X192542857Y-71784200D02*
X192495238Y-71736580D01*
X192495238Y-71736580D02*
X192447619Y-71641342D01*
X192447619Y-71641342D02*
X192447619Y-71546104D01*
X192447619Y-71546104D02*
X192495238Y-71450866D01*
X192495238Y-71450866D02*
X192542857Y-71403247D01*
X192542857Y-71403247D02*
X192638095Y-71355628D01*
X192638095Y-71355628D02*
X192828571Y-71308009D01*
X192828571Y-71308009D02*
X192923809Y-71260390D01*
X192923809Y-71260390D02*
X192971428Y-71212771D01*
X192971428Y-71212771D02*
X193019047Y-71117533D01*
X193019047Y-71117533D02*
X193019047Y-71022295D01*
X193019047Y-71022295D02*
X192971428Y-70927057D01*
X192971428Y-70927057D02*
X192923809Y-70879438D01*
X192923809Y-70879438D02*
X192828571Y-70831819D01*
X192828571Y-70831819D02*
X192590476Y-70831819D01*
X192590476Y-70831819D02*
X192447619Y-70879438D01*
X192161904Y-70831819D02*
X191590476Y-70831819D01*
X191876190Y-71831819D02*
X191876190Y-70831819D01*
X190733333Y-71831819D02*
X191304761Y-71831819D01*
X191019047Y-71831819D02*
X191019047Y-70831819D01*
X191019047Y-70831819D02*
X191114285Y-70974676D01*
X191114285Y-70974676D02*
X191209523Y-71069914D01*
X191209523Y-71069914D02*
X191304761Y-71117533D01*
X203064580Y-74857142D02*
X203112200Y-74809523D01*
X203112200Y-74809523D02*
X203159819Y-74666666D01*
X203159819Y-74666666D02*
X203159819Y-74571428D01*
X203159819Y-74571428D02*
X203112200Y-74428571D01*
X203112200Y-74428571D02*
X203016961Y-74333333D01*
X203016961Y-74333333D02*
X202921723Y-74285714D01*
X202921723Y-74285714D02*
X202731247Y-74238095D01*
X202731247Y-74238095D02*
X202588390Y-74238095D01*
X202588390Y-74238095D02*
X202397914Y-74285714D01*
X202397914Y-74285714D02*
X202302676Y-74333333D01*
X202302676Y-74333333D02*
X202207438Y-74428571D01*
X202207438Y-74428571D02*
X202159819Y-74571428D01*
X202159819Y-74571428D02*
X202159819Y-74666666D01*
X202159819Y-74666666D02*
X202207438Y-74809523D01*
X202207438Y-74809523D02*
X202255057Y-74857142D01*
X202159819Y-75190476D02*
X202159819Y-75809523D01*
X202159819Y-75809523D02*
X202540771Y-75476190D01*
X202540771Y-75476190D02*
X202540771Y-75619047D01*
X202540771Y-75619047D02*
X202588390Y-75714285D01*
X202588390Y-75714285D02*
X202636009Y-75761904D01*
X202636009Y-75761904D02*
X202731247Y-75809523D01*
X202731247Y-75809523D02*
X202969342Y-75809523D01*
X202969342Y-75809523D02*
X203064580Y-75761904D01*
X203064580Y-75761904D02*
X203112200Y-75714285D01*
X203112200Y-75714285D02*
X203159819Y-75619047D01*
X203159819Y-75619047D02*
X203159819Y-75333333D01*
X203159819Y-75333333D02*
X203112200Y-75238095D01*
X203112200Y-75238095D02*
X203064580Y-75190476D01*
X202255057Y-76190476D02*
X202207438Y-76238095D01*
X202207438Y-76238095D02*
X202159819Y-76333333D01*
X202159819Y-76333333D02*
X202159819Y-76571428D01*
X202159819Y-76571428D02*
X202207438Y-76666666D01*
X202207438Y-76666666D02*
X202255057Y-76714285D01*
X202255057Y-76714285D02*
X202350295Y-76761904D01*
X202350295Y-76761904D02*
X202445533Y-76761904D01*
X202445533Y-76761904D02*
X202588390Y-76714285D01*
X202588390Y-76714285D02*
X203159819Y-76142857D01*
X203159819Y-76142857D02*
X203159819Y-76761904D01*
X186052857Y-96654819D02*
X186386190Y-96178628D01*
X186624285Y-96654819D02*
X186624285Y-95654819D01*
X186624285Y-95654819D02*
X186243333Y-95654819D01*
X186243333Y-95654819D02*
X186148095Y-95702438D01*
X186148095Y-95702438D02*
X186100476Y-95750057D01*
X186100476Y-95750057D02*
X186052857Y-95845295D01*
X186052857Y-95845295D02*
X186052857Y-95988152D01*
X186052857Y-95988152D02*
X186100476Y-96083390D01*
X186100476Y-96083390D02*
X186148095Y-96131009D01*
X186148095Y-96131009D02*
X186243333Y-96178628D01*
X186243333Y-96178628D02*
X186624285Y-96178628D01*
X185100476Y-96654819D02*
X185671904Y-96654819D01*
X185386190Y-96654819D02*
X185386190Y-95654819D01*
X185386190Y-95654819D02*
X185481428Y-95797676D01*
X185481428Y-95797676D02*
X185576666Y-95892914D01*
X185576666Y-95892914D02*
X185671904Y-95940533D01*
X184767142Y-95654819D02*
X184148095Y-95654819D01*
X184148095Y-95654819D02*
X184481428Y-96035771D01*
X184481428Y-96035771D02*
X184338571Y-96035771D01*
X184338571Y-96035771D02*
X184243333Y-96083390D01*
X184243333Y-96083390D02*
X184195714Y-96131009D01*
X184195714Y-96131009D02*
X184148095Y-96226247D01*
X184148095Y-96226247D02*
X184148095Y-96464342D01*
X184148095Y-96464342D02*
X184195714Y-96559580D01*
X184195714Y-96559580D02*
X184243333Y-96607200D01*
X184243333Y-96607200D02*
X184338571Y-96654819D01*
X184338571Y-96654819D02*
X184624285Y-96654819D01*
X184624285Y-96654819D02*
X184719523Y-96607200D01*
X184719523Y-96607200D02*
X184767142Y-96559580D01*
X193539580Y-104507142D02*
X193587200Y-104459523D01*
X193587200Y-104459523D02*
X193634819Y-104316666D01*
X193634819Y-104316666D02*
X193634819Y-104221428D01*
X193634819Y-104221428D02*
X193587200Y-104078571D01*
X193587200Y-104078571D02*
X193491961Y-103983333D01*
X193491961Y-103983333D02*
X193396723Y-103935714D01*
X193396723Y-103935714D02*
X193206247Y-103888095D01*
X193206247Y-103888095D02*
X193063390Y-103888095D01*
X193063390Y-103888095D02*
X192872914Y-103935714D01*
X192872914Y-103935714D02*
X192777676Y-103983333D01*
X192777676Y-103983333D02*
X192682438Y-104078571D01*
X192682438Y-104078571D02*
X192634819Y-104221428D01*
X192634819Y-104221428D02*
X192634819Y-104316666D01*
X192634819Y-104316666D02*
X192682438Y-104459523D01*
X192682438Y-104459523D02*
X192730057Y-104507142D01*
X192634819Y-104840476D02*
X192634819Y-105459523D01*
X192634819Y-105459523D02*
X193015771Y-105126190D01*
X193015771Y-105126190D02*
X193015771Y-105269047D01*
X193015771Y-105269047D02*
X193063390Y-105364285D01*
X193063390Y-105364285D02*
X193111009Y-105411904D01*
X193111009Y-105411904D02*
X193206247Y-105459523D01*
X193206247Y-105459523D02*
X193444342Y-105459523D01*
X193444342Y-105459523D02*
X193539580Y-105411904D01*
X193539580Y-105411904D02*
X193587200Y-105364285D01*
X193587200Y-105364285D02*
X193634819Y-105269047D01*
X193634819Y-105269047D02*
X193634819Y-104983333D01*
X193634819Y-104983333D02*
X193587200Y-104888095D01*
X193587200Y-104888095D02*
X193539580Y-104840476D01*
X192634819Y-106078571D02*
X192634819Y-106173809D01*
X192634819Y-106173809D02*
X192682438Y-106269047D01*
X192682438Y-106269047D02*
X192730057Y-106316666D01*
X192730057Y-106316666D02*
X192825295Y-106364285D01*
X192825295Y-106364285D02*
X193015771Y-106411904D01*
X193015771Y-106411904D02*
X193253866Y-106411904D01*
X193253866Y-106411904D02*
X193444342Y-106364285D01*
X193444342Y-106364285D02*
X193539580Y-106316666D01*
X193539580Y-106316666D02*
X193587200Y-106269047D01*
X193587200Y-106269047D02*
X193634819Y-106173809D01*
X193634819Y-106173809D02*
X193634819Y-106078571D01*
X193634819Y-106078571D02*
X193587200Y-105983333D01*
X193587200Y-105983333D02*
X193539580Y-105935714D01*
X193539580Y-105935714D02*
X193444342Y-105888095D01*
X193444342Y-105888095D02*
X193253866Y-105840476D01*
X193253866Y-105840476D02*
X193015771Y-105840476D01*
X193015771Y-105840476D02*
X192825295Y-105888095D01*
X192825295Y-105888095D02*
X192730057Y-105935714D01*
X192730057Y-105935714D02*
X192682438Y-105983333D01*
X192682438Y-105983333D02*
X192634819Y-106078571D01*
X190842857Y-75459580D02*
X190890476Y-75507200D01*
X190890476Y-75507200D02*
X191033333Y-75554819D01*
X191033333Y-75554819D02*
X191128571Y-75554819D01*
X191128571Y-75554819D02*
X191271428Y-75507200D01*
X191271428Y-75507200D02*
X191366666Y-75411961D01*
X191366666Y-75411961D02*
X191414285Y-75316723D01*
X191414285Y-75316723D02*
X191461904Y-75126247D01*
X191461904Y-75126247D02*
X191461904Y-74983390D01*
X191461904Y-74983390D02*
X191414285Y-74792914D01*
X191414285Y-74792914D02*
X191366666Y-74697676D01*
X191366666Y-74697676D02*
X191271428Y-74602438D01*
X191271428Y-74602438D02*
X191128571Y-74554819D01*
X191128571Y-74554819D02*
X191033333Y-74554819D01*
X191033333Y-74554819D02*
X190890476Y-74602438D01*
X190890476Y-74602438D02*
X190842857Y-74650057D01*
X189890476Y-75554819D02*
X190461904Y-75554819D01*
X190176190Y-75554819D02*
X190176190Y-74554819D01*
X190176190Y-74554819D02*
X190271428Y-74697676D01*
X190271428Y-74697676D02*
X190366666Y-74792914D01*
X190366666Y-74792914D02*
X190461904Y-74840533D01*
X189557142Y-74554819D02*
X188890476Y-74554819D01*
X188890476Y-74554819D02*
X189319047Y-75554819D01*
X189357200Y-73404762D02*
X189404819Y-73547619D01*
X189404819Y-73547619D02*
X189404819Y-73785714D01*
X189404819Y-73785714D02*
X189357200Y-73880952D01*
X189357200Y-73880952D02*
X189309580Y-73928571D01*
X189309580Y-73928571D02*
X189214342Y-73976190D01*
X189214342Y-73976190D02*
X189119104Y-73976190D01*
X189119104Y-73976190D02*
X189023866Y-73928571D01*
X189023866Y-73928571D02*
X188976247Y-73880952D01*
X188976247Y-73880952D02*
X188928628Y-73785714D01*
X188928628Y-73785714D02*
X188881009Y-73595238D01*
X188881009Y-73595238D02*
X188833390Y-73500000D01*
X188833390Y-73500000D02*
X188785771Y-73452381D01*
X188785771Y-73452381D02*
X188690533Y-73404762D01*
X188690533Y-73404762D02*
X188595295Y-73404762D01*
X188595295Y-73404762D02*
X188500057Y-73452381D01*
X188500057Y-73452381D02*
X188452438Y-73500000D01*
X188452438Y-73500000D02*
X188404819Y-73595238D01*
X188404819Y-73595238D02*
X188404819Y-73833333D01*
X188404819Y-73833333D02*
X188452438Y-73976190D01*
X188404819Y-74309524D02*
X189404819Y-74547619D01*
X189404819Y-74547619D02*
X188690533Y-74738095D01*
X188690533Y-74738095D02*
X189404819Y-74928571D01*
X189404819Y-74928571D02*
X188404819Y-75166667D01*
X189404819Y-75547619D02*
X188404819Y-75547619D01*
X188404819Y-75547619D02*
X188404819Y-75785714D01*
X188404819Y-75785714D02*
X188452438Y-75928571D01*
X188452438Y-75928571D02*
X188547676Y-76023809D01*
X188547676Y-76023809D02*
X188642914Y-76071428D01*
X188642914Y-76071428D02*
X188833390Y-76119047D01*
X188833390Y-76119047D02*
X188976247Y-76119047D01*
X188976247Y-76119047D02*
X189166723Y-76071428D01*
X189166723Y-76071428D02*
X189261961Y-76023809D01*
X189261961Y-76023809D02*
X189357200Y-75928571D01*
X189357200Y-75928571D02*
X189404819Y-75785714D01*
X189404819Y-75785714D02*
X189404819Y-75547619D01*
X189404819Y-76547619D02*
X188404819Y-76547619D01*
X188404819Y-77214285D02*
X188404819Y-77404761D01*
X188404819Y-77404761D02*
X188452438Y-77499999D01*
X188452438Y-77499999D02*
X188547676Y-77595237D01*
X188547676Y-77595237D02*
X188738152Y-77642856D01*
X188738152Y-77642856D02*
X189071485Y-77642856D01*
X189071485Y-77642856D02*
X189261961Y-77595237D01*
X189261961Y-77595237D02*
X189357200Y-77499999D01*
X189357200Y-77499999D02*
X189404819Y-77404761D01*
X189404819Y-77404761D02*
X189404819Y-77214285D01*
X189404819Y-77214285D02*
X189357200Y-77119047D01*
X189357200Y-77119047D02*
X189261961Y-77023809D01*
X189261961Y-77023809D02*
X189071485Y-76976190D01*
X189071485Y-76976190D02*
X188738152Y-76976190D01*
X188738152Y-76976190D02*
X188547676Y-77023809D01*
X188547676Y-77023809D02*
X188452438Y-77119047D01*
X188452438Y-77119047D02*
X188404819Y-77214285D01*
X189404819Y-78595237D02*
X189404819Y-78023809D01*
X189404819Y-78309523D02*
X188404819Y-78309523D01*
X188404819Y-78309523D02*
X188547676Y-78214285D01*
X188547676Y-78214285D02*
X188642914Y-78119047D01*
X188642914Y-78119047D02*
X188690533Y-78023809D01*
X191307200Y-73211905D02*
X191354819Y-73354762D01*
X191354819Y-73354762D02*
X191354819Y-73592857D01*
X191354819Y-73592857D02*
X191307200Y-73688095D01*
X191307200Y-73688095D02*
X191259580Y-73735714D01*
X191259580Y-73735714D02*
X191164342Y-73783333D01*
X191164342Y-73783333D02*
X191069104Y-73783333D01*
X191069104Y-73783333D02*
X190973866Y-73735714D01*
X190973866Y-73735714D02*
X190926247Y-73688095D01*
X190926247Y-73688095D02*
X190878628Y-73592857D01*
X190878628Y-73592857D02*
X190831009Y-73402381D01*
X190831009Y-73402381D02*
X190783390Y-73307143D01*
X190783390Y-73307143D02*
X190735771Y-73259524D01*
X190735771Y-73259524D02*
X190640533Y-73211905D01*
X190640533Y-73211905D02*
X190545295Y-73211905D01*
X190545295Y-73211905D02*
X190450057Y-73259524D01*
X190450057Y-73259524D02*
X190402438Y-73307143D01*
X190402438Y-73307143D02*
X190354819Y-73402381D01*
X190354819Y-73402381D02*
X190354819Y-73640476D01*
X190354819Y-73640476D02*
X190402438Y-73783333D01*
X190354819Y-74116667D02*
X191354819Y-74354762D01*
X191354819Y-74354762D02*
X190640533Y-74545238D01*
X190640533Y-74545238D02*
X191354819Y-74735714D01*
X191354819Y-74735714D02*
X190354819Y-74973810D01*
X191259580Y-75926190D02*
X191307200Y-75878571D01*
X191307200Y-75878571D02*
X191354819Y-75735714D01*
X191354819Y-75735714D02*
X191354819Y-75640476D01*
X191354819Y-75640476D02*
X191307200Y-75497619D01*
X191307200Y-75497619D02*
X191211961Y-75402381D01*
X191211961Y-75402381D02*
X191116723Y-75354762D01*
X191116723Y-75354762D02*
X190926247Y-75307143D01*
X190926247Y-75307143D02*
X190783390Y-75307143D01*
X190783390Y-75307143D02*
X190592914Y-75354762D01*
X190592914Y-75354762D02*
X190497676Y-75402381D01*
X190497676Y-75402381D02*
X190402438Y-75497619D01*
X190402438Y-75497619D02*
X190354819Y-75640476D01*
X190354819Y-75640476D02*
X190354819Y-75735714D01*
X190354819Y-75735714D02*
X190402438Y-75878571D01*
X190402438Y-75878571D02*
X190450057Y-75926190D01*
X191354819Y-76830952D02*
X191354819Y-76354762D01*
X191354819Y-76354762D02*
X190354819Y-76354762D01*
X191354819Y-77164286D02*
X190354819Y-77164286D01*
X191354819Y-77735714D02*
X190783390Y-77307143D01*
X190354819Y-77735714D02*
X190926247Y-77164286D01*
X191354819Y-78688095D02*
X191354819Y-78116667D01*
X191354819Y-78402381D02*
X190354819Y-78402381D01*
X190354819Y-78402381D02*
X190497676Y-78307143D01*
X190497676Y-78307143D02*
X190592914Y-78211905D01*
X190592914Y-78211905D02*
X190640533Y-78116667D01*
X180916666Y-99739580D02*
X180964285Y-99787200D01*
X180964285Y-99787200D02*
X181107142Y-99834819D01*
X181107142Y-99834819D02*
X181202380Y-99834819D01*
X181202380Y-99834819D02*
X181345237Y-99787200D01*
X181345237Y-99787200D02*
X181440475Y-99691961D01*
X181440475Y-99691961D02*
X181488094Y-99596723D01*
X181488094Y-99596723D02*
X181535713Y-99406247D01*
X181535713Y-99406247D02*
X181535713Y-99263390D01*
X181535713Y-99263390D02*
X181488094Y-99072914D01*
X181488094Y-99072914D02*
X181440475Y-98977676D01*
X181440475Y-98977676D02*
X181345237Y-98882438D01*
X181345237Y-98882438D02*
X181202380Y-98834819D01*
X181202380Y-98834819D02*
X181107142Y-98834819D01*
X181107142Y-98834819D02*
X180964285Y-98882438D01*
X180964285Y-98882438D02*
X180916666Y-98930057D01*
X180535713Y-98930057D02*
X180488094Y-98882438D01*
X180488094Y-98882438D02*
X180392856Y-98834819D01*
X180392856Y-98834819D02*
X180154761Y-98834819D01*
X180154761Y-98834819D02*
X180059523Y-98882438D01*
X180059523Y-98882438D02*
X180011904Y-98930057D01*
X180011904Y-98930057D02*
X179964285Y-99025295D01*
X179964285Y-99025295D02*
X179964285Y-99120533D01*
X179964285Y-99120533D02*
X180011904Y-99263390D01*
X180011904Y-99263390D02*
X180583332Y-99834819D01*
X180583332Y-99834819D02*
X179964285Y-99834819D01*
X197961904Y-94854819D02*
X197961904Y-95664342D01*
X197961904Y-95664342D02*
X197914285Y-95759580D01*
X197914285Y-95759580D02*
X197866666Y-95807200D01*
X197866666Y-95807200D02*
X197771428Y-95854819D01*
X197771428Y-95854819D02*
X197580952Y-95854819D01*
X197580952Y-95854819D02*
X197485714Y-95807200D01*
X197485714Y-95807200D02*
X197438095Y-95759580D01*
X197438095Y-95759580D02*
X197390476Y-95664342D01*
X197390476Y-95664342D02*
X197390476Y-94854819D01*
X196961904Y-94950057D02*
X196914285Y-94902438D01*
X196914285Y-94902438D02*
X196819047Y-94854819D01*
X196819047Y-94854819D02*
X196580952Y-94854819D01*
X196580952Y-94854819D02*
X196485714Y-94902438D01*
X196485714Y-94902438D02*
X196438095Y-94950057D01*
X196438095Y-94950057D02*
X196390476Y-95045295D01*
X196390476Y-95045295D02*
X196390476Y-95140533D01*
X196390476Y-95140533D02*
X196438095Y-95283390D01*
X196438095Y-95283390D02*
X197009523Y-95854819D01*
X197009523Y-95854819D02*
X196390476Y-95854819D01*
X183159580Y-100833333D02*
X183207200Y-100785714D01*
X183207200Y-100785714D02*
X183254819Y-100642857D01*
X183254819Y-100642857D02*
X183254819Y-100547619D01*
X183254819Y-100547619D02*
X183207200Y-100404762D01*
X183207200Y-100404762D02*
X183111961Y-100309524D01*
X183111961Y-100309524D02*
X183016723Y-100261905D01*
X183016723Y-100261905D02*
X182826247Y-100214286D01*
X182826247Y-100214286D02*
X182683390Y-100214286D01*
X182683390Y-100214286D02*
X182492914Y-100261905D01*
X182492914Y-100261905D02*
X182397676Y-100309524D01*
X182397676Y-100309524D02*
X182302438Y-100404762D01*
X182302438Y-100404762D02*
X182254819Y-100547619D01*
X182254819Y-100547619D02*
X182254819Y-100642857D01*
X182254819Y-100642857D02*
X182302438Y-100785714D01*
X182302438Y-100785714D02*
X182350057Y-100833333D01*
X183254819Y-101785714D02*
X183254819Y-101214286D01*
X183254819Y-101500000D02*
X182254819Y-101500000D01*
X182254819Y-101500000D02*
X182397676Y-101404762D01*
X182397676Y-101404762D02*
X182492914Y-101309524D01*
X182492914Y-101309524D02*
X182540533Y-101214286D01*
X189122857Y-93574580D02*
X189170476Y-93622200D01*
X189170476Y-93622200D02*
X189313333Y-93669819D01*
X189313333Y-93669819D02*
X189408571Y-93669819D01*
X189408571Y-93669819D02*
X189551428Y-93622200D01*
X189551428Y-93622200D02*
X189646666Y-93526961D01*
X189646666Y-93526961D02*
X189694285Y-93431723D01*
X189694285Y-93431723D02*
X189741904Y-93241247D01*
X189741904Y-93241247D02*
X189741904Y-93098390D01*
X189741904Y-93098390D02*
X189694285Y-92907914D01*
X189694285Y-92907914D02*
X189646666Y-92812676D01*
X189646666Y-92812676D02*
X189551428Y-92717438D01*
X189551428Y-92717438D02*
X189408571Y-92669819D01*
X189408571Y-92669819D02*
X189313333Y-92669819D01*
X189313333Y-92669819D02*
X189170476Y-92717438D01*
X189170476Y-92717438D02*
X189122857Y-92765057D01*
X188170476Y-93669819D02*
X188741904Y-93669819D01*
X188456190Y-93669819D02*
X188456190Y-92669819D01*
X188456190Y-92669819D02*
X188551428Y-92812676D01*
X188551428Y-92812676D02*
X188646666Y-92907914D01*
X188646666Y-92907914D02*
X188741904Y-92955533D01*
X187265714Y-92669819D02*
X187741904Y-92669819D01*
X187741904Y-92669819D02*
X187789523Y-93146009D01*
X187789523Y-93146009D02*
X187741904Y-93098390D01*
X187741904Y-93098390D02*
X187646666Y-93050771D01*
X187646666Y-93050771D02*
X187408571Y-93050771D01*
X187408571Y-93050771D02*
X187313333Y-93098390D01*
X187313333Y-93098390D02*
X187265714Y-93146009D01*
X187265714Y-93146009D02*
X187218095Y-93241247D01*
X187218095Y-93241247D02*
X187218095Y-93479342D01*
X187218095Y-93479342D02*
X187265714Y-93574580D01*
X187265714Y-93574580D02*
X187313333Y-93622200D01*
X187313333Y-93622200D02*
X187408571Y-93669819D01*
X187408571Y-93669819D02*
X187646666Y-93669819D01*
X187646666Y-93669819D02*
X187741904Y-93622200D01*
X187741904Y-93622200D02*
X187789523Y-93574580D01*
X199712857Y-77699580D02*
X199760476Y-77747200D01*
X199760476Y-77747200D02*
X199903333Y-77794819D01*
X199903333Y-77794819D02*
X199998571Y-77794819D01*
X199998571Y-77794819D02*
X200141428Y-77747200D01*
X200141428Y-77747200D02*
X200236666Y-77651961D01*
X200236666Y-77651961D02*
X200284285Y-77556723D01*
X200284285Y-77556723D02*
X200331904Y-77366247D01*
X200331904Y-77366247D02*
X200331904Y-77223390D01*
X200331904Y-77223390D02*
X200284285Y-77032914D01*
X200284285Y-77032914D02*
X200236666Y-76937676D01*
X200236666Y-76937676D02*
X200141428Y-76842438D01*
X200141428Y-76842438D02*
X199998571Y-76794819D01*
X199998571Y-76794819D02*
X199903333Y-76794819D01*
X199903333Y-76794819D02*
X199760476Y-76842438D01*
X199760476Y-76842438D02*
X199712857Y-76890057D01*
X199379523Y-76794819D02*
X198760476Y-76794819D01*
X198760476Y-76794819D02*
X199093809Y-77175771D01*
X199093809Y-77175771D02*
X198950952Y-77175771D01*
X198950952Y-77175771D02*
X198855714Y-77223390D01*
X198855714Y-77223390D02*
X198808095Y-77271009D01*
X198808095Y-77271009D02*
X198760476Y-77366247D01*
X198760476Y-77366247D02*
X198760476Y-77604342D01*
X198760476Y-77604342D02*
X198808095Y-77699580D01*
X198808095Y-77699580D02*
X198855714Y-77747200D01*
X198855714Y-77747200D02*
X198950952Y-77794819D01*
X198950952Y-77794819D02*
X199236666Y-77794819D01*
X199236666Y-77794819D02*
X199331904Y-77747200D01*
X199331904Y-77747200D02*
X199379523Y-77699580D01*
X197903333Y-76794819D02*
X198093809Y-76794819D01*
X198093809Y-76794819D02*
X198189047Y-76842438D01*
X198189047Y-76842438D02*
X198236666Y-76890057D01*
X198236666Y-76890057D02*
X198331904Y-77032914D01*
X198331904Y-77032914D02*
X198379523Y-77223390D01*
X198379523Y-77223390D02*
X198379523Y-77604342D01*
X198379523Y-77604342D02*
X198331904Y-77699580D01*
X198331904Y-77699580D02*
X198284285Y-77747200D01*
X198284285Y-77747200D02*
X198189047Y-77794819D01*
X198189047Y-77794819D02*
X197998571Y-77794819D01*
X197998571Y-77794819D02*
X197903333Y-77747200D01*
X197903333Y-77747200D02*
X197855714Y-77699580D01*
X197855714Y-77699580D02*
X197808095Y-77604342D01*
X197808095Y-77604342D02*
X197808095Y-77366247D01*
X197808095Y-77366247D02*
X197855714Y-77271009D01*
X197855714Y-77271009D02*
X197903333Y-77223390D01*
X197903333Y-77223390D02*
X197998571Y-77175771D01*
X197998571Y-77175771D02*
X198189047Y-77175771D01*
X198189047Y-77175771D02*
X198284285Y-77223390D01*
X198284285Y-77223390D02*
X198331904Y-77271009D01*
X198331904Y-77271009D02*
X198379523Y-77366247D01*
D11*
X176574318Y-101288333D02*
X176574318Y-100683571D01*
X176574318Y-100683571D02*
X175304318Y-100683571D01*
X176574318Y-102376905D02*
X176574318Y-101651190D01*
X176574318Y-102014047D02*
X175304318Y-102014047D01*
X175304318Y-102014047D02*
X175485746Y-101893095D01*
X175485746Y-101893095D02*
X175606699Y-101772143D01*
X175606699Y-101772143D02*
X175667175Y-101651190D01*
D10*
X183313866Y-107392857D02*
X183313866Y-108154762D01*
X183694819Y-107773809D02*
X182932914Y-107773809D01*
X182790057Y-108583333D02*
X182742438Y-108630952D01*
X182742438Y-108630952D02*
X182694819Y-108726190D01*
X182694819Y-108726190D02*
X182694819Y-108964285D01*
X182694819Y-108964285D02*
X182742438Y-109059523D01*
X182742438Y-109059523D02*
X182790057Y-109107142D01*
X182790057Y-109107142D02*
X182885295Y-109154761D01*
X182885295Y-109154761D02*
X182980533Y-109154761D01*
X182980533Y-109154761D02*
X183123390Y-109107142D01*
X183123390Y-109107142D02*
X183694819Y-108535714D01*
X183694819Y-108535714D02*
X183694819Y-109154761D01*
X176676666Y-106424819D02*
X177009999Y-105948628D01*
X177248094Y-106424819D02*
X177248094Y-105424819D01*
X177248094Y-105424819D02*
X176867142Y-105424819D01*
X176867142Y-105424819D02*
X176771904Y-105472438D01*
X176771904Y-105472438D02*
X176724285Y-105520057D01*
X176724285Y-105520057D02*
X176676666Y-105615295D01*
X176676666Y-105615295D02*
X176676666Y-105758152D01*
X176676666Y-105758152D02*
X176724285Y-105853390D01*
X176724285Y-105853390D02*
X176771904Y-105901009D01*
X176771904Y-105901009D02*
X176867142Y-105948628D01*
X176867142Y-105948628D02*
X177248094Y-105948628D01*
X175724285Y-106424819D02*
X176295713Y-106424819D01*
X176009999Y-106424819D02*
X176009999Y-105424819D01*
X176009999Y-105424819D02*
X176105237Y-105567676D01*
X176105237Y-105567676D02*
X176200475Y-105662914D01*
X176200475Y-105662914D02*
X176295713Y-105710533D01*
X194076666Y-75854819D02*
X194409999Y-75378628D01*
X194648094Y-75854819D02*
X194648094Y-74854819D01*
X194648094Y-74854819D02*
X194267142Y-74854819D01*
X194267142Y-74854819D02*
X194171904Y-74902438D01*
X194171904Y-74902438D02*
X194124285Y-74950057D01*
X194124285Y-74950057D02*
X194076666Y-75045295D01*
X194076666Y-75045295D02*
X194076666Y-75188152D01*
X194076666Y-75188152D02*
X194124285Y-75283390D01*
X194124285Y-75283390D02*
X194171904Y-75331009D01*
X194171904Y-75331009D02*
X194267142Y-75378628D01*
X194267142Y-75378628D02*
X194648094Y-75378628D01*
X193219523Y-74854819D02*
X193409999Y-74854819D01*
X193409999Y-74854819D02*
X193505237Y-74902438D01*
X193505237Y-74902438D02*
X193552856Y-74950057D01*
X193552856Y-74950057D02*
X193648094Y-75092914D01*
X193648094Y-75092914D02*
X193695713Y-75283390D01*
X193695713Y-75283390D02*
X193695713Y-75664342D01*
X193695713Y-75664342D02*
X193648094Y-75759580D01*
X193648094Y-75759580D02*
X193600475Y-75807200D01*
X193600475Y-75807200D02*
X193505237Y-75854819D01*
X193505237Y-75854819D02*
X193314761Y-75854819D01*
X193314761Y-75854819D02*
X193219523Y-75807200D01*
X193219523Y-75807200D02*
X193171904Y-75759580D01*
X193171904Y-75759580D02*
X193124285Y-75664342D01*
X193124285Y-75664342D02*
X193124285Y-75426247D01*
X193124285Y-75426247D02*
X193171904Y-75331009D01*
X193171904Y-75331009D02*
X193219523Y-75283390D01*
X193219523Y-75283390D02*
X193314761Y-75235771D01*
X193314761Y-75235771D02*
X193505237Y-75235771D01*
X193505237Y-75235771D02*
X193600475Y-75283390D01*
X193600475Y-75283390D02*
X193648094Y-75331009D01*
X193648094Y-75331009D02*
X193695713Y-75426247D01*
X185774580Y-89487142D02*
X185822200Y-89439523D01*
X185822200Y-89439523D02*
X185869819Y-89296666D01*
X185869819Y-89296666D02*
X185869819Y-89201428D01*
X185869819Y-89201428D02*
X185822200Y-89058571D01*
X185822200Y-89058571D02*
X185726961Y-88963333D01*
X185726961Y-88963333D02*
X185631723Y-88915714D01*
X185631723Y-88915714D02*
X185441247Y-88868095D01*
X185441247Y-88868095D02*
X185298390Y-88868095D01*
X185298390Y-88868095D02*
X185107914Y-88915714D01*
X185107914Y-88915714D02*
X185012676Y-88963333D01*
X185012676Y-88963333D02*
X184917438Y-89058571D01*
X184917438Y-89058571D02*
X184869819Y-89201428D01*
X184869819Y-89201428D02*
X184869819Y-89296666D01*
X184869819Y-89296666D02*
X184917438Y-89439523D01*
X184917438Y-89439523D02*
X184965057Y-89487142D01*
X185869819Y-90439523D02*
X185869819Y-89868095D01*
X185869819Y-90153809D02*
X184869819Y-90153809D01*
X184869819Y-90153809D02*
X185012676Y-90058571D01*
X185012676Y-90058571D02*
X185107914Y-89963333D01*
X185107914Y-89963333D02*
X185155533Y-89868095D01*
X185298390Y-91010952D02*
X185250771Y-90915714D01*
X185250771Y-90915714D02*
X185203152Y-90868095D01*
X185203152Y-90868095D02*
X185107914Y-90820476D01*
X185107914Y-90820476D02*
X185060295Y-90820476D01*
X185060295Y-90820476D02*
X184965057Y-90868095D01*
X184965057Y-90868095D02*
X184917438Y-90915714D01*
X184917438Y-90915714D02*
X184869819Y-91010952D01*
X184869819Y-91010952D02*
X184869819Y-91201428D01*
X184869819Y-91201428D02*
X184917438Y-91296666D01*
X184917438Y-91296666D02*
X184965057Y-91344285D01*
X184965057Y-91344285D02*
X185060295Y-91391904D01*
X185060295Y-91391904D02*
X185107914Y-91391904D01*
X185107914Y-91391904D02*
X185203152Y-91344285D01*
X185203152Y-91344285D02*
X185250771Y-91296666D01*
X185250771Y-91296666D02*
X185298390Y-91201428D01*
X185298390Y-91201428D02*
X185298390Y-91010952D01*
X185298390Y-91010952D02*
X185346009Y-90915714D01*
X185346009Y-90915714D02*
X185393628Y-90868095D01*
X185393628Y-90868095D02*
X185488866Y-90820476D01*
X185488866Y-90820476D02*
X185679342Y-90820476D01*
X185679342Y-90820476D02*
X185774580Y-90868095D01*
X185774580Y-90868095D02*
X185822200Y-90915714D01*
X185822200Y-90915714D02*
X185869819Y-91010952D01*
X185869819Y-91010952D02*
X185869819Y-91201428D01*
X185869819Y-91201428D02*
X185822200Y-91296666D01*
X185822200Y-91296666D02*
X185774580Y-91344285D01*
X185774580Y-91344285D02*
X185679342Y-91391904D01*
X185679342Y-91391904D02*
X185488866Y-91391904D01*
X185488866Y-91391904D02*
X185393628Y-91344285D01*
X185393628Y-91344285D02*
X185346009Y-91296666D01*
X185346009Y-91296666D02*
X185298390Y-91201428D01*
X208789580Y-89357142D02*
X208837200Y-89309523D01*
X208837200Y-89309523D02*
X208884819Y-89166666D01*
X208884819Y-89166666D02*
X208884819Y-89071428D01*
X208884819Y-89071428D02*
X208837200Y-88928571D01*
X208837200Y-88928571D02*
X208741961Y-88833333D01*
X208741961Y-88833333D02*
X208646723Y-88785714D01*
X208646723Y-88785714D02*
X208456247Y-88738095D01*
X208456247Y-88738095D02*
X208313390Y-88738095D01*
X208313390Y-88738095D02*
X208122914Y-88785714D01*
X208122914Y-88785714D02*
X208027676Y-88833333D01*
X208027676Y-88833333D02*
X207932438Y-88928571D01*
X207932438Y-88928571D02*
X207884819Y-89071428D01*
X207884819Y-89071428D02*
X207884819Y-89166666D01*
X207884819Y-89166666D02*
X207932438Y-89309523D01*
X207932438Y-89309523D02*
X207980057Y-89357142D01*
X207884819Y-89690476D02*
X207884819Y-90309523D01*
X207884819Y-90309523D02*
X208265771Y-89976190D01*
X208265771Y-89976190D02*
X208265771Y-90119047D01*
X208265771Y-90119047D02*
X208313390Y-90214285D01*
X208313390Y-90214285D02*
X208361009Y-90261904D01*
X208361009Y-90261904D02*
X208456247Y-90309523D01*
X208456247Y-90309523D02*
X208694342Y-90309523D01*
X208694342Y-90309523D02*
X208789580Y-90261904D01*
X208789580Y-90261904D02*
X208837200Y-90214285D01*
X208837200Y-90214285D02*
X208884819Y-90119047D01*
X208884819Y-90119047D02*
X208884819Y-89833333D01*
X208884819Y-89833333D02*
X208837200Y-89738095D01*
X208837200Y-89738095D02*
X208789580Y-89690476D01*
X207884819Y-90642857D02*
X207884819Y-91261904D01*
X207884819Y-91261904D02*
X208265771Y-90928571D01*
X208265771Y-90928571D02*
X208265771Y-91071428D01*
X208265771Y-91071428D02*
X208313390Y-91166666D01*
X208313390Y-91166666D02*
X208361009Y-91214285D01*
X208361009Y-91214285D02*
X208456247Y-91261904D01*
X208456247Y-91261904D02*
X208694342Y-91261904D01*
X208694342Y-91261904D02*
X208789580Y-91214285D01*
X208789580Y-91214285D02*
X208837200Y-91166666D01*
X208837200Y-91166666D02*
X208884819Y-91071428D01*
X208884819Y-91071428D02*
X208884819Y-90785714D01*
X208884819Y-90785714D02*
X208837200Y-90690476D01*
X208837200Y-90690476D02*
X208789580Y-90642857D01*
X190373866Y-107442857D02*
X190373866Y-108204762D01*
X189850057Y-108633333D02*
X189802438Y-108680952D01*
X189802438Y-108680952D02*
X189754819Y-108776190D01*
X189754819Y-108776190D02*
X189754819Y-109014285D01*
X189754819Y-109014285D02*
X189802438Y-109109523D01*
X189802438Y-109109523D02*
X189850057Y-109157142D01*
X189850057Y-109157142D02*
X189945295Y-109204761D01*
X189945295Y-109204761D02*
X190040533Y-109204761D01*
X190040533Y-109204761D02*
X190183390Y-109157142D01*
X190183390Y-109157142D02*
X190754819Y-108585714D01*
X190754819Y-108585714D02*
X190754819Y-109204761D01*
X186612857Y-86569580D02*
X186660476Y-86617200D01*
X186660476Y-86617200D02*
X186803333Y-86664819D01*
X186803333Y-86664819D02*
X186898571Y-86664819D01*
X186898571Y-86664819D02*
X187041428Y-86617200D01*
X187041428Y-86617200D02*
X187136666Y-86521961D01*
X187136666Y-86521961D02*
X187184285Y-86426723D01*
X187184285Y-86426723D02*
X187231904Y-86236247D01*
X187231904Y-86236247D02*
X187231904Y-86093390D01*
X187231904Y-86093390D02*
X187184285Y-85902914D01*
X187184285Y-85902914D02*
X187136666Y-85807676D01*
X187136666Y-85807676D02*
X187041428Y-85712438D01*
X187041428Y-85712438D02*
X186898571Y-85664819D01*
X186898571Y-85664819D02*
X186803333Y-85664819D01*
X186803333Y-85664819D02*
X186660476Y-85712438D01*
X186660476Y-85712438D02*
X186612857Y-85760057D01*
X186279523Y-85664819D02*
X185660476Y-85664819D01*
X185660476Y-85664819D02*
X185993809Y-86045771D01*
X185993809Y-86045771D02*
X185850952Y-86045771D01*
X185850952Y-86045771D02*
X185755714Y-86093390D01*
X185755714Y-86093390D02*
X185708095Y-86141009D01*
X185708095Y-86141009D02*
X185660476Y-86236247D01*
X185660476Y-86236247D02*
X185660476Y-86474342D01*
X185660476Y-86474342D02*
X185708095Y-86569580D01*
X185708095Y-86569580D02*
X185755714Y-86617200D01*
X185755714Y-86617200D02*
X185850952Y-86664819D01*
X185850952Y-86664819D02*
X186136666Y-86664819D01*
X186136666Y-86664819D02*
X186231904Y-86617200D01*
X186231904Y-86617200D02*
X186279523Y-86569580D01*
X185184285Y-86664819D02*
X184993809Y-86664819D01*
X184993809Y-86664819D02*
X184898571Y-86617200D01*
X184898571Y-86617200D02*
X184850952Y-86569580D01*
X184850952Y-86569580D02*
X184755714Y-86426723D01*
X184755714Y-86426723D02*
X184708095Y-86236247D01*
X184708095Y-86236247D02*
X184708095Y-85855295D01*
X184708095Y-85855295D02*
X184755714Y-85760057D01*
X184755714Y-85760057D02*
X184803333Y-85712438D01*
X184803333Y-85712438D02*
X184898571Y-85664819D01*
X184898571Y-85664819D02*
X185089047Y-85664819D01*
X185089047Y-85664819D02*
X185184285Y-85712438D01*
X185184285Y-85712438D02*
X185231904Y-85760057D01*
X185231904Y-85760057D02*
X185279523Y-85855295D01*
X185279523Y-85855295D02*
X185279523Y-86093390D01*
X185279523Y-86093390D02*
X185231904Y-86188628D01*
X185231904Y-86188628D02*
X185184285Y-86236247D01*
X185184285Y-86236247D02*
X185089047Y-86283866D01*
X185089047Y-86283866D02*
X184898571Y-86283866D01*
X184898571Y-86283866D02*
X184803333Y-86236247D01*
X184803333Y-86236247D02*
X184755714Y-86188628D01*
X184755714Y-86188628D02*
X184708095Y-86093390D01*
X195924819Y-95758333D02*
X195448628Y-95425000D01*
X195924819Y-95186905D02*
X194924819Y-95186905D01*
X194924819Y-95186905D02*
X194924819Y-95567857D01*
X194924819Y-95567857D02*
X194972438Y-95663095D01*
X194972438Y-95663095D02*
X195020057Y-95710714D01*
X195020057Y-95710714D02*
X195115295Y-95758333D01*
X195115295Y-95758333D02*
X195258152Y-95758333D01*
X195258152Y-95758333D02*
X195353390Y-95710714D01*
X195353390Y-95710714D02*
X195401009Y-95663095D01*
X195401009Y-95663095D02*
X195448628Y-95567857D01*
X195448628Y-95567857D02*
X195448628Y-95186905D01*
X195020057Y-96139286D02*
X194972438Y-96186905D01*
X194972438Y-96186905D02*
X194924819Y-96282143D01*
X194924819Y-96282143D02*
X194924819Y-96520238D01*
X194924819Y-96520238D02*
X194972438Y-96615476D01*
X194972438Y-96615476D02*
X195020057Y-96663095D01*
X195020057Y-96663095D02*
X195115295Y-96710714D01*
X195115295Y-96710714D02*
X195210533Y-96710714D01*
X195210533Y-96710714D02*
X195353390Y-96663095D01*
X195353390Y-96663095D02*
X195924819Y-96091667D01*
X195924819Y-96091667D02*
X195924819Y-96710714D01*
X188561904Y-104204819D02*
X188561904Y-105014342D01*
X188561904Y-105014342D02*
X188514285Y-105109580D01*
X188514285Y-105109580D02*
X188466666Y-105157200D01*
X188466666Y-105157200D02*
X188371428Y-105204819D01*
X188371428Y-105204819D02*
X188180952Y-105204819D01*
X188180952Y-105204819D02*
X188085714Y-105157200D01*
X188085714Y-105157200D02*
X188038095Y-105109580D01*
X188038095Y-105109580D02*
X187990476Y-105014342D01*
X187990476Y-105014342D02*
X187990476Y-104204819D01*
X187371428Y-104633390D02*
X187466666Y-104585771D01*
X187466666Y-104585771D02*
X187514285Y-104538152D01*
X187514285Y-104538152D02*
X187561904Y-104442914D01*
X187561904Y-104442914D02*
X187561904Y-104395295D01*
X187561904Y-104395295D02*
X187514285Y-104300057D01*
X187514285Y-104300057D02*
X187466666Y-104252438D01*
X187466666Y-104252438D02*
X187371428Y-104204819D01*
X187371428Y-104204819D02*
X187180952Y-104204819D01*
X187180952Y-104204819D02*
X187085714Y-104252438D01*
X187085714Y-104252438D02*
X187038095Y-104300057D01*
X187038095Y-104300057D02*
X186990476Y-104395295D01*
X186990476Y-104395295D02*
X186990476Y-104442914D01*
X186990476Y-104442914D02*
X187038095Y-104538152D01*
X187038095Y-104538152D02*
X187085714Y-104585771D01*
X187085714Y-104585771D02*
X187180952Y-104633390D01*
X187180952Y-104633390D02*
X187371428Y-104633390D01*
X187371428Y-104633390D02*
X187466666Y-104681009D01*
X187466666Y-104681009D02*
X187514285Y-104728628D01*
X187514285Y-104728628D02*
X187561904Y-104823866D01*
X187561904Y-104823866D02*
X187561904Y-105014342D01*
X187561904Y-105014342D02*
X187514285Y-105109580D01*
X187514285Y-105109580D02*
X187466666Y-105157200D01*
X187466666Y-105157200D02*
X187371428Y-105204819D01*
X187371428Y-105204819D02*
X187180952Y-105204819D01*
X187180952Y-105204819D02*
X187085714Y-105157200D01*
X187085714Y-105157200D02*
X187038095Y-105109580D01*
X187038095Y-105109580D02*
X186990476Y-105014342D01*
X186990476Y-105014342D02*
X186990476Y-104823866D01*
X186990476Y-104823866D02*
X187038095Y-104728628D01*
X187038095Y-104728628D02*
X187085714Y-104681009D01*
X187085714Y-104681009D02*
X187180952Y-104633390D01*
X183761904Y-102454819D02*
X183761904Y-103264342D01*
X183761904Y-103264342D02*
X183714285Y-103359580D01*
X183714285Y-103359580D02*
X183666666Y-103407200D01*
X183666666Y-103407200D02*
X183571428Y-103454819D01*
X183571428Y-103454819D02*
X183380952Y-103454819D01*
X183380952Y-103454819D02*
X183285714Y-103407200D01*
X183285714Y-103407200D02*
X183238095Y-103359580D01*
X183238095Y-103359580D02*
X183190476Y-103264342D01*
X183190476Y-103264342D02*
X183190476Y-102454819D01*
X182190476Y-103454819D02*
X182761904Y-103454819D01*
X182476190Y-103454819D02*
X182476190Y-102454819D01*
X182476190Y-102454819D02*
X182571428Y-102597676D01*
X182571428Y-102597676D02*
X182666666Y-102692914D01*
X182666666Y-102692914D02*
X182761904Y-102740533D01*
X186848866Y-74142857D02*
X186848866Y-74904762D01*
X187229819Y-75904761D02*
X187229819Y-75333333D01*
X187229819Y-75619047D02*
X186229819Y-75619047D01*
X186229819Y-75619047D02*
X186372676Y-75523809D01*
X186372676Y-75523809D02*
X186467914Y-75428571D01*
X186467914Y-75428571D02*
X186515533Y-75333333D01*
X207224580Y-91482142D02*
X207272200Y-91434523D01*
X207272200Y-91434523D02*
X207319819Y-91291666D01*
X207319819Y-91291666D02*
X207319819Y-91196428D01*
X207319819Y-91196428D02*
X207272200Y-91053571D01*
X207272200Y-91053571D02*
X207176961Y-90958333D01*
X207176961Y-90958333D02*
X207081723Y-90910714D01*
X207081723Y-90910714D02*
X206891247Y-90863095D01*
X206891247Y-90863095D02*
X206748390Y-90863095D01*
X206748390Y-90863095D02*
X206557914Y-90910714D01*
X206557914Y-90910714D02*
X206462676Y-90958333D01*
X206462676Y-90958333D02*
X206367438Y-91053571D01*
X206367438Y-91053571D02*
X206319819Y-91196428D01*
X206319819Y-91196428D02*
X206319819Y-91291666D01*
X206319819Y-91291666D02*
X206367438Y-91434523D01*
X206367438Y-91434523D02*
X206415057Y-91482142D01*
X207319819Y-92434523D02*
X207319819Y-91863095D01*
X207319819Y-92148809D02*
X206319819Y-92148809D01*
X206319819Y-92148809D02*
X206462676Y-92053571D01*
X206462676Y-92053571D02*
X206557914Y-91958333D01*
X206557914Y-91958333D02*
X206605533Y-91863095D01*
X206653152Y-93291666D02*
X207319819Y-93291666D01*
X206272200Y-93053571D02*
X206986485Y-92815476D01*
X206986485Y-92815476D02*
X206986485Y-93434523D01*
X187254819Y-78433333D02*
X186778628Y-78100000D01*
X187254819Y-77861905D02*
X186254819Y-77861905D01*
X186254819Y-77861905D02*
X186254819Y-78242857D01*
X186254819Y-78242857D02*
X186302438Y-78338095D01*
X186302438Y-78338095D02*
X186350057Y-78385714D01*
X186350057Y-78385714D02*
X186445295Y-78433333D01*
X186445295Y-78433333D02*
X186588152Y-78433333D01*
X186588152Y-78433333D02*
X186683390Y-78385714D01*
X186683390Y-78385714D02*
X186731009Y-78338095D01*
X186731009Y-78338095D02*
X186778628Y-78242857D01*
X186778628Y-78242857D02*
X186778628Y-77861905D01*
X187254819Y-78909524D02*
X187254819Y-79100000D01*
X187254819Y-79100000D02*
X187207200Y-79195238D01*
X187207200Y-79195238D02*
X187159580Y-79242857D01*
X187159580Y-79242857D02*
X187016723Y-79338095D01*
X187016723Y-79338095D02*
X186826247Y-79385714D01*
X186826247Y-79385714D02*
X186445295Y-79385714D01*
X186445295Y-79385714D02*
X186350057Y-79338095D01*
X186350057Y-79338095D02*
X186302438Y-79290476D01*
X186302438Y-79290476D02*
X186254819Y-79195238D01*
X186254819Y-79195238D02*
X186254819Y-79004762D01*
X186254819Y-79004762D02*
X186302438Y-78909524D01*
X186302438Y-78909524D02*
X186350057Y-78861905D01*
X186350057Y-78861905D02*
X186445295Y-78814286D01*
X186445295Y-78814286D02*
X186683390Y-78814286D01*
X186683390Y-78814286D02*
X186778628Y-78861905D01*
X186778628Y-78861905D02*
X186826247Y-78909524D01*
X186826247Y-78909524D02*
X186873866Y-79004762D01*
X186873866Y-79004762D02*
X186873866Y-79195238D01*
X186873866Y-79195238D02*
X186826247Y-79290476D01*
X186826247Y-79290476D02*
X186778628Y-79338095D01*
X186778628Y-79338095D02*
X186683390Y-79385714D01*
X185728628Y-87123809D02*
X186204819Y-87123809D01*
X185204819Y-86790476D02*
X185728628Y-87123809D01*
X185728628Y-87123809D02*
X185204819Y-87457142D01*
X186204819Y-88314285D02*
X186204819Y-87742857D01*
X186204819Y-88028571D02*
X185204819Y-88028571D01*
X185204819Y-88028571D02*
X185347676Y-87933333D01*
X185347676Y-87933333D02*
X185442914Y-87838095D01*
X185442914Y-87838095D02*
X185490533Y-87742857D01*
X184723866Y-74467857D02*
X184723866Y-75229762D01*
X185104819Y-74848809D02*
X184342914Y-74848809D01*
X185104819Y-76229761D02*
X185104819Y-75658333D01*
X185104819Y-75944047D02*
X184104819Y-75944047D01*
X184104819Y-75944047D02*
X184247676Y-75848809D01*
X184247676Y-75848809D02*
X184342914Y-75753571D01*
X184342914Y-75753571D02*
X184390533Y-75658333D01*
X187252857Y-100524819D02*
X187586190Y-100048628D01*
X187824285Y-100524819D02*
X187824285Y-99524819D01*
X187824285Y-99524819D02*
X187443333Y-99524819D01*
X187443333Y-99524819D02*
X187348095Y-99572438D01*
X187348095Y-99572438D02*
X187300476Y-99620057D01*
X187300476Y-99620057D02*
X187252857Y-99715295D01*
X187252857Y-99715295D02*
X187252857Y-99858152D01*
X187252857Y-99858152D02*
X187300476Y-99953390D01*
X187300476Y-99953390D02*
X187348095Y-100001009D01*
X187348095Y-100001009D02*
X187443333Y-100048628D01*
X187443333Y-100048628D02*
X187824285Y-100048628D01*
X186300476Y-100524819D02*
X186871904Y-100524819D01*
X186586190Y-100524819D02*
X186586190Y-99524819D01*
X186586190Y-99524819D02*
X186681428Y-99667676D01*
X186681428Y-99667676D02*
X186776666Y-99762914D01*
X186776666Y-99762914D02*
X186871904Y-99810533D01*
X185919523Y-99620057D02*
X185871904Y-99572438D01*
X185871904Y-99572438D02*
X185776666Y-99524819D01*
X185776666Y-99524819D02*
X185538571Y-99524819D01*
X185538571Y-99524819D02*
X185443333Y-99572438D01*
X185443333Y-99572438D02*
X185395714Y-99620057D01*
X185395714Y-99620057D02*
X185348095Y-99715295D01*
X185348095Y-99715295D02*
X185348095Y-99810533D01*
X185348095Y-99810533D02*
X185395714Y-99953390D01*
X185395714Y-99953390D02*
X185967142Y-100524819D01*
X185967142Y-100524819D02*
X185348095Y-100524819D01*
D11*
X190536666Y-98374318D02*
X191141428Y-98374318D01*
X191141428Y-98374318D02*
X191141428Y-97104318D01*
X190234285Y-97104318D02*
X189448094Y-97104318D01*
X189448094Y-97104318D02*
X189871428Y-97588127D01*
X189871428Y-97588127D02*
X189689999Y-97588127D01*
X189689999Y-97588127D02*
X189569047Y-97648603D01*
X189569047Y-97648603D02*
X189508571Y-97709080D01*
X189508571Y-97709080D02*
X189448094Y-97830032D01*
X189448094Y-97830032D02*
X189448094Y-98132413D01*
X189448094Y-98132413D02*
X189508571Y-98253365D01*
X189508571Y-98253365D02*
X189569047Y-98313842D01*
X189569047Y-98313842D02*
X189689999Y-98374318D01*
X189689999Y-98374318D02*
X190052856Y-98374318D01*
X190052856Y-98374318D02*
X190173809Y-98313842D01*
X190173809Y-98313842D02*
X190234285Y-98253365D01*
%TO.C,C20*%
D12*
X203962164Y-77390000D02*
X204177836Y-77390000D01*
X203962164Y-78110000D02*
X204177836Y-78110000D01*
%TO.C,C19*%
X186215000Y-82652836D02*
X186215000Y-82437164D01*
X186935000Y-82652836D02*
X186935000Y-82437164D01*
%TO.C,J4*%
X197200000Y-100350000D02*
G75*
G02*
X195800000Y-100350000I-700000J0D01*
G01*
X195800000Y-100350000D02*
G75*
G02*
X197200000Y-100350000I700000J0D01*
G01*
%TO.C,R5*%
X196003641Y-76150000D02*
X195696359Y-76150000D01*
X196003641Y-76910000D02*
X195696359Y-76910000D01*
%TO.C,C38*%
X182762164Y-90865000D02*
X182977836Y-90865000D01*
X182762164Y-91585000D02*
X182977836Y-91585000D01*
%TO.C,NRST1*%
X193600000Y-72825000D02*
G75*
G02*
X192200000Y-72825000I-700000J0D01*
G01*
X192200000Y-72825000D02*
G75*
G02*
X193600000Y-72825000I700000J0D01*
G01*
%TO.C,C32*%
X200765000Y-75640580D02*
X200765000Y-75359420D01*
X201785000Y-75640580D02*
X201785000Y-75359420D01*
%TO.C,R13*%
X185256359Y-97420000D02*
X185563641Y-97420000D01*
X185256359Y-98180000D02*
X185563641Y-98180000D01*
%TO.C,C30*%
X190765000Y-105411252D02*
X190765000Y-104888748D01*
X192235000Y-105411252D02*
X192235000Y-104888748D01*
%TO.C,C17*%
X190107836Y-76040000D02*
X189892164Y-76040000D01*
X190107836Y-76760000D02*
X189892164Y-76760000D01*
%TO.C,SWDIO1*%
X189600000Y-72825000D02*
G75*
G02*
X188200000Y-72825000I-700000J0D01*
G01*
X188200000Y-72825000D02*
G75*
G02*
X189600000Y-72825000I700000J0D01*
G01*
%TO.C,SWCLK1*%
X191600000Y-72825000D02*
G75*
G02*
X190200000Y-72825000I-700000J0D01*
G01*
X190200000Y-72825000D02*
G75*
G02*
X191600000Y-72825000I700000J0D01*
G01*
%TO.C,C2*%
X180488748Y-96965000D02*
X181011252Y-96965000D01*
X180488748Y-98435000D02*
X181011252Y-98435000D01*
%TO.C,U2*%
X188690000Y-78965000D02*
X188690000Y-79665000D01*
X188690000Y-92485000D02*
X188690000Y-93185000D01*
X188690000Y-93185000D02*
X189390000Y-93185000D01*
X189390000Y-78965000D02*
X188690000Y-78965000D01*
X202210000Y-93185000D02*
X202910000Y-93185000D01*
X202910000Y-78965000D02*
X202210000Y-78965000D01*
X202910000Y-79665000D02*
X202910000Y-78965000D01*
X202910000Y-93185000D02*
X202910000Y-92485000D01*
X188050000Y-92485000D02*
X187710000Y-92955000D01*
X188390000Y-92955000D01*
X188050000Y-92485000D01*
G36*
X188390000Y-92955000D02*
G01*
X187710000Y-92955000D01*
X188050000Y-92485000D01*
X188390000Y-92955000D01*
G37*
%TO.C,C1*%
X183765000Y-100961252D02*
X183765000Y-100438748D01*
X185235000Y-100961252D02*
X185235000Y-100438748D01*
%TO.C,C15*%
X188587836Y-94015000D02*
X188372164Y-94015000D01*
X188587836Y-94735000D02*
X188372164Y-94735000D01*
%TO.C,C36*%
X198962164Y-75820000D02*
X199177836Y-75820000D01*
X198962164Y-76540000D02*
X199177836Y-76540000D01*
%TO.C,L1*%
D13*
X176050000Y-99150000D02*
G75*
G02*
X175950000Y-99150000I-50000J0D01*
G01*
X175950000Y-99150000D02*
G75*
G02*
X176050000Y-99150000I50000J0D01*
G01*
%TO.C,R1*%
D12*
X176356359Y-104420000D02*
X176663641Y-104420000D01*
X176356359Y-105180000D02*
X176663641Y-105180000D01*
%TO.C,R6*%
X194063641Y-76190000D02*
X193756359Y-76190000D01*
X194063641Y-76950000D02*
X193756359Y-76950000D01*
%TO.C,C18*%
X186215000Y-90022164D02*
X186215000Y-90237836D01*
X186935000Y-90022164D02*
X186935000Y-90237836D01*
%TO.C,C33*%
X206490000Y-90140580D02*
X206490000Y-89859420D01*
X207510000Y-90140580D02*
X207510000Y-89859420D01*
%TO.C,C39*%
X185862164Y-84690000D02*
X186077836Y-84690000D01*
X185862164Y-85410000D02*
X186077836Y-85410000D01*
%TO.C,R2*%
X193920000Y-96078641D02*
X193920000Y-95771359D01*
X194680000Y-96078641D02*
X194680000Y-95771359D01*
%TO.C,U8*%
X186690000Y-100690000D02*
X186690000Y-100915000D01*
X186933741Y-103910000D02*
X188910000Y-103910000D01*
X188910000Y-100690000D02*
X186690000Y-100690000D01*
X188910000Y-100915000D02*
X188910000Y-100690000D01*
X188910000Y-103910000D02*
X188910000Y-103685000D01*
X186540000Y-103690000D02*
X186400000Y-103880000D01*
X186680000Y-103880000D01*
X186540000Y-103690000D01*
G36*
X186680000Y-103880000D02*
G01*
X186400000Y-103880000D01*
X186540000Y-103690000D01*
X186680000Y-103880000D01*
G37*
%TO.C,U1*%
X179690000Y-100040000D02*
X179690000Y-100265000D01*
X179690000Y-103035000D02*
X179690000Y-103260000D01*
X179690000Y-103260000D02*
X181910000Y-103260000D01*
X181666259Y-100040000D02*
X179690000Y-100040000D01*
X181910000Y-103260000D02*
X181910000Y-103035000D01*
X182060000Y-100260000D02*
X182200000Y-100070000D01*
X181920000Y-100070000D01*
X182060000Y-100260000D01*
G36*
X182060000Y-100260000D02*
G01*
X181920000Y-100070000D01*
X182200000Y-100070000D01*
X182060000Y-100260000D01*
G37*
%TO.C,-1*%
X187600000Y-72825000D02*
G75*
G02*
X186200000Y-72825000I-700000J0D01*
G01*
X186200000Y-72825000D02*
G75*
G02*
X187600000Y-72825000I700000J0D01*
G01*
%TO.C,C14*%
X205345000Y-92232836D02*
X205345000Y-92017164D01*
X206065000Y-92232836D02*
X206065000Y-92017164D01*
%TO.C,R9*%
X187695000Y-78878641D02*
X187695000Y-78571359D01*
X188455000Y-78878641D02*
X188455000Y-78571359D01*
%TO.C,Y1*%
X181090000Y-86760000D02*
X181090000Y-88440000D01*
X181090000Y-88440000D02*
X180590000Y-88440000D01*
X182610000Y-90360000D02*
X183290000Y-90360000D01*
X182610000Y-90760000D02*
X182610000Y-90360000D01*
X183290000Y-84840000D02*
X182610000Y-84840000D01*
X184810000Y-88440000D02*
X184810000Y-86760000D01*
%TO.C,+1*%
X185600000Y-72825000D02*
G75*
G02*
X184200000Y-72825000I-700000J0D01*
G01*
X184200000Y-72825000D02*
G75*
G02*
X185600000Y-72825000I700000J0D01*
G01*
%TO.C,R12*%
X186456359Y-98520000D02*
X186763641Y-98520000D01*
X186456359Y-99280000D02*
X186763641Y-99280000D01*
%TO.C,L3*%
D13*
X192725000Y-97800000D02*
G75*
G02*
X192625000Y-97800000I-50000J0D01*
G01*
X192625000Y-97800000D02*
G75*
G02*
X192725000Y-97800000I50000J0D01*
G01*
%TD*%
M02*
