%TF.GenerationSoftware,KiCad,Pcbnew,10.0.6*%
%TF.CreationDate,2026-09-24T20:33:39+03:00*%
%TF.ProjectId,drone-fc,64726f6e-652d-4666-932e-6b696361645f,rev?*%
%TF.SameCoordinates,Original*%
%TF.FileFunction,Copper,L1,Top*%
%TF.FilePolarity,Positive*%
%FSLAX46Y46*%
G04 Gerber Fmt 4.6, Leading zero omitted, Abs format (unit mm)*
G04 Created by KiCad (PCBNEW 10.0.6) date 2026-09-24 20:33:39*
%MOMM*%
%LPD*%
G01*
G04 APERTURE LIST*
G04 Aperture macros list*
%AMRoundRect*
0 Rectangle with rounded corners*
0 $1 Rounding radius*
0 $2 $3 $4 $5 $6 $7 $8 $9 X,Y pos of 4 corners*
0 Add a 4 corners polygon primitive as box body*
4,1,4,$2,$3,$4,$5,$6,$7,$8,$9,$2,$3,0*
0 Add four circle primitives for the rounded corners*
1,1,$1+$1,$2,$3*
1,1,$1+$1,$4,$5*
1,1,$1+$1,$6,$7*
1,1,$1+$1,$8,$9*
0 Add four rect primitives between the rounded corners*
20,1,$1+$1,$2,$3,$4,$5,0*
20,1,$1+$1,$4,$5,$6,$7,0*
20,1,$1+$1,$6,$7,$8,$9,0*
20,1,$1+$1,$8,$9,$2,$3,0*%
G04 Aperture macros list end*
%TA.AperFunction,SMDPad,CuDef*%
%ADD10RoundRect,0.135000X0.185000X-0.135000X0.185000X0.135000X-0.185000X0.135000X-0.185000X-0.135000X0*%
%TD*%
%TA.AperFunction,SMDPad,CuDef*%
%ADD11RoundRect,0.375000X-0.375000X-1.125000X0.375000X-1.125000X0.375000X1.125000X-0.375000X1.125000X0*%
%TD*%
%TA.AperFunction,SMDPad,CuDef*%
%ADD12RoundRect,0.375000X-1.125000X0.375000X-1.125000X-0.375000X1.125000X-0.375000X1.125000X0.375000X0*%
%TD*%
%TA.AperFunction,SMDPad,CuDef*%
%ADD13R,1.500000X1.000000*%
%TD*%
%TA.AperFunction,SMDPad,CuDef*%
%ADD14RoundRect,0.135000X0.135000X0.185000X-0.135000X0.185000X-0.135000X-0.185000X0.135000X-0.185000X0*%
%TD*%
%TA.AperFunction,SMDPad,CuDef*%
%ADD15RoundRect,0.135000X-0.135000X-0.185000X0.135000X-0.185000X0.135000X0.185000X-0.135000X0.185000X0*%
%TD*%
%TA.AperFunction,SMDPad,CuDef*%
%ADD16RoundRect,0.140000X-0.140000X-0.170000X0.140000X-0.170000X0.140000X0.170000X-0.140000X0.170000X0*%
%TD*%
%TA.AperFunction,SMDPad,CuDef*%
%ADD17RoundRect,0.087500X0.087500X-0.225000X0.087500X0.225000X-0.087500X0.225000X-0.087500X-0.225000X0*%
%TD*%
%TA.AperFunction,SMDPad,CuDef*%
%ADD18RoundRect,0.087500X0.225000X-0.087500X0.225000X0.087500X-0.225000X0.087500X-0.225000X-0.087500X0*%
%TD*%
%TA.AperFunction,SMDPad,CuDef*%
%ADD19R,0.300000X0.325000*%
%TD*%
%TA.AperFunction,SMDPad,CuDef*%
%ADD20R,0.325000X0.300000*%
%TD*%
%TA.AperFunction,SMDPad,CuDef*%
%ADD21RoundRect,0.135000X-0.185000X0.135000X-0.185000X-0.135000X0.185000X-0.135000X0.185000X0.135000X0*%
%TD*%
%TA.AperFunction,SMDPad,CuDef*%
%ADD22RoundRect,0.250000X-1.000000X-0.650000X1.000000X-0.650000X1.000000X0.650000X-1.000000X0.650000X0*%
%TD*%
%TA.AperFunction,SMDPad,CuDef*%
%ADD23RoundRect,0.250000X0.475000X-0.250000X0.475000X0.250000X-0.475000X0.250000X-0.475000X-0.250000X0*%
%TD*%
%TA.AperFunction,SMDPad,CuDef*%
%ADD24RoundRect,0.140000X-0.170000X0.140000X-0.170000X-0.140000X0.170000X-0.140000X0.170000X0.140000X0*%
%TD*%
%TA.AperFunction,SMDPad,CuDef*%
%ADD25RoundRect,0.250000X-0.250000X-0.475000X0.250000X-0.475000X0.250000X0.475000X-0.250000X0.475000X0*%
%TD*%
%TA.AperFunction,SMDPad,CuDef*%
%ADD26RoundRect,0.218750X0.256250X-0.218750X0.256250X0.218750X-0.256250X0.218750X-0.256250X-0.218750X0*%
%TD*%
%TA.AperFunction,SMDPad,CuDef*%
%ADD27RoundRect,0.140000X0.170000X-0.140000X0.170000X0.140000X-0.170000X0.140000X-0.170000X-0.140000X0*%
%TD*%
%TA.AperFunction,SMDPad,CuDef*%
%ADD28RoundRect,0.375000X0.375000X1.125000X-0.375000X1.125000X-0.375000X-1.125000X0.375000X-1.125000X0*%
%TD*%
%TA.AperFunction,SMDPad,CuDef*%
%ADD29RoundRect,0.140000X0.140000X0.170000X-0.140000X0.170000X-0.140000X-0.170000X0.140000X-0.170000X0*%
%TD*%
%TA.AperFunction,SMDPad,CuDef*%
%ADD30R,1.800000X1.500000*%
%TD*%
%TA.AperFunction,SMDPad,CuDef*%
%ADD31R,1.500000X1.800000*%
%TD*%
%TA.AperFunction,HeatsinkPad*%
%ADD32C,0.500000*%
%TD*%
%TA.AperFunction,HeatsinkPad*%
%ADD33R,0.500000X2.400000*%
%TD*%
%TA.AperFunction,ViaPad*%
%ADD34C,0.600000*%
%TD*%
%TA.AperFunction,Conductor*%
%ADD35C,0.200000*%
%TD*%
%TA.AperFunction,Conductor*%
%ADD36C,0.300000*%
%TD*%
%TA.AperFunction,Conductor*%
%ADD37C,1.000000*%
%TD*%
%TA.AperFunction,Conductor*%
%ADD38C,0.500000*%
%TD*%
G04 APERTURE END LIST*
D10*
%TO.P,R3,1*%
%TO.N,+3V3*%
X193250000Y-96585000D03*
%TO.P,R3,2*%
%TO.N,/SDA*%
X193250000Y-95565000D03*
%TD*%
D11*
%TO.P,GND1,1,Pin_1_1*%
%TO.N,GND*%
X211125000Y-81425000D03*
%TD*%
D12*
%TO.P,DSHOT1,1,Pin_1_1*%
%TO.N,Net-(DSHOT1-Pin_1)*%
X184150000Y-69000000D03*
%TD*%
D13*
%TO.P,U4,1,RX_1*%
%TO.N,/RADIO_TX*%
X201620000Y-100000000D03*
%TO.P,U4,2,TX_2*%
%TO.N,/RADIO_RX*%
X199080000Y-100000000D03*
%TO.P,U4,3,VIN_3*%
%TO.N,+5V*%
X196540000Y-100000000D03*
%TO.P,U4,4,GND_4*%
%TO.N,GND*%
X194000000Y-100000000D03*
%TD*%
D14*
%TO.P,R22,1*%
%TO.N,/DSHOT4*%
X196595000Y-73175000D03*
%TO.P,R22,2*%
%TO.N,Net-(DSHOT4-Pin_1)*%
X195575000Y-73175000D03*
%TD*%
D15*
%TO.P,R14,1*%
%TO.N,/LED1_G*%
X198165000Y-86300000D03*
%TO.P,R14,2*%
%TO.N,Net-(D5-K)*%
X199185000Y-86300000D03*
%TD*%
D11*
%TO.P,SCL1,1,Pin_1_1*%
%TO.N,/SCL*%
X211125000Y-86325000D03*
%TD*%
D16*
%TO.P,C26,1*%
%TO.N,+3V3*%
X180740000Y-78575000D03*
%TO.P,C26,2*%
%TO.N,GND*%
X181700000Y-78575000D03*
%TD*%
D17*
%TO.P,U3,1,SDO/SA0_1*%
%TO.N,/MISO*%
X189425000Y-90675000D03*
%TO.P,U3,2,SDX_2*%
%TO.N,GND*%
X189925000Y-90675000D03*
%TO.P,U3,3,SCX_3*%
X190425000Y-90675000D03*
%TO.P,U3,4,INT1_4*%
%TO.N,/INT1*%
X190925000Y-90675000D03*
D18*
%TO.P,U3,5,VDDIO_5*%
%TO.N,+3V3*%
X191087500Y-90012500D03*
%TO.P,U3,6,GND_6*%
%TO.N,GND*%
X191087500Y-89512500D03*
%TO.P,U3,7,GND_7*%
X191087500Y-89012500D03*
D17*
%TO.P,U3,8,VDD_8*%
%TO.N,+3V3*%
X190925000Y-88350000D03*
%TO.P,U3,9,INT2_9*%
%TO.N,/INT2*%
X190425000Y-88350000D03*
%TO.P,U3,10,OCS_Aux_10*%
%TO.N,unconnected-(U3-OCS_Aux-Pad10)*%
X189925000Y-88350000D03*
%TO.P,U3,11,SDO_Aux_11*%
%TO.N,unconnected-(U3-SDO_Aux-Pad11)*%
X189425000Y-88350000D03*
D18*
%TO.P,U3,12,CS_12*%
%TO.N,/CS*%
X189262500Y-89012500D03*
%TO.P,U3,13,SCL_13*%
%TO.N,/CLK*%
X189262500Y-89512500D03*
%TO.P,U3,14,SDA_14*%
%TO.N,/MOSI*%
X189262500Y-90012500D03*
%TD*%
D19*
%TO.P,U6,1,VDDIO_1*%
%TO.N,+3V3*%
X205250000Y-95475000D03*
%TO.P,U6,2,SCK_2*%
%TO.N,/ALT_SCK*%
X204750000Y-95475000D03*
D20*
%TO.P,U6,3,VSS_1_3*%
%TO.N,GND*%
X204225000Y-95725000D03*
%TO.P,U6,4,SDI_4*%
%TO.N,/ALT_MOSI*%
X204225000Y-96225000D03*
%TO.P,U6,5,SDO_5*%
%TO.N,/ALT_MISO*%
X204225000Y-96725000D03*
D19*
%TO.P,U6,6,CSB_6*%
%TO.N,/ALT_CS*%
X204750000Y-96975000D03*
%TO.P,U6,7,INT_7*%
%TO.N,/ALT_INT*%
X205250000Y-96975000D03*
D20*
%TO.P,U6,8,VSS_2_8*%
%TO.N,GND*%
X205775000Y-96725000D03*
%TO.P,U6,9,VSS_3_9*%
X205775000Y-96225000D03*
%TO.P,U6,10,VDD_10*%
%TO.N,+3V3*%
X205775000Y-95725000D03*
%TD*%
D12*
%TO.P,DSHOT4,1,Pin_1_1*%
%TO.N,Net-(DSHOT4-Pin_1)*%
X195050000Y-69000000D03*
%TD*%
D14*
%TO.P,R19,1*%
%TO.N,/DSHOT1*%
X183410000Y-73200000D03*
%TO.P,R19,2*%
%TO.N,Net-(DSHOT1-Pin_1)*%
X182390000Y-73200000D03*
%TD*%
D16*
%TO.P,C22,1*%
%TO.N,+3V3*%
X191895000Y-86850000D03*
%TO.P,C22,2*%
%TO.N,GND*%
X192855000Y-86850000D03*
%TD*%
D14*
%TO.P,R18,1*%
%TO.N,+3V3*%
X196770000Y-71000000D03*
%TO.P,R18,2*%
%TO.N,Net-(DSHOT4-Pin_1)*%
X195750000Y-71000000D03*
%TD*%
D21*
%TO.P,R4,1*%
%TO.N,Net-(U2-BOOT0)*%
X192300000Y-95475000D03*
%TO.P,R4,2*%
%TO.N,GND*%
X192300000Y-96495000D03*
%TD*%
D15*
%TO.P,R7,1*%
%TO.N,+3V3*%
X182250000Y-71000000D03*
%TO.P,R7,2*%
%TO.N,Net-(DSHOT1-Pin_1)*%
X183270000Y-71000000D03*
%TD*%
D22*
%TO.P,D1,1,A1_1*%
%TO.N,/VBAT*%
X179950000Y-106100000D03*
%TO.P,D1,2,A2_2*%
%TO.N,GND*%
X183950000Y-106100000D03*
%TD*%
D23*
%TO.P,C35,1*%
%TO.N,GND*%
X169000000Y-99425000D03*
%TO.P,C35,2*%
%TO.N,+3V3*%
X169000000Y-97525000D03*
%TD*%
D24*
%TO.P,C28,1*%
%TO.N,+3V3*%
X169000000Y-88020000D03*
%TO.P,C28,2*%
%TO.N,GND*%
X169000000Y-88980000D03*
%TD*%
D12*
%TO.P,DSHOT3,1,Pin_1_1*%
%TO.N,Net-(DSHOT3-Pin_1)*%
X191350000Y-69000000D03*
%TD*%
D14*
%TO.P,R16,1*%
%TO.N,/LED2_R*%
X196150000Y-91600000D03*
%TO.P,R16,2*%
%TO.N,Net-(D2-K)*%
X195130000Y-91600000D03*
%TD*%
%TO.P,R21,1*%
%TO.N,/DSHOT3*%
X193635000Y-73075000D03*
%TO.P,R21,2*%
%TO.N,Net-(DSHOT3-Pin_1)*%
X192615000Y-73075000D03*
%TD*%
D15*
%TO.P,R20,1*%
%TO.N,/DSHOT2*%
X188380000Y-74900000D03*
%TO.P,R20,2*%
%TO.N,Net-(DSHOT2-Pin_1)*%
X189400000Y-74900000D03*
%TD*%
D25*
%TO.P,C31,1*%
%TO.N,+5V*%
X196575000Y-98405000D03*
%TO.P,C31,2*%
%TO.N,GND*%
X198475000Y-98405000D03*
%TD*%
D26*
%TO.P,D4,1,K_1*%
%TO.N,Net-(D4-K)*%
X198000000Y-96000000D03*
%TO.P,D4,2,A_2*%
%TO.N,+3V3*%
X198000000Y-94425000D03*
%TD*%
D14*
%TO.P,R10,1*%
%TO.N,/LED1_R*%
X196485000Y-86250000D03*
%TO.P,R10,2*%
%TO.N,Net-(D3-K)*%
X195465000Y-86250000D03*
%TD*%
D26*
%TO.P,D5,1,K_1*%
%TO.N,Net-(D5-K)*%
X199000000Y-84250000D03*
%TO.P,D5,2,A_2*%
%TO.N,+3V3*%
X199000000Y-82675000D03*
%TD*%
D14*
%TO.P,R15,1*%
%TO.N,+3V3*%
X193250000Y-71250000D03*
%TO.P,R15,2*%
%TO.N,Net-(DSHOT3-Pin_1)*%
X192230000Y-71250000D03*
%TD*%
D27*
%TO.P,C34,1*%
%TO.N,/NRST*%
X188835000Y-84670000D03*
%TO.P,C34,2*%
%TO.N,GND*%
X188835000Y-83710000D03*
%TD*%
D28*
%TO.P,SDA1,1,Pin_1_1*%
%TO.N,/SDA*%
X211125000Y-90350000D03*
%TD*%
D29*
%TO.P,C25,1*%
%TO.N,GND*%
X208575000Y-95750000D03*
%TO.P,C25,2*%
%TO.N,+3V3*%
X207615000Y-95750000D03*
%TD*%
D21*
%TO.P,R17,1*%
%TO.N,/LED2_G*%
X194600000Y-94115000D03*
%TO.P,R17,2*%
%TO.N,Net-(D4-K)*%
X194600000Y-95135000D03*
%TD*%
D14*
%TO.P,R11,1*%
%TO.N,+5V*%
X192500000Y-101100000D03*
%TO.P,R11,2*%
%TO.N,Net-(U8-PG)*%
X191480000Y-101100000D03*
%TD*%
%TO.P,R8,1*%
%TO.N,+3V3*%
X189770000Y-71000000D03*
%TO.P,R8,2*%
%TO.N,Net-(DSHOT2-Pin_1)*%
X188750000Y-71000000D03*
%TD*%
D29*
%TO.P,C29,1*%
%TO.N,+5V*%
X195200000Y-98500000D03*
%TO.P,C29,2*%
%TO.N,GND*%
X194240000Y-98500000D03*
%TD*%
D11*
%TO.P,3V3,1,Pin_1_1*%
%TO.N,+3V3*%
X211025000Y-77075000D03*
%TD*%
D30*
%TO.P,ANT1,1,GND_1_1*%
%TO.N,GND*%
X172000000Y-84200000D03*
%TO.P,ANT1,2,V_IO_2*%
%TO.N,+3V3*%
X172000000Y-86100000D03*
%TO.P,ANT1,3,V_BCKP_3*%
X172000000Y-88000000D03*
%TO.P,ANT1,4,GND_2_4*%
%TO.N,GND*%
X172000000Y-89900000D03*
%TO.P,ANT1,5,GND_3_5*%
X172000000Y-91800000D03*
D31*
%TO.P,ANT1,6,GND_4_6*%
X174800000Y-94600000D03*
%TO.P,ANT1,7,TIMEPULSE_7*%
%TO.N,/GPS_TIMEPULSE*%
X176700000Y-94600000D03*
%TO.P,ANT1,8,SAFEBOOT_N_8*%
%TO.N,unconnected-(ANT1-SAFEBOOT_N-Pad8)*%
X178600000Y-94600000D03*
%TO.P,ANT1,9,SDA_9*%
%TO.N,unconnected-(ANT1-SDA-Pad9)*%
X180500000Y-94600000D03*
%TO.P,ANT1,10,GND_5_10*%
%TO.N,GND*%
X182400000Y-94600000D03*
D30*
%TO.P,ANT1,11,GND_6_11*%
X185200000Y-91800000D03*
%TO.P,ANT1,12,SCL_12*%
%TO.N,unconnected-(ANT1-SCL-Pad12)*%
X185200000Y-89900000D03*
%TO.P,ANT1,13,TXD_13*%
%TO.N,/GPS_RX*%
X185200000Y-88000000D03*
%TO.P,ANT1,14,RXD_14*%
%TO.N,/GPS_TX*%
X185200000Y-86100000D03*
%TO.P,ANT1,15,GND_7_15*%
%TO.N,GND*%
X185200000Y-84200000D03*
D31*
%TO.P,ANT1,16,GND_8_16*%
X182400000Y-81400000D03*
%TO.P,ANT1,17,VCC_17*%
%TO.N,+3V3*%
X180500000Y-81400000D03*
%TO.P,ANT1,18,RESET_N_18*%
%TO.N,/GPS_RESET*%
X178600000Y-81400000D03*
%TO.P,ANT1,19,EXTINT_19*%
%TO.N,unconnected-(ANT1-EXTINT-Pad19)*%
X176700000Y-81400000D03*
%TO.P,ANT1,20,GND_9_20*%
%TO.N,GND*%
X174800000Y-81400000D03*
%TD*%
D27*
%TO.P,C27,1*%
%TO.N,+3V3*%
X169000000Y-86500000D03*
%TO.P,C27,2*%
%TO.N,GND*%
X169000000Y-85540000D03*
%TD*%
%TO.P,C23,1*%
%TO.N,+3V3*%
X192725000Y-89310000D03*
%TO.P,C23,2*%
%TO.N,GND*%
X192725000Y-88350000D03*
%TD*%
D12*
%TO.P,DSHOT2,1,Pin_1_1*%
%TO.N,Net-(DSHOT2-Pin_1)*%
X187750000Y-69000000D03*
%TD*%
D16*
%TO.P,C24,1*%
%TO.N,+3V3*%
X205645000Y-93600000D03*
%TO.P,C24,2*%
%TO.N,GND*%
X206605000Y-93600000D03*
%TD*%
D26*
%TO.P,D3,1,K_1*%
%TO.N,Net-(D3-K)*%
X197500000Y-84250000D03*
%TO.P,D3,2,A_2*%
%TO.N,+3V3*%
X197500000Y-82675000D03*
%TD*%
%TO.P,D2,1,K_1*%
%TO.N,Net-(D2-K)*%
X196500000Y-96037500D03*
%TO.P,D2,2,A_2*%
%TO.N,+3V3*%
X196500000Y-94462500D03*
%TD*%
D23*
%TO.P,C37,1*%
%TO.N,GND*%
X177130000Y-108900000D03*
%TO.P,C37,2*%
%TO.N,/VBAT*%
X177130000Y-107000000D03*
%TD*%
D32*
%TO.P,U8,11,PAD_11*%
%TO.N,GND*%
X187800000Y-101350000D03*
X187800000Y-102300000D03*
D33*
X187800000Y-102300000D03*
D32*
X187800000Y-103250000D03*
%TD*%
%TO.P,U1,11,PAD_11*%
%TO.N,GND*%
X180800000Y-102600000D03*
X180800000Y-101650000D03*
D33*
X180800000Y-101650000D03*
D32*
X180800000Y-100700000D03*
%TD*%
D34*
%TO.N,+3V3*%
X194950000Y-97225000D03*
X193500000Y-70500000D03*
X178600000Y-100100000D03*
X189700000Y-83400000D03*
X184975000Y-73900000D03*
X181275000Y-79375000D03*
X204500000Y-93500000D03*
X207050000Y-94625000D03*
X178500000Y-99300000D03*
X179400000Y-98900000D03*
X168348823Y-86105615D03*
X203700000Y-93125000D03*
X186675000Y-89075000D03*
X179900000Y-99300000D03*
X189000000Y-93500000D03*
X168500000Y-87500000D03*
X173700000Y-102500000D03*
X188300000Y-77375000D03*
X196750000Y-81500000D03*
X173700000Y-103300000D03*
X192311039Y-90386039D03*
X173700000Y-101800000D03*
X179200000Y-99500000D03*
X202300000Y-77525000D03*
X170000000Y-87500000D03*
X209225000Y-78375000D03*
X198500000Y-70750000D03*
X191850000Y-76625000D03*
X190500000Y-71000000D03*
X191109988Y-87434988D03*
X181250000Y-70500000D03*
X199525000Y-81975000D03*
X199994873Y-92462581D03*
%TO.N,/SDA*%
X193200000Y-95100000D03*
X208925000Y-92575000D03*
%TO.N,GND*%
X182800000Y-96825000D03*
X208450000Y-102025000D03*
X203300000Y-70175000D03*
X210550000Y-103425000D03*
X187700000Y-105700000D03*
X168525000Y-78500000D03*
X210550000Y-102025000D03*
X169925000Y-77100000D03*
X185775000Y-82200000D03*
X169225000Y-75700000D03*
X190100000Y-90100000D03*
X209150000Y-103425000D03*
X204000000Y-68775000D03*
X203300000Y-68775000D03*
X182750000Y-92450000D03*
X179975000Y-86100000D03*
X183600000Y-99100000D03*
X201900000Y-69475000D03*
X208450000Y-102725000D03*
X192700000Y-92425000D03*
X209150000Y-102025000D03*
X209850000Y-103425000D03*
X207750000Y-103425000D03*
X180000000Y-84625000D03*
X193310000Y-75730000D03*
X187000000Y-105000000D03*
X168525000Y-75700000D03*
X169925000Y-75000000D03*
X192625000Y-97250000D03*
X207050000Y-103425000D03*
X181150000Y-92250000D03*
X188400000Y-106400000D03*
X202600000Y-69475000D03*
X169000000Y-85000000D03*
X201200000Y-69475000D03*
X192500000Y-99000000D03*
X186900000Y-100400000D03*
X199700000Y-75420000D03*
X186300000Y-106400000D03*
X176375000Y-109825000D03*
X204000000Y-69475000D03*
X204825000Y-76875000D03*
X204000000Y-70175000D03*
X209850000Y-102025000D03*
X210550000Y-102725000D03*
X207050000Y-102725000D03*
X201200000Y-68775000D03*
X180050000Y-89350000D03*
X175400000Y-110675000D03*
X185600000Y-105700000D03*
X182975000Y-83875000D03*
X169225000Y-74300000D03*
X209850000Y-102725000D03*
X199500000Y-97800000D03*
X169225000Y-76400000D03*
X187700000Y-105000000D03*
X189950000Y-84525000D03*
X192700000Y-86075000D03*
X185600000Y-106400000D03*
X201900000Y-70175000D03*
X189100000Y-106400000D03*
X189800000Y-105700000D03*
X211250000Y-103425000D03*
X169000000Y-90000000D03*
X180950000Y-83825000D03*
X171500000Y-83000000D03*
X207050000Y-102025000D03*
X199800000Y-68775000D03*
X174500000Y-96000000D03*
X186300000Y-105000000D03*
X202600000Y-70175000D03*
X200500000Y-69475000D03*
X203300000Y-69475000D03*
X168525000Y-74300000D03*
X169925000Y-78500000D03*
X187000000Y-106400000D03*
X208725000Y-96625000D03*
X202500000Y-75000000D03*
X169925000Y-75700000D03*
X186900000Y-73625000D03*
X169225000Y-77100000D03*
X189100000Y-105000000D03*
X207750000Y-102025000D03*
X168525000Y-76400000D03*
X169925000Y-77800000D03*
X183900000Y-92525000D03*
X199800000Y-69475000D03*
X209150000Y-102725000D03*
X185500000Y-83100000D03*
X202600000Y-68775000D03*
X207100000Y-92425000D03*
X189100000Y-105700000D03*
X170225000Y-100525000D03*
X206700000Y-96625000D03*
X186625000Y-84275000D03*
X211250000Y-102725000D03*
X180050000Y-87825000D03*
X188400000Y-105700000D03*
X209750000Y-81675000D03*
X169925000Y-74300000D03*
X180025000Y-90925000D03*
X170900000Y-90200000D03*
X185200000Y-93000000D03*
X168525000Y-75000000D03*
X169225000Y-77800000D03*
X199800000Y-70175000D03*
X187700000Y-106400000D03*
X201900000Y-68775000D03*
X169225000Y-75000000D03*
X181900000Y-100200000D03*
X183600000Y-78275000D03*
X200500000Y-68775000D03*
X186650000Y-91425000D03*
X186300000Y-105700000D03*
X169225000Y-78500000D03*
X187000000Y-105700000D03*
X208450000Y-103425000D03*
X182419390Y-102183955D03*
X188400000Y-105000000D03*
X202220000Y-91750000D03*
X184350000Y-81400000D03*
X203775000Y-94150000D03*
X168525000Y-77100000D03*
X188698529Y-75801470D03*
X211250000Y-102025000D03*
X185600000Y-105000000D03*
X168525000Y-77800000D03*
X174500000Y-79500000D03*
X207750000Y-102725000D03*
X201200000Y-70175000D03*
X207100000Y-92425000D03*
X189800000Y-105000000D03*
X200500000Y-70175000D03*
X189800000Y-106400000D03*
X169925000Y-76400000D03*
%TO.N,/RADIO_TX*%
X201400000Y-81025000D03*
%TO.N,/RADIO_RX*%
X200750000Y-79950000D03*
%TO.N,+5V*%
X195600000Y-99200000D03*
X190600000Y-100000000D03*
X191740528Y-101990528D03*
X197300000Y-99200000D03*
X190800000Y-102400000D03*
%TO.N,/DSHOT4*%
X197600000Y-72550000D03*
%TO.N,/LED1_G*%
X197600000Y-86500000D03*
%TO.N,/SCL*%
X208100000Y-88350000D03*
%TO.N,/MISO*%
X192025000Y-81225000D03*
%TO.N,/INT1*%
X191438235Y-91363235D03*
%TO.N,/INT2*%
X194011032Y-81113974D03*
X192675000Y-83275000D03*
%TO.N,/CS*%
X191350000Y-80150000D03*
%TO.N,/CLK*%
X190750000Y-81000000D03*
%TO.N,/MOSI*%
X190350000Y-82300000D03*
%TO.N,/ALT_SCK*%
X204411765Y-94863235D03*
%TO.N,/ALT_MOSI*%
X203359265Y-95715735D03*
%TO.N,/ALT_MISO*%
X202327847Y-95600000D03*
%TO.N,/ALT_CS*%
X204150000Y-97550000D03*
%TO.N,/ALT_INT*%
X202550000Y-96950000D03*
%TO.N,/DSHOT1*%
X184112500Y-74187500D03*
%TO.N,Net-(U2-BOOT0)*%
X191375000Y-95425000D03*
%TO.N,/VBAT*%
X196920000Y-76650000D03*
X194675000Y-86968334D03*
X193234477Y-91829738D03*
X179250000Y-104500000D03*
X179975000Y-104400000D03*
X180800000Y-104525000D03*
%TO.N,/LED2_R*%
X196725000Y-91725000D03*
%TO.N,/DSHOT3*%
X194800000Y-73125000D03*
%TO.N,/DSHOT2*%
X188300000Y-74125000D03*
%TO.N,/LED1_R*%
X200100000Y-91075000D03*
X198675000Y-92350000D03*
X197600000Y-85644400D03*
%TO.N,/NRST*%
X189375000Y-85575000D03*
X187748000Y-73355000D03*
%TO.N,/LED2_G*%
X196749715Y-90925382D03*
%TO.N,Net-(U8-PG)*%
X189500000Y-100800000D03*
%TO.N,/GPS_TIMEPULSE*%
X177075000Y-96050000D03*
%TO.N,/GPS_RX*%
X189900000Y-80064152D03*
%TO.N,/GPS_TX*%
X186900000Y-80150000D03*
%TO.N,/GPS_RESET*%
X186950000Y-79075000D03*
%TO.N,/SWDIO*%
X189637500Y-73562500D03*
X204842252Y-90280856D03*
%TO.N,/SWCLK*%
X191825000Y-73550000D03*
X202550000Y-94200000D03*
%TD*%
%TO.N,+3V3*%
D35*
X209725000Y-78375000D02*
X209225000Y-78375000D01*
X192311039Y-89723961D02*
X192725000Y-89310000D01*
X191412500Y-87862500D02*
X190925000Y-88350000D01*
X170000000Y-86500000D02*
X171600000Y-86500000D01*
X169000000Y-86500000D02*
X170000000Y-86500000D01*
X169000000Y-88020000D02*
X168390000Y-88630000D01*
X168390000Y-88630000D02*
X168390000Y-96390000D01*
X169000000Y-88000000D02*
X168500000Y-87500000D01*
X190925000Y-88350000D02*
X191300000Y-88350000D01*
X169000000Y-97525000D02*
X169000000Y-97000000D01*
X199000000Y-82675000D02*
X199000000Y-82500000D01*
X199000000Y-82500000D02*
X199525000Y-81975000D01*
X205250000Y-95475000D02*
X205525000Y-95475000D01*
X168390000Y-96390000D02*
X169000000Y-97000000D01*
X205775000Y-95725000D02*
X205950000Y-95725000D01*
X180500000Y-78815000D02*
X180740000Y-78575000D01*
X168743208Y-86500000D02*
X168348823Y-86105615D01*
X205250000Y-93995000D02*
X205645000Y-93600000D01*
X191412500Y-87737500D02*
X191109988Y-87434988D01*
X191895000Y-87380000D02*
X191412500Y-87862500D01*
X205775000Y-95725000D02*
X207625000Y-95725000D01*
X191412500Y-87862500D02*
X191412500Y-87737500D01*
X192022500Y-90012500D02*
X192725000Y-89310000D01*
X180500000Y-81400000D02*
X180500000Y-78815000D01*
X169000000Y-88020000D02*
X169000000Y-88000000D01*
X191300000Y-88350000D02*
X192260000Y-89310000D01*
X207625000Y-95725000D02*
X207700000Y-95800000D01*
X198012500Y-94462500D02*
X198625000Y-93850000D01*
X180740000Y-78575000D02*
X180740000Y-78840000D01*
X170000000Y-86500000D02*
X170000000Y-87500000D01*
X205250000Y-95475000D02*
X205250000Y-93995000D01*
X198625000Y-93832454D02*
X199994873Y-92462581D01*
X191895000Y-86850000D02*
X191895000Y-87380000D01*
X182250000Y-71000000D02*
X181750000Y-71000000D01*
X198625000Y-93850000D02*
X198625000Y-93832454D01*
X169000000Y-88020000D02*
X170000000Y-88020000D01*
X205525000Y-95475000D02*
X205775000Y-95725000D01*
X192311039Y-90386039D02*
X192311039Y-89723961D01*
X193250000Y-70750000D02*
X193500000Y-70500000D01*
X192260000Y-89310000D02*
X192725000Y-89310000D01*
X198250000Y-71000000D02*
X198500000Y-70750000D01*
X171980000Y-88020000D02*
X172000000Y-88000000D01*
X170000000Y-88020000D02*
X171980000Y-88020000D01*
X193250000Y-96585000D02*
X194310000Y-96585000D01*
X193250000Y-71250000D02*
X193250000Y-70750000D01*
X169000000Y-86500000D02*
X168743208Y-86500000D01*
X171600000Y-86500000D02*
X172000000Y-86100000D01*
X191087500Y-90012500D02*
X192022500Y-90012500D01*
X180740000Y-78840000D02*
X181275000Y-79375000D01*
X196750000Y-82675000D02*
X199000000Y-82675000D01*
X196500000Y-94462500D02*
X198012500Y-94462500D01*
X194310000Y-96585000D02*
X194950000Y-97225000D01*
X205950000Y-95725000D02*
X207050000Y-94625000D01*
X189770000Y-71000000D02*
X190500000Y-71000000D01*
X196750000Y-82675000D02*
X196750000Y-81500000D01*
X196770000Y-71000000D02*
X198250000Y-71000000D01*
X211025000Y-77075000D02*
X209725000Y-78375000D01*
X181750000Y-71000000D02*
X181250000Y-70500000D01*
X170000000Y-88020000D02*
X170000000Y-87500000D01*
%TO.N,/SDA*%
X193250000Y-95150000D02*
X193250000Y-95565000D01*
X193200000Y-95100000D02*
X193250000Y-95150000D01*
X208925000Y-92550000D02*
X211125000Y-90350000D01*
X208925000Y-92575000D02*
X208925000Y-92550000D01*
%TO.N,GND*%
X192700000Y-86075000D02*
X192700000Y-86475000D01*
D36*
X171200000Y-89900000D02*
X170900000Y-90200000D01*
X172000000Y-83500000D02*
X171500000Y-83000000D01*
D35*
X199000000Y-98300000D02*
X199500000Y-97800000D01*
D36*
X183200000Y-95400000D02*
X182400000Y-94600000D01*
D35*
X205775000Y-96725000D02*
X206600000Y-96725000D01*
X191087500Y-89012500D02*
X191087500Y-89512500D01*
X210000000Y-81425000D02*
X209750000Y-81675000D01*
X182400000Y-81400000D02*
X182400000Y-79275000D01*
X194240000Y-98500000D02*
X194240000Y-99760000D01*
X189925000Y-90675000D02*
X189925000Y-90275000D01*
X189925000Y-89925000D02*
X190100000Y-90100000D01*
X169125000Y-99425000D02*
X170225000Y-100525000D01*
X192300000Y-96925000D02*
X192625000Y-97250000D01*
X192725000Y-88350000D02*
X192725000Y-86980000D01*
D36*
X172000000Y-84200000D02*
X172000000Y-83500000D01*
X174800000Y-95700000D02*
X174500000Y-96000000D01*
D35*
X181700000Y-78575000D02*
X181737500Y-78612500D01*
X190687500Y-89512500D02*
X190100000Y-90100000D01*
X203775000Y-94150000D02*
X203775000Y-95075000D01*
X198500000Y-98300000D02*
X199000000Y-98300000D01*
D36*
X182800000Y-96825000D02*
X183200000Y-96425000D01*
D35*
X192900000Y-100000000D02*
X194000000Y-100000000D01*
X190425000Y-90675000D02*
X190425000Y-90425000D01*
D36*
X172000000Y-91800000D02*
X172000000Y-89900000D01*
X172000000Y-89900000D02*
X171200000Y-89900000D01*
D35*
X192300000Y-96495000D02*
X192300000Y-96925000D01*
X169000000Y-99425000D02*
X169125000Y-99425000D01*
D37*
X174910000Y-111200000D02*
X174850000Y-111200000D01*
D35*
X191087500Y-89512500D02*
X190687500Y-89512500D01*
X192500000Y-99000000D02*
X192500000Y-99600000D01*
D36*
X185200000Y-84200000D02*
X185200000Y-83400000D01*
D35*
X211125000Y-81425000D02*
X210000000Y-81425000D01*
X192700000Y-86475000D02*
X192725000Y-86500000D01*
X189925000Y-90275000D02*
X190100000Y-90100000D01*
X189135000Y-83710000D02*
X189950000Y-84525000D01*
X206600000Y-96725000D02*
X206700000Y-96625000D01*
D37*
X177130000Y-108900000D02*
X177130000Y-108980000D01*
D35*
X208725000Y-95865000D02*
X208660000Y-95800000D01*
D36*
X174800000Y-79800000D02*
X174500000Y-79500000D01*
X185200000Y-83400000D02*
X185500000Y-83100000D01*
D35*
X169000000Y-85540000D02*
X169000000Y-85000000D01*
D36*
X174800000Y-81400000D02*
X174800000Y-79800000D01*
D35*
X192725000Y-86500000D02*
X192725000Y-88350000D01*
X206605000Y-92920000D02*
X207100000Y-92425000D01*
X182400000Y-79275000D02*
X181700000Y-78575000D01*
X181737500Y-78612500D02*
X183262500Y-78612500D01*
D36*
X185200000Y-91800000D02*
X185200000Y-93000000D01*
D35*
X206605000Y-93600000D02*
X206605000Y-92920000D01*
X188835000Y-83710000D02*
X189135000Y-83710000D01*
X208725000Y-96625000D02*
X208725000Y-95865000D01*
X194240000Y-99760000D02*
X194000000Y-100000000D01*
D37*
X177130000Y-108980000D02*
X174910000Y-111200000D01*
D36*
X183200000Y-96425000D02*
X183200000Y-95400000D01*
X174800000Y-94600000D02*
X174800000Y-95700000D01*
D35*
X169000000Y-88980000D02*
X169000000Y-90000000D01*
X190425000Y-90425000D02*
X190100000Y-90100000D01*
X205775000Y-96225000D02*
X205775000Y-96725000D01*
X183262500Y-78612500D02*
X183600000Y-78275000D01*
X203775000Y-95075000D02*
X204225000Y-95525000D01*
X192500000Y-99600000D02*
X192900000Y-100000000D01*
X192725000Y-86980000D02*
X192855000Y-86850000D01*
X192725000Y-86895000D02*
X192705000Y-86875000D01*
X204225000Y-95525000D02*
X204225000Y-95725000D01*
%TO.N,Net-(DSHOT1-Pin_1)*%
X184150000Y-71000000D02*
X184150000Y-69000000D01*
X183450000Y-72450000D02*
X184150000Y-71750000D01*
X183140000Y-72450000D02*
X183450000Y-72450000D01*
X182390000Y-73200000D02*
X183140000Y-72450000D01*
X184150000Y-71750000D02*
X184150000Y-71000000D01*
X183270000Y-71000000D02*
X184150000Y-71000000D01*
%TO.N,/RADIO_TX*%
X201620000Y-81245000D02*
X201400000Y-81025000D01*
X201620000Y-100000000D02*
X201620000Y-81245000D01*
%TO.N,/RADIO_RX*%
D36*
X200750000Y-98330000D02*
X200750000Y-79950000D01*
X199080000Y-100000000D02*
X200750000Y-98330000D01*
X199080000Y-100000000D02*
X199300000Y-100000000D01*
%TO.N,+5V*%
D35*
X196540000Y-99960000D02*
X197300000Y-99200000D01*
D38*
X192500000Y-101100000D02*
X192500000Y-100780001D01*
X192200000Y-101531056D02*
X192200000Y-101400000D01*
X191331056Y-102400000D02*
X190800000Y-102400000D01*
D35*
X196600000Y-98300000D02*
X196600000Y-99940000D01*
X196600000Y-99940000D02*
X196540000Y-100000000D01*
D38*
X191740528Y-101990528D02*
X192200000Y-101531056D01*
D35*
X196540000Y-100000000D02*
X196400000Y-100000000D01*
X195200000Y-98500000D02*
X195200000Y-98800000D01*
D38*
X192500000Y-100780001D02*
X191719999Y-100000000D01*
X192200000Y-101400000D02*
X192500000Y-101100000D01*
D35*
X196540000Y-100000000D02*
X196540000Y-99960000D01*
D38*
X191719999Y-100000000D02*
X190600000Y-100000000D01*
D35*
X195200000Y-98500000D02*
X196400000Y-98500000D01*
X196400000Y-98500000D02*
X196600000Y-98300000D01*
D38*
X191331056Y-102400000D02*
X191740528Y-101990528D01*
D35*
X196400000Y-100000000D02*
X195600000Y-99200000D01*
X195200000Y-98800000D02*
X195600000Y-99200000D01*
%TO.N,/DSHOT4*%
X197600000Y-72550000D02*
X197220000Y-72550000D01*
X197220000Y-72550000D02*
X196595000Y-73175000D01*
%TO.N,Net-(DSHOT4-Pin_1)*%
X195750000Y-71000000D02*
X195300000Y-71000000D01*
X195050000Y-72015686D02*
X195050000Y-70750000D01*
X195050000Y-70750000D02*
X195050000Y-69000000D01*
X195300000Y-71000000D02*
X195050000Y-70750000D01*
X195575000Y-72540686D02*
X195050000Y-72015686D01*
X195575000Y-73175000D02*
X195575000Y-72540686D01*
%TO.N,/LED1_G*%
X197800000Y-86300000D02*
X197600000Y-86500000D01*
X198165000Y-86300000D02*
X197800000Y-86300000D01*
%TO.N,Net-(D5-K)*%
X199185000Y-85860000D02*
X199000000Y-85675000D01*
X199000000Y-85675000D02*
X199000000Y-84250000D01*
X199185000Y-86300000D02*
X199185000Y-85860000D01*
%TO.N,/SCL*%
X208100000Y-88350000D02*
X209100000Y-88350000D01*
X209100000Y-88350000D02*
X211125000Y-86325000D01*
%TO.N,/MISO*%
X189425000Y-91037932D02*
X189425000Y-90675000D01*
X191650000Y-92000000D02*
X190387068Y-92000000D01*
X193675000Y-86025000D02*
X193675000Y-89975000D01*
X192025000Y-81225000D02*
X193275000Y-82475000D01*
X193275000Y-82475000D02*
X193275000Y-85625000D01*
X190387068Y-92000000D02*
X189425000Y-91037932D01*
X193675000Y-89975000D02*
X191650000Y-92000000D01*
X193275000Y-85625000D02*
X193675000Y-86025000D01*
%TO.N,/INT1*%
X191438235Y-91188235D02*
X190925000Y-90675000D01*
X191438235Y-91363235D02*
X191438235Y-91188235D01*
%TO.N,/INT2*%
X190425000Y-87271446D02*
X190425000Y-88350000D01*
X192675000Y-85021446D02*
X192675000Y-83275000D01*
X192675000Y-85021446D02*
X190425000Y-87271446D01*
%TO.N,/CS*%
X188950001Y-89012500D02*
X188875000Y-88937499D01*
X191350000Y-85780760D02*
X191350000Y-80150000D01*
X190085971Y-87044789D02*
X191350000Y-85780760D01*
X188875000Y-88937499D02*
X188875000Y-87438587D01*
X189268798Y-87044789D02*
X190085971Y-87044789D01*
X188875000Y-87438587D02*
X189268798Y-87044789D01*
X189262500Y-89012500D02*
X188950001Y-89012500D01*
%TO.N,/CLK*%
X190750000Y-81125000D02*
X190750000Y-81000000D01*
X190950000Y-85615074D02*
X190950000Y-81325000D01*
X188328186Y-89512500D02*
X188307843Y-89492157D01*
X188307843Y-86939215D02*
X188602269Y-86644789D01*
X189920285Y-86644789D02*
X190950000Y-85615074D01*
X190950000Y-81325000D02*
X190750000Y-81125000D01*
X189262500Y-89512500D02*
X188328186Y-89512500D01*
X188307843Y-89492157D02*
X188307843Y-86939215D01*
X188602269Y-86644789D02*
X189920285Y-86644789D01*
%TO.N,/MOSI*%
X190550000Y-85449388D02*
X190550000Y-82500000D01*
X188926471Y-85975000D02*
X189126471Y-86175000D01*
X189237500Y-89987500D02*
X188237500Y-89987500D01*
X189623529Y-86175000D02*
X189975000Y-85823529D01*
X190550000Y-82500000D02*
X190350000Y-82300000D01*
X187775000Y-86906372D02*
X188706372Y-85975000D01*
X189975000Y-85449388D02*
X190550000Y-85449388D01*
X189975000Y-85823529D02*
X189975000Y-85449388D01*
X189126471Y-86175000D02*
X189623529Y-86175000D01*
X189262500Y-90012500D02*
X189237500Y-89987500D01*
X187775000Y-89525000D02*
X187775000Y-86906372D01*
X188237500Y-89987500D02*
X187775000Y-89525000D01*
X188706372Y-85975000D02*
X188926471Y-85975000D01*
%TO.N,/ALT_SCK*%
X204750000Y-95201470D02*
X204411765Y-94863235D01*
X204750000Y-95475000D02*
X204750000Y-95201470D01*
%TO.N,/ALT_MOSI*%
X204225000Y-96225000D02*
X203868530Y-96225000D01*
X203868530Y-96225000D02*
X203359265Y-95715735D01*
%TO.N,/ALT_MISO*%
X202395000Y-95600000D02*
X203520000Y-96725000D01*
X203520000Y-96725000D02*
X204225000Y-96725000D01*
X202327847Y-95600000D02*
X202395000Y-95600000D01*
%TO.N,/ALT_CS*%
X204725000Y-96975000D02*
X204150000Y-97550000D01*
X204750000Y-96975000D02*
X204725000Y-96975000D01*
%TO.N,/ALT_INT*%
X202550000Y-96950000D02*
X202700000Y-96950000D01*
X204000000Y-98250000D02*
X205075000Y-98250000D01*
X202700000Y-96950000D02*
X204000000Y-98250000D01*
X205250000Y-98075000D02*
X205250000Y-96975000D01*
X205075000Y-98250000D02*
X205250000Y-98075000D01*
%TO.N,/DSHOT1*%
X184112500Y-74187500D02*
X184112500Y-73902500D01*
X184112500Y-73902500D02*
X183410000Y-73200000D01*
X184112500Y-74187500D02*
X184300000Y-74000000D01*
%TO.N,Net-(U2-BOOT0)*%
X191375000Y-95425000D02*
X192250000Y-95425000D01*
X192250000Y-95425000D02*
X192300000Y-95475000D01*
%TO.N,/VBAT*%
X193454738Y-91829738D02*
X193540000Y-91915000D01*
X195100000Y-78470000D02*
X195100000Y-82125000D01*
X196920000Y-76650000D02*
X195100000Y-78470000D01*
X193540000Y-91915000D02*
X193540000Y-92440000D01*
X191126471Y-94825000D02*
X179950000Y-106001471D01*
X179950000Y-106001471D02*
X179950000Y-106100000D01*
X191155000Y-94825000D02*
X191126471Y-94825000D01*
X193234477Y-91829738D02*
X193454738Y-91829738D01*
X195100000Y-82125000D02*
X194600000Y-82625000D01*
X194600000Y-82625000D02*
X194600000Y-86893334D01*
X194600000Y-86893334D02*
X194675000Y-86968334D01*
X193540000Y-92440000D02*
X191155000Y-94825000D01*
%TO.N,Net-(DSHOT3-Pin_1)*%
X191500000Y-69150000D02*
X191500000Y-71600000D01*
X191850000Y-71250000D02*
X191500000Y-71600000D01*
X191350000Y-69000000D02*
X191500000Y-69150000D01*
X192615000Y-72715000D02*
X192615000Y-73075000D01*
X192230000Y-71250000D02*
X191850000Y-71250000D01*
X191500000Y-71600000D02*
X192615000Y-72715000D01*
%TO.N,/LED2_R*%
X196600000Y-91600000D02*
X196725000Y-91725000D01*
X196150000Y-91600000D02*
X196600000Y-91600000D01*
%TO.N,Net-(D2-K)*%
X196500000Y-96037500D02*
X195725000Y-95262500D01*
X195725000Y-92195000D02*
X195130000Y-91600000D01*
X195725000Y-95262500D02*
X195725000Y-92195000D01*
%TO.N,/DSHOT3*%
X193635000Y-73075000D02*
X194750000Y-73075000D01*
X194750000Y-73075000D02*
X194800000Y-73125000D01*
%TO.N,/DSHOT2*%
X188300000Y-74125000D02*
X188348000Y-74077000D01*
X188380000Y-74900000D02*
X188380000Y-74205000D01*
X188380000Y-74205000D02*
X188300000Y-74125000D01*
%TO.N,Net-(DSHOT2-Pin_1)*%
X188000000Y-71000000D02*
X187750000Y-70750000D01*
X188750000Y-71000000D02*
X188000000Y-71000000D01*
X189037500Y-72737500D02*
X187750000Y-71450000D01*
X189037500Y-74537500D02*
X189037500Y-72737500D01*
X189400000Y-74900000D02*
X189037500Y-74537500D01*
X187750000Y-70750000D02*
X187750000Y-69000000D01*
X187750000Y-71450000D02*
X187750000Y-70750000D01*
%TO.N,Net-(D4-K)*%
X196977186Y-96775000D02*
X196022814Y-96775000D01*
X197752186Y-96000000D02*
X196977186Y-96775000D01*
X194600000Y-95352186D02*
X194600000Y-95135000D01*
X194635000Y-95100000D02*
X194600000Y-95135000D01*
X198000000Y-96000000D02*
X197752186Y-96000000D01*
X196022814Y-96775000D02*
X194600000Y-95352186D01*
%TO.N,/LED1_R*%
X197090600Y-85644400D02*
X196485000Y-86250000D01*
X200275000Y-91250000D02*
X200100000Y-91075000D01*
X200275000Y-91333924D02*
X200275000Y-91250000D01*
X198675000Y-92350000D02*
X198776265Y-92451265D01*
X199157659Y-92451265D02*
X200275000Y-91333924D01*
X198776265Y-92451265D02*
X199157659Y-92451265D01*
X197600000Y-85644400D02*
X197090600Y-85644400D01*
%TO.N,Net-(D3-K)*%
X196750000Y-84965000D02*
X196785000Y-84965000D01*
X196750000Y-84965000D02*
X195465000Y-86250000D01*
X196785000Y-84965000D02*
X197500000Y-84250000D01*
%TO.N,/NRST*%
X187275000Y-87973529D02*
X187375000Y-87873529D01*
X187375000Y-87376471D02*
X187275000Y-87276471D01*
X188540686Y-85575000D02*
X188700000Y-85575000D01*
X188700000Y-85575000D02*
X189375000Y-85575000D01*
X187700000Y-75651471D02*
X194075000Y-82026471D01*
X187275000Y-86840686D02*
X188540686Y-85575000D01*
X189808814Y-92750000D02*
X187275000Y-90216186D01*
X188835000Y-85440000D02*
X188700000Y-85575000D01*
X191465685Y-92750000D02*
X189808814Y-92750000D01*
X187375000Y-87873529D02*
X187375000Y-87376471D01*
X187700000Y-73403000D02*
X187700000Y-75651471D01*
X188835000Y-84670000D02*
X188835000Y-85440000D01*
X187275000Y-90216186D02*
X187275000Y-87973529D01*
X187748000Y-73355000D02*
X187700000Y-73403000D01*
X194075000Y-90140685D02*
X191465685Y-92750000D01*
X187275000Y-87276471D02*
X187275000Y-86840686D01*
X194075000Y-82026471D02*
X194075000Y-90140685D01*
%TO.N,/LED2_G*%
X196007170Y-90182837D02*
X194679995Y-90182837D01*
X193960000Y-93475000D02*
X194600000Y-94115000D01*
X193960000Y-90902832D02*
X193960000Y-93475000D01*
X196749715Y-90925382D02*
X196007170Y-90182837D01*
X194679995Y-90182837D02*
X193960000Y-90902832D01*
%TO.N,Net-(U8-PG)*%
X191480000Y-101100000D02*
X189800000Y-101100000D01*
X189800000Y-101100000D02*
X189500000Y-100800000D01*
%TO.N,/GPS_TIMEPULSE*%
X176700000Y-94600000D02*
X176700000Y-95675000D01*
X176700000Y-95675000D02*
X177075000Y-96050000D01*
%TO.N,/GPS_RX*%
X189900000Y-80480872D02*
X189567979Y-80812893D01*
X189900000Y-80064152D02*
X189900000Y-80480872D01*
X185550000Y-88000000D02*
X185200000Y-88000000D01*
X189567979Y-80812893D02*
X189363578Y-80812893D01*
X187775000Y-85775000D02*
X185550000Y-88000000D01*
X187775000Y-82401471D02*
X187775000Y-85775000D01*
X189363578Y-80812893D02*
X187775000Y-82401471D01*
%TO.N,/GPS_TX*%
X186900000Y-80150000D02*
X187375000Y-80625000D01*
X186673529Y-86100000D02*
X185200000Y-86100000D01*
X187375000Y-80625000D02*
X187375000Y-85398529D01*
X187375000Y-85398529D02*
X186673529Y-86100000D01*
%TO.N,/GPS_RESET*%
X178600000Y-81400000D02*
X178600000Y-79778866D01*
X178600000Y-79778866D02*
X180703866Y-77675000D01*
X185550000Y-77675000D02*
X186950000Y-79075000D01*
X180703866Y-77675000D02*
X185550000Y-77675000D01*
%TO.N,/SWDIO*%
X189637500Y-73637500D02*
X190375000Y-74375000D01*
X196023529Y-74375000D02*
X204842252Y-83193723D01*
X189637500Y-73562500D02*
X189637500Y-73637500D01*
X204842252Y-83193723D02*
X204842252Y-90280856D01*
X190375000Y-74375000D02*
X196023529Y-74375000D01*
%TO.N,/SWCLK*%
X205442252Y-90534219D02*
X202550000Y-93426471D01*
X196189215Y-73975000D02*
X205442252Y-83228037D01*
X191825000Y-73975000D02*
X196189215Y-73975000D01*
X205442252Y-83228037D02*
X205442252Y-90534219D01*
X202550000Y-93426471D02*
X202550000Y-94200000D01*
X191825000Y-73550000D02*
X191825000Y-73975000D01*
%TD*%
%TA.AperFunction,Conductor*%
%TO.N,/VBAT*%
G36*
X181540103Y-104121363D02*
G01*
X181587313Y-104172870D01*
X181600000Y-104227508D01*
X181600000Y-108680915D01*
X181580315Y-108747954D01*
X181527511Y-108793709D01*
X181469045Y-108804720D01*
X178464211Y-108635909D01*
X178398381Y-108612495D01*
X178355660Y-108557208D01*
X178347808Y-108524704D01*
X178344999Y-108497203D01*
X178344998Y-108497200D01*
X178289814Y-108330666D01*
X178197712Y-108181344D01*
X178073656Y-108057288D01*
X177924334Y-107965186D01*
X177757797Y-107910001D01*
X177757795Y-107910000D01*
X177655016Y-107899500D01*
X177655009Y-107899500D01*
X177228543Y-107899500D01*
X177228541Y-107899500D01*
X177031459Y-107899500D01*
X177031456Y-107899500D01*
X176604998Y-107899500D01*
X176604980Y-107899501D01*
X176502203Y-107910000D01*
X176502195Y-107910002D01*
X176495596Y-107912189D01*
X176425768Y-107914585D01*
X176365729Y-107878849D01*
X176334541Y-107816327D01*
X176332658Y-107798241D01*
X176228769Y-104374242D01*
X176246411Y-104306639D01*
X176297803Y-104259304D01*
X176349250Y-104246532D01*
X181472544Y-104103556D01*
X181540103Y-104121363D01*
G37*
%TD.AperFunction*%
%TD*%
%TA.AperFunction,Conductor*%
%TO.N,GND*%
G36*
X211892606Y-68005523D02*
G01*
X211907604Y-68009927D01*
X211966355Y-68047672D01*
X211967542Y-68049041D01*
X211995018Y-68103902D01*
X211996663Y-68111460D01*
X211999500Y-68137831D01*
X211999500Y-75415334D01*
X211994476Y-75450274D01*
X211990961Y-75462243D01*
X211953184Y-75521020D01*
X211889627Y-75550042D01*
X211823849Y-75541579D01*
X211814709Y-75537729D01*
X211787359Y-75521829D01*
X211690239Y-75447306D01*
X211690237Y-75447305D01*
X211690236Y-75447304D01*
X211690233Y-75447302D01*
X211690230Y-75447300D01*
X211599731Y-75409814D01*
X211599730Y-75409813D01*
X211550238Y-75389313D01*
X211550236Y-75389313D01*
X211536171Y-75387461D01*
X211536170Y-75387460D01*
X211437728Y-75374500D01*
X211437727Y-75374500D01*
X211437720Y-75374500D01*
X210612280Y-75374500D01*
X210612272Y-75374500D01*
X210507822Y-75388252D01*
X210503760Y-75388518D01*
X210499764Y-75389313D01*
X210499763Y-75389313D01*
X210499762Y-75389313D01*
X210499759Y-75389314D01*
X210363836Y-75445615D01*
X210355598Y-75448690D01*
X210354311Y-75449118D01*
X210345312Y-75458392D01*
X210239551Y-75539546D01*
X210239549Y-75539549D01*
X210168959Y-75631544D01*
X210159285Y-75644151D01*
X210147298Y-75659772D01*
X210089313Y-75799761D01*
X210088518Y-75803760D01*
X210088252Y-75807822D01*
X210074500Y-75912271D01*
X210074500Y-77531336D01*
X210069476Y-77566273D01*
X210062064Y-77591514D01*
X210030769Y-77644258D01*
X209716709Y-77958318D01*
X209688453Y-77979470D01*
X209674732Y-77986962D01*
X209606472Y-78001814D01*
X209604666Y-78001685D01*
X209546461Y-77982315D01*
X209516281Y-77962919D01*
X209513678Y-77962624D01*
X209499809Y-77955733D01*
X209447439Y-77925497D01*
X209418187Y-77908608D01*
X209354539Y-77891554D01*
X209290892Y-77874500D01*
X209290891Y-77874500D01*
X209159108Y-77874500D01*
X209031808Y-77908609D01*
X209031806Y-77908610D01*
X208917696Y-77974493D01*
X208917682Y-77974502D01*
X208917677Y-77974506D01*
X208824506Y-78067677D01*
X208824502Y-78067682D01*
X208824493Y-78067696D01*
X208758610Y-78181806D01*
X208758609Y-78181808D01*
X208758608Y-78181812D01*
X208724500Y-78309108D01*
X208724500Y-78440891D01*
X208756283Y-78559511D01*
X208758609Y-78568189D01*
X208785902Y-78615461D01*
X208785903Y-78615462D01*
X208824497Y-78682310D01*
X208824499Y-78682313D01*
X208824500Y-78682314D01*
X208917686Y-78775500D01*
X209031814Y-78841392D01*
X209159108Y-78875500D01*
X209159110Y-78875500D01*
X209290890Y-78875500D01*
X209290892Y-78875500D01*
X209418186Y-78841392D01*
X209532314Y-78775500D01*
X209583389Y-78724424D01*
X209611640Y-78703275D01*
X209634732Y-78690667D01*
X209694157Y-78675500D01*
X209764560Y-78675500D01*
X209764562Y-78675500D01*
X209840989Y-78655021D01*
X209909511Y-78615460D01*
X209965460Y-78559511D01*
X209985843Y-78539126D01*
X210014089Y-78517979D01*
X210026491Y-78511207D01*
X210094758Y-78496353D01*
X210159636Y-78520330D01*
X210170474Y-78528343D01*
X210195124Y-78552558D01*
X210211956Y-78574492D01*
X210211962Y-78574499D01*
X210211963Y-78574500D01*
X210237134Y-78607303D01*
X210239550Y-78610452D01*
X210270850Y-78634469D01*
X210358075Y-78701400D01*
X210359766Y-78702697D01*
X210359769Y-78702699D01*
X210380270Y-78711190D01*
X210499764Y-78760687D01*
X210612280Y-78775500D01*
X210612287Y-78775500D01*
X211437713Y-78775500D01*
X211437720Y-78775500D01*
X211550236Y-78760687D01*
X211690233Y-78702698D01*
X211785874Y-78629308D01*
X211816634Y-78612033D01*
X211828276Y-78607532D01*
X211897900Y-78601718D01*
X211959618Y-78634469D01*
X211992951Y-78691803D01*
X211995462Y-78701400D01*
X211999500Y-78732787D01*
X211999500Y-84588601D01*
X211994476Y-84623541D01*
X211990961Y-84635510D01*
X211953184Y-84694287D01*
X211889627Y-84723309D01*
X211823849Y-84714846D01*
X211814493Y-84710905D01*
X211792027Y-84698341D01*
X211791955Y-84698450D01*
X211790572Y-84697528D01*
X211790475Y-84697474D01*
X211790259Y-84697320D01*
X211790239Y-84697307D01*
X211790233Y-84697302D01*
X211790230Y-84697300D01*
X211699731Y-84659814D01*
X211699730Y-84659813D01*
X211650238Y-84639313D01*
X211650236Y-84639313D01*
X211636171Y-84637461D01*
X211636170Y-84637460D01*
X211537728Y-84624500D01*
X211537727Y-84624500D01*
X211537720Y-84624500D01*
X210712280Y-84624500D01*
X210712272Y-84624500D01*
X210607822Y-84638252D01*
X210603760Y-84638518D01*
X210599764Y-84639313D01*
X210599763Y-84639313D01*
X210599762Y-84639313D01*
X210599759Y-84639314D01*
X210463836Y-84695615D01*
X210455598Y-84698690D01*
X210454311Y-84699118D01*
X210445312Y-84708392D01*
X210339551Y-84789546D01*
X210250507Y-84905591D01*
X210250501Y-84905599D01*
X210247299Y-84909770D01*
X210189313Y-85049761D01*
X210188518Y-85053760D01*
X210188252Y-85057822D01*
X210174500Y-85162271D01*
X210174500Y-86781337D01*
X210169476Y-86816274D01*
X210162064Y-86841515D01*
X210130769Y-86894259D01*
X209024455Y-88000573D01*
X208996204Y-88021722D01*
X208973116Y-88034330D01*
X208913686Y-88049500D01*
X208576506Y-88049500D01*
X208541570Y-88044477D01*
X208516328Y-88037065D01*
X208463583Y-88005769D01*
X208407316Y-87949502D01*
X208407314Y-87949500D01*
X208306892Y-87891521D01*
X208293187Y-87883608D01*
X208206762Y-87860451D01*
X208206762Y-87860450D01*
X208165893Y-87849500D01*
X208165892Y-87849500D01*
X208034108Y-87849500D01*
X207906808Y-87883609D01*
X207906806Y-87883610D01*
X207792696Y-87949493D01*
X207792682Y-87949502D01*
X207792677Y-87949506D01*
X207699506Y-88042677D01*
X207699502Y-88042682D01*
X207699493Y-88042696D01*
X207633610Y-88156806D01*
X207633609Y-88156808D01*
X207599500Y-88284108D01*
X207599500Y-88415895D01*
X207615469Y-88475494D01*
X207615470Y-88475494D01*
X207615470Y-88475495D01*
X207626234Y-88515665D01*
X207633609Y-88543190D01*
X207660902Y-88590461D01*
X207660903Y-88590462D01*
X207699497Y-88657310D01*
X207699499Y-88657313D01*
X207699500Y-88657314D01*
X207792686Y-88750500D01*
X207864218Y-88791799D01*
X207905019Y-88815356D01*
X207906814Y-88816392D01*
X208034108Y-88850500D01*
X208034110Y-88850500D01*
X208165890Y-88850500D01*
X208165892Y-88850500D01*
X208293186Y-88816392D01*
X208407314Y-88750500D01*
X208458389Y-88699424D01*
X208486640Y-88678275D01*
X208509732Y-88665667D01*
X208569157Y-88650500D01*
X209139560Y-88650500D01*
X209139562Y-88650500D01*
X209215989Y-88630021D01*
X209284511Y-88590460D01*
X209340460Y-88534511D01*
X210085845Y-87789123D01*
X210114089Y-87767979D01*
X210126495Y-87761205D01*
X210194765Y-87746354D01*
X210259640Y-87770332D01*
X210270476Y-87778344D01*
X210295124Y-87802557D01*
X210306449Y-87817315D01*
X210312747Y-87825522D01*
X210338916Y-87859627D01*
X210339549Y-87860451D01*
X210459767Y-87952698D01*
X210599764Y-88010687D01*
X210712280Y-88025500D01*
X210712287Y-88025500D01*
X211537713Y-88025500D01*
X211537720Y-88025500D01*
X211650236Y-88010687D01*
X211790233Y-87952698D01*
X211790237Y-87952694D01*
X211797267Y-87948636D01*
X211797707Y-87949399D01*
X211816637Y-87938766D01*
X211820491Y-87937276D01*
X211828271Y-87934267D01*
X211897897Y-87928450D01*
X211959616Y-87961200D01*
X211992950Y-88018533D01*
X211995461Y-88028129D01*
X211999500Y-88059519D01*
X211999500Y-88613601D01*
X211994476Y-88648541D01*
X211990961Y-88660510D01*
X211953184Y-88719287D01*
X211889627Y-88748309D01*
X211823849Y-88739846D01*
X211814493Y-88735905D01*
X211792027Y-88723341D01*
X211791955Y-88723450D01*
X211790572Y-88722528D01*
X211790475Y-88722474D01*
X211790259Y-88722320D01*
X211790233Y-88722302D01*
X211790231Y-88722301D01*
X211790230Y-88722300D01*
X211674829Y-88674500D01*
X211674826Y-88674498D01*
X211650238Y-88664313D01*
X211640859Y-88663078D01*
X211636171Y-88662461D01*
X211636170Y-88662460D01*
X211537728Y-88649500D01*
X211537727Y-88649500D01*
X211537720Y-88649500D01*
X210712280Y-88649500D01*
X210712272Y-88649500D01*
X210607822Y-88663252D01*
X210603760Y-88663518D01*
X210599764Y-88664313D01*
X210599763Y-88664313D01*
X210599762Y-88664313D01*
X210599759Y-88664314D01*
X210463836Y-88720615D01*
X210455598Y-88723690D01*
X210454311Y-88724118D01*
X210445312Y-88733392D01*
X210339553Y-88814545D01*
X210339551Y-88814547D01*
X210339549Y-88814549D01*
X210249364Y-88932081D01*
X210247739Y-88934199D01*
X210247706Y-88934241D01*
X210247302Y-88934765D01*
X210247299Y-88934771D01*
X210189313Y-89074761D01*
X210188518Y-89078760D01*
X210188252Y-89082822D01*
X210174500Y-89187271D01*
X210174500Y-90806337D01*
X210169476Y-90841274D01*
X210162064Y-90866515D01*
X210130769Y-90919259D01*
X209024455Y-92025573D01*
X208996204Y-92046722D01*
X208973116Y-92059330D01*
X208913686Y-92074500D01*
X208859108Y-92074500D01*
X208731808Y-92108609D01*
X208731806Y-92108610D01*
X208617696Y-92174493D01*
X208617682Y-92174502D01*
X208617677Y-92174506D01*
X208524506Y-92267677D01*
X208524502Y-92267682D01*
X208524501Y-92267684D01*
X208458610Y-92381806D01*
X208458609Y-92381808D01*
X208432562Y-92479019D01*
X208424500Y-92509108D01*
X208424500Y-92640891D01*
X208428901Y-92657316D01*
X208458608Y-92768188D01*
X208474440Y-92795608D01*
X208486439Y-92816391D01*
X208524500Y-92882314D01*
X208617686Y-92975500D01*
X208711738Y-93029801D01*
X208722450Y-93035986D01*
X208731814Y-93041392D01*
X208731816Y-93041392D01*
X208731817Y-93041393D01*
X208744652Y-93044832D01*
X208859108Y-93075500D01*
X208859110Y-93075500D01*
X208990890Y-93075500D01*
X208990892Y-93075500D01*
X209118186Y-93041392D01*
X209232314Y-92975500D01*
X209325500Y-92882314D01*
X209391392Y-92768186D01*
X209425500Y-92640892D01*
X209425500Y-92543661D01*
X209430522Y-92508728D01*
X209437934Y-92483483D01*
X209469228Y-92430741D01*
X209779470Y-92120500D01*
X210085848Y-91814120D01*
X210114089Y-91792979D01*
X210126495Y-91786205D01*
X210194765Y-91771354D01*
X210259639Y-91795332D01*
X210268008Y-91801519D01*
X210270475Y-91803343D01*
X210295124Y-91827556D01*
X210311960Y-91849497D01*
X210311962Y-91849500D01*
X210311963Y-91849500D01*
X210338134Y-91883608D01*
X210339549Y-91885451D01*
X210459767Y-91977698D01*
X210459768Y-91977698D01*
X210459769Y-91977699D01*
X210466300Y-91980404D01*
X210599764Y-92035687D01*
X210712280Y-92050500D01*
X210712287Y-92050500D01*
X211537713Y-92050500D01*
X211537720Y-92050500D01*
X211650236Y-92035687D01*
X211790233Y-91977698D01*
X211790237Y-91977694D01*
X211797267Y-91973636D01*
X211797707Y-91974399D01*
X211816637Y-91963766D01*
X211828271Y-91959267D01*
X211897897Y-91953450D01*
X211959616Y-91986200D01*
X211992950Y-92043533D01*
X211995461Y-92053129D01*
X211999500Y-92084519D01*
X211999500Y-111857670D01*
X211994475Y-111892614D01*
X211990070Y-111907612D01*
X211952327Y-111966355D01*
X211950958Y-111967542D01*
X211896097Y-111995018D01*
X211888539Y-111996663D01*
X211862168Y-111999500D01*
X168142330Y-111999500D01*
X168107389Y-111994475D01*
X168092390Y-111990070D01*
X168033644Y-111952327D01*
X168032457Y-111950958D01*
X168004977Y-111896083D01*
X168003332Y-111888521D01*
X168000500Y-111862168D01*
X168000500Y-110973183D01*
X192650000Y-110973183D01*
X203178300Y-111000000D01*
X203205059Y-107378710D01*
X205649500Y-107378710D01*
X205649500Y-107621288D01*
X205681160Y-107861781D01*
X205743947Y-108096104D01*
X205836772Y-108320203D01*
X205836773Y-108320207D01*
X205836780Y-108320220D01*
X205958060Y-108530283D01*
X205958062Y-108530286D01*
X205958281Y-108530615D01*
X205959284Y-108531879D01*
X206105726Y-108722728D01*
X206105730Y-108722733D01*
X206105733Y-108722736D01*
X206105739Y-108722743D01*
X206105747Y-108722751D01*
X206277242Y-108894247D01*
X206277256Y-108894260D01*
X206277262Y-108894265D01*
X206469711Y-109041936D01*
X206679788Y-109163224D01*
X206903900Y-109256054D01*
X207138211Y-109318838D01*
X207318586Y-109342584D01*
X207378710Y-109350500D01*
X207378711Y-109350500D01*
X207378712Y-109350500D01*
X207621283Y-109350500D01*
X207621289Y-109350500D01*
X207669388Y-109344167D01*
X207861789Y-109318838D01*
X208096100Y-109256054D01*
X208320212Y-109163224D01*
X208530289Y-109041936D01*
X208722738Y-108894265D01*
X208894265Y-108722738D01*
X209041936Y-108530289D01*
X209163224Y-108320212D01*
X209256054Y-108096100D01*
X209318838Y-107861789D01*
X209350500Y-107621288D01*
X209350500Y-107378712D01*
X209318838Y-107138211D01*
X209256054Y-106903900D01*
X209163224Y-106679788D01*
X209041936Y-106469711D01*
X208894265Y-106277262D01*
X208894260Y-106277256D01*
X208894259Y-106277255D01*
X208894247Y-106277242D01*
X208722751Y-106105747D01*
X208722743Y-106105739D01*
X208722736Y-106105733D01*
X208722733Y-106105730D01*
X208722728Y-106105726D01*
X208531879Y-105959284D01*
X208530615Y-105958281D01*
X208530286Y-105958062D01*
X208530283Y-105958060D01*
X208320220Y-105836780D01*
X208320207Y-105836773D01*
X208320203Y-105836772D01*
X208096104Y-105743947D01*
X207861785Y-105681161D01*
X207861784Y-105681160D01*
X207861781Y-105681160D01*
X207621290Y-105649500D01*
X207621289Y-105649500D01*
X207621288Y-105649500D01*
X207378712Y-105649500D01*
X207378711Y-105649500D01*
X207378710Y-105649500D01*
X207138217Y-105681160D01*
X206903894Y-105743947D01*
X206679790Y-105836774D01*
X206679782Y-105836778D01*
X206469706Y-105958067D01*
X206469697Y-105958073D01*
X206277270Y-106105726D01*
X206277255Y-106105740D01*
X206277247Y-106105747D01*
X206105747Y-106277247D01*
X206105740Y-106277255D01*
X206105726Y-106277270D01*
X205958073Y-106469697D01*
X205958067Y-106469706D01*
X205836778Y-106679782D01*
X205836774Y-106679790D01*
X205743947Y-106903894D01*
X205681160Y-107138217D01*
X205649500Y-107378710D01*
X203205059Y-107378710D01*
X203217463Y-105700000D01*
X192650000Y-105700000D01*
X192650000Y-110973183D01*
X168000500Y-110973183D01*
X168000500Y-107378710D01*
X170649500Y-107378710D01*
X170649500Y-107621288D01*
X170681160Y-107861781D01*
X170743947Y-108096104D01*
X170836772Y-108320203D01*
X170836773Y-108320207D01*
X170836780Y-108320220D01*
X170958060Y-108530283D01*
X170958062Y-108530286D01*
X170958281Y-108530615D01*
X170959284Y-108531879D01*
X171105726Y-108722728D01*
X171105730Y-108722733D01*
X171105733Y-108722736D01*
X171105739Y-108722743D01*
X171105747Y-108722751D01*
X171277242Y-108894247D01*
X171277256Y-108894260D01*
X171277262Y-108894265D01*
X171469711Y-109041936D01*
X171679788Y-109163224D01*
X171903900Y-109256054D01*
X172138211Y-109318838D01*
X172318586Y-109342584D01*
X172378710Y-109350500D01*
X172378711Y-109350500D01*
X172378712Y-109350500D01*
X172621283Y-109350500D01*
X172621289Y-109350500D01*
X172669388Y-109344167D01*
X172861789Y-109318838D01*
X173096100Y-109256054D01*
X173320212Y-109163224D01*
X173530289Y-109041936D01*
X173722738Y-108894265D01*
X173894265Y-108722738D01*
X174041936Y-108530289D01*
X174163224Y-108320212D01*
X174256054Y-108096100D01*
X174318838Y-107861789D01*
X174350500Y-107621288D01*
X174350500Y-107378712D01*
X174318838Y-107138211D01*
X174256054Y-106903900D01*
X174169829Y-106695734D01*
X174163457Y-106680350D01*
X174163238Y-106679812D01*
X174149378Y-106655807D01*
X174041936Y-106469711D01*
X173894265Y-106277262D01*
X173894260Y-106277256D01*
X173894259Y-106277255D01*
X173894247Y-106277242D01*
X173722751Y-106105747D01*
X173722743Y-106105739D01*
X173722736Y-106105733D01*
X173722733Y-106105730D01*
X173722728Y-106105726D01*
X173531879Y-105959284D01*
X173530615Y-105958281D01*
X173530286Y-105958062D01*
X173530283Y-105958060D01*
X173320220Y-105836780D01*
X173320207Y-105836773D01*
X173320203Y-105836772D01*
X173096104Y-105743947D01*
X172861785Y-105681161D01*
X172861784Y-105681160D01*
X172861781Y-105681160D01*
X172621290Y-105649500D01*
X172621289Y-105649500D01*
X172621288Y-105649500D01*
X172378712Y-105649500D01*
X172378711Y-105649500D01*
X172378710Y-105649500D01*
X172138217Y-105681160D01*
X171903894Y-105743947D01*
X171679790Y-105836774D01*
X171679782Y-105836778D01*
X171469706Y-105958067D01*
X171469697Y-105958073D01*
X171277270Y-106105726D01*
X171277255Y-106105740D01*
X171277247Y-106105747D01*
X171105747Y-106277247D01*
X171105740Y-106277255D01*
X171105726Y-106277270D01*
X170958073Y-106469697D01*
X170958067Y-106469706D01*
X170836778Y-106679782D01*
X170836774Y-106679790D01*
X170743947Y-106903894D01*
X170681160Y-107138217D01*
X170649500Y-107378710D01*
X168000500Y-107378710D01*
X168000500Y-101734108D01*
X173199500Y-101734108D01*
X173199500Y-101865893D01*
X173221901Y-101949497D01*
X173229383Y-101977417D01*
X173229384Y-101977422D01*
X173233608Y-101993189D01*
X173279434Y-102072561D01*
X173292552Y-102105328D01*
X173296987Y-102123610D01*
X173295460Y-102187774D01*
X173292525Y-102197771D01*
X173280934Y-102224840D01*
X173233608Y-102306810D01*
X173233609Y-102306811D01*
X173199500Y-102434108D01*
X173199500Y-102565891D01*
X173206814Y-102593187D01*
X173233608Y-102693188D01*
X173241766Y-102707316D01*
X173241768Y-102707320D01*
X173299499Y-102807313D01*
X173301528Y-102809957D01*
X173311983Y-102826015D01*
X173320540Y-102841686D01*
X173335393Y-102909948D01*
X173335264Y-102911754D01*
X173315890Y-102969965D01*
X173311653Y-102976557D01*
X173303246Y-102988115D01*
X173299502Y-102992682D01*
X173299493Y-102992696D01*
X173233610Y-103106806D01*
X173233609Y-103106808D01*
X173233608Y-103106812D01*
X173199500Y-103234108D01*
X173199500Y-103365891D01*
X173216554Y-103429539D01*
X173233608Y-103493188D01*
X173266554Y-103550250D01*
X173299500Y-103607314D01*
X173392686Y-103700500D01*
X173506814Y-103766392D01*
X173634108Y-103800500D01*
X173634110Y-103800500D01*
X173765890Y-103800500D01*
X173765892Y-103800500D01*
X173893186Y-103766392D01*
X174007314Y-103700500D01*
X174100500Y-103607314D01*
X174166392Y-103493186D01*
X174200500Y-103365892D01*
X174200500Y-103234108D01*
X174166392Y-103106814D01*
X174166387Y-103106806D01*
X174154331Y-103085924D01*
X174100500Y-102992686D01*
X174100498Y-102992684D01*
X174100497Y-102992682D01*
X174098472Y-102990043D01*
X174088016Y-102973984D01*
X174079459Y-102958313D01*
X174064606Y-102890051D01*
X174064735Y-102888242D01*
X174084101Y-102830047D01*
X174088294Y-102823523D01*
X174095931Y-102814050D01*
X174095553Y-102813760D01*
X174100492Y-102807321D01*
X174100500Y-102807314D01*
X174166392Y-102693186D01*
X174200500Y-102565892D01*
X174200500Y-102434108D01*
X174166392Y-102306814D01*
X174161210Y-102297838D01*
X174120565Y-102227439D01*
X174107449Y-102194678D01*
X174103012Y-102176392D01*
X174104539Y-102112215D01*
X174107475Y-102102217D01*
X174119062Y-102075162D01*
X174120564Y-102072561D01*
X174166392Y-101993186D01*
X174200500Y-101865892D01*
X174200500Y-101734108D01*
X174166392Y-101606814D01*
X174166387Y-101606806D01*
X174141710Y-101564064D01*
X174100500Y-101492686D01*
X174007314Y-101399500D01*
X173950250Y-101366554D01*
X173893187Y-101333608D01*
X173829539Y-101316554D01*
X173765892Y-101299500D01*
X173765891Y-101299500D01*
X173634108Y-101299500D01*
X173506808Y-101333609D01*
X173506806Y-101333610D01*
X173392696Y-101399493D01*
X173392682Y-101399502D01*
X173392677Y-101399506D01*
X173299506Y-101492677D01*
X173299502Y-101492682D01*
X173299493Y-101492696D01*
X173233610Y-101606806D01*
X173233609Y-101606808D01*
X173199500Y-101734108D01*
X168000500Y-101734108D01*
X168000500Y-99234108D01*
X177999500Y-99234108D01*
X177999500Y-99365891D01*
X178013022Y-99416358D01*
X178033608Y-99493188D01*
X178041764Y-99507313D01*
X178041766Y-99507316D01*
X178099500Y-99607314D01*
X178099502Y-99607316D01*
X178150859Y-99658673D01*
X178172011Y-99686929D01*
X178179503Y-99700650D01*
X178194354Y-99768916D01*
X178193722Y-99777758D01*
X178177425Y-99830917D01*
X178133607Y-99906810D01*
X178099500Y-100034106D01*
X178099500Y-100034108D01*
X178099500Y-100165891D01*
X178106814Y-100193187D01*
X178133608Y-100293188D01*
X178141766Y-100307316D01*
X178141768Y-100307320D01*
X178156946Y-100333608D01*
X178199500Y-100407314D01*
X178292686Y-100500500D01*
X178406814Y-100566392D01*
X178534108Y-100600500D01*
X178534110Y-100600500D01*
X178665890Y-100600500D01*
X178665892Y-100600500D01*
X178793186Y-100566392D01*
X178907314Y-100500500D01*
X179000500Y-100407314D01*
X179066392Y-100293186D01*
X179100500Y-100165892D01*
X179100500Y-100142329D01*
X179105523Y-100107393D01*
X179109927Y-100092395D01*
X179147672Y-100033644D01*
X179149041Y-100032457D01*
X179203920Y-100004977D01*
X179211479Y-100003333D01*
X179237832Y-100000500D01*
X179265890Y-100000500D01*
X179265892Y-100000500D01*
X179393186Y-99966392D01*
X179507314Y-99900500D01*
X179592020Y-99815793D01*
X179620264Y-99794650D01*
X179636780Y-99785632D01*
X179699156Y-99770499D01*
X179709572Y-99770747D01*
X179738705Y-99774936D01*
X179834108Y-99800500D01*
X179834111Y-99800500D01*
X179965890Y-99800500D01*
X179965892Y-99800500D01*
X180093186Y-99766392D01*
X180207314Y-99700500D01*
X180300500Y-99607314D01*
X180366392Y-99493186D01*
X180400500Y-99365892D01*
X180400500Y-99234108D01*
X180366392Y-99106814D01*
X180366387Y-99106806D01*
X180348338Y-99075544D01*
X180300500Y-98992686D01*
X180207314Y-98899500D01*
X180132024Y-98856031D01*
X180093187Y-98833608D01*
X180037399Y-98818660D01*
X180037398Y-98818659D01*
X179983608Y-98804247D01*
X179965519Y-98797864D01*
X179940026Y-98786582D01*
X179886688Y-98741451D01*
X179877196Y-98727055D01*
X179867204Y-98708221D01*
X179866388Y-98706807D01*
X179800500Y-98592686D01*
X179707314Y-98499500D01*
X179635055Y-98457781D01*
X179593187Y-98433608D01*
X179501145Y-98408946D01*
X179501143Y-98408945D01*
X179465893Y-98399500D01*
X179465892Y-98399500D01*
X179334108Y-98399500D01*
X179206808Y-98433609D01*
X179206806Y-98433610D01*
X179092696Y-98499493D01*
X179092682Y-98499502D01*
X179092677Y-98499506D01*
X178999506Y-98592677D01*
X178999498Y-98592686D01*
X178999496Y-98592690D01*
X178933610Y-98706807D01*
X178933608Y-98706812D01*
X178918413Y-98763519D01*
X178904518Y-98795966D01*
X178897295Y-98807815D01*
X178845593Y-98854812D01*
X178776700Y-98866397D01*
X178768256Y-98865387D01*
X178720975Y-98849651D01*
X178693194Y-98833612D01*
X178693195Y-98833612D01*
X178693189Y-98833609D01*
X178693186Y-98833608D01*
X178693182Y-98833606D01*
X178583608Y-98804247D01*
X178565892Y-98799500D01*
X178565891Y-98799500D01*
X178434108Y-98799500D01*
X178306808Y-98833609D01*
X178306806Y-98833610D01*
X178192696Y-98899493D01*
X178192682Y-98899502D01*
X178192677Y-98899506D01*
X178099506Y-98992677D01*
X178099502Y-98992682D01*
X178099493Y-98992696D01*
X178033610Y-99106806D01*
X178033609Y-99106808D01*
X178033608Y-99106812D01*
X177999500Y-99234108D01*
X168000500Y-99234108D01*
X168000500Y-98211267D01*
X168005521Y-98176339D01*
X168008461Y-98166325D01*
X168009132Y-98164040D01*
X168046902Y-98105261D01*
X168110456Y-98076233D01*
X168175178Y-98084251D01*
X168183923Y-98087839D01*
X168210487Y-98102786D01*
X168312118Y-98177793D01*
X168346984Y-98189993D01*
X168349827Y-98190988D01*
X168349830Y-98190989D01*
X168440299Y-98222646D01*
X168440303Y-98222647D01*
X168458742Y-98224375D01*
X168470730Y-98225500D01*
X168470734Y-98225500D01*
X168470739Y-98225500D01*
X169529270Y-98225500D01*
X169529271Y-98225500D01*
X169553920Y-98223188D01*
X169557497Y-98223020D01*
X169559700Y-98222646D01*
X169559701Y-98222646D01*
X169625847Y-98199500D01*
X169687882Y-98177793D01*
X169797150Y-98097150D01*
X169877793Y-97987882D01*
X169902406Y-97917542D01*
X169911156Y-97892538D01*
X169911156Y-97892535D01*
X169922646Y-97859701D01*
X169922646Y-97859699D01*
X169922646Y-97859690D01*
X169923020Y-97857497D01*
X169923188Y-97853919D01*
X169925500Y-97829270D01*
X169925500Y-97220728D01*
X169923188Y-97196079D01*
X169923020Y-97192501D01*
X169922645Y-97190295D01*
X169885313Y-97083607D01*
X169877794Y-97062121D01*
X169877793Y-97062118D01*
X169868161Y-97049067D01*
X169797150Y-96952850D01*
X169687882Y-96872207D01*
X169687880Y-96872206D01*
X169559704Y-96827354D01*
X169559702Y-96827353D01*
X169559700Y-96827353D01*
X169529270Y-96824500D01*
X169529266Y-96824500D01*
X169529264Y-96824500D01*
X169318663Y-96824500D01*
X169283727Y-96819477D01*
X169258485Y-96812065D01*
X169205740Y-96780769D01*
X168739426Y-96314455D01*
X168718274Y-96286199D01*
X168705667Y-96263110D01*
X168690500Y-96203685D01*
X168690500Y-88823661D01*
X168695522Y-88788728D01*
X168701094Y-88769752D01*
X168702934Y-88763483D01*
X168734226Y-88710743D01*
X168895550Y-88549418D01*
X168923801Y-88528272D01*
X168946891Y-88515665D01*
X169006314Y-88500499D01*
X169209895Y-88500499D01*
X169209900Y-88500499D01*
X169259487Y-88493972D01*
X169368316Y-88443224D01*
X169442119Y-88369420D01*
X169470366Y-88348275D01*
X169493458Y-88335667D01*
X169552883Y-88320500D01*
X170757670Y-88320500D01*
X170792606Y-88325523D01*
X170807604Y-88329927D01*
X170866355Y-88367672D01*
X170867542Y-88369041D01*
X170895018Y-88423902D01*
X170896663Y-88431460D01*
X170899500Y-88457831D01*
X170899500Y-88769752D01*
X170911131Y-88828229D01*
X170911132Y-88828230D01*
X170914024Y-88833641D01*
X170917917Y-88838385D01*
X170923935Y-88847391D01*
X170955447Y-88894552D01*
X171003199Y-88926459D01*
X171011613Y-88932081D01*
X171016358Y-88935975D01*
X171021770Y-88938868D01*
X171072612Y-88948981D01*
X171075337Y-88949703D01*
X171080249Y-88950500D01*
X172919750Y-88950500D01*
X172923876Y-88950500D01*
X172931742Y-88948114D01*
X172934579Y-88947550D01*
X172966260Y-88941249D01*
X172972355Y-88940648D01*
X172972384Y-88940640D01*
X172978346Y-88939146D01*
X172983604Y-88935995D01*
X172994454Y-88930196D01*
X172995894Y-88932890D01*
X173016899Y-88920164D01*
X173026840Y-88917051D01*
X173096695Y-88915800D01*
X173156141Y-88952514D01*
X173184793Y-89007803D01*
X173186617Y-89015798D01*
X173189723Y-89043098D01*
X173200000Y-93574999D01*
X173200000Y-93575000D01*
X175607394Y-93569502D01*
X175642330Y-93574444D01*
X175657345Y-93578816D01*
X175716206Y-93616455D01*
X175716908Y-93617261D01*
X175717363Y-93617784D01*
X175744951Y-93672668D01*
X175746633Y-93680353D01*
X175749500Y-93706865D01*
X175749500Y-95519752D01*
X175761131Y-95578229D01*
X175761132Y-95578230D01*
X175764024Y-95583641D01*
X175767917Y-95588385D01*
X175778116Y-95603649D01*
X175805447Y-95644552D01*
X175857779Y-95679519D01*
X175861613Y-95682081D01*
X175866358Y-95685975D01*
X175871770Y-95688868D01*
X175922612Y-95698981D01*
X175925337Y-95699703D01*
X175930249Y-95700500D01*
X175930250Y-95700500D01*
X175930252Y-95700500D01*
X176282754Y-95700500D01*
X176317690Y-95705523D01*
X176332688Y-95709927D01*
X176391462Y-95747698D01*
X176398580Y-95755912D01*
X176418044Y-95787423D01*
X176418187Y-95787353D01*
X176418922Y-95788845D01*
X176419434Y-95789673D01*
X176419980Y-95790991D01*
X176437780Y-95821823D01*
X176450706Y-95844211D01*
X176451130Y-95844945D01*
X176451152Y-95845030D01*
X176451172Y-95845019D01*
X176459538Y-95859509D01*
X176459539Y-95859510D01*
X176459540Y-95859511D01*
X176525577Y-95925548D01*
X176546725Y-95953799D01*
X176554541Y-95968113D01*
X176559332Y-95976886D01*
X176574500Y-96036313D01*
X176574500Y-96115892D01*
X176575150Y-96118315D01*
X176576143Y-96122022D01*
X176576144Y-96122027D01*
X176608608Y-96243187D01*
X176632461Y-96284500D01*
X176632462Y-96284502D01*
X176674497Y-96357310D01*
X176674499Y-96357313D01*
X176674500Y-96357314D01*
X176767686Y-96450500D01*
X176881814Y-96516392D01*
X177009108Y-96550500D01*
X177009110Y-96550500D01*
X177140890Y-96550500D01*
X177140892Y-96550500D01*
X177268186Y-96516392D01*
X177382314Y-96450500D01*
X177475500Y-96357314D01*
X177541392Y-96243186D01*
X177575500Y-96115892D01*
X177575500Y-95984108D01*
X177542114Y-95859509D01*
X177541391Y-95856809D01*
X177534741Y-95845292D01*
X177521625Y-95812533D01*
X177517939Y-95797344D01*
X177521257Y-95727557D01*
X177522274Y-95724621D01*
X177562813Y-95667718D01*
X177602385Y-95646872D01*
X177613039Y-95643535D01*
X177682893Y-95642287D01*
X177696026Y-95645889D01*
X177732113Y-95662369D01*
X177771768Y-95688867D01*
X177771770Y-95688868D01*
X177822614Y-95698980D01*
X177825340Y-95699703D01*
X177830249Y-95700500D01*
X179369750Y-95700500D01*
X179373876Y-95700500D01*
X179381742Y-95698114D01*
X179384568Y-95697552D01*
X179390792Y-95696314D01*
X179428229Y-95688868D01*
X179428231Y-95688867D01*
X179466286Y-95663439D01*
X179498120Y-95648208D01*
X179509798Y-95644551D01*
X179513036Y-95643536D01*
X179582889Y-95642286D01*
X179596028Y-95645890D01*
X179632114Y-95662370D01*
X179671768Y-95688867D01*
X179671770Y-95688868D01*
X179722614Y-95698980D01*
X179725340Y-95699703D01*
X179730249Y-95700500D01*
X181269750Y-95700500D01*
X181273876Y-95700500D01*
X181281742Y-95698114D01*
X181284568Y-95697552D01*
X181328229Y-95688868D01*
X181328229Y-95688867D01*
X181328231Y-95688867D01*
X181394552Y-95644552D01*
X181438867Y-95578231D01*
X181438867Y-95578229D01*
X181438868Y-95578229D01*
X181450072Y-95521896D01*
X181450500Y-95519931D01*
X181450500Y-93697709D01*
X181455523Y-93662773D01*
X181457809Y-93654990D01*
X181459927Y-93647774D01*
X181497688Y-93589010D01*
X181499114Y-93587774D01*
X181553821Y-93560342D01*
X181559955Y-93558999D01*
X181561252Y-93558715D01*
X181587470Y-93555849D01*
X184150000Y-93550000D01*
X184149737Y-93434106D01*
X188499500Y-93434106D01*
X188499500Y-93434108D01*
X188499500Y-93565892D01*
X188506174Y-93590800D01*
X188515466Y-93625479D01*
X188515472Y-93625500D01*
X188533195Y-93691648D01*
X188533608Y-93693187D01*
X188538113Y-93700990D01*
X188538115Y-93700996D01*
X188538117Y-93700996D01*
X188599500Y-93807314D01*
X188692686Y-93900500D01*
X188806814Y-93966392D01*
X188934108Y-94000500D01*
X188934110Y-94000500D01*
X189065890Y-94000500D01*
X189065892Y-94000500D01*
X189193186Y-93966392D01*
X189307314Y-93900500D01*
X189400500Y-93807314D01*
X189466392Y-93693186D01*
X189500500Y-93565892D01*
X189500500Y-93434108D01*
X189466392Y-93306814D01*
X189463648Y-93302062D01*
X189463646Y-93302059D01*
X189463645Y-93302054D01*
X189463639Y-93302047D01*
X189461976Y-93299167D01*
X189457563Y-93291521D01*
X189400500Y-93192686D01*
X189307314Y-93099500D01*
X189222444Y-93050500D01*
X189222444Y-93050499D01*
X189222442Y-93050499D01*
X189193187Y-93033608D01*
X189112569Y-93012007D01*
X189065892Y-92999500D01*
X189065891Y-92999500D01*
X188934108Y-92999500D01*
X188806808Y-93033609D01*
X188806806Y-93033610D01*
X188692696Y-93099493D01*
X188692682Y-93099502D01*
X188692677Y-93099506D01*
X188599506Y-93192677D01*
X188599502Y-93192682D01*
X188599493Y-93192696D01*
X188533610Y-93306806D01*
X188533609Y-93306809D01*
X188533608Y-93306811D01*
X188533608Y-93306812D01*
X188512253Y-93386511D01*
X188511292Y-93390099D01*
X188499500Y-93434106D01*
X184149737Y-93434106D01*
X184144185Y-90992011D01*
X184149129Y-90957069D01*
X184151237Y-90949829D01*
X184153250Y-90942913D01*
X184190890Y-90884051D01*
X184251791Y-90855288D01*
X184270155Y-90852207D01*
X184290664Y-90850500D01*
X186123876Y-90850500D01*
X186131742Y-90848114D01*
X186134568Y-90847552D01*
X186178229Y-90838868D01*
X186178229Y-90838867D01*
X186178231Y-90838867D01*
X186244552Y-90794552D01*
X186288867Y-90728231D01*
X186288867Y-90728229D01*
X186288868Y-90728229D01*
X186300072Y-90671896D01*
X186300500Y-90669931D01*
X186300500Y-89669314D01*
X186305522Y-89634381D01*
X186309433Y-89621062D01*
X186347206Y-89562285D01*
X186410758Y-89533260D01*
X186412399Y-89533024D01*
X186470574Y-89538585D01*
X186473721Y-89539675D01*
X186473721Y-89539674D01*
X186499261Y-89548514D01*
X186503283Y-89547961D01*
X186516966Y-89550810D01*
X186609108Y-89575500D01*
X186609110Y-89575500D01*
X186740889Y-89575500D01*
X186740892Y-89575500D01*
X186801192Y-89559342D01*
X186836228Y-89555153D01*
X186850102Y-89555483D01*
X186916654Y-89576757D01*
X186961135Y-89630623D01*
X186964483Y-89638439D01*
X186974500Y-89687264D01*
X186974500Y-90255748D01*
X186978425Y-90270397D01*
X186979760Y-90275376D01*
X186979761Y-90275381D01*
X186994979Y-90332177D01*
X187003139Y-90346311D01*
X187003143Y-90346316D01*
X187025759Y-90385489D01*
X187027180Y-90387949D01*
X187027185Y-90387959D01*
X187034531Y-90400684D01*
X187034536Y-90400692D01*
X187034540Y-90400698D01*
X187034544Y-90400703D01*
X188304392Y-91670549D01*
X189624355Y-92990512D01*
X189624872Y-92990892D01*
X189627494Y-92992303D01*
X189692444Y-93029801D01*
X189692825Y-93030021D01*
X189769252Y-93050500D01*
X189769254Y-93050500D01*
X191505245Y-93050500D01*
X191505247Y-93050500D01*
X191581674Y-93030021D01*
X191650196Y-92990460D01*
X191706145Y-92934511D01*
X192586180Y-92054473D01*
X192614429Y-92033327D01*
X192616581Y-92032151D01*
X192626609Y-92026675D01*
X192694881Y-92011823D01*
X192760341Y-92036235D01*
X192767148Y-92041330D01*
X192800230Y-92078601D01*
X192833977Y-92137052D01*
X192927163Y-92230238D01*
X192992025Y-92267686D01*
X192992026Y-92267687D01*
X193023859Y-92286066D01*
X193051602Y-92307883D01*
X193061178Y-92317926D01*
X193093194Y-92380029D01*
X193086554Y-92449579D01*
X193083394Y-92457473D01*
X193055956Y-92499071D01*
X191026748Y-94528278D01*
X191014552Y-94538974D01*
X191001771Y-94548781D01*
X190988287Y-94557791D01*
X190932895Y-94589771D01*
X190930339Y-94595551D01*
X190923349Y-94603148D01*
X181886096Y-103640400D01*
X181824773Y-103673885D01*
X181755081Y-103668901D01*
X181750069Y-103666906D01*
X181687465Y-103640400D01*
X181668941Y-103632557D01*
X181668938Y-103632556D01*
X181668935Y-103632555D01*
X181601392Y-103614752D01*
X181601379Y-103614749D01*
X181601374Y-103614748D01*
X181601371Y-103614747D01*
X181601364Y-103614746D01*
X181458447Y-103598253D01*
X181458442Y-103598253D01*
X180723044Y-103618775D01*
X176335154Y-103741228D01*
X176227451Y-103755924D01*
X176196755Y-103763544D01*
X176176007Y-103768696D01*
X176073963Y-103806065D01*
X176073957Y-103806068D01*
X175955340Y-103887485D01*
X175955334Y-103887489D01*
X175903945Y-103934822D01*
X175903939Y-103934829D01*
X175813066Y-104046364D01*
X175757293Y-104178992D01*
X175757290Y-104179003D01*
X175740164Y-104244626D01*
X175739672Y-104246389D01*
X175723502Y-104389571D01*
X175827391Y-107813586D01*
X175829875Y-107850586D01*
X175831758Y-107868672D01*
X175836948Y-107905386D01*
X175836952Y-107905404D01*
X175882194Y-108041967D01*
X175913384Y-108104492D01*
X175913385Y-108104493D01*
X175995277Y-108222790D01*
X176107182Y-108313226D01*
X176167221Y-108348962D01*
X176300069Y-108404207D01*
X176443103Y-108419788D01*
X176510742Y-108417467D01*
X176510859Y-108417497D01*
X176511858Y-108417428D01*
X176512709Y-108417399D01*
X176512766Y-108417414D01*
X176512930Y-108417397D01*
X176512930Y-108417392D01*
X176512931Y-108417392D01*
X176512993Y-108417390D01*
X176513096Y-108417371D01*
X176522340Y-108416073D01*
X176553573Y-108412882D01*
X176553574Y-108412883D01*
X176624457Y-108405641D01*
X176637058Y-108405000D01*
X177622941Y-108405000D01*
X177635501Y-108405637D01*
X177637799Y-108405872D01*
X177664227Y-108411525D01*
X177695494Y-108421886D01*
X177721583Y-108434052D01*
X177745659Y-108448902D01*
X177768244Y-108466760D01*
X177788238Y-108486754D01*
X177806097Y-108509340D01*
X177820946Y-108533415D01*
X177833111Y-108559505D01*
X177848727Y-108606629D01*
X177853246Y-108624722D01*
X177856442Y-108643403D01*
X177856444Y-108643413D01*
X177864292Y-108675903D01*
X177864296Y-108675916D01*
X177884786Y-108741077D01*
X177884789Y-108741085D01*
X177955655Y-108866278D01*
X177955659Y-108866284D01*
X177955663Y-108866291D01*
X177977282Y-108894268D01*
X177998386Y-108921580D01*
X178101665Y-109021751D01*
X178228986Y-109088768D01*
X178266220Y-109102010D01*
X178294814Y-109112181D01*
X178435857Y-109140613D01*
X181440691Y-109309424D01*
X181562602Y-109301487D01*
X181621068Y-109290476D01*
X181737504Y-109253528D01*
X181858543Y-109175740D01*
X181911347Y-109129985D01*
X182005567Y-109021251D01*
X182065338Y-108890374D01*
X182085023Y-108823335D01*
X182085024Y-108823331D01*
X182105500Y-108680915D01*
X182105500Y-107155000D01*
X182645000Y-107155000D01*
X183845000Y-106625000D01*
X183870000Y-106625000D01*
X182670000Y-107150000D01*
X187231782Y-107170275D01*
X187407078Y-104050000D01*
X182750706Y-104050000D01*
X182694087Y-104106618D01*
X182645000Y-107155000D01*
X182105500Y-107155000D01*
X182105500Y-104322302D01*
X182125185Y-104255263D01*
X182141819Y-104234621D01*
X185642332Y-100734108D01*
X188999500Y-100734108D01*
X188999500Y-100865892D01*
X189002124Y-100875684D01*
X189033608Y-100993188D01*
X189066554Y-101050250D01*
X189099500Y-101107314D01*
X189192686Y-101200500D01*
X189306814Y-101266392D01*
X189434108Y-101300500D01*
X189434110Y-101300500D01*
X189506337Y-101300500D01*
X189541269Y-101305521D01*
X189566513Y-101312934D01*
X189606092Y-101336417D01*
X189607388Y-101334621D01*
X189614557Y-101339789D01*
X189616058Y-101340892D01*
X189618680Y-101342303D01*
X189672146Y-101373171D01*
X189672148Y-101373172D01*
X189672147Y-101373172D01*
X189672149Y-101373173D01*
X189684011Y-101380021D01*
X189760438Y-101400500D01*
X189839562Y-101400500D01*
X190931849Y-101400500D01*
X190966781Y-101405521D01*
X190982038Y-101410001D01*
X191040497Y-101447409D01*
X191050501Y-101458863D01*
X191059047Y-101471984D01*
X191059713Y-101471518D01*
X191065934Y-101480402D01*
X191065935Y-101480404D01*
X191149596Y-101564065D01*
X191215031Y-101594577D01*
X191224507Y-101602921D01*
X191236363Y-101607266D01*
X191244573Y-101613897D01*
X191255836Y-101623815D01*
X191265351Y-101638884D01*
X191267469Y-101640749D01*
X191268242Y-101643463D01*
X191293140Y-101682893D01*
X191293535Y-101749446D01*
X191290777Y-101759578D01*
X191278516Y-101789011D01*
X191250580Y-101837395D01*
X191230876Y-101863073D01*
X191193376Y-101900574D01*
X191165123Y-101921725D01*
X191142038Y-101934331D01*
X191082609Y-101949500D01*
X191070263Y-101949500D01*
X191038167Y-101945274D01*
X191022837Y-101941166D01*
X190960599Y-101924487D01*
X190955634Y-101923546D01*
X190937542Y-101918698D01*
X190865892Y-101899500D01*
X190865891Y-101899500D01*
X190734108Y-101899500D01*
X190606808Y-101933609D01*
X190606806Y-101933610D01*
X190492696Y-101999493D01*
X190492682Y-101999502D01*
X190492677Y-101999506D01*
X190399506Y-102092677D01*
X190399502Y-102092682D01*
X190399493Y-102092696D01*
X190333610Y-102206806D01*
X190333609Y-102206808D01*
X190328081Y-102227439D01*
X190299500Y-102334108D01*
X190299500Y-102465891D01*
X190305595Y-102488639D01*
X190333608Y-102593188D01*
X190366554Y-102650250D01*
X190399500Y-102707314D01*
X190492686Y-102800500D01*
X190589968Y-102856666D01*
X190589969Y-102856667D01*
X190589970Y-102856667D01*
X190601425Y-102863281D01*
X190601430Y-102863284D01*
X190601429Y-102863284D01*
X190603741Y-102864618D01*
X190606814Y-102866392D01*
X190734108Y-102900500D01*
X190734110Y-102900500D01*
X190865890Y-102900500D01*
X190865892Y-102900500D01*
X190955644Y-102876451D01*
X190956969Y-102876482D01*
X191001248Y-102864617D01*
X191001249Y-102864618D01*
X191038169Y-102854724D01*
X191070263Y-102850500D01*
X191390364Y-102850500D01*
X191390365Y-102850500D01*
X191480729Y-102826286D01*
X191504943Y-102819799D01*
X191607670Y-102760489D01*
X191867980Y-102500177D01*
X191893655Y-102480478D01*
X191926756Y-102461370D01*
X191926755Y-102461369D01*
X191963163Y-102440352D01*
X191967345Y-102437503D01*
X192047842Y-102391028D01*
X192141028Y-102297842D01*
X192187500Y-102217349D01*
X192188470Y-102216424D01*
X192211368Y-102176755D01*
X192211370Y-102176756D01*
X192230477Y-102143656D01*
X192250179Y-102117977D01*
X192560490Y-101807669D01*
X192619474Y-101705504D01*
X192620938Y-101703038D01*
X192624061Y-101697912D01*
X192624063Y-101697913D01*
X192637228Y-101676311D01*
X192688921Y-101629316D01*
X192704789Y-101621606D01*
X192713548Y-101618555D01*
X192723170Y-101614068D01*
X192723173Y-101614068D01*
X192830404Y-101564065D01*
X192914065Y-101480404D01*
X192964068Y-101373173D01*
X192964940Y-101366554D01*
X192970500Y-101324316D01*
X192970500Y-100875681D01*
X192964068Y-100826827D01*
X192961413Y-100817718D01*
X192961955Y-100817559D01*
X192959177Y-100809382D01*
X192953437Y-100783492D01*
X192950500Y-100756660D01*
X192950500Y-100720694D01*
X192950500Y-100720692D01*
X192922311Y-100615489D01*
X192919985Y-100606810D01*
X192919799Y-100606114D01*
X192906824Y-100583641D01*
X192860489Y-100503387D01*
X191996613Y-99639511D01*
X191897338Y-99582194D01*
X191894777Y-99580603D01*
X191884649Y-99576021D01*
X191885726Y-99573639D01*
X191864865Y-99561592D01*
X191837199Y-99564566D01*
X191827132Y-99562314D01*
X191823552Y-99561355D01*
X191823546Y-99561353D01*
X191779309Y-99549500D01*
X191779308Y-99549500D01*
X191779307Y-99549500D01*
X190870263Y-99549500D01*
X190838167Y-99545274D01*
X190822837Y-99541166D01*
X190760599Y-99524487D01*
X190755634Y-99523546D01*
X190737542Y-99518698D01*
X190665892Y-99499500D01*
X190665891Y-99499500D01*
X190534108Y-99499500D01*
X190406808Y-99533609D01*
X190406806Y-99533610D01*
X190292696Y-99599493D01*
X190292682Y-99599502D01*
X190292677Y-99599506D01*
X190199506Y-99692677D01*
X190199502Y-99692682D01*
X190199493Y-99692696D01*
X190133610Y-99806806D01*
X190133609Y-99806808D01*
X190099500Y-99934108D01*
X190099500Y-100065890D01*
X190133608Y-100193188D01*
X190166554Y-100250250D01*
X190199500Y-100307314D01*
X190292686Y-100400500D01*
X190379503Y-100450624D01*
X190401425Y-100463281D01*
X190406814Y-100466392D01*
X190534108Y-100500500D01*
X190534110Y-100500500D01*
X190665889Y-100500500D01*
X190665890Y-100500500D01*
X190665892Y-100500500D01*
X190775356Y-100471169D01*
X190778113Y-100470466D01*
X190801337Y-100464830D01*
X190801338Y-100464832D01*
X190820548Y-100460171D01*
X190829212Y-100457200D01*
X190869422Y-100450500D01*
X191017839Y-100450500D01*
X191052766Y-100455521D01*
X191063619Y-100458707D01*
X191122400Y-100496477D01*
X191151429Y-100560031D01*
X191141490Y-100629190D01*
X191141489Y-100629192D01*
X191138304Y-100636167D01*
X191113188Y-100672343D01*
X191059474Y-100726055D01*
X191049273Y-100742425D01*
X191039977Y-100752985D01*
X191039386Y-100752465D01*
X190984259Y-100789394D01*
X190984267Y-100789417D01*
X190984183Y-100789445D01*
X190984086Y-100789511D01*
X190982885Y-100789890D01*
X190975805Y-100792317D01*
X190967966Y-100793706D01*
X190968100Y-100794169D01*
X190966562Y-100794614D01*
X190948042Y-100797239D01*
X190938187Y-100798987D01*
X190936219Y-100799028D01*
X190936216Y-100798916D01*
X190932098Y-100799500D01*
X190131000Y-100799500D01*
X190130244Y-100799391D01*
X190129879Y-100799495D01*
X190128900Y-100799198D01*
X190096059Y-100794475D01*
X190081060Y-100790070D01*
X190065168Y-100779856D01*
X190063020Y-100779205D01*
X190061652Y-100777597D01*
X190022292Y-100752302D01*
X190016485Y-100745601D01*
X189990419Y-100696487D01*
X189966392Y-100606814D01*
X189900500Y-100492686D01*
X189807314Y-100399500D01*
X189750250Y-100366554D01*
X189693187Y-100333608D01*
X189629539Y-100316554D01*
X189565892Y-100299500D01*
X189565891Y-100299500D01*
X189434108Y-100299500D01*
X189306808Y-100333609D01*
X189306806Y-100333610D01*
X189192696Y-100399493D01*
X189192682Y-100399502D01*
X189192677Y-100399506D01*
X189099506Y-100492677D01*
X189099502Y-100492682D01*
X189099493Y-100492696D01*
X189033607Y-100606810D01*
X189004255Y-100716362D01*
X189003389Y-100719595D01*
X188999500Y-100734108D01*
X185642332Y-100734108D01*
X188086345Y-98290095D01*
X194719500Y-98290095D01*
X194719500Y-98709900D01*
X194719545Y-98710447D01*
X194719776Y-98711996D01*
X194724968Y-98751436D01*
X194725322Y-98756846D01*
X194725665Y-98758790D01*
X194726733Y-98761001D01*
X194735935Y-98780732D01*
X194735936Y-98780739D01*
X194735938Y-98780739D01*
X194776776Y-98868316D01*
X194861684Y-98953224D01*
X194956774Y-98997565D01*
X194975490Y-99008371D01*
X194992995Y-99020629D01*
X195009549Y-99034520D01*
X195050573Y-99075544D01*
X195071723Y-99103796D01*
X195084331Y-99126885D01*
X195099500Y-99186314D01*
X195099500Y-99265892D01*
X195103231Y-99279815D01*
X195126294Y-99365891D01*
X195133609Y-99393189D01*
X195133610Y-99393192D01*
X195150109Y-99421769D01*
X195150110Y-99421769D01*
X195199500Y-99507314D01*
X195292686Y-99600500D01*
X195406814Y-99666392D01*
X195480376Y-99686102D01*
X195512816Y-99699994D01*
X195526165Y-99708130D01*
X195573157Y-99759819D01*
X195577031Y-99767792D01*
X195589500Y-99821984D01*
X195589500Y-100519752D01*
X195601131Y-100578229D01*
X195601132Y-100578230D01*
X195604024Y-100583641D01*
X195607917Y-100588385D01*
X195620229Y-100606810D01*
X195645447Y-100644552D01*
X195671831Y-100662181D01*
X195701613Y-100682081D01*
X195706358Y-100685975D01*
X195711770Y-100688868D01*
X195762612Y-100698981D01*
X195765337Y-100699703D01*
X195770249Y-100700500D01*
X197309750Y-100700500D01*
X197313876Y-100700500D01*
X197321742Y-100698114D01*
X197324568Y-100697552D01*
X197368229Y-100688868D01*
X197368229Y-100688867D01*
X197368231Y-100688867D01*
X197434552Y-100644552D01*
X197478867Y-100578231D01*
X197478867Y-100578229D01*
X197478868Y-100578229D01*
X197490072Y-100521896D01*
X197490500Y-100519931D01*
X197490500Y-99757363D01*
X197495523Y-99722429D01*
X197500824Y-99704375D01*
X197534231Y-99649566D01*
X197541775Y-99642372D01*
X197565344Y-99624731D01*
X197595518Y-99607310D01*
X197607314Y-99600500D01*
X197700500Y-99507314D01*
X197766392Y-99393186D01*
X197800500Y-99265892D01*
X197800500Y-99134108D01*
X197766392Y-99006814D01*
X197700500Y-98892686D01*
X197607314Y-98799500D01*
X197524065Y-98751436D01*
X197493185Y-98733607D01*
X197384623Y-98704517D01*
X197352183Y-98690626D01*
X197338839Y-98682493D01*
X197291839Y-98630795D01*
X197291835Y-98630785D01*
X197287961Y-98622809D01*
X197275500Y-98568634D01*
X197275500Y-97875728D01*
X197273188Y-97851079D01*
X197273020Y-97847502D01*
X197272646Y-97845297D01*
X197255826Y-97797230D01*
X197239006Y-97749163D01*
X197227793Y-97717118D01*
X197147150Y-97607850D01*
X197037882Y-97527207D01*
X197037880Y-97527206D01*
X196985077Y-97508729D01*
X196909704Y-97482354D01*
X196909702Y-97482353D01*
X196909700Y-97482353D01*
X196879270Y-97479500D01*
X196879266Y-97479500D01*
X196879264Y-97479500D01*
X196270734Y-97479500D01*
X196270730Y-97479500D01*
X196252074Y-97481249D01*
X196246069Y-97481812D01*
X196242499Y-97481978D01*
X196240297Y-97482353D01*
X196112118Y-97527206D01*
X196002849Y-97607849D01*
X195922206Y-97717118D01*
X195877353Y-97845297D01*
X195877113Y-97846709D01*
X195877137Y-97846813D01*
X195876812Y-97851069D01*
X195874500Y-97875733D01*
X195874500Y-98057670D01*
X195871019Y-98069523D01*
X195872124Y-98081827D01*
X195869475Y-98092614D01*
X195865070Y-98107612D01*
X195855426Y-98122628D01*
X195854815Y-98124709D01*
X195853179Y-98126126D01*
X195827362Y-98166325D01*
X195826334Y-98167217D01*
X195762798Y-98196286D01*
X195710122Y-98192534D01*
X195701471Y-98189993D01*
X195643029Y-98152597D01*
X195613265Y-98118525D01*
X195608980Y-98116680D01*
X195600440Y-98108900D01*
X195577066Y-98085526D01*
X195538316Y-98046776D01*
X195495763Y-98026933D01*
X195486269Y-98020091D01*
X195471904Y-98001610D01*
X195379904Y-97989500D01*
X195379902Y-97989500D01*
X195020105Y-97989500D01*
X195020104Y-97989500D01*
X195004386Y-97991569D01*
X194978553Y-97994969D01*
X194973144Y-97995323D01*
X194971209Y-97995665D01*
X194968997Y-97996734D01*
X194861681Y-98046777D01*
X194776776Y-98131682D01*
X194726028Y-98240510D01*
X194726026Y-98240518D01*
X194719500Y-98290095D01*
X188086345Y-98290095D01*
X188178082Y-98198358D01*
X189447210Y-96929230D01*
X190726702Y-95649737D01*
X190754953Y-95628589D01*
X190767136Y-95621936D01*
X190835410Y-95607086D01*
X190900871Y-95631503D01*
X190907684Y-95636603D01*
X190940754Y-95673865D01*
X190974500Y-95732314D01*
X191067686Y-95825500D01*
X191158822Y-95878117D01*
X191158823Y-95878118D01*
X191163904Y-95881052D01*
X191177783Y-95889065D01*
X191181814Y-95891392D01*
X191309108Y-95925500D01*
X191309110Y-95925500D01*
X191440890Y-95925500D01*
X191440892Y-95925500D01*
X191568186Y-95891392D01*
X191669062Y-95833150D01*
X191671577Y-95831739D01*
X191689733Y-95821822D01*
X191689734Y-95821823D01*
X191710847Y-95810291D01*
X191779054Y-95795429D01*
X191780164Y-95795507D01*
X191780860Y-95795557D01*
X191839127Y-95814931D01*
X191845639Y-95819116D01*
X191866281Y-95835750D01*
X191919596Y-95889065D01*
X192026827Y-95939068D01*
X192075683Y-95945500D01*
X192075684Y-95945500D01*
X192524311Y-95945500D01*
X192524317Y-95945500D01*
X192529297Y-95944843D01*
X192534092Y-95944213D01*
X192534094Y-95944211D01*
X192573173Y-95939068D01*
X192653207Y-95901746D01*
X192686988Y-95891536D01*
X192702446Y-95889188D01*
X192771669Y-95898581D01*
X192782325Y-95903345D01*
X192819397Y-95928866D01*
X192847133Y-95956602D01*
X192856337Y-95966892D01*
X192881363Y-95998222D01*
X192907823Y-96062888D01*
X192895122Y-96131594D01*
X192895114Y-96131609D01*
X192891810Y-96138137D01*
X192862378Y-96175852D01*
X192856882Y-96180614D01*
X192856758Y-96180988D01*
X192842590Y-96197939D01*
X192785937Y-96254591D01*
X192785935Y-96254594D01*
X192735932Y-96361824D01*
X192735930Y-96361832D01*
X192729500Y-96410680D01*
X192729500Y-96759318D01*
X192735930Y-96808168D01*
X192735931Y-96808173D01*
X192741007Y-96819057D01*
X192743545Y-96824500D01*
X192785935Y-96915404D01*
X192869596Y-96999065D01*
X192976827Y-97049068D01*
X193025683Y-97055500D01*
X193025684Y-97055500D01*
X193474311Y-97055500D01*
X193474317Y-97055500D01*
X193490601Y-97053356D01*
X193523173Y-97049068D01*
X193630404Y-96999065D01*
X193695048Y-96934420D01*
X193723295Y-96913275D01*
X193746387Y-96900667D01*
X193805812Y-96885500D01*
X194116337Y-96885500D01*
X194151269Y-96890521D01*
X194176513Y-96897934D01*
X194229259Y-96929230D01*
X194400573Y-97100544D01*
X194421723Y-97128796D01*
X194434331Y-97151885D01*
X194449500Y-97211314D01*
X194449500Y-97290891D01*
X194463000Y-97341277D01*
X194465472Y-97350500D01*
X194483608Y-97418187D01*
X194507053Y-97458794D01*
X194549500Y-97532314D01*
X194642686Y-97625500D01*
X194756814Y-97691392D01*
X194884108Y-97725500D01*
X194884110Y-97725500D01*
X195015890Y-97725500D01*
X195015892Y-97725500D01*
X195143186Y-97691392D01*
X195257314Y-97625500D01*
X195350500Y-97532314D01*
X195416392Y-97418186D01*
X195450500Y-97290892D01*
X195450500Y-97159108D01*
X195416392Y-97031814D01*
X195350500Y-96917686D01*
X195257314Y-96824500D01*
X195194408Y-96788181D01*
X195143188Y-96758608D01*
X195052354Y-96734270D01*
X195052352Y-96734269D01*
X195015893Y-96724500D01*
X195015892Y-96724500D01*
X194943663Y-96724500D01*
X194908727Y-96719477D01*
X194883485Y-96712065D01*
X194830740Y-96680769D01*
X194494512Y-96344540D01*
X194488064Y-96339593D01*
X194489483Y-96337742D01*
X194469311Y-96316587D01*
X194425990Y-96304979D01*
X194425991Y-96304979D01*
X194387775Y-96294739D01*
X194387774Y-96294738D01*
X194349563Y-96284500D01*
X194349562Y-96284500D01*
X194349560Y-96284500D01*
X193813161Y-96284500D01*
X193778225Y-96279477D01*
X193752983Y-96272065D01*
X193700238Y-96240769D01*
X193653011Y-96193542D01*
X193643850Y-96183305D01*
X193618678Y-96151828D01*
X193592182Y-96087177D01*
X193604843Y-96018468D01*
X193608132Y-96011958D01*
X193637595Y-95974170D01*
X193643114Y-95969385D01*
X193643237Y-95969019D01*
X193657413Y-95952055D01*
X193663969Y-95945500D01*
X193714065Y-95895404D01*
X193764068Y-95788173D01*
X193770500Y-95739316D01*
X193770500Y-95390684D01*
X193764068Y-95341827D01*
X193719189Y-95245586D01*
X193709014Y-95212033D01*
X193706391Y-95194980D01*
X193703168Y-95174020D01*
X193701941Y-95166041D01*
X193700500Y-95147193D01*
X193700500Y-95034110D01*
X193700500Y-95034108D01*
X193666392Y-94906814D01*
X193600500Y-94792686D01*
X193507314Y-94699500D01*
X193446693Y-94664500D01*
X193446693Y-94664499D01*
X193446690Y-94664499D01*
X193399368Y-94637177D01*
X193393187Y-94633608D01*
X193329539Y-94616554D01*
X193265892Y-94599500D01*
X193265891Y-94599500D01*
X193134108Y-94599500D01*
X193006808Y-94633609D01*
X193006806Y-94633610D01*
X192892696Y-94699493D01*
X192892682Y-94699502D01*
X192892677Y-94699506D01*
X192799506Y-94792677D01*
X192799503Y-94792681D01*
X192799502Y-94792683D01*
X192799500Y-94792686D01*
X192733609Y-94906812D01*
X192733604Y-94906820D01*
X192733519Y-94907138D01*
X192719630Y-94939570D01*
X192711497Y-94952914D01*
X192659837Y-94999895D01*
X192658856Y-95000372D01*
X192597381Y-95012644D01*
X192581678Y-95011724D01*
X192572746Y-95010875D01*
X192524318Y-95004500D01*
X192524317Y-95004500D01*
X192524316Y-95004500D01*
X192075684Y-95004500D01*
X192075683Y-95004500D01*
X192075681Y-95004500D01*
X192026832Y-95010930D01*
X192026823Y-95010932D01*
X191919597Y-95060933D01*
X191919588Y-95060939D01*
X191919455Y-95061073D01*
X191891195Y-95082227D01*
X191877480Y-95089715D01*
X191809229Y-95104565D01*
X191807422Y-95104436D01*
X191749216Y-95085068D01*
X191742702Y-95080882D01*
X191722065Y-95064251D01*
X191682316Y-95024502D01*
X191682314Y-95024500D01*
X191660958Y-95012170D01*
X191660956Y-95012168D01*
X191646334Y-95003725D01*
X191618600Y-94981915D01*
X191609023Y-94971870D01*
X191577006Y-94909773D01*
X191583643Y-94840222D01*
X191586810Y-94832312D01*
X191614242Y-94790726D01*
X193435215Y-92969753D01*
X193463466Y-92948605D01*
X193473396Y-92943183D01*
X193541668Y-92928334D01*
X193607132Y-92952754D01*
X193648994Y-93008670D01*
X193651676Y-93015858D01*
X193659500Y-93059206D01*
X193659500Y-93514562D01*
X193665047Y-93535264D01*
X193672942Y-93564728D01*
X193679979Y-93590990D01*
X193688138Y-93605124D01*
X193688144Y-93605131D01*
X193716920Y-93654974D01*
X193716921Y-93654975D01*
X193719540Y-93659512D01*
X193719544Y-93659517D01*
X194030573Y-93970545D01*
X194051722Y-93998796D01*
X194064330Y-94021884D01*
X194079500Y-94081314D01*
X194079500Y-94289318D01*
X194085930Y-94338166D01*
X194085932Y-94338174D01*
X194135935Y-94445404D01*
X194197133Y-94506602D01*
X194206337Y-94516892D01*
X194231363Y-94548222D01*
X194257823Y-94612888D01*
X194245122Y-94681594D01*
X194245114Y-94681609D01*
X194241810Y-94688137D01*
X194212378Y-94725852D01*
X194206882Y-94730614D01*
X194206758Y-94730988D01*
X194192590Y-94747939D01*
X194135937Y-94804591D01*
X194135935Y-94804594D01*
X194085932Y-94911824D01*
X194085930Y-94911832D01*
X194079500Y-94960680D01*
X194079500Y-95309318D01*
X194085930Y-95358171D01*
X194085974Y-95358313D01*
X194086644Y-95359700D01*
X194135935Y-95465404D01*
X194219596Y-95549065D01*
X194326827Y-95599068D01*
X194368510Y-95604555D01*
X194387260Y-95608518D01*
X194419329Y-95617935D01*
X194472073Y-95649230D01*
X195838355Y-97015512D01*
X195838874Y-97015893D01*
X195841509Y-97017311D01*
X195866626Y-97031812D01*
X195866628Y-97031814D01*
X195866629Y-97031814D01*
X195906825Y-97055021D01*
X195983252Y-97075500D01*
X195983254Y-97075500D01*
X197016746Y-97075500D01*
X197016748Y-97075500D01*
X197093175Y-97055021D01*
X197161697Y-97015460D01*
X197217646Y-96959511D01*
X197505338Y-96671816D01*
X197533587Y-96650670D01*
X197553139Y-96639994D01*
X197609027Y-96624878D01*
X197613506Y-96624750D01*
X197636414Y-96626226D01*
X197710749Y-96638000D01*
X197710754Y-96638000D01*
X198289251Y-96638000D01*
X198377785Y-96623978D01*
X198382654Y-96623594D01*
X198382670Y-96623591D01*
X198386791Y-96622771D01*
X198387419Y-96622451D01*
X198387420Y-96622451D01*
X198505751Y-96562158D01*
X198599658Y-96468251D01*
X198659951Y-96349920D01*
X198659951Y-96349919D01*
X198660271Y-96349291D01*
X198661091Y-96345170D01*
X198661094Y-96345155D01*
X198661478Y-96340283D01*
X198668691Y-96294739D01*
X198675500Y-96251751D01*
X198675500Y-95748248D01*
X198669431Y-95709927D01*
X198659953Y-95650087D01*
X198659951Y-95650080D01*
X198655389Y-95641126D01*
X198655389Y-95641125D01*
X198606402Y-95544984D01*
X198606401Y-95544983D01*
X198599658Y-95531749D01*
X198599654Y-95531745D01*
X198599653Y-95531743D01*
X198505756Y-95437846D01*
X198505753Y-95437844D01*
X198505751Y-95437842D01*
X198447909Y-95408370D01*
X198436576Y-95398601D01*
X198427021Y-95383818D01*
X198289257Y-95362000D01*
X198289251Y-95362000D01*
X198289246Y-95362000D01*
X197710754Y-95362000D01*
X197710749Y-95362000D01*
X197681325Y-95366660D01*
X197612581Y-95377547D01*
X197612579Y-95377548D01*
X197534026Y-95417574D01*
X197494244Y-95437844D01*
X197400341Y-95531748D01*
X197400338Y-95531754D01*
X197359022Y-95612840D01*
X197353775Y-95618394D01*
X197338688Y-95641685D01*
X197329799Y-95651097D01*
X197314399Y-95660085D01*
X197311048Y-95663635D01*
X197306310Y-95664808D01*
X197269458Y-95686320D01*
X197199652Y-95683328D01*
X197145937Y-95647160D01*
X197139867Y-95640155D01*
X197123096Y-95615249D01*
X197099658Y-95569249D01*
X197099654Y-95569245D01*
X197099653Y-95569243D01*
X197005756Y-95475346D01*
X197005753Y-95475344D01*
X197005751Y-95475342D01*
X196947912Y-95445871D01*
X196936577Y-95436101D01*
X196927022Y-95421319D01*
X196789257Y-95399500D01*
X196789251Y-95399500D01*
X196789246Y-95399500D01*
X196356163Y-95399500D01*
X196321227Y-95394477D01*
X196295985Y-95387065D01*
X196243240Y-95355769D01*
X196212259Y-95324788D01*
X196191110Y-95296538D01*
X196185688Y-95286608D01*
X196170835Y-95218338D01*
X196195249Y-95152873D01*
X196251179Y-95111001D01*
X196255058Y-95109554D01*
X196258394Y-95108311D01*
X196301708Y-95100500D01*
X196789251Y-95100500D01*
X196877785Y-95086478D01*
X196882654Y-95086094D01*
X196882670Y-95086091D01*
X196886791Y-95085271D01*
X196887419Y-95084951D01*
X196887420Y-95084951D01*
X197005751Y-95024658D01*
X197099658Y-94930751D01*
X197140977Y-94849656D01*
X197146372Y-94843943D01*
X197161311Y-94820813D01*
X197170199Y-94811402D01*
X197185594Y-94802414D01*
X197188950Y-94798862D01*
X197193692Y-94797687D01*
X197230540Y-94776178D01*
X197300346Y-94779170D01*
X197354060Y-94815337D01*
X197360131Y-94822343D01*
X197376903Y-94847251D01*
X197400341Y-94893249D01*
X197400346Y-94893256D01*
X197494243Y-94987153D01*
X197494245Y-94987154D01*
X197494249Y-94987158D01*
X197538759Y-95009837D01*
X197561149Y-95030984D01*
X197573710Y-95041295D01*
X197607777Y-95046691D01*
X197617329Y-95048591D01*
X197617344Y-95048594D01*
X197622214Y-95048978D01*
X197710744Y-95063000D01*
X197710749Y-95063000D01*
X197710754Y-95063000D01*
X198289251Y-95063000D01*
X198377785Y-95048978D01*
X198382654Y-95048594D01*
X198382670Y-95048591D01*
X198386791Y-95047771D01*
X198387419Y-95047451D01*
X198387420Y-95047451D01*
X198505751Y-94987158D01*
X198599658Y-94893251D01*
X198659951Y-94774920D01*
X198659951Y-94774919D01*
X198660271Y-94774291D01*
X198661091Y-94770170D01*
X198661094Y-94770155D01*
X198661478Y-94765283D01*
X198671528Y-94701828D01*
X198675500Y-94676751D01*
X198675500Y-94293662D01*
X198680522Y-94258729D01*
X198687934Y-94233484D01*
X198719227Y-94180743D01*
X198787391Y-94112580D01*
X198865460Y-94034511D01*
X198877208Y-94014161D01*
X198886212Y-94000684D01*
X198896027Y-93987893D01*
X198906709Y-93975713D01*
X199870419Y-93012004D01*
X199898669Y-92990856D01*
X199921761Y-92978248D01*
X199981186Y-92963081D01*
X200060763Y-92963081D01*
X200060765Y-92963081D01*
X200188059Y-92928973D01*
X200198061Y-92923197D01*
X200230824Y-92910081D01*
X200244311Y-92906809D01*
X200314102Y-92910133D01*
X200370988Y-92950625D01*
X200371995Y-92951906D01*
X200396309Y-93005119D01*
X200397258Y-93010042D01*
X200399500Y-93033513D01*
X200399500Y-98115626D01*
X200394476Y-98150563D01*
X200387064Y-98175804D01*
X200355769Y-98228548D01*
X199333744Y-99250573D01*
X199305493Y-99271722D01*
X199282405Y-99284330D01*
X199222975Y-99299500D01*
X198310247Y-99299500D01*
X198251770Y-99311131D01*
X198251769Y-99311131D01*
X198251768Y-99311132D01*
X198246355Y-99314024D01*
X198241614Y-99317916D01*
X198185447Y-99355446D01*
X198185446Y-99355447D01*
X198147916Y-99411614D01*
X198144024Y-99416355D01*
X198141132Y-99421768D01*
X198141132Y-99421769D01*
X198141131Y-99421770D01*
X198129500Y-99480247D01*
X198129500Y-100519752D01*
X198141131Y-100578229D01*
X198141132Y-100578230D01*
X198144024Y-100583641D01*
X198147917Y-100588385D01*
X198160229Y-100606810D01*
X198185447Y-100644552D01*
X198211831Y-100662181D01*
X198241613Y-100682081D01*
X198246358Y-100685975D01*
X198251770Y-100688868D01*
X198302612Y-100698981D01*
X198305337Y-100699703D01*
X198310249Y-100700500D01*
X199849750Y-100700500D01*
X199853876Y-100700500D01*
X199861742Y-100698114D01*
X199864568Y-100697552D01*
X199908229Y-100688868D01*
X199908229Y-100688867D01*
X199908231Y-100688867D01*
X199974552Y-100644552D01*
X200018867Y-100578231D01*
X200018867Y-100578229D01*
X200018868Y-100578229D01*
X200030072Y-100521896D01*
X200030500Y-100519931D01*
X200030500Y-99614373D01*
X200035522Y-99579440D01*
X200036526Y-99576021D01*
X200042934Y-99554195D01*
X200074228Y-99501453D01*
X200487530Y-99088152D01*
X201030470Y-98545212D01*
X201056387Y-98500321D01*
X201058629Y-98498183D01*
X201057948Y-98497768D01*
X201081796Y-98458639D01*
X201081798Y-98458640D01*
X201088184Y-98448161D01*
X201139880Y-98401166D01*
X201208782Y-98389578D01*
X201273011Y-98417080D01*
X201312173Y-98474936D01*
X201313609Y-98479427D01*
X201319500Y-98517192D01*
X201319500Y-99157670D01*
X201314475Y-99192614D01*
X201310070Y-99207612D01*
X201272327Y-99266355D01*
X201270958Y-99267542D01*
X201216097Y-99295018D01*
X201208539Y-99296663D01*
X201182168Y-99299500D01*
X200850247Y-99299500D01*
X200791770Y-99311131D01*
X200791769Y-99311131D01*
X200791768Y-99311132D01*
X200786355Y-99314024D01*
X200781614Y-99317916D01*
X200725447Y-99355446D01*
X200725446Y-99355447D01*
X200687916Y-99411614D01*
X200684024Y-99416355D01*
X200681132Y-99421768D01*
X200681132Y-99421769D01*
X200681131Y-99421770D01*
X200669500Y-99480247D01*
X200669500Y-100519752D01*
X200681131Y-100578229D01*
X200681132Y-100578230D01*
X200684024Y-100583641D01*
X200687917Y-100588385D01*
X200700229Y-100606810D01*
X200725447Y-100644552D01*
X200751831Y-100662181D01*
X200781613Y-100682081D01*
X200786358Y-100685975D01*
X200791770Y-100688868D01*
X200842612Y-100698981D01*
X200845337Y-100699703D01*
X200850249Y-100700500D01*
X202389750Y-100700500D01*
X202393876Y-100700500D01*
X202401742Y-100698114D01*
X202404568Y-100697552D01*
X202448229Y-100688868D01*
X202448229Y-100688867D01*
X202448231Y-100688867D01*
X202514552Y-100644552D01*
X202558867Y-100578231D01*
X202558867Y-100578229D01*
X202558868Y-100578229D01*
X202570072Y-100521896D01*
X202570500Y-100519931D01*
X202570500Y-99480063D01*
X202570069Y-99478081D01*
X202558868Y-99421770D01*
X202555975Y-99416358D01*
X202552081Y-99411613D01*
X202539768Y-99393186D01*
X202514552Y-99355447D01*
X202478146Y-99331121D01*
X202458385Y-99317917D01*
X202453641Y-99314024D01*
X202448230Y-99311132D01*
X202448229Y-99311131D01*
X202389752Y-99299500D01*
X202389750Y-99299500D01*
X202062330Y-99299500D01*
X202027389Y-99294475D01*
X202012390Y-99290070D01*
X201953644Y-99252327D01*
X201952457Y-99250958D01*
X201924977Y-99196083D01*
X201923332Y-99188521D01*
X201920500Y-99162168D01*
X201920500Y-97341277D01*
X201925521Y-97306350D01*
X201928707Y-97295497D01*
X201966477Y-97236716D01*
X202030031Y-97207687D01*
X202099186Y-97217625D01*
X202099768Y-97217891D01*
X202143863Y-97251732D01*
X202160450Y-97271823D01*
X202165063Y-97273768D01*
X202174333Y-97282147D01*
X202242686Y-97350500D01*
X202356814Y-97416392D01*
X202484108Y-97450500D01*
X202484110Y-97450500D01*
X202615890Y-97450500D01*
X202615891Y-97450500D01*
X202615892Y-97450500D01*
X202655422Y-97439907D01*
X202690459Y-97435718D01*
X202691044Y-97435731D01*
X202709271Y-97436165D01*
X202770861Y-97454249D01*
X202779758Y-97459672D01*
X202802901Y-97477872D01*
X203815489Y-98490460D01*
X203874826Y-98524718D01*
X203874831Y-98524723D01*
X203874832Y-98524722D01*
X203883995Y-98530013D01*
X203883999Y-98530015D01*
X203884008Y-98530020D01*
X203884012Y-98530022D01*
X203960438Y-98550500D01*
X203960440Y-98550500D01*
X205114560Y-98550500D01*
X205114562Y-98550500D01*
X205190989Y-98530021D01*
X205259511Y-98490460D01*
X205315460Y-98434511D01*
X205490460Y-98259511D01*
X205511744Y-98222646D01*
X205530021Y-98190989D01*
X205550500Y-98114562D01*
X205550500Y-97328595D01*
X205555521Y-97293665D01*
X205564864Y-97261846D01*
X205580737Y-97227896D01*
X205588867Y-97215731D01*
X205591831Y-97200833D01*
X205597073Y-97174475D01*
X205600500Y-97157248D01*
X205600500Y-96792752D01*
X205600500Y-96792749D01*
X205600500Y-96792563D01*
X205600069Y-96790581D01*
X205588868Y-96734270D01*
X205585975Y-96728858D01*
X205582081Y-96724113D01*
X205565961Y-96699988D01*
X205544552Y-96667947D01*
X205499733Y-96638000D01*
X205488385Y-96630417D01*
X205483641Y-96626524D01*
X205478230Y-96623632D01*
X205478229Y-96623631D01*
X205419752Y-96612000D01*
X205419750Y-96612000D01*
X205080253Y-96612000D01*
X205080252Y-96612000D01*
X205054632Y-96617096D01*
X205036166Y-96620769D01*
X205011976Y-96623151D01*
X204988024Y-96623151D01*
X204963834Y-96620769D01*
X204945368Y-96617096D01*
X204919748Y-96612000D01*
X204919747Y-96612000D01*
X204718882Y-96612000D01*
X204683941Y-96606975D01*
X204668942Y-96602570D01*
X204610175Y-96564803D01*
X204607141Y-96561302D01*
X204578112Y-96497748D01*
X204576849Y-96480094D01*
X204576849Y-96463020D01*
X204579232Y-96438827D01*
X204588000Y-96394751D01*
X204588000Y-96055066D01*
X204587567Y-96053077D01*
X204577740Y-96003670D01*
X204575852Y-95968440D01*
X204577090Y-95954607D01*
X204602671Y-95889592D01*
X204659339Y-95848727D01*
X204669079Y-95845292D01*
X204669740Y-95845059D01*
X204710980Y-95838000D01*
X204919751Y-95838000D01*
X204963828Y-95829232D01*
X204988021Y-95826849D01*
X205011979Y-95826849D01*
X205036171Y-95829231D01*
X205048774Y-95831739D01*
X205080248Y-95838000D01*
X205080249Y-95838000D01*
X205080252Y-95838000D01*
X205281118Y-95838000D01*
X205316054Y-95843023D01*
X205331052Y-95847427D01*
X205389819Y-95885190D01*
X205394631Y-95890742D01*
X205396826Y-95893346D01*
X205412303Y-95912226D01*
X205420564Y-95937806D01*
X205420816Y-95939068D01*
X205423633Y-95953231D01*
X205467947Y-96019552D01*
X205534269Y-96063867D01*
X205534270Y-96063868D01*
X205559632Y-96068912D01*
X205585112Y-96073981D01*
X205587837Y-96074703D01*
X205592749Y-96075500D01*
X205957250Y-96075500D01*
X205961369Y-96075500D01*
X205969217Y-96073118D01*
X205976918Y-96071587D01*
X206003757Y-96066249D01*
X206009857Y-96065648D01*
X206009885Y-96065640D01*
X206021705Y-96062679D01*
X206030462Y-96060937D01*
X206060246Y-96040649D01*
X206061092Y-96040379D01*
X206090527Y-96031163D01*
X206127574Y-96025500D01*
X207051669Y-96025500D01*
X207086600Y-96030522D01*
X207098585Y-96034040D01*
X207101856Y-96035001D01*
X207160314Y-96072404D01*
X207163018Y-96075500D01*
X207170317Y-96083856D01*
X207189306Y-96113020D01*
X207191775Y-96118315D01*
X207191776Y-96118316D01*
X207276684Y-96203224D01*
X207385513Y-96253972D01*
X207435099Y-96260500D01*
X207794900Y-96260499D01*
X207844487Y-96253972D01*
X207953316Y-96203224D01*
X208038224Y-96118316D01*
X208088972Y-96009487D01*
X208095500Y-95959901D01*
X208095499Y-95540100D01*
X208088972Y-95490513D01*
X208038224Y-95381684D01*
X207953316Y-95296776D01*
X207953315Y-95296775D01*
X207921360Y-95281874D01*
X207887005Y-95251623D01*
X207794904Y-95239500D01*
X207794902Y-95239500D01*
X207460505Y-95239500D01*
X207425570Y-95234477D01*
X207414716Y-95231290D01*
X207355938Y-95193516D01*
X207326913Y-95129960D01*
X207336856Y-95060803D01*
X207340046Y-95053820D01*
X207365150Y-95017663D01*
X207450500Y-94932314D01*
X207516392Y-94818186D01*
X207550500Y-94690892D01*
X207550500Y-94559108D01*
X207516392Y-94431814D01*
X207516387Y-94431806D01*
X207504318Y-94410902D01*
X207450500Y-94317686D01*
X207357314Y-94224500D01*
X207357312Y-94224499D01*
X207357310Y-94224497D01*
X207294358Y-94188152D01*
X207243188Y-94158608D01*
X207151757Y-94134110D01*
X207151755Y-94134109D01*
X207115893Y-94124500D01*
X207115892Y-94124500D01*
X206984108Y-94124500D01*
X206856808Y-94158609D01*
X206856806Y-94158610D01*
X206742696Y-94224493D01*
X206742682Y-94224502D01*
X206742677Y-94224506D01*
X206649506Y-94317677D01*
X206649502Y-94317682D01*
X206649493Y-94317696D01*
X206583610Y-94431806D01*
X206583609Y-94431808D01*
X206549500Y-94559108D01*
X206549500Y-94631336D01*
X206544476Y-94666273D01*
X206537064Y-94691514D01*
X206505769Y-94744258D01*
X205962787Y-95287239D01*
X205958259Y-95289711D01*
X205934531Y-95308391D01*
X205920810Y-95315883D01*
X205903387Y-95319673D01*
X205901464Y-95320724D01*
X205899278Y-95320567D01*
X205852550Y-95330735D01*
X205850744Y-95330606D01*
X205792543Y-95311238D01*
X205786028Y-95307051D01*
X205765392Y-95290421D01*
X205718188Y-95243217D01*
X205709513Y-95234542D01*
X205709511Y-95234540D01*
X205696093Y-95226793D01*
X205696092Y-95226792D01*
X205680750Y-95217934D01*
X205680742Y-95217929D01*
X205657291Y-95204390D01*
X205654752Y-95202883D01*
X205613832Y-95177940D01*
X205566835Y-95126239D01*
X205566834Y-95126238D01*
X205562959Y-95118259D01*
X205562212Y-95115012D01*
X205560563Y-95113019D01*
X205559249Y-95102130D01*
X205550500Y-95064088D01*
X205550500Y-94252328D01*
X205555523Y-94217392D01*
X205559927Y-94202394D01*
X205597672Y-94143643D01*
X205599041Y-94142456D01*
X205653920Y-94114976D01*
X205661479Y-94113332D01*
X205687832Y-94110499D01*
X205824895Y-94110499D01*
X205824900Y-94110499D01*
X205874487Y-94103972D01*
X205983316Y-94053224D01*
X206068224Y-93968316D01*
X206118972Y-93859487D01*
X206125500Y-93809901D01*
X206125499Y-93390100D01*
X206118972Y-93340513D01*
X206068224Y-93231684D01*
X205983316Y-93146776D01*
X205983315Y-93146775D01*
X205951360Y-93131874D01*
X205917005Y-93101623D01*
X205824904Y-93089500D01*
X205824902Y-93089500D01*
X205465105Y-93089500D01*
X205465104Y-93089500D01*
X205449386Y-93091569D01*
X205423553Y-93094969D01*
X205418144Y-93095323D01*
X205416209Y-93095665D01*
X205413997Y-93096734D01*
X205306681Y-93146777D01*
X205221776Y-93231682D01*
X205221772Y-93231688D01*
X205196493Y-93285901D01*
X205177173Y-93315445D01*
X205168414Y-93325392D01*
X205109337Y-93362696D01*
X205039469Y-93362139D01*
X204985274Y-93328661D01*
X204979208Y-93322249D01*
X204961900Y-93299033D01*
X204953008Y-93283632D01*
X204953007Y-93283631D01*
X204900502Y-93192689D01*
X204900498Y-93192684D01*
X204807316Y-93099502D01*
X204807314Y-93099500D01*
X204722444Y-93050500D01*
X204722444Y-93050499D01*
X204722442Y-93050499D01*
X204693187Y-93033608D01*
X204612569Y-93012007D01*
X204565892Y-92999500D01*
X204565891Y-92999500D01*
X204434106Y-92999500D01*
X204338241Y-93025186D01*
X204303198Y-93029376D01*
X204287571Y-93029004D01*
X204221019Y-93007729D01*
X204221015Y-93007727D01*
X204219514Y-93006711D01*
X204178811Y-92960855D01*
X204175262Y-92953970D01*
X204169590Y-92939294D01*
X204169505Y-92939330D01*
X204166393Y-92931820D01*
X204166392Y-92931814D01*
X204100500Y-92817686D01*
X204007314Y-92724500D01*
X203953251Y-92693287D01*
X203925508Y-92671467D01*
X203915930Y-92661422D01*
X203883917Y-92599318D01*
X203890559Y-92529773D01*
X203893722Y-92521871D01*
X203921154Y-92480285D01*
X205682712Y-90718730D01*
X205689762Y-90706519D01*
X205722273Y-90650208D01*
X205742752Y-90573781D01*
X205742752Y-83188475D01*
X205722273Y-83112048D01*
X205722269Y-83112041D01*
X205682716Y-83043532D01*
X205682710Y-83043524D01*
X205682706Y-83043520D01*
X205682705Y-83043518D01*
X200177848Y-77538662D01*
X200098294Y-77459108D01*
X201799500Y-77459108D01*
X201799500Y-77590892D01*
X201816554Y-77654539D01*
X201833608Y-77718187D01*
X201866554Y-77775250D01*
X201899500Y-77832314D01*
X201992686Y-77925500D01*
X202106814Y-77991392D01*
X202234108Y-78025500D01*
X202234110Y-78025500D01*
X202365890Y-78025500D01*
X202365892Y-78025500D01*
X202493186Y-77991392D01*
X202607314Y-77925500D01*
X202700500Y-77832314D01*
X202766392Y-77718186D01*
X202800500Y-77590892D01*
X202800500Y-77459108D01*
X202766392Y-77331814D01*
X202700500Y-77217686D01*
X202607314Y-77124500D01*
X202508910Y-77067686D01*
X202493187Y-77058608D01*
X202429539Y-77041554D01*
X202365892Y-77024500D01*
X202365891Y-77024500D01*
X202234108Y-77024500D01*
X202106808Y-77058609D01*
X202106806Y-77058610D01*
X201992696Y-77124493D01*
X201992682Y-77124502D01*
X201992677Y-77124506D01*
X201899506Y-77217677D01*
X201899502Y-77217682D01*
X201899493Y-77217696D01*
X201833609Y-77331808D01*
X201833607Y-77331813D01*
X201826787Y-77357266D01*
X201826769Y-77357334D01*
X201826516Y-77358282D01*
X201799500Y-77459108D01*
X200098294Y-77459108D01*
X196558974Y-73919788D01*
X196537825Y-73891538D01*
X196536104Y-73888386D01*
X196532403Y-73881608D01*
X196517550Y-73813338D01*
X196541964Y-73747873D01*
X196597894Y-73706001D01*
X196601773Y-73704554D01*
X196605109Y-73703311D01*
X196648423Y-73695500D01*
X196769311Y-73695500D01*
X196769317Y-73695500D01*
X196785601Y-73693356D01*
X196818173Y-73689068D01*
X196925404Y-73639065D01*
X197009065Y-73555404D01*
X197059068Y-73448173D01*
X197065500Y-73399316D01*
X197065500Y-73198661D01*
X197070523Y-73163727D01*
X197077934Y-73138487D01*
X197109227Y-73085742D01*
X197182234Y-73012734D01*
X197210489Y-72991585D01*
X197224209Y-72984094D01*
X197292474Y-72969244D01*
X197295452Y-72969456D01*
X197301315Y-72969876D01*
X197354472Y-72986172D01*
X197406814Y-73016392D01*
X197534108Y-73050500D01*
X197534110Y-73050500D01*
X197665890Y-73050500D01*
X197665892Y-73050500D01*
X197793186Y-73016392D01*
X197907314Y-72950500D01*
X198000500Y-72857314D01*
X198066392Y-72743186D01*
X198100500Y-72615892D01*
X198100500Y-72484108D01*
X198072259Y-72378710D01*
X205649500Y-72378710D01*
X205649500Y-72621289D01*
X205680569Y-72857294D01*
X205681161Y-72861785D01*
X205698589Y-72926827D01*
X205743947Y-73096104D01*
X205836772Y-73320203D01*
X205836773Y-73320207D01*
X205836780Y-73320220D01*
X205958060Y-73530283D01*
X205958062Y-73530286D01*
X205958281Y-73530615D01*
X205959284Y-73531879D01*
X206105726Y-73722728D01*
X206105730Y-73722733D01*
X206105733Y-73722736D01*
X206105739Y-73722743D01*
X206277256Y-73894260D01*
X206277263Y-73894266D01*
X206277266Y-73894268D01*
X206277270Y-73894272D01*
X206350549Y-73950500D01*
X206469711Y-74041936D01*
X206679784Y-74163222D01*
X206679785Y-74163222D01*
X206679788Y-74163224D01*
X206903900Y-74256054D01*
X207138211Y-74318838D01*
X207318586Y-74342584D01*
X207378710Y-74350500D01*
X207378711Y-74350500D01*
X207378712Y-74350500D01*
X207621282Y-74350500D01*
X207621289Y-74350500D01*
X207669917Y-74344098D01*
X207861789Y-74318838D01*
X208096100Y-74256054D01*
X208320212Y-74163224D01*
X208530289Y-74041936D01*
X208722738Y-73894265D01*
X208894265Y-73722738D01*
X209041936Y-73530289D01*
X209163224Y-73320212D01*
X209256054Y-73096100D01*
X209318838Y-72861789D01*
X209350500Y-72621288D01*
X209350500Y-72378712D01*
X209318838Y-72138211D01*
X209256054Y-71903900D01*
X209254313Y-71899698D01*
X209208693Y-71789560D01*
X209198134Y-71764068D01*
X209163229Y-71679799D01*
X209163222Y-71679784D01*
X209041936Y-71469711D01*
X208940591Y-71337635D01*
X208894272Y-71277270D01*
X208894268Y-71277266D01*
X208894266Y-71277263D01*
X208894260Y-71277256D01*
X208722743Y-71105739D01*
X208722736Y-71105733D01*
X208722733Y-71105730D01*
X208722728Y-71105726D01*
X208531879Y-70959284D01*
X208530615Y-70958281D01*
X208530286Y-70958062D01*
X208530283Y-70958060D01*
X208320220Y-70836780D01*
X208320207Y-70836773D01*
X208320203Y-70836772D01*
X208096104Y-70743947D01*
X207923819Y-70697783D01*
X207923818Y-70697782D01*
X207869639Y-70683264D01*
X207861894Y-70680635D01*
X207853726Y-70680100D01*
X207621290Y-70649500D01*
X207621289Y-70649500D01*
X207621288Y-70649500D01*
X207378712Y-70649500D01*
X207378711Y-70649500D01*
X207378710Y-70649500D01*
X207138217Y-70681160D01*
X206903894Y-70743947D01*
X206679790Y-70836774D01*
X206679782Y-70836778D01*
X206469706Y-70958067D01*
X206469697Y-70958073D01*
X206277270Y-71105726D01*
X206277255Y-71105740D01*
X206277247Y-71105747D01*
X206105747Y-71277247D01*
X206105740Y-71277255D01*
X206105726Y-71277270D01*
X205958073Y-71469697D01*
X205958067Y-71469706D01*
X205836778Y-71679782D01*
X205836774Y-71679790D01*
X205743947Y-71903894D01*
X205681160Y-72138217D01*
X205649500Y-72378710D01*
X198072259Y-72378710D01*
X198066392Y-72356814D01*
X198000500Y-72242686D01*
X197907314Y-72149500D01*
X197844408Y-72113181D01*
X197793187Y-72083608D01*
X197729539Y-72066554D01*
X197665892Y-72049500D01*
X197665891Y-72049500D01*
X197534108Y-72049500D01*
X197406808Y-72083609D01*
X197406806Y-72083610D01*
X197292684Y-72149500D01*
X197232206Y-72209979D01*
X197206525Y-72229685D01*
X197179214Y-72245453D01*
X197149310Y-72257840D01*
X197104034Y-72269972D01*
X197104020Y-72269975D01*
X197104013Y-72269978D01*
X197104010Y-72269979D01*
X197104007Y-72269980D01*
X197081383Y-72283042D01*
X197081380Y-72283042D01*
X197044933Y-72304086D01*
X197035492Y-72309537D01*
X197035488Y-72309539D01*
X197035488Y-72309540D01*
X197035483Y-72309544D01*
X196739455Y-72605573D01*
X196711204Y-72626722D01*
X196688116Y-72639330D01*
X196628686Y-72654500D01*
X196420681Y-72654500D01*
X196371832Y-72660930D01*
X196371824Y-72660932D01*
X196264594Y-72710935D01*
X196264591Y-72710937D01*
X196203397Y-72772132D01*
X196193108Y-72781335D01*
X196161778Y-72806362D01*
X196097113Y-72832823D01*
X196028408Y-72820123D01*
X196028404Y-72820122D01*
X196021865Y-72816813D01*
X195984144Y-72787383D01*
X195979379Y-72781885D01*
X195979091Y-72781790D01*
X195961979Y-72767510D01*
X195924426Y-72729957D01*
X195903274Y-72701701D01*
X195890667Y-72678612D01*
X195875500Y-72619187D01*
X195875500Y-72501125D01*
X195868377Y-72474541D01*
X195855021Y-72424697D01*
X195815849Y-72356849D01*
X195815843Y-72356823D01*
X195815837Y-72356827D01*
X195815717Y-72356619D01*
X195815464Y-72356181D01*
X195815458Y-72356173D01*
X195815454Y-72356168D01*
X195399426Y-71940141D01*
X195378274Y-71911885D01*
X195365667Y-71888796D01*
X195350500Y-71829371D01*
X195350500Y-71644315D01*
X195355522Y-71609382D01*
X195359433Y-71596063D01*
X195397206Y-71537286D01*
X195460758Y-71508261D01*
X195465195Y-71507623D01*
X195518256Y-71511526D01*
X195520921Y-71512320D01*
X195524868Y-71513497D01*
X195526088Y-71513852D01*
X195526827Y-71514068D01*
X195573206Y-71520174D01*
X195575667Y-71520498D01*
X195575683Y-71520500D01*
X195575684Y-71520500D01*
X195924310Y-71520500D01*
X195924317Y-71520500D01*
X195948091Y-71517370D01*
X195973173Y-71514068D01*
X196080404Y-71464065D01*
X196141481Y-71402987D01*
X196151702Y-71393842D01*
X196174563Y-71375560D01*
X196174564Y-71375561D01*
X196183174Y-71368675D01*
X196247824Y-71342181D01*
X196316525Y-71354840D01*
X196323026Y-71358124D01*
X196360830Y-71387602D01*
X196365603Y-71393110D01*
X196366044Y-71393258D01*
X196382871Y-71407340D01*
X196439596Y-71464065D01*
X196546827Y-71514068D01*
X196595683Y-71520500D01*
X196595684Y-71520500D01*
X196944310Y-71520500D01*
X196944317Y-71520500D01*
X196968091Y-71517370D01*
X196993173Y-71514068D01*
X197100404Y-71464065D01*
X197184065Y-71380404D01*
X197184065Y-71380402D01*
X197184067Y-71380401D01*
X197190288Y-71371517D01*
X197191018Y-71372028D01*
X197199716Y-71358718D01*
X197210227Y-71346781D01*
X197268833Y-71309610D01*
X197283444Y-71305382D01*
X197317898Y-71300500D01*
X198289560Y-71300500D01*
X198289562Y-71300500D01*
X198365989Y-71280021D01*
X198374207Y-71275275D01*
X198404115Y-71262887D01*
X198417062Y-71259418D01*
X198434580Y-71254725D01*
X198466672Y-71250500D01*
X198565890Y-71250500D01*
X198565892Y-71250500D01*
X198693186Y-71216392D01*
X198807314Y-71150500D01*
X198900500Y-71057314D01*
X198966392Y-70943186D01*
X199000500Y-70815892D01*
X199000500Y-70684108D01*
X198966392Y-70556814D01*
X198965954Y-70556056D01*
X198965932Y-70556017D01*
X198942156Y-70514836D01*
X198928698Y-70491527D01*
X198900500Y-70442686D01*
X198807314Y-70349500D01*
X198733380Y-70306814D01*
X198693187Y-70283608D01*
X198629539Y-70266554D01*
X198565892Y-70249500D01*
X198565891Y-70249500D01*
X198434108Y-70249500D01*
X198306808Y-70283609D01*
X198306806Y-70283610D01*
X198192696Y-70349493D01*
X198192682Y-70349502D01*
X198192677Y-70349506D01*
X198099506Y-70442677D01*
X198099502Y-70442682D01*
X198099496Y-70442691D01*
X198034068Y-70556017D01*
X198034046Y-70556056D01*
X198033607Y-70556814D01*
X198033605Y-70556820D01*
X198024614Y-70590375D01*
X198010722Y-70622817D01*
X198002588Y-70636162D01*
X197950898Y-70683156D01*
X197942923Y-70687031D01*
X197888731Y-70699500D01*
X197318151Y-70699500D01*
X197283213Y-70694476D01*
X197267957Y-70689996D01*
X197209504Y-70652593D01*
X197206802Y-70649500D01*
X197199501Y-70641141D01*
X197190954Y-70628014D01*
X197190287Y-70628482D01*
X197184065Y-70619596D01*
X197143377Y-70578908D01*
X197100404Y-70535935D01*
X197095414Y-70533608D01*
X197070046Y-70521778D01*
X197035691Y-70491527D01*
X196944319Y-70479500D01*
X196944317Y-70479500D01*
X196944316Y-70479500D01*
X196595684Y-70479500D01*
X196595683Y-70479500D01*
X196595681Y-70479500D01*
X196546832Y-70485930D01*
X196546824Y-70485932D01*
X196439594Y-70535935D01*
X196439591Y-70535937D01*
X196378397Y-70597132D01*
X196368108Y-70606335D01*
X196336778Y-70631362D01*
X196272113Y-70657823D01*
X196203408Y-70645123D01*
X196203404Y-70645122D01*
X196196865Y-70641813D01*
X196159144Y-70612383D01*
X196154379Y-70606885D01*
X196154091Y-70606790D01*
X196136979Y-70592510D01*
X196080403Y-70535934D01*
X196050046Y-70521778D01*
X196015691Y-70491527D01*
X195924319Y-70479500D01*
X195924317Y-70479500D01*
X195924316Y-70479500D01*
X195575684Y-70479500D01*
X195575683Y-70479500D01*
X195561940Y-70481308D01*
X195559567Y-70480938D01*
X195526951Y-70485890D01*
X195524552Y-70486229D01*
X195523728Y-70486378D01*
X195495548Y-70490656D01*
X195426314Y-70481257D01*
X195373152Y-70435918D01*
X195373146Y-70435909D01*
X195370709Y-70432181D01*
X195350504Y-70365297D01*
X195350500Y-70364333D01*
X195350500Y-70092329D01*
X195355523Y-70057393D01*
X195359927Y-70042395D01*
X195397672Y-69983644D01*
X195399041Y-69982457D01*
X195453920Y-69954977D01*
X195461479Y-69953333D01*
X195487832Y-69950500D01*
X196212713Y-69950500D01*
X196212720Y-69950500D01*
X196325236Y-69935687D01*
X196465233Y-69877698D01*
X196585451Y-69785451D01*
X196677698Y-69665233D01*
X196735687Y-69525236D01*
X196750500Y-69412720D01*
X196750500Y-68587280D01*
X196735687Y-68474764D01*
X196677698Y-68334767D01*
X196677697Y-68334766D01*
X196677697Y-68334765D01*
X196587573Y-68217315D01*
X196577115Y-68201253D01*
X196569117Y-68186605D01*
X196554266Y-68118331D01*
X196578685Y-68052867D01*
X196634616Y-68010999D01*
X196638489Y-68009554D01*
X196641825Y-68008311D01*
X196685139Y-68000500D01*
X211857670Y-68000500D01*
X211892606Y-68005523D01*
G37*
%TD.AperFunction*%
%TA.AperFunction,Conductor*%
G36*
X203195658Y-93320233D02*
G01*
X203205919Y-93321346D01*
X203212169Y-93326391D01*
X203225867Y-93331500D01*
X203232675Y-93336596D01*
X203244687Y-93352642D01*
X203260285Y-93365233D01*
X203265753Y-93373864D01*
X203299500Y-93432314D01*
X203392686Y-93525500D01*
X203392687Y-93525501D01*
X203392689Y-93525502D01*
X203462646Y-93565892D01*
X203491521Y-93582563D01*
X203506117Y-93590990D01*
X203506814Y-93591392D01*
X203634108Y-93625500D01*
X203634110Y-93625500D01*
X203765889Y-93625500D01*
X203765892Y-93625500D01*
X203861763Y-93599811D01*
X203896800Y-93595622D01*
X203912429Y-93595994D01*
X203978968Y-93617260D01*
X203980470Y-93618277D01*
X204021191Y-93664150D01*
X204024732Y-93671018D01*
X204031080Y-93687438D01*
X204031382Y-93687324D01*
X204033604Y-93693179D01*
X204033615Y-93693199D01*
X204033778Y-93693482D01*
X204033779Y-93693483D01*
X204099497Y-93807310D01*
X204099499Y-93807312D01*
X204099500Y-93807314D01*
X204192686Y-93900500D01*
X204306814Y-93966392D01*
X204434108Y-94000500D01*
X204434110Y-94000500D01*
X204565890Y-94000500D01*
X204565892Y-94000500D01*
X204693186Y-93966392D01*
X204748063Y-93934707D01*
X204780818Y-93921594D01*
X204786640Y-93920181D01*
X204794308Y-93918321D01*
X204864097Y-93921642D01*
X204920988Y-93962136D01*
X204921995Y-93963417D01*
X204946309Y-94016630D01*
X204947258Y-94021553D01*
X204949500Y-94045024D01*
X204949500Y-94375964D01*
X204944476Y-94410902D01*
X204941289Y-94421755D01*
X204903514Y-94480532D01*
X204839957Y-94509555D01*
X204770807Y-94499614D01*
X204763829Y-94496427D01*
X204727657Y-94471313D01*
X204719081Y-94462737D01*
X204719079Y-94462735D01*
X204662015Y-94429789D01*
X204604952Y-94396843D01*
X204541304Y-94379789D01*
X204477657Y-94362735D01*
X204477656Y-94362735D01*
X204345873Y-94362735D01*
X204218573Y-94396844D01*
X204218571Y-94396845D01*
X204104461Y-94462728D01*
X204104447Y-94462737D01*
X204104442Y-94462741D01*
X204011271Y-94555912D01*
X204011267Y-94555917D01*
X204011258Y-94555931D01*
X203945375Y-94670041D01*
X203945374Y-94670044D01*
X203945373Y-94670046D01*
X203945373Y-94670047D01*
X203934551Y-94710435D01*
X203913575Y-94788721D01*
X203911265Y-94797341D01*
X203911265Y-94929129D01*
X203914063Y-94939570D01*
X203919164Y-94958608D01*
X203945373Y-95056422D01*
X203962726Y-95086478D01*
X203971790Y-95102177D01*
X204011262Y-95170545D01*
X204011264Y-95170547D01*
X204011265Y-95170549D01*
X204104451Y-95263735D01*
X204193655Y-95315237D01*
X204193656Y-95315238D01*
X204216348Y-95328340D01*
X204216349Y-95328340D01*
X204216363Y-95328348D01*
X204218579Y-95329627D01*
X204290373Y-95348863D01*
X204322821Y-95362758D01*
X204329222Y-95366660D01*
X204336169Y-95370895D01*
X204383157Y-95422581D01*
X204387031Y-95430554D01*
X204399500Y-95484746D01*
X204399500Y-95657256D01*
X204409757Y-95708821D01*
X204411647Y-95744063D01*
X204410410Y-95757888D01*
X204384829Y-95822906D01*
X204328157Y-95863773D01*
X204317774Y-95867436D01*
X204276520Y-95874500D01*
X204042741Y-95874500D01*
X204042030Y-95874642D01*
X204040441Y-95874727D01*
X204036685Y-95875097D01*
X204036668Y-95874929D01*
X204006789Y-95876528D01*
X204001699Y-95876073D01*
X203985893Y-95874658D01*
X203928986Y-95854866D01*
X203926929Y-95853518D01*
X203886062Y-95809229D01*
X203874932Y-95788845D01*
X203859765Y-95729420D01*
X203859765Y-95649845D01*
X203859765Y-95649843D01*
X203825657Y-95522549D01*
X203824145Y-95519931D01*
X203807160Y-95490511D01*
X203759765Y-95408421D01*
X203666579Y-95315235D01*
X203577377Y-95263734D01*
X203552452Y-95249343D01*
X203468292Y-95226793D01*
X203468290Y-95226792D01*
X203425158Y-95215235D01*
X203425157Y-95215235D01*
X203293373Y-95215235D01*
X203166073Y-95249344D01*
X203166071Y-95249345D01*
X203051949Y-95315235D01*
X202981923Y-95385262D01*
X202953667Y-95406414D01*
X202941486Y-95413065D01*
X202910187Y-95419873D01*
X202879244Y-95428200D01*
X202876266Y-95427251D01*
X202873212Y-95427916D01*
X202843185Y-95416716D01*
X202812669Y-95406997D01*
X202807751Y-95403498D01*
X202807749Y-95403498D01*
X202807745Y-95403494D01*
X202800944Y-95398403D01*
X202792986Y-95389436D01*
X202786527Y-95383285D01*
X202772770Y-95366660D01*
X202767868Y-95361137D01*
X202767571Y-95360623D01*
X202728349Y-95292689D01*
X202728344Y-95292683D01*
X202635163Y-95199502D01*
X202635161Y-95199500D01*
X202633795Y-95198711D01*
X202549193Y-95149866D01*
X202549193Y-95149865D01*
X202549190Y-95149864D01*
X202532136Y-95140018D01*
X202521035Y-95133608D01*
X202457386Y-95116554D01*
X202426622Y-95108311D01*
X202393739Y-95099500D01*
X202393738Y-95099500D01*
X202261955Y-95099500D01*
X202150425Y-95129384D01*
X202150417Y-95129386D01*
X202136459Y-95133125D01*
X202134747Y-95133556D01*
X202121936Y-95140953D01*
X202089176Y-95154068D01*
X202075691Y-95157340D01*
X202005900Y-95154019D01*
X201948988Y-95113496D01*
X201947973Y-95112205D01*
X201923685Y-95059005D01*
X201922735Y-95054079D01*
X201920500Y-95030640D01*
X201920500Y-94591277D01*
X201925521Y-94556350D01*
X201928707Y-94545497D01*
X201966477Y-94486716D01*
X202030031Y-94457687D01*
X202099186Y-94467625D01*
X202099768Y-94467891D01*
X202143863Y-94501732D01*
X202160450Y-94521823D01*
X202165063Y-94523768D01*
X202174333Y-94532147D01*
X202242686Y-94600500D01*
X202324165Y-94647542D01*
X202353538Y-94664501D01*
X202356814Y-94666392D01*
X202484108Y-94700500D01*
X202484110Y-94700500D01*
X202615890Y-94700500D01*
X202615892Y-94700500D01*
X202743186Y-94666392D01*
X202857314Y-94600500D01*
X202950500Y-94507314D01*
X203016392Y-94393186D01*
X203050500Y-94265892D01*
X203050500Y-94134108D01*
X203016392Y-94006814D01*
X202950500Y-93892686D01*
X202899425Y-93841611D01*
X202878272Y-93813353D01*
X202872372Y-93802548D01*
X202865666Y-93790265D01*
X202850500Y-93730842D01*
X202850500Y-93620130D01*
X202855523Y-93585195D01*
X202858030Y-93576657D01*
X202858099Y-93576677D01*
X202862726Y-93560950D01*
X202862647Y-93560927D01*
X202862908Y-93560036D01*
X202863081Y-93559742D01*
X202865434Y-93551748D01*
X202868880Y-93544213D01*
X202870350Y-93544885D01*
X202871613Y-93539955D01*
X202883666Y-93525023D01*
X202894225Y-93507215D01*
X203051704Y-93349736D01*
X203079949Y-93328591D01*
X203092134Y-93321938D01*
X203160404Y-93307086D01*
X203195658Y-93320233D01*
G37*
%TD.AperFunction*%
%TA.AperFunction,Conductor*%
G36*
X202079186Y-80870481D02*
G01*
X202086172Y-80873671D01*
X202122342Y-80898784D01*
X204492825Y-83269267D01*
X204513975Y-83297519D01*
X204526583Y-83320608D01*
X204541752Y-83380037D01*
X204541752Y-89804349D01*
X204536728Y-89839288D01*
X204529315Y-89864531D01*
X204498020Y-89917273D01*
X204441752Y-89973540D01*
X204375862Y-90087662D01*
X204375861Y-90087664D01*
X204355097Y-90165160D01*
X204341752Y-90214964D01*
X204341752Y-90346747D01*
X204375860Y-90474043D01*
X204405213Y-90524882D01*
X204405214Y-90524885D01*
X204405215Y-90524885D01*
X204441752Y-90588170D01*
X204534938Y-90681356D01*
X204592061Y-90714336D01*
X204619798Y-90736147D01*
X204629375Y-90746191D01*
X204661395Y-90808291D01*
X204654757Y-90877845D01*
X204654754Y-90877853D01*
X204651594Y-90885746D01*
X204624158Y-90927339D01*
X202365490Y-93186010D01*
X202365489Y-93186011D01*
X202309545Y-93241953D01*
X202309540Y-93241958D01*
X202309526Y-93241979D01*
X202270485Y-93309601D01*
X202270009Y-93310408D01*
X202269978Y-93310482D01*
X202262838Y-93337132D01*
X202261932Y-93340513D01*
X202259460Y-93349739D01*
X202249607Y-93386511D01*
X202249500Y-93386904D01*
X202249500Y-93723493D01*
X202244476Y-93758432D01*
X202237063Y-93783675D01*
X202205768Y-93836417D01*
X202178376Y-93863809D01*
X202175254Y-93865513D01*
X202175636Y-93865914D01*
X202130789Y-93908667D01*
X202068683Y-93940676D01*
X201999130Y-93934028D01*
X201944217Y-93890835D01*
X201943817Y-93890274D01*
X201922580Y-93838928D01*
X201922207Y-93836710D01*
X201920500Y-93816201D01*
X201920500Y-81205440D01*
X201917217Y-81193189D01*
X201913647Y-81179865D01*
X201906519Y-81153267D01*
X201902561Y-81129284D01*
X201900765Y-81101856D01*
X201900500Y-81093754D01*
X201900500Y-80994133D01*
X201905521Y-80959206D01*
X201908707Y-80948353D01*
X201946477Y-80889572D01*
X202010031Y-80860543D01*
X202079186Y-80870481D01*
G37*
%TD.AperFunction*%
%TA.AperFunction,Conductor*%
G36*
X191271622Y-88791800D02*
G01*
X191329853Y-88811166D01*
X191336374Y-88815356D01*
X191357025Y-88831996D01*
X191967240Y-89442211D01*
X191988392Y-89470467D01*
X191995884Y-89484188D01*
X192010736Y-89552448D01*
X192010607Y-89554254D01*
X191991239Y-89612457D01*
X191987058Y-89618963D01*
X191970422Y-89639606D01*
X191946955Y-89663073D01*
X191918704Y-89684222D01*
X191895616Y-89696830D01*
X191836186Y-89712000D01*
X191575986Y-89712000D01*
X191541050Y-89706977D01*
X191514778Y-89699262D01*
X191471909Y-89676837D01*
X191471229Y-89676289D01*
X191458288Y-89674546D01*
X191433773Y-89663722D01*
X191433770Y-89663719D01*
X191379584Y-89639794D01*
X191379582Y-89639793D01*
X191379581Y-89639793D01*
X191373562Y-89639094D01*
X191355508Y-89637000D01*
X191355505Y-89637000D01*
X190819503Y-89637000D01*
X190819333Y-89637018D01*
X190795420Y-89639791D01*
X190795419Y-89639792D01*
X190795414Y-89639793D01*
X190696926Y-89683280D01*
X190696924Y-89683281D01*
X190696917Y-89683287D01*
X190620785Y-89759420D01*
X190620783Y-89759422D01*
X190620781Y-89759427D01*
X190577292Y-89857918D01*
X190576722Y-89860622D01*
X190576467Y-89865036D01*
X190574500Y-89881987D01*
X190574500Y-90142991D01*
X190574503Y-90143049D01*
X190574553Y-90143459D01*
X190577292Y-90167079D01*
X190577293Y-90167083D01*
X190583130Y-90180303D01*
X190592644Y-90214282D01*
X190592928Y-90216451D01*
X190594859Y-90231199D01*
X190595938Y-90239433D01*
X190586422Y-90305622D01*
X190552293Y-90382916D01*
X190551722Y-90385622D01*
X190551467Y-90390036D01*
X190549500Y-90406987D01*
X190549500Y-90942996D01*
X190549518Y-90943165D01*
X190552291Y-90967078D01*
X190552292Y-90967079D01*
X190552293Y-90967084D01*
X190583335Y-91037386D01*
X190592495Y-91058132D01*
X190595783Y-91065577D01*
X190595785Y-91065579D01*
X190671921Y-91141715D01*
X190770420Y-91185207D01*
X190794495Y-91188000D01*
X190795886Y-91187999D01*
X190796226Y-91188099D01*
X190798065Y-91188206D01*
X190798053Y-91188412D01*
X190798055Y-91188413D01*
X190798051Y-91188446D01*
X190798040Y-91188631D01*
X190800840Y-91189453D01*
X190830840Y-91193021D01*
X190844840Y-91197132D01*
X190845838Y-91197425D01*
X190860815Y-91207050D01*
X190862927Y-91207670D01*
X190864370Y-91209335D01*
X190904616Y-91235200D01*
X190904624Y-91235209D01*
X190905810Y-91236578D01*
X190933252Y-91291398D01*
X190934898Y-91298960D01*
X190937735Y-91325333D01*
X190937735Y-91429127D01*
X190962734Y-91522424D01*
X190963859Y-91526622D01*
X190964689Y-91530901D01*
X190964520Y-91532687D01*
X190967931Y-91561225D01*
X190967601Y-91575101D01*
X190946328Y-91641654D01*
X190892454Y-91686139D01*
X190884639Y-91689486D01*
X190835821Y-91699500D01*
X190580731Y-91699500D01*
X190545795Y-91694477D01*
X190520553Y-91687065D01*
X190467808Y-91655769D01*
X189849425Y-91037386D01*
X189828273Y-91009130D01*
X189815666Y-90986041D01*
X189800499Y-90926616D01*
X189800499Y-90407003D01*
X189800499Y-90406996D01*
X189797707Y-90382920D01*
X189797705Y-90382916D01*
X189790455Y-90366495D01*
X189766872Y-90313085D01*
X189757357Y-90279105D01*
X189754061Y-90253940D01*
X189763578Y-90187753D01*
X189771841Y-90169040D01*
X189773635Y-90165160D01*
X189779356Y-90153329D01*
X189780095Y-90150609D01*
X189775501Y-90135320D01*
X189775499Y-90134915D01*
X189775499Y-89881996D01*
X189772707Y-89857920D01*
X189759891Y-89828896D01*
X189750374Y-89794908D01*
X189749797Y-89790499D01*
X189747080Y-89769752D01*
X189756595Y-89703568D01*
X189771525Y-89669756D01*
X189773075Y-89666462D01*
X189773201Y-89665693D01*
X189773532Y-89659968D01*
X189773607Y-89659318D01*
X189775500Y-89643005D01*
X189775499Y-89381996D01*
X189772707Y-89357920D01*
X189759891Y-89328896D01*
X189750374Y-89294908D01*
X189747080Y-89269752D01*
X189756595Y-89203568D01*
X189771525Y-89169756D01*
X189773075Y-89166462D01*
X189773201Y-89165693D01*
X189773532Y-89159968D01*
X189775500Y-89143005D01*
X189775499Y-89004825D01*
X189780522Y-88969890D01*
X189782748Y-88962311D01*
X189784925Y-88954894D01*
X189822670Y-88896143D01*
X189824039Y-88894956D01*
X189859537Y-88877179D01*
X189865495Y-88872389D01*
X189871471Y-88871203D01*
X189878913Y-88867476D01*
X189886476Y-88865831D01*
X189899702Y-88863696D01*
X189906249Y-88862999D01*
X190055504Y-88862999D01*
X190079580Y-88860207D01*
X190124914Y-88840189D01*
X190167749Y-88834580D01*
X190233935Y-88844096D01*
X190270420Y-88860207D01*
X190294495Y-88863000D01*
X190555504Y-88862999D01*
X190579580Y-88860207D01*
X190608607Y-88847389D01*
X190642592Y-88837874D01*
X190667749Y-88834580D01*
X190733935Y-88844096D01*
X190770420Y-88860207D01*
X190794495Y-88863000D01*
X191055504Y-88862999D01*
X191079580Y-88860207D01*
X191124914Y-88840190D01*
X191149119Y-88829502D01*
X191162827Y-88827706D01*
X191189537Y-88813114D01*
X191189538Y-88813115D01*
X191201574Y-88806539D01*
X191269816Y-88791671D01*
X191271622Y-88791800D01*
G37*
%TD.AperFunction*%
%TA.AperFunction,Conductor*%
G36*
X192922132Y-85354200D02*
G01*
X192963994Y-85410116D01*
X192966676Y-85417304D01*
X192974500Y-85460652D01*
X192974500Y-85664562D01*
X192985367Y-85705117D01*
X192986753Y-85710287D01*
X192986753Y-85710294D01*
X192986755Y-85710294D01*
X192994977Y-85740985D01*
X192994978Y-85740987D01*
X192994979Y-85740990D01*
X193009568Y-85766258D01*
X193017213Y-85779500D01*
X193019903Y-85784158D01*
X193019906Y-85784165D01*
X193034536Y-85809506D01*
X193034548Y-85809520D01*
X193325573Y-86100544D01*
X193346723Y-86128796D01*
X193359331Y-86151885D01*
X193374500Y-86211314D01*
X193374500Y-88850768D01*
X193369476Y-88885706D01*
X193366289Y-88896559D01*
X193328514Y-88955336D01*
X193264957Y-88984359D01*
X193195807Y-88974418D01*
X193188829Y-88971231D01*
X193152659Y-88946119D01*
X193093316Y-88886776D01*
X193093314Y-88886775D01*
X193093315Y-88886775D01*
X193079369Y-88880272D01*
X193079369Y-88880271D01*
X193079366Y-88880271D01*
X193066357Y-88874205D01*
X193061359Y-88871874D01*
X193027005Y-88841623D01*
X192934903Y-88829500D01*
X192934901Y-88829500D01*
X192515105Y-88829500D01*
X192515102Y-88829500D01*
X192502815Y-88831118D01*
X192502814Y-88831117D01*
X192473563Y-88834968D01*
X192468154Y-88835322D01*
X192466209Y-88835665D01*
X192463999Y-88836733D01*
X192386787Y-88872738D01*
X192352998Y-88882950D01*
X192350401Y-88883345D01*
X192337542Y-88885298D01*
X192268309Y-88875901D01*
X192257655Y-88871137D01*
X192220591Y-88845620D01*
X191637759Y-88262788D01*
X191616607Y-88234532D01*
X191609115Y-88220811D01*
X191594263Y-88152551D01*
X191594392Y-88150742D01*
X191613758Y-88092547D01*
X191617951Y-88086023D01*
X191634572Y-88065398D01*
X192135458Y-87564513D01*
X192135460Y-87564511D01*
X192138825Y-87558681D01*
X192140094Y-87556486D01*
X192155185Y-87530346D01*
X192175021Y-87495989D01*
X192195500Y-87419562D01*
X192195500Y-87392402D01*
X192208715Y-87347397D01*
X192209596Y-87344824D01*
X192218559Y-87332147D01*
X192239230Y-87297309D01*
X192260893Y-87275647D01*
X192318224Y-87218316D01*
X192368972Y-87109487D01*
X192375500Y-87059901D01*
X192375499Y-86640100D01*
X192368972Y-86590513D01*
X192318224Y-86481684D01*
X192233316Y-86396776D01*
X192201363Y-86381876D01*
X192167005Y-86351624D01*
X192086069Y-86340968D01*
X192059604Y-86334463D01*
X192045654Y-86329353D01*
X191989476Y-86287811D01*
X191964675Y-86222491D01*
X191979123Y-86154137D01*
X191984316Y-86144494D01*
X192005809Y-86115605D01*
X192750215Y-85371199D01*
X192778466Y-85350051D01*
X192788396Y-85344629D01*
X192856668Y-85329780D01*
X192922132Y-85354200D01*
G37*
%TD.AperFunction*%
%TA.AperFunction,Conductor*%
G36*
X182546333Y-68005521D02*
G01*
X182557186Y-68008707D01*
X182615967Y-68046477D01*
X182644996Y-68110031D01*
X182635057Y-68179190D01*
X182635053Y-68179197D01*
X182631168Y-68187704D01*
X182616750Y-68211679D01*
X182522300Y-68334769D01*
X182522298Y-68334772D01*
X182464313Y-68474761D01*
X182463518Y-68478760D01*
X182463252Y-68482822D01*
X182449500Y-68587271D01*
X182449500Y-69412733D01*
X182454324Y-69449365D01*
X182454324Y-69449366D01*
X182464312Y-69525235D01*
X182522300Y-69665228D01*
X182522302Y-69665233D01*
X182614549Y-69785451D01*
X182734767Y-69877698D01*
X182874764Y-69935687D01*
X182987280Y-69950500D01*
X183707670Y-69950500D01*
X183742606Y-69955523D01*
X183757604Y-69959927D01*
X183816355Y-69997672D01*
X183817542Y-69999041D01*
X183845018Y-70053902D01*
X183846663Y-70061460D01*
X183849500Y-70087831D01*
X183849500Y-70467839D01*
X183844476Y-70502777D01*
X183841289Y-70513630D01*
X183803514Y-70572407D01*
X183739957Y-70601430D01*
X183670807Y-70591489D01*
X183663829Y-70588302D01*
X183627657Y-70563188D01*
X183600403Y-70535934D01*
X183570046Y-70521778D01*
X183535691Y-70491527D01*
X183444319Y-70479500D01*
X183444317Y-70479500D01*
X183444316Y-70479500D01*
X183095684Y-70479500D01*
X183095683Y-70479500D01*
X183095681Y-70479500D01*
X183046832Y-70485930D01*
X183046824Y-70485932D01*
X182939594Y-70535935D01*
X182939591Y-70535937D01*
X182878397Y-70597132D01*
X182868108Y-70606335D01*
X182836778Y-70631362D01*
X182772113Y-70657823D01*
X182703408Y-70645123D01*
X182703404Y-70645122D01*
X182696865Y-70641813D01*
X182659144Y-70612383D01*
X182654379Y-70606885D01*
X182654091Y-70606790D01*
X182636979Y-70592510D01*
X182580403Y-70535934D01*
X182550046Y-70521778D01*
X182515691Y-70491527D01*
X182424319Y-70479500D01*
X182424317Y-70479500D01*
X182424316Y-70479500D01*
X182075684Y-70479500D01*
X182075683Y-70479500D01*
X182075681Y-70479500D01*
X182034887Y-70484870D01*
X182030239Y-70485174D01*
X182026821Y-70485932D01*
X181942335Y-70525329D01*
X181908555Y-70535540D01*
X181894837Y-70537624D01*
X181825602Y-70528232D01*
X181772435Y-70482899D01*
X181772432Y-70482895D01*
X181771152Y-70480938D01*
X181768278Y-70476542D01*
X181752285Y-70440773D01*
X181750500Y-70434110D01*
X181750500Y-70434108D01*
X181716392Y-70306814D01*
X181716387Y-70306806D01*
X181702995Y-70283610D01*
X181650500Y-70192686D01*
X181557314Y-70099500D01*
X181500250Y-70066554D01*
X181443187Y-70033608D01*
X181345603Y-70007461D01*
X181345603Y-70007460D01*
X181315893Y-69999500D01*
X181315892Y-69999500D01*
X181184108Y-69999500D01*
X181056808Y-70033609D01*
X181056806Y-70033610D01*
X180942696Y-70099493D01*
X180942682Y-70099502D01*
X180942677Y-70099506D01*
X180849506Y-70192677D01*
X180849502Y-70192682D01*
X180849493Y-70192696D01*
X180783610Y-70306806D01*
X180783609Y-70306807D01*
X180783608Y-70306812D01*
X180772170Y-70349500D01*
X180772170Y-70349501D01*
X180772169Y-70349500D01*
X180749500Y-70434106D01*
X180749500Y-70565895D01*
X180751162Y-70572098D01*
X180751717Y-70574167D01*
X180782762Y-70690030D01*
X180783609Y-70693189D01*
X180804574Y-70729501D01*
X180804575Y-70729502D01*
X180811518Y-70741527D01*
X180849500Y-70807314D01*
X180942686Y-70900500D01*
X181056814Y-70966392D01*
X181184108Y-71000500D01*
X181184110Y-71000500D01*
X181256337Y-71000500D01*
X181291269Y-71005521D01*
X181316513Y-71012934D01*
X181369259Y-71044230D01*
X181565489Y-71240460D01*
X181611653Y-71267113D01*
X181611654Y-71267113D01*
X181634008Y-71280020D01*
X181634012Y-71280022D01*
X181710438Y-71300500D01*
X181710448Y-71300500D01*
X181717655Y-71301449D01*
X181736410Y-71305413D01*
X181752041Y-71310003D01*
X181810497Y-71347409D01*
X181820501Y-71358863D01*
X181829047Y-71371984D01*
X181829713Y-71371518D01*
X181835934Y-71380402D01*
X181835935Y-71380404D01*
X181919596Y-71464065D01*
X182026827Y-71514068D01*
X182075683Y-71520500D01*
X182075684Y-71520500D01*
X182424310Y-71520500D01*
X182424317Y-71520500D01*
X182448091Y-71517370D01*
X182473173Y-71514068D01*
X182580404Y-71464065D01*
X182641481Y-71402987D01*
X182651702Y-71393842D01*
X182674563Y-71375560D01*
X182674564Y-71375561D01*
X182683174Y-71368675D01*
X182747824Y-71342181D01*
X182816525Y-71354840D01*
X182823026Y-71358124D01*
X182860830Y-71387602D01*
X182865603Y-71393110D01*
X182866044Y-71393258D01*
X182882871Y-71407340D01*
X182939596Y-71464065D01*
X183046827Y-71514068D01*
X183095683Y-71520500D01*
X183095684Y-71520500D01*
X183444310Y-71520500D01*
X183444317Y-71520500D01*
X183468091Y-71517370D01*
X183493173Y-71514068D01*
X183600404Y-71464065D01*
X183625216Y-71439252D01*
X183653457Y-71418110D01*
X183663391Y-71412686D01*
X183731661Y-71397833D01*
X183797126Y-71422247D01*
X183838999Y-71478179D01*
X183839001Y-71478183D01*
X183841682Y-71485371D01*
X183849500Y-71528705D01*
X183849500Y-71556337D01*
X183844476Y-71591274D01*
X183837064Y-71616515D01*
X183830630Y-71627358D01*
X183828760Y-71637504D01*
X183817470Y-71649537D01*
X183805769Y-71669259D01*
X183374455Y-72100573D01*
X183346204Y-72121722D01*
X183323116Y-72134330D01*
X183263686Y-72149500D01*
X183100435Y-72149500D01*
X183069867Y-72157691D01*
X183024007Y-72169978D01*
X183009870Y-72178141D01*
X183009867Y-72178143D01*
X182964645Y-72204252D01*
X182964630Y-72204262D01*
X182955493Y-72209536D01*
X182955483Y-72209543D01*
X182534455Y-72630573D01*
X182506204Y-72651722D01*
X182483116Y-72664330D01*
X182423686Y-72679500D01*
X182215681Y-72679500D01*
X182166832Y-72685930D01*
X182166824Y-72685932D01*
X182059594Y-72735935D01*
X181975935Y-72819594D01*
X181925932Y-72926824D01*
X181925931Y-72926828D01*
X181919500Y-72975680D01*
X181919500Y-73424318D01*
X181925930Y-73473166D01*
X181925931Y-73473171D01*
X181960911Y-73548186D01*
X181975934Y-73580403D01*
X181975935Y-73580404D01*
X182059596Y-73664065D01*
X182166827Y-73714068D01*
X182215683Y-73720500D01*
X182215684Y-73720500D01*
X182564311Y-73720500D01*
X182564317Y-73720500D01*
X182580601Y-73718356D01*
X182613173Y-73714068D01*
X182720404Y-73664065D01*
X182781481Y-73602987D01*
X182791702Y-73593842D01*
X182814563Y-73575560D01*
X182814564Y-73575561D01*
X182823174Y-73568675D01*
X182887824Y-73542181D01*
X182956525Y-73554840D01*
X182963026Y-73558124D01*
X183000830Y-73587602D01*
X183005603Y-73593110D01*
X183006044Y-73593258D01*
X183022871Y-73607340D01*
X183079596Y-73664065D01*
X183186827Y-73714068D01*
X183235683Y-73720500D01*
X183235684Y-73720500D01*
X183436337Y-73720500D01*
X183471269Y-73725521D01*
X183496513Y-73732934D01*
X183549259Y-73764230D01*
X183614987Y-73829958D01*
X183636139Y-73858214D01*
X183643631Y-73871935D01*
X183658483Y-73940195D01*
X183657792Y-73949869D01*
X183648082Y-73988369D01*
X183648089Y-73988372D01*
X183648059Y-73988461D01*
X183647189Y-73991912D01*
X183646107Y-73994316D01*
X183619615Y-74093187D01*
X183612000Y-74121608D01*
X183612000Y-74253392D01*
X183629054Y-74317039D01*
X183646108Y-74380687D01*
X183675461Y-74431527D01*
X183675462Y-74431529D01*
X183675463Y-74431529D01*
X183712000Y-74494814D01*
X183805186Y-74588000D01*
X183919314Y-74653892D01*
X184046608Y-74688000D01*
X184046610Y-74688000D01*
X184178390Y-74688000D01*
X184178392Y-74688000D01*
X184305686Y-74653892D01*
X184419814Y-74588000D01*
X184513000Y-74494814D01*
X184564899Y-74404921D01*
X184586711Y-74377185D01*
X184598029Y-74366392D01*
X184660126Y-74334379D01*
X184661940Y-74334030D01*
X184723130Y-74337682D01*
X184730504Y-74340040D01*
X184754742Y-74350762D01*
X184781814Y-74366392D01*
X184909108Y-74400500D01*
X184909110Y-74400500D01*
X185040890Y-74400500D01*
X185040892Y-74400500D01*
X185168186Y-74366392D01*
X185282314Y-74300500D01*
X185375500Y-74207314D01*
X185441392Y-74093186D01*
X185475500Y-73965892D01*
X185475500Y-73834108D01*
X185441392Y-73706814D01*
X185375500Y-73592686D01*
X185282314Y-73499500D01*
X185205938Y-73455404D01*
X185168187Y-73433608D01*
X185104539Y-73416554D01*
X185040892Y-73399500D01*
X185040891Y-73399500D01*
X184909108Y-73399500D01*
X184781808Y-73433609D01*
X184781806Y-73433610D01*
X184667696Y-73499493D01*
X184667682Y-73499502D01*
X184667677Y-73499506D01*
X184574506Y-73592677D01*
X184574501Y-73592683D01*
X184574499Y-73592686D01*
X184546103Y-73641869D01*
X184524284Y-73669611D01*
X184515492Y-73677995D01*
X184512971Y-73680399D01*
X184450870Y-73712412D01*
X184442163Y-73714090D01*
X184386598Y-73712103D01*
X184380460Y-73710458D01*
X184350560Y-73698072D01*
X184334963Y-73689067D01*
X184323249Y-73682304D01*
X184297570Y-73662599D01*
X183929426Y-73294455D01*
X183908274Y-73266199D01*
X183895667Y-73243110D01*
X183880500Y-73183685D01*
X183880500Y-72975689D01*
X183880499Y-72975680D01*
X183879735Y-72969876D01*
X183877710Y-72954493D01*
X183874068Y-72926828D01*
X183873865Y-72926392D01*
X183824065Y-72819596D01*
X183765008Y-72760539D01*
X183743856Y-72732283D01*
X183736364Y-72718562D01*
X183721512Y-72650302D01*
X183721641Y-72648493D01*
X183741007Y-72590298D01*
X183745200Y-72583774D01*
X183761821Y-72563149D01*
X184071356Y-72253615D01*
X184390460Y-71934511D01*
X184394488Y-71927534D01*
X184410550Y-71899715D01*
X184410550Y-71899713D01*
X184413682Y-71894290D01*
X184413684Y-71894284D01*
X184430021Y-71865989D01*
X184450500Y-71789562D01*
X184450500Y-70960438D01*
X184450500Y-70092329D01*
X184455523Y-70057393D01*
X184459927Y-70042395D01*
X184497672Y-69983644D01*
X184499041Y-69982457D01*
X184553920Y-69954977D01*
X184561479Y-69953333D01*
X184587832Y-69950500D01*
X185312713Y-69950500D01*
X185312720Y-69950500D01*
X185425236Y-69935687D01*
X185565233Y-69877698D01*
X185685451Y-69785451D01*
X185777698Y-69665233D01*
X185828617Y-69542301D01*
X185846620Y-69511957D01*
X185853723Y-69503143D01*
X185911111Y-69463296D01*
X185980936Y-69460801D01*
X186041026Y-69496452D01*
X186041026Y-69496453D01*
X186046253Y-69502067D01*
X186070061Y-69539112D01*
X186119952Y-69659562D01*
X186121606Y-69664189D01*
X186122524Y-69665566D01*
X186123506Y-69666804D01*
X186214546Y-69785448D01*
X186214547Y-69785449D01*
X186214549Y-69785451D01*
X186334767Y-69877698D01*
X186474764Y-69935687D01*
X186587280Y-69950500D01*
X187307670Y-69950500D01*
X187342606Y-69955523D01*
X187357604Y-69959927D01*
X187416355Y-69997672D01*
X187417542Y-69999041D01*
X187445018Y-70053902D01*
X187446663Y-70061460D01*
X187449500Y-70087831D01*
X187449500Y-71489564D01*
X187457127Y-71518031D01*
X187457147Y-71518101D01*
X187457151Y-71518115D01*
X187469979Y-71565990D01*
X187482476Y-71587635D01*
X187507168Y-71630402D01*
X187509542Y-71634514D01*
X188104713Y-72229685D01*
X188688073Y-72813044D01*
X188709223Y-72841296D01*
X188721831Y-72864385D01*
X188737000Y-72923814D01*
X188737000Y-73566769D01*
X188733423Y-73578950D01*
X188731975Y-73601710D01*
X188728064Y-73615027D01*
X188718427Y-73630020D01*
X188717315Y-73633808D01*
X188714331Y-73636393D01*
X188690287Y-73673803D01*
X188626729Y-73702825D01*
X188626721Y-73702826D01*
X188625113Y-73703057D01*
X188566928Y-73697498D01*
X188562192Y-73695859D01*
X188540745Y-73686065D01*
X188505427Y-73665674D01*
X188505425Y-73665673D01*
X188493189Y-73658609D01*
X188493186Y-73658608D01*
X188365892Y-73624500D01*
X188356542Y-73624500D01*
X188340321Y-73620014D01*
X188339761Y-73619666D01*
X188338434Y-73619476D01*
X188325116Y-73615565D01*
X188266339Y-73577789D01*
X188237318Y-73514240D01*
X188236108Y-73505826D01*
X188239071Y-73456080D01*
X188245092Y-73433609D01*
X188248500Y-73420892D01*
X188248500Y-73289108D01*
X188214392Y-73161814D01*
X188207284Y-73149504D01*
X188207283Y-73149500D01*
X188207283Y-73149501D01*
X188186667Y-73113793D01*
X188148500Y-73047686D01*
X188055314Y-72954500D01*
X187984011Y-72913333D01*
X187941187Y-72888608D01*
X187841080Y-72861785D01*
X187841077Y-72861783D01*
X187813896Y-72854500D01*
X187813892Y-72854500D01*
X187682108Y-72854500D01*
X187554808Y-72888609D01*
X187554806Y-72888610D01*
X187440696Y-72954493D01*
X187440682Y-72954502D01*
X187440677Y-72954506D01*
X187347506Y-73047677D01*
X187347502Y-73047682D01*
X187347493Y-73047696D01*
X187281607Y-73161810D01*
X187281607Y-73161811D01*
X187259177Y-73245527D01*
X187247500Y-73289106D01*
X187247500Y-73289108D01*
X187247500Y-73420892D01*
X187250907Y-73433608D01*
X187281608Y-73548187D01*
X187295780Y-73572733D01*
X187347500Y-73662314D01*
X187347502Y-73662316D01*
X187350573Y-73665387D01*
X187371723Y-73693639D01*
X187384331Y-73716728D01*
X187399500Y-73776157D01*
X187399500Y-75691033D01*
X187409739Y-75729246D01*
X187419979Y-75767462D01*
X187419980Y-75767463D01*
X187430466Y-75785625D01*
X187430467Y-75785628D01*
X187438630Y-75799766D01*
X187459535Y-75835975D01*
X187459541Y-75835983D01*
X187459545Y-75835988D01*
X188277802Y-76654244D01*
X188298952Y-76682496D01*
X188303536Y-76690891D01*
X188305605Y-76694679D01*
X188320457Y-76762952D01*
X188296041Y-76828417D01*
X188296010Y-76828458D01*
X188295036Y-76829758D01*
X188249983Y-76866942D01*
X188245475Y-76869132D01*
X188223386Y-76877371D01*
X188174152Y-76890564D01*
X188174151Y-76890565D01*
X188122582Y-76904383D01*
X188105967Y-76906570D01*
X188092673Y-76916772D01*
X187992682Y-76974502D01*
X187992677Y-76974506D01*
X187899506Y-77067677D01*
X187899502Y-77067682D01*
X187899500Y-77067686D01*
X187833607Y-77181810D01*
X187833607Y-77181812D01*
X187823997Y-77217681D01*
X187823997Y-77217682D01*
X187823997Y-77217683D01*
X187799500Y-77309108D01*
X187799500Y-77440892D01*
X187806299Y-77466266D01*
X187833608Y-77568187D01*
X187846717Y-77590892D01*
X187899497Y-77682310D01*
X187899499Y-77682312D01*
X187899500Y-77682314D01*
X187992686Y-77775500D01*
X188106814Y-77841392D01*
X188234108Y-77875500D01*
X188234110Y-77875500D01*
X188365890Y-77875500D01*
X188365892Y-77875500D01*
X188493186Y-77841392D01*
X188607314Y-77775500D01*
X188700500Y-77682314D01*
X188766392Y-77568186D01*
X188796079Y-77457390D01*
X188809965Y-77424960D01*
X188817194Y-77413100D01*
X188868891Y-77366105D01*
X188937791Y-77354517D01*
X188939414Y-77354711D01*
X188994195Y-77375146D01*
X188998357Y-77377963D01*
X189016520Y-77392962D01*
X191125256Y-79501698D01*
X191146407Y-79529951D01*
X191153059Y-79542133D01*
X191167911Y-79610406D01*
X191143495Y-79675871D01*
X191143486Y-79675882D01*
X191138390Y-79682688D01*
X191101135Y-79715752D01*
X191042684Y-79749501D01*
X191042683Y-79749501D01*
X191042677Y-79749506D01*
X190949506Y-79842677D01*
X190949502Y-79842682D01*
X190949493Y-79842696D01*
X190883610Y-79956806D01*
X190883609Y-79956809D01*
X190883608Y-79956811D01*
X190883608Y-79956812D01*
X190879397Y-79972527D01*
X190867778Y-80015892D01*
X190849500Y-80084106D01*
X190849500Y-80215893D01*
X190879053Y-80326189D01*
X190883243Y-80361230D01*
X190882913Y-80375102D01*
X190861640Y-80441654D01*
X190807762Y-80486141D01*
X190807761Y-80486141D01*
X190799945Y-80489488D01*
X190751132Y-80499500D01*
X190684108Y-80499500D01*
X190556810Y-80533608D01*
X190442685Y-80599499D01*
X190442680Y-80599504D01*
X190442676Y-80599507D01*
X190422699Y-80619485D01*
X190394443Y-80640637D01*
X190385011Y-80645787D01*
X190316737Y-80660638D01*
X190251273Y-80636220D01*
X190209403Y-80580285D01*
X190204420Y-80510593D01*
X190206602Y-80502044D01*
X190212935Y-80480476D01*
X190244230Y-80427735D01*
X190258710Y-80413256D01*
X190300500Y-80371466D01*
X190366392Y-80257338D01*
X190400500Y-80130044D01*
X190400500Y-79998260D01*
X190366392Y-79870966D01*
X190300500Y-79756838D01*
X190207314Y-79663652D01*
X190123296Y-79615144D01*
X190123296Y-79615143D01*
X190123294Y-79615143D01*
X190093187Y-79597760D01*
X190010591Y-79575629D01*
X189965892Y-79563652D01*
X189965891Y-79563652D01*
X189834108Y-79563652D01*
X189706808Y-79597761D01*
X189706806Y-79597762D01*
X189592696Y-79663645D01*
X189592682Y-79663654D01*
X189592677Y-79663658D01*
X189499506Y-79756829D01*
X189499502Y-79756834D01*
X189499493Y-79756848D01*
X189433609Y-79870960D01*
X189433607Y-79870965D01*
X189429135Y-79887657D01*
X189429135Y-79887659D01*
X189399500Y-79998260D01*
X189399500Y-80130044D01*
X189403022Y-80143187D01*
X189433608Y-80257340D01*
X189453979Y-80292622D01*
X189453979Y-80292623D01*
X189464563Y-80310955D01*
X189477679Y-80343714D01*
X189480951Y-80357198D01*
X189477630Y-80426989D01*
X189437135Y-80483882D01*
X189435858Y-80484887D01*
X189382647Y-80509201D01*
X189377725Y-80510150D01*
X189354249Y-80512393D01*
X189324014Y-80512393D01*
X189247589Y-80532870D01*
X189247586Y-80532871D01*
X189179077Y-80572426D01*
X189179062Y-80572436D01*
X189179060Y-80572437D01*
X187899788Y-81851711D01*
X187871538Y-81872860D01*
X187861611Y-81878281D01*
X187793338Y-81893135D01*
X187727873Y-81868721D01*
X187686000Y-81812789D01*
X187683958Y-81807313D01*
X187683313Y-81805583D01*
X187675500Y-81762263D01*
X187675500Y-80585441D01*
X187675500Y-80585439D01*
X187672473Y-80574142D01*
X187672013Y-80572426D01*
X187656041Y-80512819D01*
X187655021Y-80509011D01*
X187649940Y-80500211D01*
X187638418Y-80480253D01*
X187638416Y-80480250D01*
X187615468Y-80440501D01*
X187615460Y-80440489D01*
X187615453Y-80440481D01*
X187449426Y-80274454D01*
X187428275Y-80246200D01*
X187415668Y-80223112D01*
X187400500Y-80163685D01*
X187400500Y-80084110D01*
X187400500Y-80084108D01*
X187366392Y-79956814D01*
X187366387Y-79956806D01*
X187326464Y-79887657D01*
X187300500Y-79842686D01*
X187207314Y-79749500D01*
X187207313Y-79749499D01*
X187207310Y-79749497D01*
X187196457Y-79743231D01*
X187168722Y-79721420D01*
X187159140Y-79711370D01*
X187127126Y-79649271D01*
X187133766Y-79579721D01*
X187134385Y-79578175D01*
X187168278Y-79530589D01*
X187172078Y-79527296D01*
X187191279Y-79513625D01*
X187198644Y-79509373D01*
X187257314Y-79475500D01*
X187350500Y-79382314D01*
X187416392Y-79268186D01*
X187450500Y-79140892D01*
X187450500Y-79009108D01*
X187416392Y-78881814D01*
X187410241Y-78871161D01*
X187393054Y-78841392D01*
X187393054Y-78841391D01*
X187350504Y-78767692D01*
X187350498Y-78767684D01*
X187257316Y-78674502D01*
X187257314Y-78674500D01*
X187181203Y-78630557D01*
X187143187Y-78608608D01*
X187079539Y-78591554D01*
X187015892Y-78574500D01*
X187015891Y-78574500D01*
X186943663Y-78574500D01*
X186908727Y-78569477D01*
X186883485Y-78562065D01*
X186830740Y-78530769D01*
X186285971Y-77986000D01*
X185734513Y-77434541D01*
X185733822Y-77434043D01*
X185731294Y-77432683D01*
X185724453Y-77428733D01*
X185724438Y-77428724D01*
X185724438Y-77428725D01*
X185722713Y-77427729D01*
X185722710Y-77427727D01*
X185665989Y-77394979D01*
X185589562Y-77374500D01*
X185589560Y-77374500D01*
X180664305Y-77374500D01*
X180664304Y-77374500D01*
X180661886Y-77375148D01*
X180613347Y-77388153D01*
X180587875Y-77394978D01*
X180562865Y-77409418D01*
X180529430Y-77428723D01*
X180529408Y-77428736D01*
X180522555Y-77432691D01*
X180520046Y-77434040D01*
X180519351Y-77434541D01*
X178415490Y-79538405D01*
X178415489Y-79538406D01*
X178359545Y-79594348D01*
X178359540Y-79594353D01*
X178359526Y-79594374D01*
X178320485Y-79661996D01*
X178320010Y-79662802D01*
X178319977Y-79662880D01*
X178299500Y-79739303D01*
X178299500Y-80157670D01*
X178294475Y-80192614D01*
X178290070Y-80207612D01*
X178252327Y-80266355D01*
X178250958Y-80267542D01*
X178196097Y-80295018D01*
X178188539Y-80296663D01*
X178162168Y-80299500D01*
X177830247Y-80299500D01*
X177771770Y-80311131D01*
X177771769Y-80311131D01*
X177771768Y-80311132D01*
X177766360Y-80314022D01*
X177761616Y-80317916D01*
X177733716Y-80336558D01*
X177701873Y-80351793D01*
X177686953Y-80356464D01*
X177617106Y-80357712D01*
X177603973Y-80354109D01*
X177567884Y-80337628D01*
X177538384Y-80317916D01*
X177533641Y-80314024D01*
X177528230Y-80311132D01*
X177528229Y-80311131D01*
X177469752Y-80299500D01*
X177469750Y-80299500D01*
X175930249Y-80299500D01*
X175930247Y-80299500D01*
X175871770Y-80311131D01*
X175871769Y-80311131D01*
X175871768Y-80311132D01*
X175866355Y-80314024D01*
X175861614Y-80317916D01*
X175805447Y-80355446D01*
X175805446Y-80355447D01*
X175767916Y-80411614D01*
X175764024Y-80416355D01*
X175761132Y-80421768D01*
X175761132Y-80421769D01*
X175761131Y-80421770D01*
X175753464Y-80460319D01*
X175749500Y-80480249D01*
X175749500Y-82319752D01*
X175760261Y-82373857D01*
X175761931Y-82384781D01*
X175764651Y-82410062D01*
X175752251Y-82478823D01*
X175704658Y-82529956D01*
X175700155Y-82532629D01*
X175636860Y-82550000D01*
X173175000Y-82550000D01*
X173180328Y-84899490D01*
X173180368Y-84917350D01*
X173180660Y-85046321D01*
X173175717Y-85081262D01*
X173172572Y-85092065D01*
X173134934Y-85150930D01*
X173071445Y-85180102D01*
X173002264Y-85170318D01*
X172994518Y-85164370D01*
X172990203Y-85163512D01*
X172978467Y-85159952D01*
X172966261Y-85158750D01*
X172919752Y-85149500D01*
X172919750Y-85149500D01*
X171080249Y-85149500D01*
X171080247Y-85149500D01*
X171021770Y-85161131D01*
X171021769Y-85161131D01*
X171021768Y-85161132D01*
X171016355Y-85164024D01*
X171011614Y-85167916D01*
X170955447Y-85205446D01*
X170955446Y-85205447D01*
X170917916Y-85261614D01*
X170914024Y-85266355D01*
X170911132Y-85271768D01*
X170911132Y-85271769D01*
X170911131Y-85271770D01*
X170899931Y-85328081D01*
X170899500Y-85330249D01*
X170899500Y-86057670D01*
X170894475Y-86092614D01*
X170890070Y-86107612D01*
X170852327Y-86166355D01*
X170850958Y-86167542D01*
X170796097Y-86195018D01*
X170788539Y-86196663D01*
X170762168Y-86199500D01*
X169560232Y-86199500D01*
X169525296Y-86194477D01*
X169500054Y-86187065D01*
X169447309Y-86155769D01*
X169368314Y-86076774D01*
X169368315Y-86076774D01*
X169358504Y-86072200D01*
X169358501Y-86072199D01*
X169336360Y-86061874D01*
X169302005Y-86031623D01*
X169209904Y-86019500D01*
X169209902Y-86019500D01*
X169209901Y-86019500D01*
X168956883Y-86019500D01*
X168921942Y-86014475D01*
X168906943Y-86010070D01*
X168848175Y-85972302D01*
X168842368Y-85965601D01*
X168816302Y-85916487D01*
X168815213Y-85912425D01*
X168807053Y-85898292D01*
X168807052Y-85898290D01*
X168787922Y-85865156D01*
X168785230Y-85860494D01*
X168774622Y-85842120D01*
X168749323Y-85798301D01*
X168656137Y-85705115D01*
X168599073Y-85672169D01*
X168542010Y-85639223D01*
X168452409Y-85615215D01*
X168452409Y-85615214D01*
X168414716Y-85605115D01*
X168414715Y-85605115D01*
X168282931Y-85605115D01*
X168202272Y-85626726D01*
X168173811Y-85634352D01*
X168138771Y-85638541D01*
X168124897Y-85638211D01*
X168058345Y-85616938D01*
X168013859Y-85563061D01*
X168013857Y-85563057D01*
X168010511Y-85555243D01*
X168000500Y-85506432D01*
X168000500Y-72378710D01*
X170649500Y-72378710D01*
X170649500Y-72621289D01*
X170680569Y-72857294D01*
X170681161Y-72861785D01*
X170698589Y-72926827D01*
X170743947Y-73096104D01*
X170836772Y-73320203D01*
X170836773Y-73320207D01*
X170836780Y-73320220D01*
X170958060Y-73530283D01*
X170958062Y-73530286D01*
X170958281Y-73530615D01*
X170959284Y-73531879D01*
X171105726Y-73722728D01*
X171105730Y-73722733D01*
X171105733Y-73722736D01*
X171105739Y-73722743D01*
X171277256Y-73894260D01*
X171277263Y-73894266D01*
X171277266Y-73894268D01*
X171277270Y-73894272D01*
X171350549Y-73950500D01*
X171469711Y-74041936D01*
X171679784Y-74163222D01*
X171679785Y-74163222D01*
X171679788Y-74163224D01*
X171903900Y-74256054D01*
X172138211Y-74318838D01*
X172318586Y-74342584D01*
X172378710Y-74350500D01*
X172378711Y-74350500D01*
X172378712Y-74350500D01*
X172621282Y-74350500D01*
X172621289Y-74350500D01*
X172669917Y-74344098D01*
X172861789Y-74318838D01*
X173096100Y-74256054D01*
X173320212Y-74163224D01*
X173530289Y-74041936D01*
X173722738Y-73894265D01*
X173894265Y-73722738D01*
X174041936Y-73530289D01*
X174163224Y-73320212D01*
X174256054Y-73096100D01*
X174318838Y-72861789D01*
X174350500Y-72621288D01*
X174350500Y-72378712D01*
X174318838Y-72138211D01*
X174256054Y-71903900D01*
X174254313Y-71899698D01*
X174208693Y-71789560D01*
X174198134Y-71764068D01*
X174163229Y-71679799D01*
X174163222Y-71679784D01*
X174041936Y-71469711D01*
X173940591Y-71337635D01*
X173894272Y-71277270D01*
X173894268Y-71277266D01*
X173894266Y-71277263D01*
X173894260Y-71277256D01*
X173722743Y-71105739D01*
X173722736Y-71105733D01*
X173722733Y-71105730D01*
X173722728Y-71105726D01*
X173531879Y-70959284D01*
X173530615Y-70958281D01*
X173530286Y-70958062D01*
X173530283Y-70958060D01*
X173320220Y-70836780D01*
X173320207Y-70836773D01*
X173320203Y-70836772D01*
X173096104Y-70743947D01*
X172923819Y-70697783D01*
X172923818Y-70697782D01*
X172869639Y-70683264D01*
X172861894Y-70680635D01*
X172853726Y-70680100D01*
X172621290Y-70649500D01*
X172621289Y-70649500D01*
X172621288Y-70649500D01*
X172378712Y-70649500D01*
X172378711Y-70649500D01*
X172378710Y-70649500D01*
X172138217Y-70681160D01*
X171903894Y-70743947D01*
X171679790Y-70836774D01*
X171679782Y-70836778D01*
X171469706Y-70958067D01*
X171469697Y-70958073D01*
X171277270Y-71105726D01*
X171277255Y-71105740D01*
X171277247Y-71105747D01*
X171105747Y-71277247D01*
X171105740Y-71277255D01*
X171105726Y-71277270D01*
X170958073Y-71469697D01*
X170958067Y-71469706D01*
X170836778Y-71679782D01*
X170836774Y-71679790D01*
X170743947Y-71903894D01*
X170681160Y-72138217D01*
X170649500Y-72378710D01*
X168000500Y-72378710D01*
X168000500Y-68142329D01*
X168005523Y-68107393D01*
X168009927Y-68092395D01*
X168047672Y-68033644D01*
X168049041Y-68032457D01*
X168103920Y-68004977D01*
X168111479Y-68003333D01*
X168137832Y-68000500D01*
X182511406Y-68000500D01*
X182546333Y-68005521D01*
G37*
%TD.AperFunction*%
%TA.AperFunction,Conductor*%
G36*
X185391269Y-77980521D02*
G01*
X185416513Y-77987934D01*
X185469259Y-78019230D01*
X186400573Y-78950544D01*
X186421723Y-78978796D01*
X186434331Y-79001885D01*
X186449500Y-79061314D01*
X186449500Y-79140891D01*
X186460465Y-79181814D01*
X186483609Y-79268190D01*
X186483610Y-79268192D01*
X186510234Y-79314305D01*
X186510235Y-79314306D01*
X186549500Y-79382314D01*
X186642686Y-79475500D01*
X186642687Y-79475501D01*
X186642689Y-79475502D01*
X186647733Y-79478413D01*
X186652008Y-79480882D01*
X186653535Y-79481764D01*
X186681275Y-79503578D01*
X186690857Y-79513627D01*
X186699832Y-79531036D01*
X186700217Y-79531440D01*
X186700374Y-79532087D01*
X186722872Y-79575728D01*
X186716231Y-79645281D01*
X186716218Y-79645313D01*
X186715613Y-79646823D01*
X186681718Y-79694411D01*
X186677931Y-79697693D01*
X186658722Y-79711374D01*
X186592682Y-79749502D01*
X186592677Y-79749506D01*
X186499506Y-79842677D01*
X186499502Y-79842682D01*
X186499493Y-79842696D01*
X186433610Y-79956806D01*
X186433609Y-79956809D01*
X186433608Y-79956811D01*
X186433608Y-79956812D01*
X186429397Y-79972527D01*
X186417778Y-80015892D01*
X186399500Y-80084106D01*
X186399500Y-80215895D01*
X186410604Y-80257337D01*
X186410605Y-80257337D01*
X186410605Y-80257338D01*
X186432647Y-80339600D01*
X186433609Y-80343190D01*
X186457484Y-80384541D01*
X186457485Y-80384542D01*
X186499497Y-80457310D01*
X186499499Y-80457313D01*
X186499500Y-80457314D01*
X186592686Y-80550500D01*
X186691521Y-80607563D01*
X186691524Y-80607565D01*
X186693442Y-80608672D01*
X186693454Y-80608679D01*
X186706810Y-80616390D01*
X186706814Y-80616392D01*
X186834108Y-80650500D01*
X186834110Y-80650500D01*
X186906337Y-80650500D01*
X186941269Y-80655521D01*
X186966513Y-80662934D01*
X187019259Y-80694230D01*
X187025573Y-80700544D01*
X187046723Y-80728796D01*
X187059331Y-80751885D01*
X187074500Y-80811314D01*
X187074500Y-85204866D01*
X187069476Y-85239803D01*
X187062064Y-85265044D01*
X187030769Y-85317788D01*
X186597984Y-85750573D01*
X186569733Y-85771722D01*
X186546645Y-85784330D01*
X186487215Y-85799500D01*
X186442330Y-85799500D01*
X186407389Y-85794475D01*
X186392390Y-85790070D01*
X186333644Y-85752327D01*
X186332457Y-85750958D01*
X186304977Y-85696083D01*
X186303332Y-85688521D01*
X186300500Y-85662168D01*
X186300500Y-85330063D01*
X186300069Y-85328081D01*
X186288868Y-85271770D01*
X186285975Y-85266358D01*
X186282081Y-85261613D01*
X186270246Y-85243901D01*
X186244552Y-85205447D01*
X186198237Y-85174500D01*
X186188385Y-85167917D01*
X186183641Y-85164024D01*
X186178230Y-85161132D01*
X186178229Y-85161131D01*
X186119752Y-85149500D01*
X186119750Y-85149500D01*
X184281174Y-85149500D01*
X184270119Y-85149006D01*
X184247233Y-85146956D01*
X184182218Y-85121371D01*
X184141356Y-85064699D01*
X184137657Y-85054210D01*
X184130597Y-85013249D01*
X184130586Y-85008613D01*
X184130140Y-84812153D01*
X184125000Y-82550000D01*
X181571127Y-82550000D01*
X181536188Y-82544976D01*
X181522870Y-82541065D01*
X181464093Y-82503289D01*
X181435072Y-82439740D01*
X181434234Y-82433913D01*
X181437390Y-82383455D01*
X181437734Y-82382201D01*
X181437983Y-82381293D01*
X181438862Y-82378240D01*
X181438868Y-82378228D01*
X181447313Y-82335769D01*
X181447313Y-82335768D01*
X181447314Y-82335768D01*
X181447314Y-82335763D01*
X181450500Y-82319748D01*
X181450500Y-80480252D01*
X181450500Y-80480249D01*
X181450500Y-80480063D01*
X181450069Y-80478081D01*
X181438868Y-80421770D01*
X181435975Y-80416358D01*
X181432081Y-80411613D01*
X181420507Y-80394292D01*
X181394552Y-80355447D01*
X181351044Y-80326376D01*
X181338385Y-80317917D01*
X181333641Y-80314024D01*
X181328230Y-80311132D01*
X181328229Y-80311131D01*
X181269752Y-80299500D01*
X181269750Y-80299500D01*
X180942330Y-80299500D01*
X180907389Y-80294475D01*
X180892390Y-80290070D01*
X180833644Y-80252327D01*
X180832457Y-80250958D01*
X180804977Y-80196083D01*
X180803332Y-80188521D01*
X180800500Y-80162168D01*
X180800500Y-79911578D01*
X180805522Y-79876645D01*
X180809433Y-79863326D01*
X180847206Y-79804549D01*
X180910758Y-79775524D01*
X180912399Y-79775288D01*
X180970581Y-79780852D01*
X180975313Y-79782490D01*
X180996751Y-79792281D01*
X181056384Y-79826710D01*
X181081814Y-79841392D01*
X181209108Y-79875500D01*
X181209110Y-79875500D01*
X181340890Y-79875500D01*
X181340892Y-79875500D01*
X181468186Y-79841392D01*
X181582314Y-79775500D01*
X181675500Y-79682314D01*
X181741392Y-79568186D01*
X181775500Y-79440892D01*
X181775500Y-79309108D01*
X181741392Y-79181814D01*
X181675500Y-79067686D01*
X181582314Y-78974500D01*
X181525250Y-78941554D01*
X181468188Y-78908608D01*
X181380006Y-78884980D01*
X181377306Y-78883334D01*
X181377091Y-78884069D01*
X181333130Y-78871161D01*
X181333131Y-78871161D01*
X181312395Y-78865072D01*
X181253618Y-78827299D01*
X181253614Y-78827294D01*
X181252427Y-78825924D01*
X181224980Y-78771094D01*
X181224240Y-78767692D01*
X181223334Y-78763528D01*
X181220499Y-78737175D01*
X181220499Y-78365105D01*
X181220499Y-78365100D01*
X181213972Y-78315513D01*
X181163224Y-78206684D01*
X181156328Y-78199788D01*
X181135179Y-78171538D01*
X181129757Y-78161608D01*
X181114904Y-78093338D01*
X181139318Y-78027873D01*
X181195248Y-77986001D01*
X181199127Y-77984554D01*
X181202463Y-77983311D01*
X181245777Y-77975500D01*
X185356337Y-77975500D01*
X185391269Y-77980521D01*
G37*
%TD.AperFunction*%
%TA.AperFunction,Conductor*%
G36*
X190219851Y-80740901D02*
G01*
X190261723Y-80796834D01*
X190261729Y-80796851D01*
X190261943Y-80797425D01*
X190269193Y-80852530D01*
X190268979Y-80854771D01*
X190265316Y-80875074D01*
X190249500Y-80934101D01*
X190249500Y-80934106D01*
X190249500Y-80934108D01*
X190249500Y-81065892D01*
X190256813Y-81093185D01*
X190283476Y-81192696D01*
X190283609Y-81193189D01*
X190290682Y-81205440D01*
X190290683Y-81205441D01*
X190349497Y-81307310D01*
X190349499Y-81307312D01*
X190349500Y-81307314D01*
X190442686Y-81400500D01*
X190556291Y-81466090D01*
X190563749Y-81470396D01*
X190566271Y-81471893D01*
X190586150Y-81484006D01*
X190633156Y-81535699D01*
X190633158Y-81535704D01*
X190637031Y-81543675D01*
X190649500Y-81597867D01*
X190649500Y-81682665D01*
X190644475Y-81717606D01*
X190640564Y-81730923D01*
X190602787Y-81789699D01*
X190539238Y-81818720D01*
X190530823Y-81819930D01*
X190481082Y-81816967D01*
X190415893Y-81799500D01*
X190415892Y-81799500D01*
X190284108Y-81799500D01*
X190156808Y-81833609D01*
X190156806Y-81833610D01*
X190042696Y-81899493D01*
X190042682Y-81899502D01*
X190042677Y-81899506D01*
X189949506Y-81992677D01*
X189949502Y-81992682D01*
X189949493Y-81992696D01*
X189883610Y-82106806D01*
X189883609Y-82106808D01*
X189849500Y-82234108D01*
X189849500Y-82365894D01*
X189854496Y-82384537D01*
X189854496Y-82384540D01*
X189854497Y-82384540D01*
X189882653Y-82489623D01*
X189883609Y-82493189D01*
X189883611Y-82493194D01*
X189905043Y-82530314D01*
X189905044Y-82530315D01*
X189949500Y-82607314D01*
X190042686Y-82700500D01*
X190115491Y-82742534D01*
X190163749Y-82770396D01*
X190166271Y-82771893D01*
X190186150Y-82784006D01*
X190233156Y-82835699D01*
X190233158Y-82835704D01*
X190237031Y-82843675D01*
X190249500Y-82897867D01*
X190249500Y-82924494D01*
X190244476Y-82959432D01*
X190241289Y-82970285D01*
X190203514Y-83029062D01*
X190139957Y-83058085D01*
X190070807Y-83048144D01*
X190063829Y-83044957D01*
X190027657Y-83019843D01*
X190007316Y-82999502D01*
X190007314Y-82999500D01*
X189950250Y-82966554D01*
X189893187Y-82933608D01*
X189825449Y-82915458D01*
X189825448Y-82915457D01*
X189765893Y-82899500D01*
X189765892Y-82899500D01*
X189634108Y-82899500D01*
X189506807Y-82933609D01*
X189392696Y-82999493D01*
X189392682Y-82999502D01*
X189392677Y-82999506D01*
X189299506Y-83092677D01*
X189299502Y-83092682D01*
X189299493Y-83092696D01*
X189233610Y-83206806D01*
X189233609Y-83206808D01*
X189199500Y-83334108D01*
X189199500Y-83465890D01*
X189233609Y-83593190D01*
X189264096Y-83645995D01*
X189299495Y-83707307D01*
X189299498Y-83707311D01*
X189299500Y-83707314D01*
X189392686Y-83800500D01*
X189506814Y-83866392D01*
X189634108Y-83900500D01*
X189634110Y-83900500D01*
X189765890Y-83900500D01*
X189765892Y-83900500D01*
X189893186Y-83866392D01*
X190007314Y-83800500D01*
X190025212Y-83782601D01*
X190053457Y-83761455D01*
X190063391Y-83756031D01*
X190131661Y-83741178D01*
X190197126Y-83765592D01*
X190238999Y-83821524D01*
X190239001Y-83821528D01*
X190241682Y-83828716D01*
X190249500Y-83872050D01*
X190249500Y-85007058D01*
X190244475Y-85042002D01*
X190240070Y-85057000D01*
X190202327Y-85115743D01*
X190200958Y-85116930D01*
X190146097Y-85144406D01*
X190138539Y-85146051D01*
X190112168Y-85148888D01*
X190014562Y-85148888D01*
X189935438Y-85148888D01*
X189897224Y-85159127D01*
X189897221Y-85159127D01*
X189859009Y-85169366D01*
X189858108Y-85169774D01*
X189855539Y-85171370D01*
X189841556Y-85179443D01*
X189808789Y-85192561D01*
X189793598Y-85196246D01*
X189723812Y-85192922D01*
X189710942Y-85188468D01*
X189690116Y-85177240D01*
X189689353Y-85178564D01*
X189670248Y-85167534D01*
X189614499Y-85135347D01*
X189614499Y-85135346D01*
X189614497Y-85135346D01*
X189590292Y-85121371D01*
X189568187Y-85108608D01*
X189440892Y-85074500D01*
X189440891Y-85074499D01*
X189440821Y-85074481D01*
X189422744Y-85068103D01*
X189406640Y-85060978D01*
X189353298Y-85015851D01*
X189332822Y-84949063D01*
X189332745Y-84942518D01*
X189337859Y-84919989D01*
X189336300Y-84919784D01*
X189339320Y-84896845D01*
X189345500Y-84849901D01*
X189345499Y-84490100D01*
X189338972Y-84440513D01*
X189288224Y-84331684D01*
X189203316Y-84246776D01*
X189203315Y-84246775D01*
X189171360Y-84231874D01*
X189137005Y-84201623D01*
X189044903Y-84189500D01*
X189044901Y-84189500D01*
X188625105Y-84189500D01*
X188625104Y-84189500D01*
X188609386Y-84191569D01*
X188583553Y-84194969D01*
X188578144Y-84195323D01*
X188576209Y-84195665D01*
X188573997Y-84196734D01*
X188466681Y-84246777D01*
X188381776Y-84331682D01*
X188331027Y-84440513D01*
X188331026Y-84440515D01*
X188324500Y-84490094D01*
X188324500Y-84849900D01*
X188324545Y-84850447D01*
X188324776Y-84851996D01*
X188329968Y-84891436D01*
X188330322Y-84896845D01*
X188330665Y-84898789D01*
X188331730Y-84900993D01*
X188342607Y-84924319D01*
X188381776Y-85008316D01*
X188453216Y-85079756D01*
X188474367Y-85108009D01*
X188481019Y-85120191D01*
X188495871Y-85188464D01*
X188471455Y-85253929D01*
X188471448Y-85253938D01*
X188467917Y-85258654D01*
X188430177Y-85291997D01*
X188429911Y-85292149D01*
X188425950Y-85294255D01*
X188424698Y-85294978D01*
X188374414Y-85324010D01*
X188374412Y-85324011D01*
X188374411Y-85324010D01*
X188356175Y-85334539D01*
X188299785Y-85390929D01*
X188271532Y-85412079D01*
X188261608Y-85417498D01*
X188193335Y-85432350D01*
X188127870Y-85407934D01*
X188085999Y-85352000D01*
X188085997Y-85351996D01*
X188083313Y-85344798D01*
X188075500Y-85301478D01*
X188075500Y-82595133D01*
X188080522Y-82560200D01*
X188081915Y-82555457D01*
X188087934Y-82534955D01*
X188119228Y-82482213D01*
X189439125Y-81162316D01*
X189467375Y-81141168D01*
X189490467Y-81128560D01*
X189549892Y-81113393D01*
X189607539Y-81113393D01*
X189607541Y-81113393D01*
X189683968Y-81092914D01*
X189752490Y-81053353D01*
X189808439Y-80997404D01*
X190047941Y-80757900D01*
X190076186Y-80736757D01*
X190086115Y-80731335D01*
X190154387Y-80716484D01*
X190219851Y-80740901D01*
G37*
%TD.AperFunction*%
%TA.AperFunction,Conductor*%
G36*
X190047705Y-74480294D02*
G01*
X190052555Y-74483145D01*
X190077382Y-74502353D01*
X190190489Y-74615460D01*
X190259012Y-74655022D01*
X190335438Y-74675500D01*
X195829866Y-74675500D01*
X195864798Y-74680521D01*
X195890042Y-74687934D01*
X195942788Y-74719230D01*
X197174932Y-75951374D01*
X197196081Y-75979624D01*
X197201502Y-75989551D01*
X197216356Y-76057824D01*
X197191942Y-76123289D01*
X197136010Y-76165162D01*
X197135857Y-76165219D01*
X197135281Y-76165433D01*
X197080303Y-76172634D01*
X197078063Y-76172420D01*
X197057764Y-76168757D01*
X196985893Y-76149500D01*
X196985892Y-76149500D01*
X196854108Y-76149500D01*
X196726808Y-76183609D01*
X196726806Y-76183610D01*
X196612696Y-76249493D01*
X196612682Y-76249502D01*
X196612677Y-76249506D01*
X196519506Y-76342677D01*
X196519502Y-76342682D01*
X196519493Y-76342696D01*
X196453610Y-76456806D01*
X196453609Y-76456808D01*
X196419500Y-76584108D01*
X196419500Y-76656336D01*
X196414476Y-76691273D01*
X196407064Y-76716514D01*
X196375769Y-76769258D01*
X194915490Y-78229539D01*
X194915489Y-78229540D01*
X194859545Y-78285482D01*
X194859540Y-78285487D01*
X194859526Y-78285508D01*
X194820485Y-78353130D01*
X194820010Y-78353936D01*
X194819977Y-78354014D01*
X194799500Y-78430437D01*
X194799500Y-81931337D01*
X194794476Y-81966274D01*
X194787064Y-81991515D01*
X194755769Y-82044259D01*
X194599788Y-82200240D01*
X194571538Y-82221389D01*
X194561611Y-82226810D01*
X194493338Y-82241664D01*
X194427873Y-82217250D01*
X194386000Y-82161318D01*
X194383313Y-82154112D01*
X194375500Y-82110792D01*
X194375500Y-81986911D01*
X194375499Y-81986907D01*
X194369498Y-81964509D01*
X194369498Y-81964510D01*
X194369497Y-81964509D01*
X194359014Y-81925384D01*
X194355021Y-81910482D01*
X194348681Y-81899500D01*
X194315464Y-81841966D01*
X194315458Y-81841958D01*
X194235769Y-81762269D01*
X194214620Y-81734016D01*
X194212931Y-81730923D01*
X194207968Y-81721834D01*
X194193118Y-81653561D01*
X194217534Y-81588101D01*
X194222635Y-81581287D01*
X194259895Y-81548219D01*
X194318346Y-81514474D01*
X194411532Y-81421288D01*
X194477424Y-81307160D01*
X194511532Y-81179866D01*
X194511532Y-81048082D01*
X194477424Y-80920788D01*
X194411532Y-80806660D01*
X194318346Y-80713474D01*
X194261282Y-80680528D01*
X194204219Y-80647582D01*
X194118074Y-80624500D01*
X194118074Y-80624499D01*
X194076925Y-80613474D01*
X194076924Y-80613474D01*
X193945140Y-80613474D01*
X193817840Y-80647583D01*
X193817838Y-80647584D01*
X193703728Y-80713467D01*
X193703714Y-80713476D01*
X193703709Y-80713480D01*
X193610538Y-80806651D01*
X193610535Y-80806655D01*
X193579318Y-80860722D01*
X193557503Y-80888460D01*
X193547458Y-80898037D01*
X193485357Y-80930053D01*
X193415804Y-80923412D01*
X193415800Y-80923410D01*
X193407905Y-80920249D01*
X193366314Y-80892814D01*
X189032608Y-76559108D01*
X191349500Y-76559108D01*
X191349500Y-76566277D01*
X191349500Y-76690894D01*
X191356198Y-76715889D01*
X191356198Y-76715892D01*
X191356199Y-76715892D01*
X191383608Y-76818188D01*
X191398042Y-76843187D01*
X191449497Y-76932310D01*
X191449499Y-76932312D01*
X191449500Y-76932314D01*
X191542686Y-77025500D01*
X191656814Y-77091392D01*
X191784108Y-77125500D01*
X191784110Y-77125500D01*
X191915890Y-77125500D01*
X191915892Y-77125500D01*
X192043186Y-77091392D01*
X192157314Y-77025500D01*
X192250500Y-76932314D01*
X192316392Y-76818186D01*
X192350500Y-76690892D01*
X192350500Y-76559108D01*
X192316392Y-76431814D01*
X192250500Y-76317686D01*
X192157314Y-76224500D01*
X192072179Y-76175347D01*
X192072179Y-76175346D01*
X192072177Y-76175346D01*
X192065408Y-76171438D01*
X192043187Y-76158608D01*
X191979539Y-76141554D01*
X191915892Y-76124500D01*
X191915891Y-76124500D01*
X191784108Y-76124500D01*
X191656808Y-76158609D01*
X191656806Y-76158610D01*
X191542696Y-76224493D01*
X191542682Y-76224502D01*
X191542677Y-76224506D01*
X191449506Y-76317677D01*
X191449502Y-76317682D01*
X191449493Y-76317696D01*
X191383607Y-76431810D01*
X191383607Y-76431812D01*
X191377173Y-76455823D01*
X191377151Y-76455910D01*
X191376909Y-76456814D01*
X191349500Y-76559108D01*
X189032608Y-76559108D01*
X188117651Y-75644151D01*
X188096502Y-75615901D01*
X188091080Y-75605971D01*
X188076227Y-75537701D01*
X188100641Y-75472236D01*
X188156571Y-75430364D01*
X188159391Y-75429312D01*
X188161123Y-75428667D01*
X188208183Y-75420914D01*
X188234982Y-75421724D01*
X188249719Y-75420500D01*
X188554311Y-75420500D01*
X188554317Y-75420500D01*
X188570601Y-75418356D01*
X188603173Y-75414068D01*
X188710404Y-75364065D01*
X188771481Y-75302987D01*
X188781702Y-75293842D01*
X188804563Y-75275560D01*
X188804564Y-75275561D01*
X188813174Y-75268675D01*
X188877824Y-75242181D01*
X188946525Y-75254840D01*
X188953026Y-75258124D01*
X188990830Y-75287602D01*
X188995603Y-75293110D01*
X188996044Y-75293258D01*
X189012871Y-75307340D01*
X189069596Y-75364065D01*
X189176827Y-75414068D01*
X189225683Y-75420500D01*
X189225684Y-75420500D01*
X189574311Y-75420500D01*
X189574317Y-75420500D01*
X189590601Y-75418356D01*
X189623173Y-75414068D01*
X189730404Y-75364065D01*
X189814065Y-75280404D01*
X189864068Y-75173173D01*
X189870500Y-75124316D01*
X189870500Y-74675684D01*
X189868873Y-74663326D01*
X189869952Y-74656402D01*
X189863962Y-74616978D01*
X189863963Y-74616978D01*
X189862266Y-74605810D01*
X189871657Y-74536579D01*
X189916988Y-74483411D01*
X189983868Y-74463191D01*
X190047705Y-74480294D01*
G37*
%TD.AperFunction*%
%TD*%
%TA.AperFunction,Conductor*%
%TO.N,GND*%
G36*
X187231782Y-107170275D02*
G01*
X182670000Y-107150000D01*
X183870000Y-106625000D01*
X183845000Y-106625000D01*
X182645000Y-107155000D01*
X182694087Y-104106618D01*
X182750706Y-104050000D01*
X187407078Y-104050000D01*
X187231782Y-107170275D01*
G37*
%TD.AperFunction*%
%TD*%
M02*
