M48
; DRILL file KiCad 10.0.6 date 2026-09-24T20:33:41
; FORMAT={-:-/ absolute / metric / decimal}
; #@! TF.CreationDate,2026-09-24T20:33:41+03:00
; #@! TF.GenerationSoftware,Kicad,Pcbnew,10.0.6
; #@! TF.FileFunction,Plated,1,4,PTH
FMAT,2
METRIC
; #@! TA.AperFunction,Plated,PTH,ComponentDrill
T1C0.200
; #@! TA.AperFunction,Plated,PTH,ViaDrill
T2C0.300
%
G90
G05
T1
X180.8Y-100.7
X180.8Y-101.65
X180.8Y-102.6
X187.8Y-101.35
X187.8Y-102.3
X187.8Y-103.25
T2
X168.349Y-86.106
X168.5Y-87.5
X168.525Y-74.3
X168.525Y-75.0
X168.525Y-75.7
X168.525Y-76.4
X168.525Y-77.1
X168.525Y-77.8
X168.525Y-78.5
X169.0Y-85.0
X169.0Y-90.0
X169.225Y-74.3
X169.225Y-75.0
X169.225Y-75.7
X169.225Y-76.4
X169.225Y-77.1
X169.225Y-77.8
X169.225Y-78.5
X169.925Y-74.3
X169.925Y-75.0
X169.925Y-75.7
X169.925Y-76.4
X169.925Y-77.1
X169.925Y-77.8
X169.925Y-78.5
X170.0Y-87.5
X170.225Y-100.525
X170.9Y-90.2
X171.5Y-83.0
X173.7Y-101.8
X173.7Y-102.5
X173.7Y-103.3
X174.5Y-79.5
X174.5Y-96.0
X175.4Y-110.675
X176.375Y-109.825
X177.075Y-96.05
X178.5Y-99.3
X178.6Y-100.1
X179.2Y-99.5
X179.25Y-104.5
X179.4Y-98.9
X179.9Y-99.3
X179.975Y-86.1
X179.975Y-104.4
X180.0Y-84.625
X180.025Y-90.925
X180.05Y-87.825
X180.05Y-89.35
X180.8Y-104.525
X180.95Y-83.825
X181.15Y-92.25
X181.25Y-70.5
X181.275Y-79.375
X181.9Y-100.2
X182.419Y-102.184
X182.75Y-92.45
X182.8Y-96.825
X182.975Y-83.875
X183.6Y-78.275
X183.6Y-99.1
X183.9Y-92.525
X184.112Y-74.188
X184.35Y-81.4
X184.975Y-73.9
X185.2Y-93.0
X185.5Y-83.1
X185.6Y-105.0
X185.6Y-105.7
X185.6Y-106.4
X185.775Y-82.2
X186.3Y-105.0
X186.3Y-105.7
X186.3Y-106.4
X186.625Y-84.275
X186.65Y-91.425
X186.675Y-89.075
X186.9Y-73.625
X186.9Y-80.15
X186.9Y-100.4
X186.95Y-79.075
X187.0Y-105.0
X187.0Y-105.7
X187.0Y-106.4
X187.7Y-105.0
X187.7Y-105.7
X187.7Y-106.4
X187.748Y-73.355
X188.3Y-74.125
X188.3Y-77.375
X188.4Y-105.0
X188.4Y-105.7
X188.4Y-106.4
X188.699Y-75.801
X189.0Y-93.5
X189.1Y-105.0
X189.1Y-105.7
X189.1Y-106.4
X189.375Y-85.575
X189.5Y-100.8
X189.637Y-73.562
X189.7Y-83.4
X189.8Y-105.0
X189.8Y-105.7
X189.8Y-106.4
X189.9Y-80.064
X189.95Y-84.525
X190.1Y-90.1
X190.35Y-82.3
X190.5Y-71.0
X190.6Y-100.0
X190.75Y-81.0
X190.8Y-102.4
X191.11Y-87.435
X191.35Y-80.15
X191.375Y-95.425
X191.438Y-91.363
X191.741Y-101.991
X191.825Y-73.55
X191.85Y-76.625
X192.025Y-81.225
X192.311Y-90.386
X192.5Y-99.0
X192.625Y-97.25
X192.675Y-83.275
X192.7Y-86.075
X192.7Y-92.425
X193.2Y-95.1
X193.234Y-91.83
X193.31Y-75.73
X193.5Y-70.5
X194.011Y-81.114
X194.675Y-86.968
X194.8Y-73.125
X194.95Y-97.225
X195.6Y-99.2
X196.725Y-91.725
X196.75Y-90.925
X196.75Y-81.5
X196.92Y-76.65
X197.3Y-99.2
X197.6Y-72.55
X197.6Y-85.644
X197.6Y-86.5
X198.5Y-70.75
X198.675Y-92.35
X199.5Y-97.8
X199.525Y-81.975
X199.7Y-75.42
X199.8Y-68.775
X199.8Y-69.475
X199.8Y-70.175
X199.995Y-92.463
X200.1Y-91.075
X200.5Y-68.775
X200.5Y-69.475
X200.5Y-70.175
X200.75Y-79.95
X201.2Y-68.775
X201.2Y-69.475
X201.2Y-70.175
X201.4Y-81.025
X201.9Y-68.775
X201.9Y-69.475
X201.9Y-70.175
X202.22Y-91.75
X202.3Y-77.525
X202.328Y-95.6
X202.5Y-75.0
X202.55Y-94.2
X202.55Y-96.95
X202.6Y-68.775
X202.6Y-69.475
X202.6Y-70.175
X203.3Y-68.775
X203.3Y-69.475
X203.3Y-70.175
X203.359Y-95.716
X203.7Y-93.125
X203.775Y-94.15
X204.0Y-68.775
X204.0Y-69.475
X204.0Y-70.175
X204.15Y-97.55
X204.412Y-94.863
X204.5Y-93.5
X204.825Y-76.875
X204.842Y-90.281
X206.7Y-96.625
X207.05Y-94.625
X207.05Y-102.025
X207.05Y-102.725
X207.05Y-103.425
X207.1Y-92.425
X207.1Y-92.425
X207.75Y-102.025
X207.75Y-102.725
X207.75Y-103.425
X208.1Y-88.35
X208.45Y-102.025
X208.45Y-102.725
X208.45Y-103.425
X208.725Y-96.625
X208.925Y-92.575
X209.15Y-102.025
X209.15Y-102.725
X209.15Y-103.425
X209.225Y-78.375
X209.75Y-81.675
X209.85Y-102.025
X209.85Y-102.725
X209.85Y-103.425
X210.55Y-102.025
X210.55Y-102.725
X210.55Y-103.425
X211.25Y-102.025
X211.25Y-102.725
X211.25Y-103.425
M30
