%TF.GenerationSoftware,KiCad,Pcbnew,10.0.6*%
%TF.CreationDate,2026-09-24T20:33:39+03:00*%
%TF.ProjectId,drone-fc,64726f6e-652d-4666-932e-6b696361645f,rev?*%
%TF.SameCoordinates,Original*%
%TF.FileFunction,Copper,L2,Inr*%
%TF.FilePolarity,Positive*%
%FSLAX46Y46*%
G04 Gerber Fmt 4.6, Leading zero omitted, Abs format (unit mm)*
G04 Created by KiCad (PCBNEW 10.0.6) date 2026-09-24 20:33:39*
%MOMM*%
%LPD*%
G01*
G04 APERTURE LIST*
%TA.AperFunction,HeatsinkPad*%
%ADD10C,0.500000*%
%TD*%
%TA.AperFunction,ViaPad*%
%ADD11C,0.600000*%
%TD*%
G04 APERTURE END LIST*
D10*
%TO.N,GND*%
%TO.C,U8*%
X187800000Y-101350000D03*
X187800000Y-102300000D03*
X187800000Y-103250000D03*
%TD*%
%TO.N,GND*%
%TO.C,U1*%
X180800000Y-102600000D03*
X180800000Y-101650000D03*
X180800000Y-100700000D03*
%TD*%
D11*
%TO.N,+3V3*%
X194950000Y-97225000D03*
X193500000Y-70500000D03*
X178600000Y-100100000D03*
X189700000Y-83400000D03*
X184975000Y-73900000D03*
X181275000Y-79375000D03*
X204500000Y-93500000D03*
X207050000Y-94625000D03*
X178500000Y-99300000D03*
X179400000Y-98900000D03*
X168348823Y-86105615D03*
X203700000Y-93125000D03*
X186675000Y-89075000D03*
X179900000Y-99300000D03*
X189000000Y-93500000D03*
X168500000Y-87500000D03*
X173700000Y-102500000D03*
X188300000Y-77375000D03*
X196750000Y-81500000D03*
X173700000Y-103300000D03*
X192311039Y-90386039D03*
X173700000Y-101800000D03*
X179200000Y-99500000D03*
X202300000Y-77525000D03*
X170000000Y-87500000D03*
X209225000Y-78375000D03*
X198500000Y-70750000D03*
X191850000Y-76625000D03*
X190500000Y-71000000D03*
X191109988Y-87434988D03*
X181250000Y-70500000D03*
X199525000Y-81975000D03*
X199994873Y-92462581D03*
%TO.N,/SDA*%
X193200000Y-95100000D03*
X208925000Y-92575000D03*
%TO.N,GND*%
X182800000Y-96825000D03*
X208450000Y-102025000D03*
X203300000Y-70175000D03*
X210550000Y-103425000D03*
X187700000Y-105700000D03*
X168525000Y-78500000D03*
X210550000Y-102025000D03*
X169925000Y-77100000D03*
X185775000Y-82200000D03*
X169225000Y-75700000D03*
X190100000Y-90100000D03*
X209150000Y-103425000D03*
X204000000Y-68775000D03*
X203300000Y-68775000D03*
X182750000Y-92450000D03*
X179975000Y-86100000D03*
X183600000Y-99100000D03*
X201900000Y-69475000D03*
X208450000Y-102725000D03*
X192700000Y-92425000D03*
X209150000Y-102025000D03*
X209850000Y-103425000D03*
X207750000Y-103425000D03*
X180000000Y-84625000D03*
X193310000Y-75730000D03*
X187000000Y-105000000D03*
X168525000Y-75700000D03*
X169925000Y-75000000D03*
X192625000Y-97250000D03*
X207050000Y-103425000D03*
X181150000Y-92250000D03*
X188400000Y-106400000D03*
X202600000Y-69475000D03*
X169000000Y-85000000D03*
X201200000Y-69475000D03*
X192500000Y-99000000D03*
X186900000Y-100400000D03*
X199700000Y-75420000D03*
X186300000Y-106400000D03*
X176375000Y-109825000D03*
X204000000Y-69475000D03*
X204825000Y-76875000D03*
X204000000Y-70175000D03*
X209850000Y-102025000D03*
X210550000Y-102725000D03*
X207050000Y-102725000D03*
X201200000Y-68775000D03*
X180050000Y-89350000D03*
X175400000Y-110675000D03*
X185600000Y-105700000D03*
X182975000Y-83875000D03*
X169225000Y-74300000D03*
X209850000Y-102725000D03*
X199500000Y-97800000D03*
X169225000Y-76400000D03*
X187700000Y-105000000D03*
X189950000Y-84525000D03*
X192700000Y-86075000D03*
X185600000Y-106400000D03*
X201900000Y-70175000D03*
X189100000Y-106400000D03*
X189800000Y-105700000D03*
X211250000Y-103425000D03*
X169000000Y-90000000D03*
X180950000Y-83825000D03*
X171500000Y-83000000D03*
X207050000Y-102025000D03*
X199800000Y-68775000D03*
X174500000Y-96000000D03*
X186300000Y-105000000D03*
X202600000Y-70175000D03*
X200500000Y-69475000D03*
X203300000Y-69475000D03*
X168525000Y-74300000D03*
X169925000Y-78500000D03*
X187000000Y-106400000D03*
X208725000Y-96625000D03*
X202500000Y-75000000D03*
X169925000Y-75700000D03*
X186900000Y-73625000D03*
X169225000Y-77100000D03*
X189100000Y-105000000D03*
X207750000Y-102025000D03*
X168525000Y-76400000D03*
X169925000Y-77800000D03*
X183900000Y-92525000D03*
X199800000Y-69475000D03*
X209150000Y-102725000D03*
X185500000Y-83100000D03*
X202600000Y-68775000D03*
X207100000Y-92425000D03*
X189100000Y-105700000D03*
X170225000Y-100525000D03*
X206700000Y-96625000D03*
X186625000Y-84275000D03*
X211250000Y-102725000D03*
X180050000Y-87825000D03*
X188400000Y-105700000D03*
X209750000Y-81675000D03*
X169925000Y-74300000D03*
X180025000Y-90925000D03*
X170900000Y-90200000D03*
X185200000Y-93000000D03*
X168525000Y-75000000D03*
X169225000Y-77800000D03*
X199800000Y-70175000D03*
X187700000Y-106400000D03*
X201900000Y-68775000D03*
X169225000Y-75000000D03*
X181900000Y-100200000D03*
X183600000Y-78275000D03*
X200500000Y-68775000D03*
X186650000Y-91425000D03*
X186300000Y-105700000D03*
X169225000Y-78500000D03*
X187000000Y-105700000D03*
X208450000Y-103425000D03*
X182419390Y-102183955D03*
X188400000Y-105000000D03*
X202220000Y-91750000D03*
X184350000Y-81400000D03*
X203775000Y-94150000D03*
X168525000Y-77100000D03*
X188698529Y-75801470D03*
X211250000Y-102025000D03*
X185600000Y-105000000D03*
X168525000Y-77800000D03*
X174500000Y-79500000D03*
X207750000Y-102725000D03*
X201200000Y-70175000D03*
X207100000Y-92425000D03*
X189800000Y-105000000D03*
X200500000Y-70175000D03*
X189800000Y-106400000D03*
X169925000Y-76400000D03*
%TO.N,/RADIO_TX*%
X201400000Y-81025000D03*
%TO.N,/RADIO_RX*%
X200750000Y-79950000D03*
%TO.N,+5V*%
X195600000Y-99200000D03*
X190600000Y-100000000D03*
X191740528Y-101990528D03*
X197300000Y-99200000D03*
X190800000Y-102400000D03*
%TO.N,/DSHOT4*%
X197600000Y-72550000D03*
%TO.N,/LED1_G*%
X197600000Y-86500000D03*
%TO.N,/SCL*%
X208100000Y-88350000D03*
%TO.N,/MISO*%
X192025000Y-81225000D03*
%TO.N,/INT1*%
X191438235Y-91363235D03*
%TO.N,/INT2*%
X194011032Y-81113974D03*
X192675000Y-83275000D03*
%TO.N,/CS*%
X191350000Y-80150000D03*
%TO.N,/CLK*%
X190750000Y-81000000D03*
%TO.N,/MOSI*%
X190350000Y-82300000D03*
%TO.N,/ALT_SCK*%
X204411765Y-94863235D03*
%TO.N,/ALT_MOSI*%
X203359265Y-95715735D03*
%TO.N,/ALT_MISO*%
X202327847Y-95600000D03*
%TO.N,/ALT_CS*%
X204150000Y-97550000D03*
%TO.N,/ALT_INT*%
X202550000Y-96950000D03*
%TO.N,/DSHOT1*%
X184112500Y-74187500D03*
%TO.N,Net-(U2-BOOT0)*%
X191375000Y-95425000D03*
%TO.N,/VBAT*%
X196920000Y-76650000D03*
X194675000Y-86968334D03*
X193234477Y-91829738D03*
X179250000Y-104500000D03*
X179975000Y-104400000D03*
X180800000Y-104525000D03*
%TO.N,/LED2_R*%
X196725000Y-91725000D03*
%TO.N,/DSHOT3*%
X194800000Y-73125000D03*
%TO.N,/DSHOT2*%
X188300000Y-74125000D03*
%TO.N,/LED1_R*%
X200100000Y-91075000D03*
X198675000Y-92350000D03*
X197600000Y-85644400D03*
%TO.N,/NRST*%
X189375000Y-85575000D03*
X187748000Y-73355000D03*
%TO.N,/LED2_G*%
X196749715Y-90925382D03*
%TO.N,Net-(U8-PG)*%
X189500000Y-100800000D03*
%TO.N,/GPS_TIMEPULSE*%
X177075000Y-96050000D03*
%TO.N,/GPS_RX*%
X189900000Y-80064152D03*
%TO.N,/GPS_TX*%
X186900000Y-80150000D03*
%TO.N,/GPS_RESET*%
X186950000Y-79075000D03*
%TO.N,/SWDIO*%
X189637500Y-73562500D03*
X204842252Y-90280856D03*
%TO.N,/SWCLK*%
X191825000Y-73550000D03*
X202550000Y-94200000D03*
%TD*%
%TA.AperFunction,Conductor*%
%TO.N,GND*%
G36*
X203480841Y-93897589D02*
G01*
X203621155Y-93925500D01*
X203755277Y-93925500D01*
X203822316Y-93945185D01*
X203858379Y-93980609D01*
X203878210Y-94010288D01*
X203878213Y-94010292D01*
X203919257Y-94051336D01*
X203952742Y-94112659D01*
X203947758Y-94182351D01*
X203905886Y-94238284D01*
X203901832Y-94241153D01*
X203901472Y-94241448D01*
X203789978Y-94352942D01*
X203789975Y-94352946D01*
X203702374Y-94484049D01*
X203702367Y-94484062D01*
X203642029Y-94629733D01*
X203642026Y-94629745D01*
X203611265Y-94784388D01*
X203611265Y-94798583D01*
X203591580Y-94865622D01*
X203538776Y-94911377D01*
X203469618Y-94921321D01*
X203463076Y-94920201D01*
X203438108Y-94915235D01*
X203438107Y-94915235D01*
X203280423Y-94915235D01*
X203280417Y-94915235D01*
X203277167Y-94915555D01*
X203275480Y-94915235D01*
X203274331Y-94915235D01*
X203274331Y-94915017D01*
X203208521Y-94902534D01*
X203157812Y-94854467D01*
X203141141Y-94786616D01*
X203163799Y-94720522D01*
X203169169Y-94713481D01*
X203171780Y-94710297D01*
X203171789Y-94710289D01*
X203259394Y-94579179D01*
X203319737Y-94433497D01*
X203350500Y-94278842D01*
X203350500Y-94121158D01*
X203348809Y-94112659D01*
X203336611Y-94051336D01*
X203335032Y-94043396D01*
X203341259Y-93973807D01*
X203384121Y-93918629D01*
X203450010Y-93895384D01*
X203480841Y-93897589D01*
G37*
%TD.AperFunction*%
%TA.AperFunction,Conductor*%
G36*
X211942539Y-68020185D02*
G01*
X211988294Y-68072989D01*
X211999500Y-68124500D01*
X211999500Y-111875500D01*
X211979815Y-111942539D01*
X211927011Y-111988294D01*
X211875500Y-111999500D01*
X168124500Y-111999500D01*
X168057461Y-111979815D01*
X168011706Y-111927011D01*
X168000500Y-111875500D01*
X168000500Y-110973183D01*
X192650000Y-110973183D01*
X203178300Y-111000000D01*
X203205059Y-107378711D01*
X205649500Y-107378711D01*
X205649500Y-107621288D01*
X205681161Y-107861785D01*
X205743947Y-108096104D01*
X205836773Y-108320205D01*
X205836776Y-108320212D01*
X205958064Y-108530289D01*
X205958066Y-108530292D01*
X205958067Y-108530293D01*
X206105733Y-108722736D01*
X206105739Y-108722743D01*
X206277256Y-108894260D01*
X206277262Y-108894265D01*
X206469711Y-109041936D01*
X206679788Y-109163224D01*
X206903900Y-109256054D01*
X207138211Y-109318838D01*
X207318586Y-109342584D01*
X207378711Y-109350500D01*
X207378712Y-109350500D01*
X207621289Y-109350500D01*
X207669388Y-109344167D01*
X207861789Y-109318838D01*
X208096100Y-109256054D01*
X208320212Y-109163224D01*
X208530289Y-109041936D01*
X208722738Y-108894265D01*
X208894265Y-108722738D01*
X209041936Y-108530289D01*
X209163224Y-108320212D01*
X209256054Y-108096100D01*
X209318838Y-107861789D01*
X209350500Y-107621288D01*
X209350500Y-107378712D01*
X209318838Y-107138211D01*
X209256054Y-106903900D01*
X209163224Y-106679788D01*
X209041936Y-106469711D01*
X208894265Y-106277262D01*
X208894260Y-106277256D01*
X208722743Y-106105739D01*
X208722736Y-106105733D01*
X208530293Y-105958067D01*
X208530292Y-105958066D01*
X208530289Y-105958064D01*
X208320212Y-105836776D01*
X208320205Y-105836773D01*
X208096104Y-105743947D01*
X207861785Y-105681161D01*
X207621289Y-105649500D01*
X207621288Y-105649500D01*
X207378712Y-105649500D01*
X207378711Y-105649500D01*
X207138214Y-105681161D01*
X206903895Y-105743947D01*
X206679794Y-105836773D01*
X206679785Y-105836777D01*
X206469706Y-105958067D01*
X206277263Y-106105733D01*
X206277256Y-106105739D01*
X206105739Y-106277256D01*
X206105733Y-106277263D01*
X205958067Y-106469706D01*
X205836777Y-106679785D01*
X205836773Y-106679794D01*
X205743947Y-106903895D01*
X205681161Y-107138214D01*
X205649500Y-107378711D01*
X203205059Y-107378711D01*
X203217463Y-105700000D01*
X192650000Y-105700000D01*
X192650000Y-110973183D01*
X168000500Y-110973183D01*
X168000500Y-107378711D01*
X170649500Y-107378711D01*
X170649500Y-107621288D01*
X170681161Y-107861785D01*
X170743947Y-108096104D01*
X170836773Y-108320205D01*
X170836776Y-108320212D01*
X170958064Y-108530289D01*
X170958066Y-108530292D01*
X170958067Y-108530293D01*
X171105733Y-108722736D01*
X171105739Y-108722743D01*
X171277256Y-108894260D01*
X171277262Y-108894265D01*
X171469711Y-109041936D01*
X171679788Y-109163224D01*
X171903900Y-109256054D01*
X172138211Y-109318838D01*
X172318586Y-109342584D01*
X172378711Y-109350500D01*
X172378712Y-109350500D01*
X172621289Y-109350500D01*
X172669388Y-109344167D01*
X172861789Y-109318838D01*
X173096100Y-109256054D01*
X173320212Y-109163224D01*
X173530289Y-109041936D01*
X173722738Y-108894265D01*
X173894265Y-108722738D01*
X174041936Y-108530289D01*
X174163224Y-108320212D01*
X174256054Y-108096100D01*
X174318838Y-107861789D01*
X174350500Y-107621288D01*
X174350500Y-107378712D01*
X174318838Y-107138211D01*
X174256054Y-106903900D01*
X174163224Y-106679788D01*
X174041936Y-106469711D01*
X173894265Y-106277262D01*
X173894260Y-106277256D01*
X173722743Y-106105739D01*
X173722736Y-106105733D01*
X173530293Y-105958067D01*
X173530292Y-105958066D01*
X173530289Y-105958064D01*
X173320212Y-105836776D01*
X173320205Y-105836773D01*
X173142582Y-105763199D01*
X173142580Y-105763198D01*
X173096107Y-105743948D01*
X172932092Y-105700000D01*
X172861789Y-105681162D01*
X172861788Y-105681161D01*
X172861785Y-105681161D01*
X172621289Y-105649500D01*
X172621288Y-105649500D01*
X172378712Y-105649500D01*
X172378711Y-105649500D01*
X172138214Y-105681161D01*
X171903895Y-105743947D01*
X171679794Y-105836773D01*
X171679785Y-105836777D01*
X171469706Y-105958067D01*
X171277263Y-106105733D01*
X171277256Y-106105739D01*
X171105739Y-106277256D01*
X171105733Y-106277263D01*
X170958067Y-106469706D01*
X170836777Y-106679785D01*
X170836773Y-106679794D01*
X170743947Y-106903895D01*
X170681161Y-107138214D01*
X170649500Y-107378711D01*
X168000500Y-107378711D01*
X168000500Y-104421153D01*
X178449500Y-104421153D01*
X178449500Y-104578846D01*
X178480261Y-104733489D01*
X178480264Y-104733501D01*
X178540602Y-104879172D01*
X178540609Y-104879185D01*
X178628210Y-105010288D01*
X178628213Y-105010292D01*
X178739707Y-105121786D01*
X178739711Y-105121789D01*
X178870814Y-105209390D01*
X178870827Y-105209397D01*
X179016498Y-105269735D01*
X179016503Y-105269737D01*
X179142176Y-105294735D01*
X179171153Y-105300499D01*
X179171156Y-105300500D01*
X179171158Y-105300500D01*
X179328844Y-105300500D01*
X179328845Y-105300499D01*
X179483497Y-105269737D01*
X179629179Y-105209394D01*
X179657974Y-105190152D01*
X179724648Y-105169274D01*
X179751053Y-105171636D01*
X179811128Y-105183586D01*
X179896155Y-105200500D01*
X179896158Y-105200500D01*
X180053844Y-105200500D01*
X180053845Y-105200499D01*
X180208497Y-105169737D01*
X180208502Y-105169734D01*
X180208505Y-105169734D01*
X180218597Y-105165554D01*
X180288066Y-105158084D01*
X180334942Y-105177012D01*
X180420814Y-105234390D01*
X180420827Y-105234397D01*
X180566498Y-105294735D01*
X180566503Y-105294737D01*
X180721153Y-105325499D01*
X180721156Y-105325500D01*
X180721158Y-105325500D01*
X180878844Y-105325500D01*
X180878845Y-105325499D01*
X181033497Y-105294737D01*
X181179179Y-105234394D01*
X181310289Y-105146789D01*
X181421789Y-105035289D01*
X181509394Y-104904179D01*
X181569737Y-104758497D01*
X181600500Y-104603842D01*
X181600500Y-104446158D01*
X181600500Y-104446155D01*
X181600499Y-104446153D01*
X181569738Y-104291510D01*
X181569737Y-104291503D01*
X181559380Y-104266498D01*
X181509397Y-104145827D01*
X181509390Y-104145814D01*
X181421789Y-104014711D01*
X181421786Y-104014707D01*
X181334656Y-103927577D01*
X187475975Y-103927577D01*
X187581236Y-103971178D01*
X187581240Y-103971179D01*
X187726126Y-103999999D01*
X187726129Y-104000000D01*
X187873871Y-104000000D01*
X187873873Y-103999999D01*
X188018760Y-103971179D01*
X188018775Y-103971175D01*
X188124024Y-103927578D01*
X188124024Y-103927577D01*
X187800001Y-103603554D01*
X187800000Y-103603554D01*
X187475975Y-103927577D01*
X181334656Y-103927577D01*
X181310292Y-103903213D01*
X181310288Y-103903210D01*
X181179185Y-103815609D01*
X181179172Y-103815602D01*
X181033501Y-103755264D01*
X181033489Y-103755261D01*
X180878845Y-103724500D01*
X180878842Y-103724500D01*
X180721158Y-103724500D01*
X180721155Y-103724500D01*
X180566511Y-103755260D01*
X180566506Y-103755262D01*
X180566504Y-103755262D01*
X180566503Y-103755263D01*
X180556396Y-103759449D01*
X180486929Y-103766915D01*
X180440058Y-103747988D01*
X180354185Y-103690609D01*
X180354172Y-103690602D01*
X180208501Y-103630264D01*
X180208489Y-103630261D01*
X180053845Y-103599500D01*
X180053842Y-103599500D01*
X179896158Y-103599500D01*
X179896155Y-103599500D01*
X179741510Y-103630261D01*
X179741498Y-103630264D01*
X179595828Y-103690602D01*
X179595817Y-103690608D01*
X179567023Y-103709848D01*
X179500345Y-103730725D01*
X179473941Y-103728362D01*
X179328844Y-103699500D01*
X179328842Y-103699500D01*
X179171158Y-103699500D01*
X179171155Y-103699500D01*
X179016510Y-103730261D01*
X179016498Y-103730264D01*
X178870827Y-103790602D01*
X178870814Y-103790609D01*
X178739711Y-103878210D01*
X178739707Y-103878213D01*
X178628213Y-103989707D01*
X178628210Y-103989711D01*
X178540609Y-104120814D01*
X178540602Y-104120827D01*
X178480264Y-104266498D01*
X178480261Y-104266510D01*
X178449500Y-104421153D01*
X168000500Y-104421153D01*
X168000500Y-101721153D01*
X172899500Y-101721153D01*
X172899500Y-101878846D01*
X172930260Y-102033488D01*
X172930262Y-102033493D01*
X172930263Y-102033497D01*
X172958864Y-102102547D01*
X172958865Y-102102549D01*
X172966333Y-102172018D01*
X172958865Y-102197447D01*
X172930263Y-102266503D01*
X172930262Y-102266506D01*
X172930260Y-102266511D01*
X172899500Y-102421153D01*
X172899500Y-102578846D01*
X172930261Y-102733489D01*
X172930264Y-102733501D01*
X172979574Y-102852548D01*
X172987043Y-102922018D01*
X172979574Y-102947452D01*
X172930264Y-103066498D01*
X172930261Y-103066510D01*
X172899500Y-103221153D01*
X172899500Y-103378846D01*
X172930261Y-103533489D01*
X172930264Y-103533501D01*
X172990602Y-103679172D01*
X172990609Y-103679185D01*
X173078210Y-103810288D01*
X173078213Y-103810292D01*
X173189707Y-103921786D01*
X173189711Y-103921789D01*
X173320814Y-104009390D01*
X173320827Y-104009397D01*
X173466498Y-104069735D01*
X173466503Y-104069737D01*
X173621153Y-104100499D01*
X173621156Y-104100500D01*
X173621158Y-104100500D01*
X173778844Y-104100500D01*
X173778845Y-104100499D01*
X173933497Y-104069737D01*
X174079179Y-104009394D01*
X174210289Y-103921789D01*
X174321789Y-103810289D01*
X174409394Y-103679179D01*
X174469737Y-103533497D01*
X174500500Y-103378842D01*
X174500500Y-103277577D01*
X180475975Y-103277577D01*
X180581236Y-103321178D01*
X180581240Y-103321179D01*
X180726126Y-103349999D01*
X180726129Y-103350000D01*
X180873871Y-103350000D01*
X180873873Y-103349999D01*
X181018760Y-103321179D01*
X181018775Y-103321175D01*
X181124024Y-103277578D01*
X181124024Y-103277577D01*
X181022573Y-103176126D01*
X187050000Y-103176126D01*
X187050000Y-103323873D01*
X187078820Y-103468759D01*
X187078822Y-103468767D01*
X187122421Y-103574024D01*
X187446446Y-103250000D01*
X187446446Y-103249999D01*
X187426556Y-103230109D01*
X187700000Y-103230109D01*
X187700000Y-103269891D01*
X187715224Y-103306645D01*
X187743355Y-103334776D01*
X187780109Y-103350000D01*
X187819891Y-103350000D01*
X187856645Y-103334776D01*
X187884776Y-103306645D01*
X187900000Y-103269891D01*
X187900000Y-103249999D01*
X188153554Y-103249999D01*
X188153554Y-103250001D01*
X188477577Y-103574024D01*
X188477578Y-103574024D01*
X188521175Y-103468775D01*
X188521179Y-103468760D01*
X188549999Y-103323873D01*
X188550000Y-103323871D01*
X188550000Y-103176128D01*
X188549999Y-103176126D01*
X188521179Y-103031240D01*
X188521178Y-103031236D01*
X188477577Y-102925975D01*
X188153554Y-103249999D01*
X187900000Y-103249999D01*
X187900000Y-103230109D01*
X187884776Y-103193355D01*
X187856645Y-103165224D01*
X187819891Y-103150000D01*
X187780109Y-103150000D01*
X187743355Y-103165224D01*
X187715224Y-103193355D01*
X187700000Y-103230109D01*
X187426556Y-103230109D01*
X187122421Y-102925974D01*
X187122420Y-102925974D01*
X187078823Y-103031228D01*
X187078820Y-103031240D01*
X187050000Y-103176126D01*
X181022573Y-103176126D01*
X180800001Y-102953554D01*
X180800000Y-102953554D01*
X180475975Y-103277577D01*
X174500500Y-103277577D01*
X174500500Y-103221158D01*
X174500500Y-103221155D01*
X174500499Y-103221153D01*
X174491543Y-103176128D01*
X174469737Y-103066503D01*
X174451215Y-103021786D01*
X174420425Y-102947452D01*
X174412956Y-102877983D01*
X174420425Y-102852548D01*
X174447582Y-102786984D01*
X174469737Y-102733497D01*
X174500500Y-102578842D01*
X174500500Y-102526126D01*
X180050000Y-102526126D01*
X180050000Y-102673873D01*
X180078820Y-102818759D01*
X180078822Y-102818767D01*
X180122421Y-102924024D01*
X180446446Y-102600000D01*
X180446446Y-102599999D01*
X180426556Y-102580109D01*
X180700000Y-102580109D01*
X180700000Y-102619891D01*
X180715224Y-102656645D01*
X180743355Y-102684776D01*
X180780109Y-102700000D01*
X180819891Y-102700000D01*
X180856645Y-102684776D01*
X180884776Y-102656645D01*
X180900000Y-102619891D01*
X180900000Y-102599999D01*
X181153554Y-102599999D01*
X181153554Y-102600001D01*
X181477577Y-102924024D01*
X181477578Y-102924024D01*
X181521175Y-102818775D01*
X181521179Y-102818760D01*
X181529883Y-102775000D01*
X187678554Y-102775000D01*
X187800000Y-102896446D01*
X187921446Y-102775000D01*
X187800000Y-102653554D01*
X187678554Y-102775000D01*
X181529883Y-102775000D01*
X181549999Y-102673873D01*
X181550000Y-102673871D01*
X181550000Y-102526128D01*
X181549999Y-102526126D01*
X181521179Y-102381240D01*
X181521177Y-102381232D01*
X181477577Y-102275974D01*
X181153554Y-102599999D01*
X180900000Y-102599999D01*
X180900000Y-102580109D01*
X180884776Y-102543355D01*
X180856645Y-102515224D01*
X180819891Y-102500000D01*
X180780109Y-102500000D01*
X180743355Y-102515224D01*
X180715224Y-102543355D01*
X180700000Y-102580109D01*
X180426556Y-102580109D01*
X180122421Y-102275974D01*
X180122420Y-102275974D01*
X180078823Y-102381228D01*
X180078820Y-102381240D01*
X180050000Y-102526126D01*
X174500500Y-102526126D01*
X174500500Y-102421158D01*
X174500500Y-102421155D01*
X174500499Y-102421153D01*
X174487667Y-102356645D01*
X174469737Y-102266503D01*
X174441134Y-102197450D01*
X174433666Y-102127984D01*
X174434542Y-102125000D01*
X180678554Y-102125000D01*
X180800000Y-102246446D01*
X180820320Y-102226126D01*
X187050000Y-102226126D01*
X187050000Y-102373873D01*
X187078820Y-102518759D01*
X187078822Y-102518767D01*
X187122421Y-102624024D01*
X187446446Y-102300000D01*
X187446446Y-102299999D01*
X187426556Y-102280109D01*
X187700000Y-102280109D01*
X187700000Y-102319891D01*
X187715224Y-102356645D01*
X187743355Y-102384776D01*
X187780109Y-102400000D01*
X187819891Y-102400000D01*
X187856645Y-102384776D01*
X187884776Y-102356645D01*
X187900000Y-102319891D01*
X187900000Y-102299999D01*
X188153554Y-102299999D01*
X188153554Y-102300001D01*
X188477577Y-102624024D01*
X188477578Y-102624024D01*
X188521175Y-102518775D01*
X188521179Y-102518760D01*
X188549999Y-102373873D01*
X188550000Y-102373871D01*
X188550000Y-102321153D01*
X189999500Y-102321153D01*
X189999500Y-102478846D01*
X190030261Y-102633489D01*
X190030264Y-102633501D01*
X190090602Y-102779172D01*
X190090609Y-102779185D01*
X190178210Y-102910288D01*
X190178213Y-102910292D01*
X190289707Y-103021786D01*
X190289711Y-103021789D01*
X190420814Y-103109390D01*
X190420827Y-103109397D01*
X190566498Y-103169735D01*
X190566503Y-103169737D01*
X190685238Y-103193355D01*
X190721153Y-103200499D01*
X190721156Y-103200500D01*
X190721158Y-103200500D01*
X190878844Y-103200500D01*
X190878845Y-103200499D01*
X191033497Y-103169737D01*
X191179179Y-103109394D01*
X191310289Y-103021789D01*
X191421789Y-102910289D01*
X191443375Y-102877983D01*
X191474241Y-102831790D01*
X191527853Y-102786984D01*
X191597178Y-102778277D01*
X191601535Y-102779063D01*
X191661684Y-102791028D01*
X191661686Y-102791028D01*
X191819372Y-102791028D01*
X191819373Y-102791027D01*
X191974025Y-102760265D01*
X192119707Y-102699922D01*
X192250817Y-102612317D01*
X192362317Y-102500817D01*
X192449922Y-102369707D01*
X192510265Y-102224025D01*
X192541028Y-102069370D01*
X192541028Y-101911686D01*
X192541028Y-101911683D01*
X192541027Y-101911681D01*
X192514478Y-101778211D01*
X192510265Y-101757031D01*
X192489395Y-101706645D01*
X192449925Y-101611355D01*
X192449918Y-101611342D01*
X192362317Y-101480239D01*
X192362314Y-101480235D01*
X192250820Y-101368741D01*
X192250816Y-101368738D01*
X192119713Y-101281137D01*
X192119700Y-101281130D01*
X191974029Y-101220792D01*
X191974017Y-101220789D01*
X191819373Y-101190028D01*
X191819370Y-101190028D01*
X191661686Y-101190028D01*
X191661683Y-101190028D01*
X191507038Y-101220789D01*
X191507026Y-101220792D01*
X191361355Y-101281130D01*
X191361342Y-101281137D01*
X191230239Y-101368738D01*
X191230235Y-101368741D01*
X191118741Y-101480235D01*
X191118736Y-101480241D01*
X191066285Y-101558739D01*
X191012673Y-101603543D01*
X190943348Y-101612250D01*
X190938993Y-101611464D01*
X190878846Y-101599500D01*
X190878842Y-101599500D01*
X190721158Y-101599500D01*
X190721155Y-101599500D01*
X190566510Y-101630261D01*
X190566498Y-101630264D01*
X190420827Y-101690602D01*
X190420814Y-101690609D01*
X190289711Y-101778210D01*
X190289707Y-101778213D01*
X190178213Y-101889707D01*
X190178210Y-101889711D01*
X190090609Y-102020814D01*
X190090602Y-102020827D01*
X190030264Y-102166498D01*
X190030261Y-102166510D01*
X189999500Y-102321153D01*
X188550000Y-102321153D01*
X188550000Y-102226128D01*
X188549999Y-102226126D01*
X188521179Y-102081240D01*
X188521178Y-102081236D01*
X188477577Y-101975975D01*
X188153554Y-102299999D01*
X187900000Y-102299999D01*
X187900000Y-102280109D01*
X187884776Y-102243355D01*
X187856645Y-102215224D01*
X187819891Y-102200000D01*
X187780109Y-102200000D01*
X187743355Y-102215224D01*
X187715224Y-102243355D01*
X187700000Y-102280109D01*
X187426556Y-102280109D01*
X187122421Y-101975974D01*
X187122420Y-101975974D01*
X187078823Y-102081228D01*
X187078820Y-102081240D01*
X187050000Y-102226126D01*
X180820320Y-102226126D01*
X180921446Y-102125000D01*
X180800000Y-102003554D01*
X180678554Y-102125000D01*
X174434542Y-102125000D01*
X174441133Y-102102552D01*
X174469737Y-102033497D01*
X174500500Y-101878842D01*
X174500500Y-101721158D01*
X174500500Y-101721155D01*
X174500499Y-101721153D01*
X174475253Y-101594230D01*
X174471651Y-101576126D01*
X180050000Y-101576126D01*
X180050000Y-101723873D01*
X180078820Y-101868759D01*
X180078822Y-101868767D01*
X180122421Y-101974024D01*
X180446446Y-101650000D01*
X180446446Y-101649999D01*
X180426556Y-101630109D01*
X180700000Y-101630109D01*
X180700000Y-101669891D01*
X180715224Y-101706645D01*
X180743355Y-101734776D01*
X180780109Y-101750000D01*
X180819891Y-101750000D01*
X180856645Y-101734776D01*
X180884776Y-101706645D01*
X180900000Y-101669891D01*
X180900000Y-101649999D01*
X181153554Y-101649999D01*
X181153554Y-101650001D01*
X181477577Y-101974024D01*
X181477578Y-101974024D01*
X181521175Y-101868775D01*
X181521179Y-101868760D01*
X181529883Y-101825000D01*
X187678554Y-101825000D01*
X187800000Y-101946446D01*
X187921446Y-101825000D01*
X187800000Y-101703554D01*
X187678554Y-101825000D01*
X181529883Y-101825000D01*
X181549999Y-101723873D01*
X181550000Y-101723871D01*
X181550000Y-101576128D01*
X181549999Y-101576126D01*
X181521179Y-101431240D01*
X181521177Y-101431232D01*
X181477577Y-101325974D01*
X181153554Y-101649999D01*
X180900000Y-101649999D01*
X180900000Y-101630109D01*
X180884776Y-101593355D01*
X180856645Y-101565224D01*
X180819891Y-101550000D01*
X180780109Y-101550000D01*
X180743355Y-101565224D01*
X180715224Y-101593355D01*
X180700000Y-101630109D01*
X180426556Y-101630109D01*
X180122421Y-101325974D01*
X180122420Y-101325974D01*
X180078823Y-101431228D01*
X180078820Y-101431240D01*
X180050000Y-101576126D01*
X174471651Y-101576126D01*
X174469738Y-101566508D01*
X174469737Y-101566507D01*
X174469737Y-101566503D01*
X174446080Y-101509390D01*
X174409397Y-101420827D01*
X174409390Y-101420814D01*
X174321789Y-101289711D01*
X174321786Y-101289707D01*
X174210292Y-101178213D01*
X174210288Y-101178210D01*
X174205484Y-101175000D01*
X180678554Y-101175000D01*
X180800000Y-101296446D01*
X180820320Y-101276126D01*
X187050000Y-101276126D01*
X187050000Y-101423873D01*
X187078820Y-101568759D01*
X187078822Y-101568767D01*
X187122421Y-101674024D01*
X187446446Y-101350000D01*
X187446446Y-101349999D01*
X187426556Y-101330109D01*
X187700000Y-101330109D01*
X187700000Y-101369891D01*
X187715224Y-101406645D01*
X187743355Y-101434776D01*
X187780109Y-101450000D01*
X187819891Y-101450000D01*
X187856645Y-101434776D01*
X187884776Y-101406645D01*
X187900000Y-101369891D01*
X187900000Y-101349999D01*
X188153554Y-101349999D01*
X188153554Y-101350001D01*
X188477577Y-101674024D01*
X188477578Y-101674024D01*
X188521175Y-101568775D01*
X188521179Y-101568760D01*
X188549999Y-101423873D01*
X188550000Y-101423871D01*
X188550000Y-101276128D01*
X188537600Y-101213790D01*
X188477490Y-101026061D01*
X188153554Y-101349999D01*
X187900000Y-101349999D01*
X187900000Y-101330109D01*
X187884776Y-101293355D01*
X187856645Y-101265224D01*
X187819891Y-101250000D01*
X187780109Y-101250000D01*
X187743355Y-101265224D01*
X187715224Y-101293355D01*
X187700000Y-101330109D01*
X187426556Y-101330109D01*
X187122421Y-101025974D01*
X187122420Y-101025974D01*
X187078823Y-101131228D01*
X187078820Y-101131240D01*
X187050000Y-101276126D01*
X180820320Y-101276126D01*
X180921446Y-101175000D01*
X180800000Y-101053554D01*
X180678554Y-101175000D01*
X174205484Y-101175000D01*
X174079185Y-101090609D01*
X174079172Y-101090602D01*
X173933501Y-101030264D01*
X173933489Y-101030261D01*
X173778845Y-100999500D01*
X173778842Y-100999500D01*
X173621158Y-100999500D01*
X173621155Y-100999500D01*
X173466510Y-101030261D01*
X173466498Y-101030264D01*
X173320827Y-101090602D01*
X173320814Y-101090609D01*
X173189711Y-101178210D01*
X173189707Y-101178213D01*
X173078213Y-101289707D01*
X173078210Y-101289711D01*
X172990609Y-101420814D01*
X172990602Y-101420827D01*
X172930264Y-101566498D01*
X172930261Y-101566510D01*
X172899500Y-101721153D01*
X168000500Y-101721153D01*
X168000500Y-99221153D01*
X177699500Y-99221153D01*
X177699500Y-99378846D01*
X177730261Y-99533489D01*
X177730264Y-99533501D01*
X177790604Y-99679176D01*
X177826162Y-99732392D01*
X177847040Y-99799069D01*
X177837623Y-99848732D01*
X177830262Y-99866502D01*
X177830261Y-99866505D01*
X177799500Y-100021153D01*
X177799500Y-100178846D01*
X177830261Y-100333489D01*
X177830264Y-100333501D01*
X177890602Y-100479172D01*
X177890609Y-100479185D01*
X177978210Y-100610288D01*
X177978213Y-100610292D01*
X178089707Y-100721786D01*
X178089711Y-100721789D01*
X178220814Y-100809390D01*
X178220827Y-100809397D01*
X178366498Y-100869735D01*
X178366503Y-100869737D01*
X178521153Y-100900499D01*
X178521156Y-100900500D01*
X178521158Y-100900500D01*
X178678844Y-100900500D01*
X178678845Y-100900499D01*
X178833497Y-100869737D01*
X178979179Y-100809394D01*
X179110289Y-100721789D01*
X179221789Y-100610289D01*
X179309394Y-100479179D01*
X179368756Y-100335864D01*
X179412596Y-100281461D01*
X179435865Y-100268756D01*
X179579172Y-100209397D01*
X179579172Y-100209396D01*
X179579179Y-100209394D01*
X179625849Y-100178210D01*
X179715354Y-100118405D01*
X179716580Y-100120240D01*
X179771747Y-100096798D01*
X179810324Y-100098345D01*
X179821155Y-100100500D01*
X179821158Y-100100500D01*
X179978844Y-100100500D01*
X180053950Y-100085560D01*
X180123542Y-100091787D01*
X180178719Y-100134650D01*
X180201964Y-100200539D01*
X180185897Y-100268536D01*
X180181245Y-100276067D01*
X180135361Y-100344737D01*
X180135357Y-100344745D01*
X180078822Y-100481232D01*
X180078820Y-100481240D01*
X180050000Y-100626126D01*
X180050000Y-100773873D01*
X180078820Y-100918759D01*
X180078822Y-100918767D01*
X180122421Y-101024024D01*
X180466337Y-100680109D01*
X180700000Y-100680109D01*
X180700000Y-100719891D01*
X180715224Y-100756645D01*
X180743355Y-100784776D01*
X180780109Y-100800000D01*
X180819891Y-100800000D01*
X180856645Y-100784776D01*
X180884776Y-100756645D01*
X180900000Y-100719891D01*
X180900000Y-100699999D01*
X181153554Y-100699999D01*
X181153554Y-100700001D01*
X181477577Y-101024024D01*
X181477578Y-101024024D01*
X181521175Y-100918775D01*
X181521179Y-100918760D01*
X181549999Y-100773873D01*
X181550000Y-100773871D01*
X181550000Y-100672420D01*
X187475974Y-100672420D01*
X187475974Y-100672421D01*
X187800000Y-100996446D01*
X187800001Y-100996446D01*
X187917602Y-100878844D01*
X188699499Y-100878844D01*
X188713841Y-100950945D01*
X188713844Y-100950955D01*
X188730263Y-101033497D01*
X188774366Y-101139973D01*
X188774370Y-101139984D01*
X188790602Y-101179172D01*
X188790609Y-101179185D01*
X188878210Y-101310288D01*
X188878213Y-101310292D01*
X188989707Y-101421786D01*
X188989711Y-101421789D01*
X189120814Y-101509390D01*
X189120827Y-101509397D01*
X189266498Y-101569735D01*
X189266503Y-101569737D01*
X189385238Y-101593355D01*
X189421153Y-101600499D01*
X189421156Y-101600500D01*
X189421158Y-101600500D01*
X189578844Y-101600500D01*
X189578845Y-101600499D01*
X189733497Y-101569737D01*
X189879179Y-101509394D01*
X190010289Y-101421789D01*
X190121789Y-101310289D01*
X190209394Y-101179179D01*
X190269737Y-101033497D01*
X190299697Y-100882877D01*
X190332081Y-100820967D01*
X190392797Y-100786393D01*
X190445506Y-100785452D01*
X190521155Y-100800500D01*
X190521158Y-100800500D01*
X190678844Y-100800500D01*
X190678845Y-100800499D01*
X190833497Y-100769737D01*
X190979179Y-100709394D01*
X191110289Y-100621789D01*
X191221789Y-100510289D01*
X191309394Y-100379179D01*
X191369737Y-100233497D01*
X191400500Y-100078842D01*
X191400500Y-99921158D01*
X191400500Y-99921155D01*
X191400499Y-99921153D01*
X191380734Y-99821789D01*
X191369737Y-99766503D01*
X191346452Y-99710288D01*
X191309397Y-99620827D01*
X191309390Y-99620814D01*
X191221789Y-99489711D01*
X191221786Y-99489707D01*
X191110292Y-99378213D01*
X191110288Y-99378210D01*
X190979185Y-99290609D01*
X190979172Y-99290602D01*
X190833501Y-99230264D01*
X190833489Y-99230261D01*
X190678845Y-99199500D01*
X190678842Y-99199500D01*
X190521158Y-99199500D01*
X190521155Y-99199500D01*
X190366510Y-99230261D01*
X190366498Y-99230264D01*
X190220827Y-99290602D01*
X190220814Y-99290609D01*
X190089711Y-99378210D01*
X190089707Y-99378213D01*
X189978213Y-99489707D01*
X189978210Y-99489711D01*
X189890609Y-99620814D01*
X189890602Y-99620827D01*
X189830264Y-99766498D01*
X189830261Y-99766508D01*
X189800302Y-99917122D01*
X189767917Y-99979033D01*
X189707201Y-100013607D01*
X189654494Y-100014547D01*
X189578846Y-99999500D01*
X189578842Y-99999500D01*
X189421158Y-99999500D01*
X189421155Y-99999500D01*
X189266510Y-100030261D01*
X189266498Y-100030264D01*
X189120827Y-100090602D01*
X189120814Y-100090609D01*
X188989711Y-100178210D01*
X188989707Y-100178213D01*
X188878213Y-100289707D01*
X188878210Y-100289711D01*
X188790609Y-100420814D01*
X188790602Y-100420827D01*
X188730264Y-100566498D01*
X188730261Y-100566510D01*
X188699500Y-100721153D01*
X188699500Y-100721158D01*
X188699500Y-100878842D01*
X188699500Y-100878844D01*
X188699499Y-100878844D01*
X187917602Y-100878844D01*
X188124024Y-100672421D01*
X188018767Y-100628822D01*
X188018759Y-100628820D01*
X187873872Y-100600000D01*
X187726128Y-100600000D01*
X187581240Y-100628820D01*
X187581228Y-100628823D01*
X187475974Y-100672420D01*
X181550000Y-100672420D01*
X181550000Y-100626128D01*
X181549999Y-100626126D01*
X181521179Y-100481240D01*
X181521178Y-100481236D01*
X181477577Y-100375975D01*
X181153554Y-100699999D01*
X180900000Y-100699999D01*
X180900000Y-100680109D01*
X180884776Y-100643355D01*
X180856645Y-100615224D01*
X180819891Y-100600000D01*
X180780109Y-100600000D01*
X180743355Y-100615224D01*
X180715224Y-100643355D01*
X180700000Y-100680109D01*
X180466337Y-100680109D01*
X180585489Y-100560957D01*
X181124024Y-100022421D01*
X181018767Y-99978822D01*
X181018759Y-99978820D01*
X180873872Y-99950000D01*
X180726126Y-99950000D01*
X180676416Y-99959888D01*
X180606824Y-99953661D01*
X180551647Y-99910797D01*
X180528403Y-99844908D01*
X180544471Y-99776911D01*
X180549108Y-99769403D01*
X180609394Y-99679179D01*
X180669737Y-99533497D01*
X180700500Y-99378842D01*
X180700500Y-99221158D01*
X180700500Y-99221155D01*
X180700499Y-99221153D01*
X180696192Y-99199500D01*
X180680608Y-99121153D01*
X194799500Y-99121153D01*
X194799500Y-99278846D01*
X194830261Y-99433489D01*
X194830264Y-99433501D01*
X194890602Y-99579172D01*
X194890609Y-99579185D01*
X194978210Y-99710288D01*
X194978213Y-99710292D01*
X195089707Y-99821786D01*
X195089711Y-99821789D01*
X195220814Y-99909390D01*
X195220827Y-99909397D01*
X195342725Y-99959888D01*
X195366503Y-99969737D01*
X195516131Y-99999500D01*
X195521153Y-100000499D01*
X195521156Y-100000500D01*
X195521158Y-100000500D01*
X195678844Y-100000500D01*
X195678845Y-100000499D01*
X195833497Y-99969737D01*
X195979179Y-99909394D01*
X196110289Y-99821789D01*
X196221789Y-99710289D01*
X196309394Y-99579179D01*
X196309397Y-99579172D01*
X196335439Y-99516301D01*
X196379279Y-99461897D01*
X196445573Y-99439832D01*
X196513273Y-99457111D01*
X196560884Y-99508248D01*
X196564561Y-99516301D01*
X196590602Y-99579172D01*
X196590609Y-99579185D01*
X196678210Y-99710288D01*
X196678213Y-99710292D01*
X196789707Y-99821786D01*
X196789711Y-99821789D01*
X196920814Y-99909390D01*
X196920827Y-99909397D01*
X197042725Y-99959888D01*
X197066503Y-99969737D01*
X197216131Y-99999500D01*
X197221153Y-100000499D01*
X197221156Y-100000500D01*
X197221158Y-100000500D01*
X197378844Y-100000500D01*
X197378845Y-100000499D01*
X197533497Y-99969737D01*
X197679179Y-99909394D01*
X197810289Y-99821789D01*
X197921789Y-99710289D01*
X198009394Y-99579179D01*
X198069737Y-99433497D01*
X198100500Y-99278842D01*
X198100500Y-99121158D01*
X198100500Y-99121155D01*
X198100499Y-99121153D01*
X198069738Y-98966510D01*
X198069737Y-98966503D01*
X198067113Y-98960167D01*
X198009397Y-98820827D01*
X198009390Y-98820814D01*
X197921789Y-98689711D01*
X197921786Y-98689707D01*
X197810292Y-98578213D01*
X197810288Y-98578210D01*
X197679185Y-98490609D01*
X197679172Y-98490602D01*
X197533501Y-98430264D01*
X197533489Y-98430261D01*
X197378845Y-98399500D01*
X197378842Y-98399500D01*
X197221158Y-98399500D01*
X197221155Y-98399500D01*
X197066510Y-98430261D01*
X197066498Y-98430264D01*
X196920827Y-98490602D01*
X196920814Y-98490609D01*
X196789711Y-98578210D01*
X196789707Y-98578213D01*
X196678213Y-98689707D01*
X196678210Y-98689711D01*
X196590609Y-98820814D01*
X196590604Y-98820823D01*
X196564561Y-98883699D01*
X196520720Y-98938102D01*
X196454426Y-98960167D01*
X196386727Y-98942888D01*
X196339116Y-98891751D01*
X196335439Y-98883699D01*
X196309395Y-98820823D01*
X196309390Y-98820814D01*
X196221789Y-98689711D01*
X196221786Y-98689707D01*
X196110292Y-98578213D01*
X196110288Y-98578210D01*
X195979185Y-98490609D01*
X195979172Y-98490602D01*
X195833501Y-98430264D01*
X195833489Y-98430261D01*
X195678845Y-98399500D01*
X195678842Y-98399500D01*
X195521158Y-98399500D01*
X195521155Y-98399500D01*
X195366510Y-98430261D01*
X195366498Y-98430264D01*
X195220827Y-98490602D01*
X195220814Y-98490609D01*
X195089711Y-98578210D01*
X195089707Y-98578213D01*
X194978213Y-98689707D01*
X194978210Y-98689711D01*
X194890609Y-98820814D01*
X194890602Y-98820827D01*
X194830264Y-98966498D01*
X194830261Y-98966510D01*
X194799500Y-99121153D01*
X180680608Y-99121153D01*
X180669737Y-99066503D01*
X180625692Y-98960167D01*
X180609397Y-98920827D01*
X180609390Y-98920814D01*
X180521789Y-98789711D01*
X180521786Y-98789707D01*
X180410292Y-98678213D01*
X180410288Y-98678210D01*
X180279185Y-98590609D01*
X180279172Y-98590602D01*
X180143645Y-98534466D01*
X180089241Y-98490625D01*
X180088039Y-98488861D01*
X180021789Y-98389711D01*
X180021787Y-98389708D01*
X179910292Y-98278213D01*
X179910288Y-98278210D01*
X179779185Y-98190609D01*
X179779172Y-98190602D01*
X179633501Y-98130264D01*
X179633489Y-98130261D01*
X179478845Y-98099500D01*
X179478842Y-98099500D01*
X179321158Y-98099500D01*
X179321155Y-98099500D01*
X179166510Y-98130261D01*
X179166498Y-98130264D01*
X179020827Y-98190602D01*
X179020814Y-98190609D01*
X178889711Y-98278210D01*
X178889707Y-98278213D01*
X178778213Y-98389707D01*
X178778210Y-98389711D01*
X178736100Y-98452734D01*
X178682488Y-98497539D01*
X178613163Y-98506246D01*
X178608806Y-98505460D01*
X178578844Y-98499500D01*
X178578842Y-98499500D01*
X178421158Y-98499500D01*
X178421155Y-98499500D01*
X178266510Y-98530261D01*
X178266498Y-98530264D01*
X178120827Y-98590602D01*
X178120814Y-98590609D01*
X177989711Y-98678210D01*
X177989707Y-98678213D01*
X177878213Y-98789707D01*
X177878210Y-98789711D01*
X177790609Y-98920814D01*
X177790602Y-98920827D01*
X177730264Y-99066498D01*
X177730261Y-99066510D01*
X177699500Y-99221153D01*
X168000500Y-99221153D01*
X168000500Y-97146153D01*
X194149500Y-97146153D01*
X194149500Y-97303846D01*
X194180261Y-97458489D01*
X194180264Y-97458501D01*
X194240602Y-97604172D01*
X194240609Y-97604185D01*
X194328210Y-97735288D01*
X194328213Y-97735292D01*
X194439707Y-97846786D01*
X194439711Y-97846789D01*
X194570814Y-97934390D01*
X194570827Y-97934397D01*
X194716498Y-97994735D01*
X194716503Y-97994737D01*
X194871153Y-98025499D01*
X194871156Y-98025500D01*
X194871158Y-98025500D01*
X195028844Y-98025500D01*
X195028845Y-98025499D01*
X195183497Y-97994737D01*
X195329179Y-97934394D01*
X195460289Y-97846789D01*
X195571789Y-97735289D01*
X195659394Y-97604179D01*
X195719737Y-97458497D01*
X195750500Y-97303842D01*
X195750500Y-97146158D01*
X195750500Y-97146155D01*
X195750499Y-97146153D01*
X195729325Y-97039707D01*
X195719737Y-96991503D01*
X195693521Y-96928211D01*
X195659397Y-96845827D01*
X195659390Y-96845814D01*
X195571789Y-96714711D01*
X195571786Y-96714707D01*
X195460292Y-96603213D01*
X195460288Y-96603210D01*
X195329185Y-96515609D01*
X195329172Y-96515602D01*
X195183501Y-96455264D01*
X195183489Y-96455261D01*
X195028845Y-96424500D01*
X195028842Y-96424500D01*
X194871158Y-96424500D01*
X194871155Y-96424500D01*
X194716510Y-96455261D01*
X194716498Y-96455264D01*
X194570827Y-96515602D01*
X194570814Y-96515609D01*
X194439711Y-96603210D01*
X194439707Y-96603213D01*
X194328213Y-96714707D01*
X194328210Y-96714711D01*
X194240609Y-96845814D01*
X194240602Y-96845827D01*
X194180264Y-96991498D01*
X194180261Y-96991510D01*
X194149500Y-97146153D01*
X168000500Y-97146153D01*
X168000500Y-95971153D01*
X176274500Y-95971153D01*
X176274500Y-96128846D01*
X176305261Y-96283489D01*
X176305264Y-96283501D01*
X176365602Y-96429172D01*
X176365609Y-96429185D01*
X176453210Y-96560288D01*
X176453213Y-96560292D01*
X176564707Y-96671786D01*
X176564711Y-96671789D01*
X176695814Y-96759390D01*
X176695827Y-96759397D01*
X176841498Y-96819735D01*
X176841503Y-96819737D01*
X176996153Y-96850499D01*
X176996156Y-96850500D01*
X176996158Y-96850500D01*
X177153844Y-96850500D01*
X177153845Y-96850499D01*
X177308497Y-96819737D01*
X177454179Y-96759394D01*
X177585289Y-96671789D01*
X177696789Y-96560289D01*
X177784394Y-96429179D01*
X177844737Y-96283497D01*
X177875500Y-96128842D01*
X177875500Y-95971158D01*
X177875500Y-95971155D01*
X177875499Y-95971153D01*
X177855326Y-95869737D01*
X177844737Y-95816503D01*
X177829777Y-95780386D01*
X177784397Y-95670827D01*
X177784390Y-95670814D01*
X177696789Y-95539711D01*
X177696786Y-95539707D01*
X177585292Y-95428213D01*
X177585288Y-95428210D01*
X177462482Y-95346153D01*
X190574500Y-95346153D01*
X190574500Y-95503846D01*
X190605261Y-95658489D01*
X190605264Y-95658501D01*
X190665602Y-95804172D01*
X190665609Y-95804185D01*
X190753210Y-95935288D01*
X190753213Y-95935292D01*
X190864707Y-96046786D01*
X190864711Y-96046789D01*
X190995814Y-96134390D01*
X190995827Y-96134397D01*
X191141498Y-96194735D01*
X191141503Y-96194737D01*
X191277487Y-96221786D01*
X191296153Y-96225499D01*
X191296156Y-96225500D01*
X191296158Y-96225500D01*
X191453844Y-96225500D01*
X191453845Y-96225499D01*
X191608497Y-96194737D01*
X191754179Y-96134394D01*
X191885289Y-96046789D01*
X191996789Y-95935289D01*
X192084394Y-95804179D01*
X192144737Y-95658497D01*
X192175500Y-95503842D01*
X192175500Y-95346158D01*
X192175500Y-95346155D01*
X192175499Y-95346153D01*
X192162393Y-95280264D01*
X192144737Y-95191503D01*
X192084394Y-95045821D01*
X192084391Y-95045816D01*
X192084390Y-95045814D01*
X192067912Y-95021153D01*
X192399500Y-95021153D01*
X192399500Y-95178846D01*
X192430261Y-95333489D01*
X192430264Y-95333501D01*
X192490602Y-95479172D01*
X192490609Y-95479185D01*
X192578210Y-95610288D01*
X192578213Y-95610292D01*
X192689707Y-95721786D01*
X192689711Y-95721789D01*
X192820814Y-95809390D01*
X192820827Y-95809397D01*
X192966498Y-95869735D01*
X192966503Y-95869737D01*
X193121153Y-95900499D01*
X193121156Y-95900500D01*
X193121158Y-95900500D01*
X193278844Y-95900500D01*
X193278845Y-95900499D01*
X193433497Y-95869737D01*
X193579179Y-95809394D01*
X193710289Y-95721789D01*
X193821789Y-95610289D01*
X193881348Y-95521153D01*
X201527347Y-95521153D01*
X201527347Y-95678846D01*
X201558108Y-95833489D01*
X201558111Y-95833501D01*
X201618449Y-95979172D01*
X201618456Y-95979185D01*
X201706057Y-96110288D01*
X201706060Y-96110292D01*
X201817554Y-96221786D01*
X201817558Y-96221789D01*
X201891621Y-96271277D01*
X201936426Y-96324889D01*
X201945133Y-96394214D01*
X201925832Y-96443270D01*
X201840609Y-96570814D01*
X201840602Y-96570827D01*
X201780264Y-96716498D01*
X201780261Y-96716510D01*
X201749500Y-96871153D01*
X201749500Y-97028846D01*
X201780261Y-97183489D01*
X201780264Y-97183501D01*
X201840602Y-97329172D01*
X201840609Y-97329185D01*
X201928210Y-97460288D01*
X201928213Y-97460292D01*
X202039707Y-97571786D01*
X202039711Y-97571789D01*
X202170814Y-97659390D01*
X202170827Y-97659397D01*
X202316498Y-97719735D01*
X202316503Y-97719737D01*
X202471153Y-97750499D01*
X202471156Y-97750500D01*
X202471158Y-97750500D01*
X202628844Y-97750500D01*
X202628845Y-97750499D01*
X202783497Y-97719737D01*
X202929179Y-97659394D01*
X203060289Y-97571789D01*
X203060292Y-97571786D01*
X203137819Y-97494260D01*
X203199142Y-97460775D01*
X203268834Y-97465759D01*
X203324767Y-97507631D01*
X203349184Y-97573095D01*
X203349500Y-97581941D01*
X203349500Y-97628846D01*
X203380261Y-97783489D01*
X203380264Y-97783501D01*
X203440602Y-97929172D01*
X203440609Y-97929185D01*
X203528210Y-98060288D01*
X203528213Y-98060292D01*
X203639707Y-98171786D01*
X203639711Y-98171789D01*
X203770814Y-98259390D01*
X203770827Y-98259397D01*
X203816254Y-98278213D01*
X203916503Y-98319737D01*
X204071153Y-98350499D01*
X204071156Y-98350500D01*
X204071158Y-98350500D01*
X204228844Y-98350500D01*
X204228845Y-98350499D01*
X204383497Y-98319737D01*
X204529179Y-98259394D01*
X204660289Y-98171789D01*
X204771789Y-98060289D01*
X204859394Y-97929179D01*
X204919737Y-97783497D01*
X204950500Y-97628842D01*
X204950500Y-97471158D01*
X204950500Y-97471155D01*
X204950499Y-97471153D01*
X204947980Y-97458489D01*
X204919737Y-97316503D01*
X204914493Y-97303842D01*
X204859397Y-97170827D01*
X204859390Y-97170814D01*
X204771789Y-97039711D01*
X204771786Y-97039707D01*
X204660292Y-96928213D01*
X204660288Y-96928210D01*
X204529185Y-96840609D01*
X204529172Y-96840602D01*
X204383501Y-96780264D01*
X204383489Y-96780261D01*
X204228845Y-96749500D01*
X204228842Y-96749500D01*
X204071158Y-96749500D01*
X204071155Y-96749500D01*
X203916510Y-96780261D01*
X203916498Y-96780264D01*
X203770827Y-96840602D01*
X203770814Y-96840609D01*
X203639711Y-96928210D01*
X203639707Y-96928213D01*
X203562181Y-97005740D01*
X203500858Y-97039225D01*
X203431166Y-97034241D01*
X203375233Y-96992369D01*
X203350816Y-96926905D01*
X203350500Y-96918059D01*
X203350500Y-96871155D01*
X203350499Y-96871153D01*
X203328269Y-96759397D01*
X203319737Y-96716503D01*
X203307800Y-96687686D01*
X203300332Y-96618219D01*
X203331607Y-96555740D01*
X203391695Y-96520087D01*
X203422362Y-96516235D01*
X203438109Y-96516235D01*
X203438110Y-96516234D01*
X203592762Y-96485472D01*
X203728652Y-96429185D01*
X203738437Y-96425132D01*
X203738437Y-96425131D01*
X203738444Y-96425129D01*
X203869554Y-96337524D01*
X203981054Y-96226024D01*
X204068659Y-96094914D01*
X204129002Y-95949232D01*
X204159765Y-95794577D01*
X204159765Y-95780386D01*
X204179450Y-95713347D01*
X204232254Y-95667592D01*
X204301412Y-95657648D01*
X204307953Y-95658768D01*
X204317312Y-95660629D01*
X204332922Y-95663735D01*
X204332923Y-95663735D01*
X204490609Y-95663735D01*
X204490610Y-95663734D01*
X204645262Y-95632972D01*
X204790944Y-95572629D01*
X204922054Y-95485024D01*
X205033554Y-95373524D01*
X205121159Y-95242414D01*
X205181502Y-95096732D01*
X205212265Y-94942077D01*
X205212265Y-94784393D01*
X205212265Y-94784390D01*
X205212264Y-94784388D01*
X205199621Y-94720827D01*
X205181502Y-94629738D01*
X205146880Y-94546153D01*
X206249500Y-94546153D01*
X206249500Y-94703846D01*
X206280261Y-94858489D01*
X206280264Y-94858501D01*
X206340602Y-95004172D01*
X206340609Y-95004185D01*
X206428210Y-95135288D01*
X206428213Y-95135292D01*
X206539707Y-95246786D01*
X206539711Y-95246789D01*
X206670814Y-95334390D01*
X206670827Y-95334397D01*
X206765297Y-95373527D01*
X206816503Y-95394737D01*
X206971153Y-95425499D01*
X206971156Y-95425500D01*
X206971158Y-95425500D01*
X207128844Y-95425500D01*
X207128845Y-95425499D01*
X207283497Y-95394737D01*
X207414182Y-95340606D01*
X207429172Y-95334397D01*
X207429172Y-95334396D01*
X207429179Y-95334394D01*
X207560289Y-95246789D01*
X207671789Y-95135289D01*
X207759394Y-95004179D01*
X207819737Y-94858497D01*
X207850500Y-94703842D01*
X207850500Y-94546158D01*
X207850500Y-94546155D01*
X207850499Y-94546153D01*
X207828090Y-94433497D01*
X207819737Y-94391503D01*
X207819367Y-94390609D01*
X207759397Y-94245827D01*
X207759390Y-94245814D01*
X207671789Y-94114711D01*
X207671786Y-94114707D01*
X207560292Y-94003213D01*
X207560288Y-94003210D01*
X207429185Y-93915609D01*
X207429172Y-93915602D01*
X207283501Y-93855264D01*
X207283489Y-93855261D01*
X207128845Y-93824500D01*
X207128842Y-93824500D01*
X206971158Y-93824500D01*
X206971155Y-93824500D01*
X206816510Y-93855261D01*
X206816498Y-93855264D01*
X206670827Y-93915602D01*
X206670814Y-93915609D01*
X206539711Y-94003210D01*
X206539707Y-94003213D01*
X206428213Y-94114707D01*
X206428210Y-94114711D01*
X206340609Y-94245814D01*
X206340602Y-94245827D01*
X206280264Y-94391498D01*
X206280261Y-94391510D01*
X206249500Y-94546153D01*
X205146880Y-94546153D01*
X205140556Y-94530885D01*
X205121162Y-94484062D01*
X205121155Y-94484049D01*
X205033554Y-94352946D01*
X205033551Y-94352942D01*
X204992507Y-94311898D01*
X204959022Y-94250575D01*
X204964006Y-94180883D01*
X205005878Y-94124950D01*
X205009944Y-94122072D01*
X205010285Y-94121791D01*
X205010289Y-94121789D01*
X205121789Y-94010289D01*
X205209394Y-93879179D01*
X205269737Y-93733497D01*
X205300500Y-93578842D01*
X205300500Y-93421158D01*
X205300500Y-93421155D01*
X205300499Y-93421153D01*
X205273296Y-93284397D01*
X205269737Y-93266503D01*
X205255577Y-93232318D01*
X205209397Y-93120827D01*
X205209390Y-93120814D01*
X205121789Y-92989711D01*
X205121786Y-92989707D01*
X205010292Y-92878213D01*
X205010288Y-92878210D01*
X204879185Y-92790609D01*
X204879172Y-92790602D01*
X204733501Y-92730264D01*
X204733489Y-92730261D01*
X204578845Y-92699500D01*
X204578842Y-92699500D01*
X204444723Y-92699500D01*
X204443965Y-92699277D01*
X204443204Y-92699491D01*
X204410450Y-92689436D01*
X204377684Y-92679815D01*
X204376917Y-92679142D01*
X204376411Y-92678987D01*
X204373947Y-92676537D01*
X204350022Y-92655549D01*
X204345507Y-92650208D01*
X204321789Y-92614711D01*
X204281154Y-92574076D01*
X204281149Y-92574070D01*
X204210292Y-92503213D01*
X204210288Y-92503210D01*
X204199727Y-92496153D01*
X208124500Y-92496153D01*
X208124500Y-92653846D01*
X208155261Y-92808489D01*
X208155264Y-92808501D01*
X208215602Y-92954172D01*
X208215609Y-92954185D01*
X208303210Y-93085288D01*
X208303213Y-93085292D01*
X208414707Y-93196786D01*
X208414711Y-93196789D01*
X208545814Y-93284390D01*
X208545827Y-93284397D01*
X208691498Y-93344735D01*
X208691503Y-93344737D01*
X208846153Y-93375499D01*
X208846156Y-93375500D01*
X208846158Y-93375500D01*
X209003844Y-93375500D01*
X209003845Y-93375499D01*
X209158497Y-93344737D01*
X209304179Y-93284394D01*
X209435289Y-93196789D01*
X209546789Y-93085289D01*
X209634394Y-92954179D01*
X209694737Y-92808497D01*
X209725500Y-92653842D01*
X209725500Y-92496158D01*
X209725500Y-92496155D01*
X209725499Y-92496153D01*
X209712110Y-92428842D01*
X209694737Y-92341503D01*
X209687694Y-92324500D01*
X209634397Y-92195827D01*
X209634390Y-92195814D01*
X209546789Y-92064711D01*
X209546786Y-92064707D01*
X209435292Y-91953213D01*
X209435288Y-91953210D01*
X209304185Y-91865609D01*
X209304172Y-91865602D01*
X209158501Y-91805264D01*
X209158489Y-91805261D01*
X209003845Y-91774500D01*
X209003842Y-91774500D01*
X208846158Y-91774500D01*
X208846155Y-91774500D01*
X208691510Y-91805261D01*
X208691498Y-91805264D01*
X208545827Y-91865602D01*
X208545814Y-91865609D01*
X208414711Y-91953210D01*
X208414707Y-91953213D01*
X208303213Y-92064707D01*
X208303210Y-92064711D01*
X208215609Y-92195814D01*
X208215602Y-92195827D01*
X208155264Y-92341498D01*
X208155261Y-92341510D01*
X208124500Y-92496153D01*
X204199727Y-92496153D01*
X204079185Y-92415609D01*
X204079172Y-92415602D01*
X203933501Y-92355264D01*
X203933489Y-92355261D01*
X203778845Y-92324500D01*
X203778842Y-92324500D01*
X203621158Y-92324500D01*
X203621155Y-92324500D01*
X203466510Y-92355261D01*
X203466498Y-92355264D01*
X203320827Y-92415602D01*
X203320814Y-92415609D01*
X203189711Y-92503210D01*
X203189707Y-92503213D01*
X203078213Y-92614707D01*
X203078210Y-92614711D01*
X202990609Y-92745814D01*
X202990602Y-92745827D01*
X202930264Y-92891498D01*
X202930261Y-92891510D01*
X202899500Y-93046153D01*
X202899500Y-93046158D01*
X202899500Y-93203842D01*
X202899500Y-93203844D01*
X202899499Y-93203844D01*
X202914967Y-93281601D01*
X202908740Y-93351193D01*
X202865877Y-93406370D01*
X202799987Y-93429615D01*
X202769159Y-93427410D01*
X202628846Y-93399500D01*
X202628842Y-93399500D01*
X202471158Y-93399500D01*
X202471155Y-93399500D01*
X202316510Y-93430261D01*
X202316498Y-93430264D01*
X202170827Y-93490602D01*
X202170814Y-93490609D01*
X202039711Y-93578210D01*
X202039707Y-93578213D01*
X201928213Y-93689707D01*
X201928210Y-93689711D01*
X201840609Y-93820814D01*
X201840602Y-93820827D01*
X201780264Y-93966498D01*
X201780261Y-93966510D01*
X201749500Y-94121153D01*
X201749500Y-94278846D01*
X201780261Y-94433489D01*
X201780264Y-94433501D01*
X201840602Y-94579172D01*
X201840609Y-94579185D01*
X201928210Y-94710288D01*
X201928213Y-94710292D01*
X201937656Y-94719735D01*
X201971141Y-94781058D01*
X201966157Y-94850750D01*
X201924285Y-94906683D01*
X201918866Y-94910518D01*
X201817558Y-94978210D01*
X201817554Y-94978213D01*
X201706060Y-95089707D01*
X201706057Y-95089711D01*
X201618456Y-95220814D01*
X201618449Y-95220827D01*
X201558111Y-95366498D01*
X201558108Y-95366510D01*
X201527347Y-95521153D01*
X193881348Y-95521153D01*
X193909394Y-95479179D01*
X193969737Y-95333497D01*
X194000500Y-95178842D01*
X194000500Y-95021158D01*
X194000500Y-95021155D01*
X194000499Y-95021153D01*
X193991957Y-94978210D01*
X193969737Y-94866503D01*
X193969372Y-94865622D01*
X193909397Y-94720827D01*
X193909390Y-94720814D01*
X193821789Y-94589711D01*
X193821786Y-94589707D01*
X193710292Y-94478213D01*
X193710288Y-94478210D01*
X193579185Y-94390609D01*
X193579172Y-94390602D01*
X193433501Y-94330264D01*
X193433489Y-94330261D01*
X193278845Y-94299500D01*
X193278842Y-94299500D01*
X193121158Y-94299500D01*
X193121155Y-94299500D01*
X192966510Y-94330261D01*
X192966498Y-94330264D01*
X192820827Y-94390602D01*
X192820814Y-94390609D01*
X192689711Y-94478210D01*
X192689707Y-94478213D01*
X192578213Y-94589707D01*
X192578210Y-94589711D01*
X192490609Y-94720814D01*
X192490602Y-94720827D01*
X192430264Y-94866498D01*
X192430261Y-94866510D01*
X192399500Y-95021153D01*
X192067912Y-95021153D01*
X191996789Y-94914711D01*
X191996786Y-94914707D01*
X191885292Y-94803213D01*
X191885288Y-94803210D01*
X191754185Y-94715609D01*
X191754172Y-94715602D01*
X191608501Y-94655264D01*
X191608489Y-94655261D01*
X191453845Y-94624500D01*
X191453842Y-94624500D01*
X191296158Y-94624500D01*
X191296155Y-94624500D01*
X191141510Y-94655261D01*
X191141498Y-94655264D01*
X190995827Y-94715602D01*
X190995814Y-94715609D01*
X190864711Y-94803210D01*
X190864707Y-94803213D01*
X190753213Y-94914707D01*
X190753210Y-94914711D01*
X190665609Y-95045814D01*
X190665602Y-95045827D01*
X190605264Y-95191498D01*
X190605261Y-95191510D01*
X190574500Y-95346153D01*
X177462482Y-95346153D01*
X177454185Y-95340609D01*
X177454172Y-95340602D01*
X177308501Y-95280264D01*
X177308489Y-95280261D01*
X177153845Y-95249500D01*
X177153842Y-95249500D01*
X176996158Y-95249500D01*
X176996155Y-95249500D01*
X176841510Y-95280261D01*
X176841498Y-95280264D01*
X176695827Y-95340602D01*
X176695814Y-95340609D01*
X176564711Y-95428210D01*
X176564707Y-95428213D01*
X176453213Y-95539707D01*
X176453210Y-95539711D01*
X176365609Y-95670814D01*
X176365602Y-95670827D01*
X176305264Y-95816498D01*
X176305261Y-95816510D01*
X176274500Y-95971153D01*
X168000500Y-95971153D01*
X168000500Y-93421153D01*
X188199500Y-93421153D01*
X188199500Y-93578846D01*
X188230261Y-93733489D01*
X188230264Y-93733501D01*
X188290602Y-93879172D01*
X188290609Y-93879185D01*
X188378210Y-94010288D01*
X188378213Y-94010292D01*
X188489707Y-94121786D01*
X188489711Y-94121789D01*
X188620814Y-94209390D01*
X188620827Y-94209397D01*
X188720241Y-94250575D01*
X188766503Y-94269737D01*
X188916131Y-94299500D01*
X188921153Y-94300499D01*
X188921156Y-94300500D01*
X188921158Y-94300500D01*
X189078844Y-94300500D01*
X189078845Y-94300499D01*
X189233497Y-94269737D01*
X189379179Y-94209394D01*
X189510289Y-94121789D01*
X189621789Y-94010289D01*
X189709394Y-93879179D01*
X189769737Y-93733497D01*
X189800500Y-93578842D01*
X189800500Y-93421158D01*
X189800500Y-93421155D01*
X189800499Y-93421153D01*
X189773296Y-93284397D01*
X189769737Y-93266503D01*
X189755577Y-93232318D01*
X189709397Y-93120827D01*
X189709390Y-93120814D01*
X189621789Y-92989711D01*
X189621786Y-92989707D01*
X189510292Y-92878213D01*
X189510288Y-92878210D01*
X189379185Y-92790609D01*
X189379172Y-92790602D01*
X189233501Y-92730264D01*
X189233489Y-92730261D01*
X189078845Y-92699500D01*
X189078842Y-92699500D01*
X188921158Y-92699500D01*
X188921155Y-92699500D01*
X188766510Y-92730261D01*
X188766498Y-92730264D01*
X188620827Y-92790602D01*
X188620814Y-92790609D01*
X188489711Y-92878210D01*
X188489707Y-92878213D01*
X188378213Y-92989707D01*
X188378210Y-92989711D01*
X188290609Y-93120814D01*
X188290602Y-93120827D01*
X188230264Y-93266498D01*
X188230261Y-93266510D01*
X188199500Y-93421153D01*
X168000500Y-93421153D01*
X168000500Y-91284388D01*
X190637735Y-91284388D01*
X190637735Y-91442081D01*
X190668496Y-91596724D01*
X190668499Y-91596736D01*
X190728837Y-91742407D01*
X190728844Y-91742420D01*
X190816445Y-91873523D01*
X190816448Y-91873527D01*
X190927942Y-91985021D01*
X190927946Y-91985024D01*
X191059049Y-92072625D01*
X191059062Y-92072632D01*
X191204733Y-92132970D01*
X191204738Y-92132972D01*
X191359388Y-92163734D01*
X191359391Y-92163735D01*
X191359393Y-92163735D01*
X191517079Y-92163735D01*
X191517080Y-92163734D01*
X191671732Y-92132972D01*
X191791391Y-92083408D01*
X191817407Y-92072632D01*
X191817407Y-92072631D01*
X191817414Y-92072629D01*
X191948524Y-91985024D01*
X192060024Y-91873524D01*
X192147629Y-91742414D01*
X192153513Y-91728210D01*
X192187501Y-91646153D01*
X192207972Y-91596732D01*
X192238735Y-91442077D01*
X192238735Y-91310539D01*
X192258420Y-91243500D01*
X192311224Y-91197745D01*
X192362735Y-91186539D01*
X192389882Y-91186539D01*
X192455648Y-91173457D01*
X192525239Y-91179684D01*
X192580417Y-91222546D01*
X192603662Y-91288436D01*
X192587595Y-91356433D01*
X192582943Y-91363964D01*
X192525085Y-91450554D01*
X192525079Y-91450565D01*
X192464741Y-91596236D01*
X192464738Y-91596248D01*
X192433977Y-91750891D01*
X192433977Y-91908584D01*
X192464738Y-92063227D01*
X192464741Y-92063239D01*
X192525079Y-92208910D01*
X192525086Y-92208923D01*
X192612687Y-92340026D01*
X192612690Y-92340030D01*
X192724184Y-92451524D01*
X192724188Y-92451527D01*
X192855291Y-92539128D01*
X192855304Y-92539135D01*
X192939646Y-92574070D01*
X193000980Y-92599475D01*
X193155630Y-92630237D01*
X193155633Y-92630238D01*
X193155635Y-92630238D01*
X193313321Y-92630238D01*
X193313322Y-92630237D01*
X193467974Y-92599475D01*
X193580643Y-92552805D01*
X193613649Y-92539135D01*
X193613649Y-92539134D01*
X193613656Y-92539132D01*
X193744766Y-92451527D01*
X193856266Y-92340027D01*
X193943871Y-92208917D01*
X193949296Y-92195821D01*
X193987252Y-92104185D01*
X194004214Y-92063235D01*
X194034977Y-91908580D01*
X194034977Y-91750896D01*
X194034977Y-91750893D01*
X194034976Y-91750891D01*
X194017744Y-91664257D01*
X194014143Y-91646153D01*
X195924500Y-91646153D01*
X195924500Y-91803846D01*
X195955261Y-91958489D01*
X195955264Y-91958501D01*
X196015602Y-92104172D01*
X196015609Y-92104185D01*
X196103210Y-92235288D01*
X196103213Y-92235292D01*
X196214707Y-92346786D01*
X196214711Y-92346789D01*
X196345814Y-92434390D01*
X196345827Y-92434397D01*
X196491498Y-92494735D01*
X196491503Y-92494737D01*
X196646153Y-92525499D01*
X196646156Y-92525500D01*
X196646158Y-92525500D01*
X196803844Y-92525500D01*
X196803845Y-92525499D01*
X196958497Y-92494737D01*
X197104179Y-92434394D01*
X197235289Y-92346789D01*
X197310925Y-92271153D01*
X197874500Y-92271153D01*
X197874500Y-92428846D01*
X197905261Y-92583489D01*
X197905264Y-92583501D01*
X197965602Y-92729172D01*
X197965609Y-92729185D01*
X198053210Y-92860288D01*
X198053213Y-92860292D01*
X198164707Y-92971786D01*
X198164711Y-92971789D01*
X198295814Y-93059390D01*
X198295827Y-93059397D01*
X198441498Y-93119735D01*
X198441503Y-93119737D01*
X198596153Y-93150499D01*
X198596156Y-93150500D01*
X198596158Y-93150500D01*
X198753844Y-93150500D01*
X198753845Y-93150499D01*
X198908497Y-93119737D01*
X199054179Y-93059394D01*
X199185289Y-92971789D01*
X199191203Y-92965874D01*
X199252523Y-92932388D01*
X199322215Y-92937369D01*
X199367569Y-92969769D01*
X199368776Y-92968563D01*
X199484580Y-93084367D01*
X199484584Y-93084370D01*
X199615687Y-93171971D01*
X199615700Y-93171978D01*
X199761371Y-93232316D01*
X199761376Y-93232318D01*
X199916026Y-93263080D01*
X199916029Y-93263081D01*
X199916031Y-93263081D01*
X200073717Y-93263081D01*
X200073718Y-93263080D01*
X200228370Y-93232318D01*
X200374052Y-93171975D01*
X200505162Y-93084370D01*
X200616662Y-92972870D01*
X200704267Y-92841760D01*
X200764610Y-92696078D01*
X200795373Y-92541423D01*
X200795373Y-92383739D01*
X200795373Y-92383736D01*
X200795372Y-92383734D01*
X200788023Y-92346789D01*
X200764610Y-92229084D01*
X200756254Y-92208910D01*
X200704270Y-92083408D01*
X200704263Y-92083395D01*
X200616662Y-91952292D01*
X200616659Y-91952288D01*
X200567787Y-91903416D01*
X200534302Y-91842093D01*
X200539286Y-91772401D01*
X200581158Y-91716468D01*
X200586578Y-91712632D01*
X200610289Y-91696789D01*
X200721789Y-91585289D01*
X200809394Y-91454179D01*
X200810894Y-91450559D01*
X200855162Y-91343685D01*
X200869737Y-91308497D01*
X200900500Y-91153842D01*
X200900500Y-90996158D01*
X200900500Y-90996155D01*
X200900499Y-90996153D01*
X200869738Y-90841510D01*
X200869737Y-90841503D01*
X200869735Y-90841498D01*
X200809397Y-90695827D01*
X200809390Y-90695814D01*
X200721789Y-90564711D01*
X200721786Y-90564707D01*
X200610292Y-90453213D01*
X200610288Y-90453210D01*
X200479185Y-90365609D01*
X200479172Y-90365602D01*
X200346100Y-90310483D01*
X200333501Y-90305264D01*
X200333489Y-90305261D01*
X200178845Y-90274500D01*
X200178842Y-90274500D01*
X200021158Y-90274500D01*
X200021155Y-90274500D01*
X199866510Y-90305261D01*
X199866498Y-90305264D01*
X199720827Y-90365602D01*
X199720814Y-90365609D01*
X199589711Y-90453210D01*
X199589707Y-90453213D01*
X199478213Y-90564707D01*
X199478210Y-90564711D01*
X199390609Y-90695814D01*
X199390602Y-90695827D01*
X199330264Y-90841498D01*
X199330261Y-90841510D01*
X199299500Y-90996153D01*
X199299500Y-91153846D01*
X199330261Y-91308489D01*
X199330264Y-91308501D01*
X199390602Y-91454172D01*
X199390609Y-91454185D01*
X199478210Y-91585288D01*
X199478213Y-91585292D01*
X199527085Y-91634164D01*
X199560570Y-91695487D01*
X199555586Y-91765179D01*
X199513714Y-91821112D01*
X199508298Y-91824945D01*
X199484585Y-91840790D01*
X199478662Y-91846713D01*
X199417337Y-91880195D01*
X199347646Y-91875207D01*
X199302304Y-91842810D01*
X199301097Y-91844018D01*
X199185292Y-91728213D01*
X199185288Y-91728210D01*
X199054185Y-91640609D01*
X199054172Y-91640602D01*
X198908501Y-91580264D01*
X198908489Y-91580261D01*
X198753845Y-91549500D01*
X198753842Y-91549500D01*
X198596158Y-91549500D01*
X198596155Y-91549500D01*
X198441510Y-91580261D01*
X198441498Y-91580264D01*
X198295827Y-91640602D01*
X198295814Y-91640609D01*
X198164711Y-91728210D01*
X198164707Y-91728213D01*
X198053213Y-91839707D01*
X198053210Y-91839711D01*
X197965609Y-91970814D01*
X197965602Y-91970827D01*
X197905264Y-92116498D01*
X197905261Y-92116510D01*
X197874500Y-92271153D01*
X197310925Y-92271153D01*
X197346789Y-92235289D01*
X197434394Y-92104179D01*
X197494737Y-91958497D01*
X197525500Y-91803842D01*
X197525500Y-91646158D01*
X197525500Y-91646155D01*
X197525499Y-91646153D01*
X197512393Y-91580264D01*
X197494737Y-91491503D01*
X197457860Y-91402475D01*
X197450392Y-91333009D01*
X197457861Y-91307572D01*
X197459106Y-91304564D01*
X197459109Y-91304561D01*
X197519452Y-91158879D01*
X197550215Y-91004224D01*
X197550215Y-90846540D01*
X197550215Y-90846537D01*
X197550214Y-90846535D01*
X197534039Y-90765218D01*
X197519452Y-90691885D01*
X197506262Y-90660041D01*
X197459112Y-90546209D01*
X197459105Y-90546196D01*
X197371504Y-90415093D01*
X197371501Y-90415089D01*
X197260007Y-90303595D01*
X197260003Y-90303592D01*
X197128900Y-90215991D01*
X197128887Y-90215984D01*
X197095148Y-90202009D01*
X204041752Y-90202009D01*
X204041752Y-90359702D01*
X204072513Y-90514345D01*
X204072516Y-90514357D01*
X204132854Y-90660028D01*
X204132861Y-90660041D01*
X204220462Y-90791144D01*
X204220465Y-90791148D01*
X204331959Y-90902642D01*
X204331963Y-90902645D01*
X204463066Y-90990246D01*
X204463079Y-90990253D01*
X204588782Y-91042320D01*
X204608755Y-91050593D01*
X204763405Y-91081355D01*
X204763408Y-91081356D01*
X204763410Y-91081356D01*
X204921096Y-91081356D01*
X204921097Y-91081355D01*
X205075749Y-91050593D01*
X205207180Y-90996153D01*
X205221424Y-90990253D01*
X205221424Y-90990252D01*
X205221431Y-90990250D01*
X205352541Y-90902645D01*
X205464041Y-90791145D01*
X205551646Y-90660035D01*
X205611989Y-90514353D01*
X205642752Y-90359698D01*
X205642752Y-90202014D01*
X205642752Y-90202011D01*
X205642751Y-90202009D01*
X205633529Y-90155646D01*
X205611989Y-90047359D01*
X205611987Y-90047354D01*
X205551649Y-89901683D01*
X205551642Y-89901670D01*
X205464041Y-89770567D01*
X205464038Y-89770563D01*
X205352544Y-89659069D01*
X205352540Y-89659066D01*
X205221437Y-89571465D01*
X205221424Y-89571458D01*
X205075753Y-89511120D01*
X205075741Y-89511117D01*
X204921097Y-89480356D01*
X204921094Y-89480356D01*
X204763410Y-89480356D01*
X204763407Y-89480356D01*
X204608762Y-89511117D01*
X204608750Y-89511120D01*
X204463079Y-89571458D01*
X204463066Y-89571465D01*
X204331963Y-89659066D01*
X204331959Y-89659069D01*
X204220465Y-89770563D01*
X204220462Y-89770567D01*
X204132861Y-89901670D01*
X204132854Y-89901683D01*
X204072516Y-90047354D01*
X204072513Y-90047366D01*
X204041752Y-90202009D01*
X197095148Y-90202009D01*
X196983216Y-90155646D01*
X196983204Y-90155643D01*
X196828560Y-90124882D01*
X196828557Y-90124882D01*
X196670873Y-90124882D01*
X196670870Y-90124882D01*
X196516225Y-90155643D01*
X196516213Y-90155646D01*
X196370542Y-90215984D01*
X196370529Y-90215991D01*
X196239426Y-90303592D01*
X196239422Y-90303595D01*
X196127928Y-90415089D01*
X196127925Y-90415093D01*
X196040324Y-90546196D01*
X196040317Y-90546209D01*
X195979979Y-90691880D01*
X195979976Y-90691892D01*
X195949215Y-90846535D01*
X195949215Y-91004228D01*
X195979976Y-91158871D01*
X195979979Y-91158883D01*
X196016853Y-91247905D01*
X196024322Y-91317374D01*
X196016853Y-91342809D01*
X195955264Y-91491498D01*
X195955261Y-91491510D01*
X195924500Y-91646153D01*
X194014143Y-91646153D01*
X194004215Y-91596246D01*
X194004214Y-91596245D01*
X194004214Y-91596241D01*
X193997595Y-91580261D01*
X193943874Y-91450565D01*
X193943867Y-91450552D01*
X193856266Y-91319449D01*
X193856263Y-91319445D01*
X193744769Y-91207951D01*
X193744765Y-91207948D01*
X193613662Y-91120347D01*
X193613649Y-91120340D01*
X193467978Y-91060002D01*
X193467966Y-91059999D01*
X193313322Y-91029238D01*
X193313319Y-91029238D01*
X193155635Y-91029238D01*
X193089865Y-91042320D01*
X193020274Y-91036091D01*
X192965097Y-90993228D01*
X192941853Y-90927338D01*
X192957921Y-90859341D01*
X192962560Y-90851830D01*
X193020433Y-90765218D01*
X193080776Y-90619536D01*
X193111539Y-90464881D01*
X193111539Y-90307197D01*
X193111539Y-90307194D01*
X193111538Y-90307192D01*
X193111154Y-90305261D01*
X193080776Y-90152542D01*
X193037206Y-90047354D01*
X193020436Y-90006866D01*
X193020429Y-90006853D01*
X192932828Y-89875750D01*
X192932825Y-89875746D01*
X192821331Y-89764252D01*
X192821327Y-89764249D01*
X192690224Y-89676648D01*
X192690211Y-89676641D01*
X192544540Y-89616303D01*
X192544528Y-89616300D01*
X192389884Y-89585539D01*
X192389881Y-89585539D01*
X192232197Y-89585539D01*
X192232194Y-89585539D01*
X192077549Y-89616300D01*
X192077537Y-89616303D01*
X191931866Y-89676641D01*
X191931853Y-89676648D01*
X191800750Y-89764249D01*
X191800746Y-89764252D01*
X191689252Y-89875746D01*
X191689249Y-89875750D01*
X191601648Y-90006853D01*
X191601641Y-90006866D01*
X191541303Y-90152537D01*
X191541300Y-90152549D01*
X191510539Y-90307192D01*
X191510539Y-90438735D01*
X191490854Y-90505774D01*
X191438050Y-90551529D01*
X191386539Y-90562735D01*
X191359390Y-90562735D01*
X191204745Y-90593496D01*
X191204733Y-90593499D01*
X191059062Y-90653837D01*
X191059049Y-90653844D01*
X190927946Y-90741445D01*
X190927942Y-90741448D01*
X190816448Y-90852942D01*
X190816445Y-90852946D01*
X190728844Y-90984049D01*
X190728837Y-90984062D01*
X190668499Y-91129733D01*
X190668496Y-91129745D01*
X190637735Y-91284388D01*
X168000500Y-91284388D01*
X168000500Y-88996153D01*
X185874500Y-88996153D01*
X185874500Y-89153846D01*
X185905261Y-89308489D01*
X185905264Y-89308501D01*
X185965602Y-89454172D01*
X185965609Y-89454185D01*
X186053210Y-89585288D01*
X186053213Y-89585292D01*
X186164707Y-89696786D01*
X186164711Y-89696789D01*
X186295814Y-89784390D01*
X186295827Y-89784397D01*
X186441498Y-89844735D01*
X186441503Y-89844737D01*
X186596153Y-89875499D01*
X186596156Y-89875500D01*
X186596158Y-89875500D01*
X186753844Y-89875500D01*
X186753845Y-89875499D01*
X186908497Y-89844737D01*
X187054179Y-89784394D01*
X187185289Y-89696789D01*
X187296789Y-89585289D01*
X187384394Y-89454179D01*
X187444737Y-89308497D01*
X187475500Y-89153842D01*
X187475500Y-88996158D01*
X187475500Y-88996155D01*
X187475499Y-88996153D01*
X187448474Y-88860292D01*
X187444737Y-88841503D01*
X187398214Y-88729185D01*
X187384397Y-88695827D01*
X187384390Y-88695814D01*
X187296789Y-88564711D01*
X187296786Y-88564707D01*
X187185292Y-88453213D01*
X187185288Y-88453210D01*
X187054185Y-88365609D01*
X187054172Y-88365602D01*
X186908501Y-88305264D01*
X186908489Y-88305261D01*
X186753845Y-88274500D01*
X186753842Y-88274500D01*
X186596158Y-88274500D01*
X186596155Y-88274500D01*
X186441510Y-88305261D01*
X186441498Y-88305264D01*
X186295827Y-88365602D01*
X186295814Y-88365609D01*
X186164711Y-88453210D01*
X186164707Y-88453213D01*
X186053213Y-88564707D01*
X186053210Y-88564711D01*
X185965609Y-88695814D01*
X185965602Y-88695827D01*
X185905264Y-88841498D01*
X185905261Y-88841510D01*
X185874500Y-88996153D01*
X168000500Y-88996153D01*
X168000500Y-88345134D01*
X168020185Y-88278095D01*
X168072989Y-88232340D01*
X168142147Y-88222396D01*
X168171950Y-88230572D01*
X168266503Y-88269737D01*
X168421153Y-88300499D01*
X168421156Y-88300500D01*
X168421158Y-88300500D01*
X168578844Y-88300500D01*
X168578845Y-88300499D01*
X168733497Y-88269737D01*
X168879179Y-88209394D01*
X169010289Y-88121789D01*
X169121789Y-88010289D01*
X169129145Y-87999279D01*
X169146898Y-87972712D01*
X169200510Y-87927906D01*
X169269835Y-87919199D01*
X169332862Y-87949353D01*
X169353102Y-87972712D01*
X169378207Y-88010284D01*
X169378213Y-88010292D01*
X169489707Y-88121786D01*
X169489711Y-88121789D01*
X169620814Y-88209390D01*
X169620827Y-88209397D01*
X169766498Y-88269735D01*
X169766503Y-88269737D01*
X169921153Y-88300499D01*
X169921156Y-88300500D01*
X169921158Y-88300500D01*
X170078844Y-88300500D01*
X170078845Y-88300499D01*
X170226378Y-88271153D01*
X207299500Y-88271153D01*
X207299500Y-88428846D01*
X207330261Y-88583489D01*
X207330264Y-88583501D01*
X207390602Y-88729172D01*
X207390609Y-88729185D01*
X207478210Y-88860288D01*
X207478213Y-88860292D01*
X207589707Y-88971786D01*
X207589711Y-88971789D01*
X207720814Y-89059390D01*
X207720827Y-89059397D01*
X207866498Y-89119735D01*
X207866503Y-89119737D01*
X208021153Y-89150499D01*
X208021156Y-89150500D01*
X208021158Y-89150500D01*
X208178844Y-89150500D01*
X208178845Y-89150499D01*
X208333497Y-89119737D01*
X208479179Y-89059394D01*
X208610289Y-88971789D01*
X208721789Y-88860289D01*
X208809394Y-88729179D01*
X208869737Y-88583497D01*
X208900500Y-88428842D01*
X208900500Y-88271158D01*
X208900500Y-88271155D01*
X208900499Y-88271153D01*
X208893405Y-88235488D01*
X208869737Y-88116503D01*
X208844997Y-88056774D01*
X208809397Y-87970827D01*
X208809390Y-87970814D01*
X208721789Y-87839711D01*
X208721786Y-87839707D01*
X208610292Y-87728213D01*
X208610288Y-87728210D01*
X208479185Y-87640609D01*
X208479172Y-87640602D01*
X208333501Y-87580264D01*
X208333489Y-87580261D01*
X208178845Y-87549500D01*
X208178842Y-87549500D01*
X208021158Y-87549500D01*
X208021155Y-87549500D01*
X207866510Y-87580261D01*
X207866498Y-87580264D01*
X207720827Y-87640602D01*
X207720814Y-87640609D01*
X207589711Y-87728210D01*
X207589707Y-87728213D01*
X207478213Y-87839707D01*
X207478210Y-87839711D01*
X207390609Y-87970814D01*
X207390602Y-87970827D01*
X207330264Y-88116498D01*
X207330261Y-88116510D01*
X207299500Y-88271153D01*
X170226378Y-88271153D01*
X170233497Y-88269737D01*
X170379179Y-88209394D01*
X170510289Y-88121789D01*
X170621789Y-88010289D01*
X170709394Y-87879179D01*
X170769737Y-87733497D01*
X170800500Y-87578842D01*
X170800500Y-87421158D01*
X170800500Y-87421155D01*
X170800499Y-87421153D01*
X170791169Y-87374245D01*
X170787568Y-87356141D01*
X190309488Y-87356141D01*
X190309488Y-87513834D01*
X190340249Y-87668477D01*
X190340252Y-87668489D01*
X190400590Y-87814160D01*
X190400597Y-87814173D01*
X190488198Y-87945276D01*
X190488201Y-87945280D01*
X190599695Y-88056774D01*
X190599699Y-88056777D01*
X190730802Y-88144378D01*
X190730815Y-88144385D01*
X190876486Y-88204723D01*
X190876491Y-88204725D01*
X190965329Y-88222396D01*
X191031141Y-88235487D01*
X191031144Y-88235488D01*
X191031146Y-88235488D01*
X191188832Y-88235488D01*
X191188833Y-88235487D01*
X191343485Y-88204725D01*
X191393443Y-88184031D01*
X191474386Y-88150505D01*
X191489160Y-88144385D01*
X191489160Y-88144384D01*
X191489167Y-88144382D01*
X191620277Y-88056777D01*
X191731777Y-87945277D01*
X191819382Y-87814167D01*
X191879725Y-87668485D01*
X191910488Y-87513830D01*
X191910488Y-87356146D01*
X191910488Y-87356143D01*
X191910487Y-87356141D01*
X191893300Y-87269737D01*
X191879725Y-87201491D01*
X191846712Y-87121789D01*
X191819385Y-87055815D01*
X191819378Y-87055802D01*
X191750214Y-86952291D01*
X191731777Y-86924699D01*
X191731774Y-86924695D01*
X191696566Y-86889487D01*
X193874500Y-86889487D01*
X193874500Y-87047180D01*
X193905261Y-87201823D01*
X193905264Y-87201835D01*
X193965602Y-87347506D01*
X193965609Y-87347519D01*
X194053210Y-87478622D01*
X194053213Y-87478626D01*
X194164707Y-87590120D01*
X194164711Y-87590123D01*
X194295814Y-87677724D01*
X194295827Y-87677731D01*
X194430441Y-87733489D01*
X194441503Y-87738071D01*
X194596153Y-87768833D01*
X194596156Y-87768834D01*
X194596158Y-87768834D01*
X194753844Y-87768834D01*
X194753845Y-87768833D01*
X194908497Y-87738071D01*
X195054179Y-87677728D01*
X195185289Y-87590123D01*
X195296789Y-87478623D01*
X195384394Y-87347513D01*
X195444737Y-87201831D01*
X195475500Y-87047176D01*
X195475500Y-86889492D01*
X195475500Y-86889489D01*
X195475499Y-86889487D01*
X195463226Y-86827789D01*
X195444737Y-86734837D01*
X195440910Y-86725597D01*
X195384397Y-86589161D01*
X195384390Y-86589148D01*
X195296789Y-86458045D01*
X195296786Y-86458041D01*
X195185292Y-86346547D01*
X195185288Y-86346544D01*
X195054185Y-86258943D01*
X195054172Y-86258936D01*
X194908501Y-86198598D01*
X194908489Y-86198595D01*
X194753845Y-86167834D01*
X194753842Y-86167834D01*
X194596158Y-86167834D01*
X194596155Y-86167834D01*
X194441510Y-86198595D01*
X194441498Y-86198598D01*
X194295827Y-86258936D01*
X194295814Y-86258943D01*
X194164711Y-86346544D01*
X194164707Y-86346547D01*
X194053213Y-86458041D01*
X194053210Y-86458045D01*
X193965609Y-86589148D01*
X193965602Y-86589161D01*
X193905264Y-86734832D01*
X193905261Y-86734844D01*
X193874500Y-86889487D01*
X191696566Y-86889487D01*
X191620280Y-86813201D01*
X191620276Y-86813198D01*
X191489173Y-86725597D01*
X191489160Y-86725590D01*
X191343489Y-86665252D01*
X191343477Y-86665249D01*
X191188833Y-86634488D01*
X191188830Y-86634488D01*
X191031146Y-86634488D01*
X191031143Y-86634488D01*
X190876498Y-86665249D01*
X190876486Y-86665252D01*
X190730815Y-86725590D01*
X190730802Y-86725597D01*
X190599699Y-86813198D01*
X190599695Y-86813201D01*
X190488201Y-86924695D01*
X190488198Y-86924699D01*
X190400597Y-87055802D01*
X190400590Y-87055815D01*
X190340252Y-87201486D01*
X190340249Y-87201498D01*
X190309488Y-87356141D01*
X170787568Y-87356141D01*
X170769738Y-87266510D01*
X170769737Y-87266503D01*
X170742946Y-87201823D01*
X170709397Y-87120827D01*
X170709390Y-87120814D01*
X170621789Y-86989711D01*
X170621786Y-86989707D01*
X170510292Y-86878213D01*
X170510288Y-86878210D01*
X170379185Y-86790609D01*
X170379172Y-86790602D01*
X170233501Y-86730264D01*
X170233489Y-86730261D01*
X170078845Y-86699500D01*
X170078842Y-86699500D01*
X169921158Y-86699500D01*
X169921155Y-86699500D01*
X169766510Y-86730261D01*
X169766498Y-86730264D01*
X169620827Y-86790602D01*
X169620814Y-86790609D01*
X169489711Y-86878210D01*
X169489707Y-86878213D01*
X169378213Y-86989707D01*
X169353102Y-87027289D01*
X169299489Y-87072093D01*
X169230164Y-87080800D01*
X169167137Y-87050645D01*
X169146898Y-87027289D01*
X169121786Y-86989707D01*
X169010292Y-86878213D01*
X169010288Y-86878210D01*
X168954893Y-86841196D01*
X168910088Y-86787584D01*
X168901381Y-86718259D01*
X168931536Y-86655231D01*
X168936104Y-86650412D01*
X168970609Y-86615907D01*
X168970612Y-86615904D01*
X169058217Y-86484794D01*
X169118560Y-86339112D01*
X169149323Y-86184457D01*
X169149323Y-86026773D01*
X169149323Y-86026770D01*
X169149322Y-86026768D01*
X169134883Y-85954179D01*
X169118560Y-85872118D01*
X169092204Y-85808489D01*
X169058220Y-85726442D01*
X169058213Y-85726429D01*
X168970612Y-85595326D01*
X168970609Y-85595322D01*
X168871440Y-85496153D01*
X188574500Y-85496153D01*
X188574500Y-85653846D01*
X188605261Y-85808489D01*
X188605264Y-85808501D01*
X188665602Y-85954172D01*
X188665609Y-85954185D01*
X188753210Y-86085288D01*
X188753213Y-86085292D01*
X188864707Y-86196786D01*
X188864711Y-86196789D01*
X188995814Y-86284390D01*
X188995827Y-86284397D01*
X189141498Y-86344735D01*
X189141503Y-86344737D01*
X189296153Y-86375499D01*
X189296156Y-86375500D01*
X189296158Y-86375500D01*
X189453844Y-86375500D01*
X189453845Y-86375499D01*
X189608497Y-86344737D01*
X189754179Y-86284394D01*
X189885289Y-86196789D01*
X189996789Y-86085289D01*
X190084394Y-85954179D01*
X190144737Y-85808497D01*
X190175500Y-85653842D01*
X190175500Y-85565553D01*
X196799500Y-85565553D01*
X196799500Y-85723246D01*
X196830261Y-85877889D01*
X196830264Y-85877901D01*
X196891090Y-86024748D01*
X196898559Y-86094217D01*
X196891090Y-86119652D01*
X196830264Y-86266498D01*
X196830261Y-86266510D01*
X196799500Y-86421153D01*
X196799500Y-86578846D01*
X196830261Y-86733489D01*
X196830264Y-86733501D01*
X196890602Y-86879172D01*
X196890609Y-86879185D01*
X196978210Y-87010288D01*
X196978213Y-87010292D01*
X197089707Y-87121786D01*
X197089711Y-87121789D01*
X197220814Y-87209390D01*
X197220827Y-87209397D01*
X197358683Y-87266498D01*
X197366503Y-87269737D01*
X197521153Y-87300499D01*
X197521156Y-87300500D01*
X197521158Y-87300500D01*
X197678844Y-87300500D01*
X197678845Y-87300499D01*
X197833497Y-87269737D01*
X197979179Y-87209394D01*
X198110289Y-87121789D01*
X198221789Y-87010289D01*
X198309394Y-86879179D01*
X198369737Y-86733497D01*
X198400500Y-86578842D01*
X198400500Y-86421158D01*
X198400500Y-86421155D01*
X198400499Y-86421153D01*
X198373296Y-86284397D01*
X198369737Y-86266503D01*
X198340861Y-86196789D01*
X198308910Y-86119652D01*
X198301441Y-86050183D01*
X198308910Y-86024748D01*
X198369735Y-85877901D01*
X198369737Y-85877897D01*
X198400500Y-85723242D01*
X198400500Y-85565558D01*
X198400500Y-85565555D01*
X198400499Y-85565553D01*
X198369738Y-85410910D01*
X198369737Y-85410903D01*
X198340989Y-85341498D01*
X198309397Y-85265227D01*
X198309390Y-85265214D01*
X198221789Y-85134111D01*
X198221786Y-85134107D01*
X198110292Y-85022613D01*
X198110288Y-85022610D01*
X197979185Y-84935009D01*
X197979172Y-84935002D01*
X197833501Y-84874664D01*
X197833489Y-84874661D01*
X197678845Y-84843900D01*
X197678842Y-84843900D01*
X197521158Y-84843900D01*
X197521155Y-84843900D01*
X197366510Y-84874661D01*
X197366498Y-84874664D01*
X197220827Y-84935002D01*
X197220814Y-84935009D01*
X197089711Y-85022610D01*
X197089707Y-85022613D01*
X196978213Y-85134107D01*
X196978210Y-85134111D01*
X196890609Y-85265214D01*
X196890602Y-85265227D01*
X196830264Y-85410898D01*
X196830261Y-85410910D01*
X196799500Y-85565553D01*
X190175500Y-85565553D01*
X190175500Y-85496158D01*
X190175500Y-85496155D01*
X190175499Y-85496153D01*
X190158543Y-85410910D01*
X190144737Y-85341503D01*
X190144735Y-85341498D01*
X190084397Y-85195827D01*
X190084390Y-85195814D01*
X189996789Y-85064711D01*
X189996786Y-85064707D01*
X189885292Y-84953213D01*
X189885288Y-84953210D01*
X189754185Y-84865609D01*
X189754172Y-84865602D01*
X189608501Y-84805264D01*
X189608489Y-84805261D01*
X189453845Y-84774500D01*
X189453842Y-84774500D01*
X189296158Y-84774500D01*
X189296155Y-84774500D01*
X189141510Y-84805261D01*
X189141498Y-84805264D01*
X188995827Y-84865602D01*
X188995814Y-84865609D01*
X188864711Y-84953210D01*
X188864707Y-84953213D01*
X188753213Y-85064707D01*
X188753210Y-85064711D01*
X188665609Y-85195814D01*
X188665602Y-85195827D01*
X188605264Y-85341498D01*
X188605261Y-85341510D01*
X188574500Y-85496153D01*
X168871440Y-85496153D01*
X168859115Y-85483828D01*
X168859111Y-85483825D01*
X168728008Y-85396224D01*
X168727995Y-85396217D01*
X168582324Y-85335879D01*
X168582312Y-85335876D01*
X168427668Y-85305115D01*
X168427665Y-85305115D01*
X168269981Y-85305115D01*
X168269976Y-85305115D01*
X168148691Y-85329240D01*
X168079099Y-85323013D01*
X168023922Y-85280149D01*
X168000678Y-85214260D01*
X168000500Y-85207623D01*
X168000500Y-83321153D01*
X188899500Y-83321153D01*
X188899500Y-83478846D01*
X188930261Y-83633489D01*
X188930264Y-83633501D01*
X188990602Y-83779172D01*
X188990609Y-83779185D01*
X189078210Y-83910288D01*
X189078213Y-83910292D01*
X189189707Y-84021786D01*
X189189711Y-84021789D01*
X189320814Y-84109390D01*
X189320827Y-84109397D01*
X189466498Y-84169735D01*
X189466503Y-84169737D01*
X189621153Y-84200499D01*
X189621156Y-84200500D01*
X189621158Y-84200500D01*
X189778844Y-84200500D01*
X189778845Y-84200499D01*
X189933497Y-84169737D01*
X190079179Y-84109394D01*
X190210289Y-84021789D01*
X190321789Y-83910289D01*
X190409394Y-83779179D01*
X190469737Y-83633497D01*
X190500500Y-83478842D01*
X190500500Y-83321158D01*
X190500500Y-83321155D01*
X190500499Y-83321153D01*
X190479743Y-83216803D01*
X190480535Y-83207944D01*
X190477555Y-83199563D01*
X190478352Y-83196153D01*
X191874500Y-83196153D01*
X191874500Y-83353846D01*
X191905261Y-83508489D01*
X191905264Y-83508501D01*
X191965602Y-83654172D01*
X191965609Y-83654185D01*
X192053210Y-83785288D01*
X192053213Y-83785292D01*
X192164707Y-83896786D01*
X192164711Y-83896789D01*
X192295814Y-83984390D01*
X192295827Y-83984397D01*
X192386101Y-84021789D01*
X192441503Y-84044737D01*
X192596153Y-84075499D01*
X192596156Y-84075500D01*
X192596158Y-84075500D01*
X192753844Y-84075500D01*
X192753845Y-84075499D01*
X192908497Y-84044737D01*
X193054179Y-83984394D01*
X193185289Y-83896789D01*
X193296789Y-83785289D01*
X193384394Y-83654179D01*
X193444737Y-83508497D01*
X193475500Y-83353842D01*
X193475500Y-83196158D01*
X193475500Y-83196155D01*
X193475499Y-83196153D01*
X193465764Y-83147212D01*
X193444737Y-83041503D01*
X193436170Y-83020821D01*
X193384397Y-82895827D01*
X193384390Y-82895814D01*
X193296789Y-82764711D01*
X193296786Y-82764707D01*
X193185292Y-82653213D01*
X193185288Y-82653210D01*
X193054185Y-82565609D01*
X193054172Y-82565602D01*
X192908501Y-82505264D01*
X192908489Y-82505261D01*
X192753845Y-82474500D01*
X192753842Y-82474500D01*
X192596158Y-82474500D01*
X192596155Y-82474500D01*
X192441510Y-82505261D01*
X192441498Y-82505264D01*
X192295827Y-82565602D01*
X192295814Y-82565609D01*
X192164711Y-82653210D01*
X192164707Y-82653213D01*
X192053213Y-82764707D01*
X192053210Y-82764711D01*
X191965609Y-82895814D01*
X191965602Y-82895827D01*
X191905264Y-83041498D01*
X191905261Y-83041510D01*
X191874500Y-83196153D01*
X190478352Y-83196153D01*
X190483601Y-83173681D01*
X190485970Y-83147212D01*
X190491426Y-83140187D01*
X190493450Y-83131526D01*
X190512527Y-83113024D01*
X190528833Y-83092034D01*
X190538545Y-83087791D01*
X190543607Y-83082883D01*
X190576259Y-83071318D01*
X190576855Y-83071058D01*
X190583497Y-83069737D01*
X190729179Y-83009394D01*
X190860289Y-82921789D01*
X190971789Y-82810289D01*
X191059394Y-82679179D01*
X191119737Y-82533497D01*
X191150500Y-82378842D01*
X191150500Y-82221158D01*
X191150500Y-82221155D01*
X191150499Y-82221153D01*
X191130734Y-82121789D01*
X191119737Y-82066503D01*
X191090010Y-81994735D01*
X191059397Y-81920827D01*
X191059389Y-81920813D01*
X191047819Y-81903497D01*
X191026940Y-81836820D01*
X191045424Y-81769440D01*
X191097402Y-81722749D01*
X191103458Y-81720047D01*
X191129179Y-81709394D01*
X191203566Y-81659689D01*
X191270240Y-81638813D01*
X191337621Y-81657297D01*
X191375557Y-81693903D01*
X191403207Y-81735284D01*
X191403213Y-81735292D01*
X191514707Y-81846786D01*
X191514711Y-81846789D01*
X191645814Y-81934390D01*
X191645827Y-81934397D01*
X191791498Y-81994735D01*
X191791503Y-81994737D01*
X191946153Y-82025499D01*
X191946156Y-82025500D01*
X191946158Y-82025500D01*
X192103844Y-82025500D01*
X192103845Y-82025499D01*
X192258497Y-81994737D01*
X192404179Y-81934394D01*
X192535289Y-81846789D01*
X192646789Y-81735289D01*
X192734394Y-81604179D01*
X192737854Y-81595827D01*
X192773284Y-81510289D01*
X192794737Y-81458497D01*
X192825500Y-81303842D01*
X192825500Y-81146158D01*
X192825500Y-81146155D01*
X192807016Y-81053232D01*
X192807016Y-81053231D01*
X192803415Y-81035127D01*
X193210532Y-81035127D01*
X193210532Y-81192820D01*
X193241293Y-81347463D01*
X193241296Y-81347475D01*
X193301634Y-81493146D01*
X193301641Y-81493159D01*
X193389242Y-81624262D01*
X193389245Y-81624266D01*
X193500739Y-81735760D01*
X193500743Y-81735763D01*
X193631846Y-81823364D01*
X193631859Y-81823371D01*
X193766608Y-81879185D01*
X193777535Y-81883711D01*
X193932185Y-81914473D01*
X193932188Y-81914474D01*
X193932190Y-81914474D01*
X194089876Y-81914474D01*
X194089877Y-81914473D01*
X194244529Y-81883711D01*
X194390211Y-81823368D01*
X194521321Y-81735763D01*
X194632821Y-81624263D01*
X194720426Y-81493153D01*
X194750247Y-81421158D01*
X194750249Y-81421153D01*
X195949500Y-81421153D01*
X195949500Y-81578846D01*
X195980261Y-81733489D01*
X195980264Y-81733501D01*
X196040602Y-81879172D01*
X196040609Y-81879185D01*
X196128210Y-82010288D01*
X196128213Y-82010292D01*
X196239707Y-82121786D01*
X196239711Y-82121789D01*
X196370814Y-82209390D01*
X196370827Y-82209397D01*
X196516498Y-82269735D01*
X196516503Y-82269737D01*
X196671153Y-82300499D01*
X196671156Y-82300500D01*
X196671158Y-82300500D01*
X196828844Y-82300500D01*
X196828845Y-82300499D01*
X196983497Y-82269737D01*
X197129179Y-82209394D01*
X197260289Y-82121789D01*
X197371789Y-82010289D01*
X197448052Y-81896153D01*
X198724500Y-81896153D01*
X198724500Y-82053846D01*
X198755261Y-82208489D01*
X198755264Y-82208501D01*
X198815602Y-82354172D01*
X198815609Y-82354185D01*
X198903210Y-82485288D01*
X198903213Y-82485292D01*
X199014707Y-82596786D01*
X199014711Y-82596789D01*
X199145814Y-82684390D01*
X199145827Y-82684397D01*
X199291498Y-82744735D01*
X199291503Y-82744737D01*
X199446153Y-82775499D01*
X199446156Y-82775500D01*
X199446158Y-82775500D01*
X199603844Y-82775500D01*
X199603845Y-82775499D01*
X199758497Y-82744737D01*
X199889182Y-82690606D01*
X199904172Y-82684397D01*
X199904172Y-82684396D01*
X199904179Y-82684394D01*
X200035289Y-82596789D01*
X200146789Y-82485289D01*
X200234394Y-82354179D01*
X200294737Y-82208497D01*
X200325500Y-82053842D01*
X200325500Y-81896158D01*
X200325500Y-81896155D01*
X200325499Y-81896153D01*
X200311445Y-81825499D01*
X200294737Y-81741503D01*
X200294735Y-81741498D01*
X200234397Y-81595827D01*
X200234390Y-81595814D01*
X200146789Y-81464711D01*
X200146786Y-81464707D01*
X200035292Y-81353213D01*
X200035288Y-81353210D01*
X199904185Y-81265609D01*
X199904172Y-81265602D01*
X199758501Y-81205264D01*
X199758489Y-81205261D01*
X199603845Y-81174500D01*
X199603842Y-81174500D01*
X199446158Y-81174500D01*
X199446155Y-81174500D01*
X199291510Y-81205261D01*
X199291498Y-81205264D01*
X199145827Y-81265602D01*
X199145814Y-81265609D01*
X199014711Y-81353210D01*
X199014707Y-81353213D01*
X198903213Y-81464707D01*
X198903210Y-81464711D01*
X198815609Y-81595814D01*
X198815602Y-81595827D01*
X198755264Y-81741498D01*
X198755261Y-81741510D01*
X198724500Y-81896153D01*
X197448052Y-81896153D01*
X197459394Y-81879179D01*
X197459397Y-81879172D01*
X197474540Y-81842614D01*
X197518798Y-81735763D01*
X197519737Y-81733497D01*
X197550500Y-81578842D01*
X197550500Y-81421158D01*
X197550500Y-81421155D01*
X197550499Y-81421153D01*
X197535843Y-81347475D01*
X197519737Y-81266503D01*
X197519367Y-81265609D01*
X197459397Y-81120827D01*
X197459390Y-81120814D01*
X197371789Y-80989711D01*
X197371786Y-80989707D01*
X197260292Y-80878213D01*
X197260288Y-80878210D01*
X197129185Y-80790609D01*
X197129172Y-80790602D01*
X196983501Y-80730264D01*
X196983489Y-80730261D01*
X196828845Y-80699500D01*
X196828842Y-80699500D01*
X196671158Y-80699500D01*
X196671155Y-80699500D01*
X196516510Y-80730261D01*
X196516498Y-80730264D01*
X196370827Y-80790602D01*
X196370814Y-80790609D01*
X196239711Y-80878210D01*
X196239707Y-80878213D01*
X196128213Y-80989707D01*
X196128210Y-80989711D01*
X196040609Y-81120814D01*
X196040602Y-81120827D01*
X195980264Y-81266498D01*
X195980261Y-81266510D01*
X195949500Y-81421153D01*
X194750249Y-81421153D01*
X194772423Y-81367621D01*
X194772423Y-81367618D01*
X194780769Y-81347471D01*
X194811532Y-81192816D01*
X194811532Y-81035132D01*
X194811532Y-81035129D01*
X194811531Y-81035127D01*
X194802855Y-80991510D01*
X194780769Y-80880477D01*
X194774214Y-80864651D01*
X194720429Y-80734801D01*
X194720422Y-80734788D01*
X194632821Y-80603685D01*
X194632818Y-80603681D01*
X194521324Y-80492187D01*
X194521320Y-80492184D01*
X194390217Y-80404583D01*
X194390204Y-80404576D01*
X194244533Y-80344238D01*
X194244521Y-80344235D01*
X194089877Y-80313474D01*
X194089874Y-80313474D01*
X193932190Y-80313474D01*
X193932187Y-80313474D01*
X193777542Y-80344235D01*
X193777530Y-80344238D01*
X193631859Y-80404576D01*
X193631846Y-80404583D01*
X193500743Y-80492184D01*
X193500739Y-80492187D01*
X193389245Y-80603681D01*
X193389242Y-80603685D01*
X193301641Y-80734788D01*
X193301634Y-80734801D01*
X193241296Y-80880472D01*
X193241293Y-80880484D01*
X193210532Y-81035127D01*
X192803415Y-81035127D01*
X192794738Y-80991510D01*
X192794737Y-80991503D01*
X192775955Y-80946158D01*
X192734397Y-80845827D01*
X192734390Y-80845814D01*
X192646789Y-80714711D01*
X192646786Y-80714707D01*
X192535292Y-80603213D01*
X192535288Y-80603210D01*
X192404185Y-80515609D01*
X192404172Y-80515602D01*
X192258501Y-80455264D01*
X192258494Y-80455262D01*
X192232901Y-80450171D01*
X192170991Y-80417784D01*
X192136418Y-80357068D01*
X192135478Y-80304362D01*
X192150500Y-80228844D01*
X192150500Y-80071155D01*
X192150499Y-80071153D01*
X192119737Y-79916503D01*
X192106808Y-79885289D01*
X192100953Y-79871153D01*
X199949500Y-79871153D01*
X199949500Y-80028846D01*
X199980261Y-80183489D01*
X199980264Y-80183501D01*
X200040602Y-80329172D01*
X200040609Y-80329185D01*
X200128210Y-80460288D01*
X200128213Y-80460292D01*
X200239707Y-80571786D01*
X200239711Y-80571789D01*
X200370814Y-80659390D01*
X200370827Y-80659397D01*
X200467646Y-80699500D01*
X200516503Y-80719737D01*
X200518039Y-80720042D01*
X200518768Y-80720423D01*
X200522338Y-80721507D01*
X200522132Y-80722183D01*
X200579951Y-80752422D01*
X200614530Y-80813135D01*
X200615473Y-80865852D01*
X200599500Y-80946153D01*
X200599500Y-81103846D01*
X200630261Y-81258489D01*
X200630264Y-81258501D01*
X200690602Y-81404172D01*
X200690609Y-81404185D01*
X200778210Y-81535288D01*
X200778213Y-81535292D01*
X200889707Y-81646786D01*
X200889711Y-81646789D01*
X201020814Y-81734390D01*
X201020827Y-81734397D01*
X201105430Y-81769440D01*
X201166503Y-81794737D01*
X201310420Y-81823364D01*
X201321153Y-81825499D01*
X201321156Y-81825500D01*
X201321158Y-81825500D01*
X201478844Y-81825500D01*
X201478845Y-81825499D01*
X201633497Y-81794737D01*
X201777021Y-81735288D01*
X201779172Y-81734397D01*
X201779172Y-81734396D01*
X201779179Y-81734394D01*
X201910289Y-81646789D01*
X202021789Y-81535289D01*
X202109394Y-81404179D01*
X202112574Y-81396503D01*
X202150954Y-81303844D01*
X202169737Y-81258497D01*
X202200500Y-81103842D01*
X202200500Y-80946158D01*
X202200500Y-80946155D01*
X202200499Y-80946153D01*
X202195245Y-80919738D01*
X202169737Y-80791503D01*
X202169367Y-80790609D01*
X202109397Y-80645827D01*
X202109390Y-80645814D01*
X202021789Y-80514711D01*
X202021786Y-80514707D01*
X201910292Y-80403213D01*
X201910288Y-80403210D01*
X201779185Y-80315609D01*
X201779172Y-80315602D01*
X201633501Y-80255264D01*
X201633494Y-80255262D01*
X201631949Y-80254955D01*
X201631214Y-80254570D01*
X201627665Y-80253494D01*
X201627869Y-80252820D01*
X201570039Y-80222568D01*
X201535466Y-80161852D01*
X201534526Y-80109147D01*
X201550500Y-80028842D01*
X201550500Y-79871158D01*
X201550500Y-79871155D01*
X201550499Y-79871153D01*
X201530543Y-79770827D01*
X201519737Y-79716503D01*
X201519735Y-79716498D01*
X201459397Y-79570827D01*
X201459390Y-79570814D01*
X201371789Y-79439711D01*
X201371786Y-79439707D01*
X201260292Y-79328213D01*
X201260288Y-79328210D01*
X201129185Y-79240609D01*
X201129172Y-79240602D01*
X200983501Y-79180264D01*
X200983489Y-79180261D01*
X200828845Y-79149500D01*
X200828842Y-79149500D01*
X200671158Y-79149500D01*
X200671155Y-79149500D01*
X200516510Y-79180261D01*
X200516498Y-79180264D01*
X200370827Y-79240602D01*
X200370814Y-79240609D01*
X200239711Y-79328210D01*
X200239707Y-79328213D01*
X200128213Y-79439707D01*
X200128210Y-79439711D01*
X200040609Y-79570814D01*
X200040602Y-79570827D01*
X199980264Y-79716498D01*
X199980261Y-79716510D01*
X199949500Y-79871153D01*
X192100953Y-79871153D01*
X192059397Y-79770827D01*
X192059390Y-79770814D01*
X191971789Y-79639711D01*
X191971786Y-79639707D01*
X191860292Y-79528213D01*
X191860288Y-79528210D01*
X191729185Y-79440609D01*
X191729172Y-79440602D01*
X191583501Y-79380264D01*
X191583489Y-79380261D01*
X191428845Y-79349500D01*
X191428842Y-79349500D01*
X191271158Y-79349500D01*
X191271155Y-79349500D01*
X191116510Y-79380261D01*
X191116498Y-79380264D01*
X190970827Y-79440602D01*
X190970814Y-79440609D01*
X190839711Y-79528210D01*
X190745695Y-79622226D01*
X190684371Y-79655710D01*
X190614680Y-79650726D01*
X190558747Y-79608854D01*
X190554912Y-79603434D01*
X190521792Y-79553867D01*
X190521786Y-79553859D01*
X190410292Y-79442365D01*
X190410288Y-79442362D01*
X190279185Y-79354761D01*
X190279172Y-79354754D01*
X190133501Y-79294416D01*
X190133489Y-79294413D01*
X189978845Y-79263652D01*
X189978842Y-79263652D01*
X189821158Y-79263652D01*
X189821155Y-79263652D01*
X189666510Y-79294413D01*
X189666498Y-79294416D01*
X189520827Y-79354754D01*
X189520814Y-79354761D01*
X189389711Y-79442362D01*
X189389707Y-79442365D01*
X189278213Y-79553859D01*
X189278210Y-79553863D01*
X189190609Y-79684966D01*
X189190602Y-79684979D01*
X189130264Y-79830650D01*
X189130261Y-79830662D01*
X189099500Y-79985305D01*
X189099500Y-80142998D01*
X189130261Y-80297641D01*
X189130264Y-80297653D01*
X189190602Y-80443324D01*
X189190609Y-80443337D01*
X189278210Y-80574440D01*
X189278213Y-80574444D01*
X189389707Y-80685938D01*
X189389711Y-80685941D01*
X189520814Y-80773542D01*
X189520827Y-80773549D01*
X189666498Y-80833887D01*
X189666503Y-80833889D01*
X189794740Y-80859397D01*
X189821153Y-80864651D01*
X189821156Y-80864652D01*
X189821158Y-80864652D01*
X189825500Y-80864652D01*
X189892539Y-80884337D01*
X189938294Y-80937141D01*
X189949500Y-80988652D01*
X189949500Y-81078846D01*
X189980261Y-81233489D01*
X189980264Y-81233501D01*
X190040602Y-81379172D01*
X190040609Y-81379185D01*
X190052181Y-81396503D01*
X190073059Y-81463180D01*
X190054575Y-81530560D01*
X190002596Y-81577251D01*
X189996535Y-81579954D01*
X189970823Y-81590604D01*
X189970814Y-81590609D01*
X189839711Y-81678210D01*
X189839707Y-81678213D01*
X189728213Y-81789707D01*
X189728210Y-81789711D01*
X189640609Y-81920814D01*
X189640602Y-81920827D01*
X189580264Y-82066498D01*
X189580261Y-82066510D01*
X189549500Y-82221153D01*
X189549500Y-82378846D01*
X189570256Y-82483195D01*
X189564029Y-82552787D01*
X189521165Y-82607964D01*
X189472840Y-82629002D01*
X189466505Y-82630262D01*
X189466498Y-82630264D01*
X189320827Y-82690602D01*
X189320814Y-82690609D01*
X189189711Y-82778210D01*
X189189707Y-82778213D01*
X189078213Y-82889707D01*
X189078210Y-82889711D01*
X188990609Y-83020814D01*
X188990602Y-83020827D01*
X188930264Y-83166498D01*
X188930261Y-83166510D01*
X188899500Y-83321153D01*
X168000500Y-83321153D01*
X168000500Y-79296153D01*
X180474500Y-79296153D01*
X180474500Y-79453846D01*
X180505261Y-79608489D01*
X180505264Y-79608501D01*
X180565602Y-79754172D01*
X180565609Y-79754185D01*
X180653210Y-79885288D01*
X180653213Y-79885292D01*
X180764707Y-79996786D01*
X180764711Y-79996789D01*
X180895814Y-80084390D01*
X180895827Y-80084397D01*
X181041498Y-80144735D01*
X181041503Y-80144737D01*
X181196153Y-80175499D01*
X181196156Y-80175500D01*
X181196158Y-80175500D01*
X181353844Y-80175500D01*
X181353845Y-80175499D01*
X181508497Y-80144737D01*
X181654179Y-80084394D01*
X181673996Y-80071153D01*
X186099500Y-80071153D01*
X186099500Y-80228846D01*
X186130261Y-80383489D01*
X186130264Y-80383501D01*
X186190602Y-80529172D01*
X186190609Y-80529185D01*
X186278210Y-80660288D01*
X186278213Y-80660292D01*
X186389707Y-80771786D01*
X186389711Y-80771789D01*
X186520814Y-80859390D01*
X186520827Y-80859397D01*
X186666498Y-80919735D01*
X186666503Y-80919737D01*
X186821153Y-80950499D01*
X186821156Y-80950500D01*
X186821158Y-80950500D01*
X186978844Y-80950500D01*
X186978845Y-80950499D01*
X187133497Y-80919737D01*
X187266485Y-80864652D01*
X187279172Y-80859397D01*
X187279172Y-80859396D01*
X187279179Y-80859394D01*
X187410289Y-80771789D01*
X187521789Y-80660289D01*
X187609394Y-80529179D01*
X187615389Y-80514707D01*
X187642120Y-80450171D01*
X187669737Y-80383497D01*
X187700500Y-80228842D01*
X187700500Y-80071158D01*
X187700500Y-80071155D01*
X187700499Y-80071153D01*
X187669737Y-79916503D01*
X187656808Y-79885289D01*
X187609397Y-79770827D01*
X187609387Y-79770809D01*
X187574639Y-79718804D01*
X187553761Y-79652127D01*
X187572246Y-79584747D01*
X187574639Y-79581023D01*
X187581456Y-79570821D01*
X187659394Y-79454179D01*
X187664288Y-79442365D01*
X187690011Y-79380263D01*
X187719737Y-79308497D01*
X187750500Y-79153842D01*
X187750500Y-78996158D01*
X187750500Y-78996155D01*
X187750499Y-78996153D01*
X187728447Y-78885292D01*
X187719737Y-78841503D01*
X187683569Y-78754185D01*
X187659397Y-78695827D01*
X187659390Y-78695814D01*
X187571789Y-78564711D01*
X187571786Y-78564707D01*
X187460292Y-78453213D01*
X187460288Y-78453210D01*
X187329185Y-78365609D01*
X187329172Y-78365602D01*
X187183501Y-78305264D01*
X187183489Y-78305261D01*
X187028845Y-78274500D01*
X187028842Y-78274500D01*
X186871158Y-78274500D01*
X186871155Y-78274500D01*
X186716510Y-78305261D01*
X186716498Y-78305264D01*
X186570827Y-78365602D01*
X186570814Y-78365609D01*
X186439711Y-78453210D01*
X186439707Y-78453213D01*
X186328213Y-78564707D01*
X186328210Y-78564711D01*
X186240609Y-78695814D01*
X186240602Y-78695827D01*
X186180264Y-78841498D01*
X186180261Y-78841510D01*
X186149500Y-78996153D01*
X186149500Y-79153846D01*
X186180261Y-79308489D01*
X186180264Y-79308501D01*
X186240602Y-79454172D01*
X186240608Y-79454183D01*
X186275361Y-79506195D01*
X186296238Y-79572873D01*
X186277753Y-79640253D01*
X186275360Y-79643975D01*
X186190612Y-79770809D01*
X186190602Y-79770827D01*
X186130264Y-79916498D01*
X186130261Y-79916510D01*
X186099500Y-80071153D01*
X181673996Y-80071153D01*
X181785289Y-79996789D01*
X181785292Y-79996786D01*
X181804694Y-79977385D01*
X181896786Y-79885292D01*
X181896789Y-79885289D01*
X181984394Y-79754179D01*
X182044737Y-79608497D01*
X182075500Y-79453842D01*
X182075500Y-79296158D01*
X182075500Y-79296155D01*
X182075499Y-79296153D01*
X182069034Y-79263652D01*
X182044737Y-79141503D01*
X181984534Y-78996158D01*
X181984397Y-78995827D01*
X181984390Y-78995814D01*
X181896789Y-78864711D01*
X181896786Y-78864707D01*
X181785292Y-78753213D01*
X181785288Y-78753210D01*
X181654185Y-78665609D01*
X181654172Y-78665602D01*
X181508501Y-78605264D01*
X181508489Y-78605261D01*
X181353845Y-78574500D01*
X181353842Y-78574500D01*
X181196158Y-78574500D01*
X181196155Y-78574500D01*
X181041510Y-78605261D01*
X181041498Y-78605264D01*
X180895827Y-78665602D01*
X180895814Y-78665609D01*
X180764711Y-78753210D01*
X180764707Y-78753213D01*
X180653213Y-78864707D01*
X180653210Y-78864711D01*
X180565609Y-78995814D01*
X180565602Y-78995827D01*
X180505264Y-79141498D01*
X180505261Y-79141510D01*
X180474500Y-79296153D01*
X168000500Y-79296153D01*
X168000500Y-77296153D01*
X187499500Y-77296153D01*
X187499500Y-77453846D01*
X187530261Y-77608489D01*
X187530264Y-77608501D01*
X187590602Y-77754172D01*
X187590609Y-77754185D01*
X187678210Y-77885288D01*
X187678213Y-77885292D01*
X187789707Y-77996786D01*
X187789711Y-77996789D01*
X187920814Y-78084390D01*
X187920827Y-78084397D01*
X188058683Y-78141498D01*
X188066503Y-78144737D01*
X188221153Y-78175499D01*
X188221156Y-78175500D01*
X188221158Y-78175500D01*
X188378844Y-78175500D01*
X188378845Y-78175499D01*
X188533497Y-78144737D01*
X188679179Y-78084394D01*
X188810289Y-77996789D01*
X188921789Y-77885289D01*
X189009394Y-77754179D01*
X189069737Y-77608497D01*
X189100500Y-77453842D01*
X189100500Y-77296158D01*
X189100500Y-77296155D01*
X189100499Y-77296153D01*
X189073474Y-77160292D01*
X189069737Y-77141503D01*
X189023214Y-77029185D01*
X189009397Y-76995827D01*
X189009390Y-76995814D01*
X188921789Y-76864711D01*
X188921786Y-76864707D01*
X188810292Y-76753213D01*
X188810288Y-76753210D01*
X188679185Y-76665609D01*
X188679173Y-76665602D01*
X188652674Y-76654627D01*
X188533501Y-76605264D01*
X188533489Y-76605261D01*
X188378845Y-76574500D01*
X188378842Y-76574500D01*
X188221158Y-76574500D01*
X188221155Y-76574500D01*
X188066510Y-76605261D01*
X188066498Y-76605264D01*
X187920827Y-76665602D01*
X187920814Y-76665609D01*
X187789711Y-76753210D01*
X187789707Y-76753213D01*
X187678213Y-76864707D01*
X187678210Y-76864711D01*
X187590609Y-76995814D01*
X187590602Y-76995827D01*
X187530264Y-77141498D01*
X187530261Y-77141510D01*
X187499500Y-77296153D01*
X168000500Y-77296153D01*
X168000500Y-76546153D01*
X191049500Y-76546153D01*
X191049500Y-76703846D01*
X191080261Y-76858489D01*
X191080264Y-76858501D01*
X191140602Y-77004172D01*
X191140609Y-77004185D01*
X191228210Y-77135288D01*
X191228213Y-77135292D01*
X191339707Y-77246786D01*
X191339711Y-77246789D01*
X191470814Y-77334390D01*
X191470827Y-77334397D01*
X191616498Y-77394735D01*
X191616503Y-77394737D01*
X191742176Y-77419735D01*
X191771153Y-77425499D01*
X191771156Y-77425500D01*
X191771158Y-77425500D01*
X191928844Y-77425500D01*
X191928845Y-77425499D01*
X192083497Y-77394737D01*
X192196166Y-77348067D01*
X192229172Y-77334397D01*
X192229172Y-77334396D01*
X192229179Y-77334394D01*
X192360289Y-77246789D01*
X192471789Y-77135289D01*
X192559394Y-77004179D01*
X192562854Y-76995827D01*
X192609380Y-76883501D01*
X192619737Y-76858497D01*
X192650500Y-76703842D01*
X192650500Y-76571153D01*
X196119500Y-76571153D01*
X196119500Y-76728846D01*
X196150261Y-76883489D01*
X196150264Y-76883501D01*
X196210602Y-77029172D01*
X196210609Y-77029185D01*
X196298210Y-77160288D01*
X196298213Y-77160292D01*
X196409707Y-77271786D01*
X196409711Y-77271789D01*
X196540814Y-77359390D01*
X196540827Y-77359397D01*
X196686498Y-77419735D01*
X196686503Y-77419737D01*
X196841153Y-77450499D01*
X196841156Y-77450500D01*
X196841158Y-77450500D01*
X196998844Y-77450500D01*
X196998845Y-77450499D01*
X197020694Y-77446153D01*
X201499500Y-77446153D01*
X201499500Y-77603846D01*
X201530261Y-77758489D01*
X201530264Y-77758501D01*
X201590602Y-77904172D01*
X201590609Y-77904185D01*
X201678210Y-78035288D01*
X201678213Y-78035292D01*
X201789707Y-78146786D01*
X201789711Y-78146789D01*
X201920814Y-78234390D01*
X201920827Y-78234397D01*
X202017646Y-78274500D01*
X202066503Y-78294737D01*
X202221153Y-78325499D01*
X202221156Y-78325500D01*
X202221158Y-78325500D01*
X202378844Y-78325500D01*
X202378845Y-78325499D01*
X202526378Y-78296153D01*
X208424500Y-78296153D01*
X208424500Y-78453846D01*
X208455261Y-78608489D01*
X208455264Y-78608501D01*
X208515602Y-78754172D01*
X208515609Y-78754185D01*
X208603210Y-78885288D01*
X208603213Y-78885292D01*
X208714707Y-78996786D01*
X208714711Y-78996789D01*
X208845814Y-79084390D01*
X208845827Y-79084397D01*
X208983683Y-79141498D01*
X208991503Y-79144737D01*
X209146153Y-79175499D01*
X209146156Y-79175500D01*
X209146158Y-79175500D01*
X209303844Y-79175500D01*
X209303845Y-79175499D01*
X209458497Y-79144737D01*
X209604179Y-79084394D01*
X209735289Y-78996789D01*
X209846789Y-78885289D01*
X209934394Y-78754179D01*
X209994737Y-78608497D01*
X210025500Y-78453842D01*
X210025500Y-78296158D01*
X210025500Y-78296155D01*
X210025499Y-78296153D01*
X209995788Y-78146789D01*
X209994737Y-78141503D01*
X209971080Y-78084390D01*
X209934397Y-77995827D01*
X209934390Y-77995814D01*
X209846789Y-77864711D01*
X209846786Y-77864707D01*
X209735292Y-77753213D01*
X209735288Y-77753210D01*
X209604185Y-77665609D01*
X209604172Y-77665602D01*
X209458501Y-77605264D01*
X209458489Y-77605261D01*
X209303845Y-77574500D01*
X209303842Y-77574500D01*
X209146158Y-77574500D01*
X209146155Y-77574500D01*
X208991510Y-77605261D01*
X208991498Y-77605264D01*
X208845827Y-77665602D01*
X208845814Y-77665609D01*
X208714711Y-77753210D01*
X208714707Y-77753213D01*
X208603213Y-77864707D01*
X208603210Y-77864711D01*
X208515609Y-77995814D01*
X208515602Y-77995827D01*
X208455264Y-78141498D01*
X208455261Y-78141510D01*
X208424500Y-78296153D01*
X202526378Y-78296153D01*
X202533497Y-78294737D01*
X202679179Y-78234394D01*
X202679185Y-78234390D01*
X202750164Y-78186964D01*
X202781224Y-78166209D01*
X202810289Y-78146789D01*
X202921789Y-78035289D01*
X203009394Y-77904179D01*
X203069737Y-77758497D01*
X203100500Y-77603842D01*
X203100500Y-77446158D01*
X203100500Y-77446155D01*
X203100499Y-77446153D01*
X203095245Y-77419738D01*
X203069737Y-77291503D01*
X203051215Y-77246786D01*
X203009397Y-77145827D01*
X203009390Y-77145814D01*
X202921789Y-77014711D01*
X202921786Y-77014707D01*
X202810292Y-76903213D01*
X202810288Y-76903210D01*
X202679185Y-76815609D01*
X202679172Y-76815602D01*
X202533501Y-76755264D01*
X202533489Y-76755261D01*
X202378845Y-76724500D01*
X202378842Y-76724500D01*
X202221158Y-76724500D01*
X202221155Y-76724500D01*
X202066510Y-76755261D01*
X202066498Y-76755264D01*
X201920827Y-76815602D01*
X201920814Y-76815609D01*
X201789711Y-76903210D01*
X201789707Y-76903213D01*
X201678213Y-77014707D01*
X201678210Y-77014711D01*
X201590609Y-77145814D01*
X201590602Y-77145827D01*
X201530264Y-77291498D01*
X201530261Y-77291510D01*
X201499500Y-77446153D01*
X197020694Y-77446153D01*
X197153497Y-77419737D01*
X197299179Y-77359394D01*
X197299185Y-77359390D01*
X197332749Y-77336964D01*
X197400792Y-77291498D01*
X197430289Y-77271789D01*
X197541789Y-77160289D01*
X197629394Y-77029179D01*
X197635389Y-77014707D01*
X197681571Y-76903211D01*
X197689737Y-76883497D01*
X197720500Y-76728842D01*
X197720500Y-76571158D01*
X197720500Y-76571155D01*
X197720499Y-76571153D01*
X197715527Y-76546158D01*
X197689737Y-76416503D01*
X197679380Y-76391498D01*
X197629397Y-76270827D01*
X197629390Y-76270814D01*
X197541789Y-76139711D01*
X197541786Y-76139707D01*
X197430292Y-76028213D01*
X197430288Y-76028210D01*
X197299185Y-75940609D01*
X197299172Y-75940602D01*
X197153501Y-75880264D01*
X197153489Y-75880261D01*
X196998845Y-75849500D01*
X196998842Y-75849500D01*
X196841158Y-75849500D01*
X196841155Y-75849500D01*
X196686510Y-75880261D01*
X196686498Y-75880264D01*
X196540827Y-75940602D01*
X196540814Y-75940609D01*
X196409711Y-76028210D01*
X196409707Y-76028213D01*
X196298213Y-76139707D01*
X196298210Y-76139711D01*
X196210609Y-76270814D01*
X196210602Y-76270827D01*
X196150264Y-76416498D01*
X196150261Y-76416510D01*
X196119500Y-76571153D01*
X192650500Y-76571153D01*
X192650500Y-76546158D01*
X192650500Y-76546155D01*
X192650499Y-76546153D01*
X192619738Y-76391510D01*
X192619737Y-76391503D01*
X192569752Y-76270827D01*
X192559397Y-76245827D01*
X192559390Y-76245814D01*
X192471789Y-76114711D01*
X192471786Y-76114707D01*
X192360292Y-76003213D01*
X192360288Y-76003210D01*
X192229185Y-75915609D01*
X192229172Y-75915602D01*
X192083501Y-75855264D01*
X192083489Y-75855261D01*
X191928845Y-75824500D01*
X191928842Y-75824500D01*
X191771158Y-75824500D01*
X191771155Y-75824500D01*
X191616510Y-75855261D01*
X191616498Y-75855264D01*
X191470827Y-75915602D01*
X191470814Y-75915609D01*
X191339711Y-76003210D01*
X191339707Y-76003213D01*
X191228213Y-76114707D01*
X191228210Y-76114711D01*
X191140609Y-76245814D01*
X191140602Y-76245827D01*
X191080264Y-76391498D01*
X191080261Y-76391510D01*
X191049500Y-76546153D01*
X168000500Y-76546153D01*
X168000500Y-72378711D01*
X170649500Y-72378711D01*
X170649500Y-72621288D01*
X170681161Y-72861785D01*
X170743947Y-73096104D01*
X170836773Y-73320205D01*
X170836777Y-73320214D01*
X170841857Y-73329013D01*
X170958064Y-73530289D01*
X170958066Y-73530292D01*
X170958067Y-73530293D01*
X171105733Y-73722736D01*
X171105739Y-73722743D01*
X171277256Y-73894260D01*
X171277263Y-73894266D01*
X171277877Y-73894737D01*
X171469711Y-74041936D01*
X171679788Y-74163224D01*
X171903900Y-74256054D01*
X172138211Y-74318838D01*
X172318586Y-74342584D01*
X172378711Y-74350500D01*
X172378712Y-74350500D01*
X172621289Y-74350500D01*
X172669388Y-74344167D01*
X172861789Y-74318838D01*
X173096100Y-74256054D01*
X173320212Y-74163224D01*
X173414732Y-74108653D01*
X183312000Y-74108653D01*
X183312000Y-74266346D01*
X183342761Y-74420989D01*
X183342764Y-74421001D01*
X183403102Y-74566672D01*
X183403109Y-74566685D01*
X183490710Y-74697788D01*
X183490713Y-74697792D01*
X183602207Y-74809286D01*
X183602211Y-74809289D01*
X183733314Y-74896890D01*
X183733327Y-74896897D01*
X183878998Y-74957235D01*
X183879003Y-74957237D01*
X184033653Y-74987999D01*
X184033656Y-74988000D01*
X184033658Y-74988000D01*
X184191344Y-74988000D01*
X184191345Y-74987999D01*
X184345997Y-74957237D01*
X184491679Y-74896894D01*
X184622789Y-74809289D01*
X184712018Y-74720059D01*
X184773339Y-74686576D01*
X184823890Y-74686125D01*
X184896155Y-74700500D01*
X184896158Y-74700500D01*
X185053844Y-74700500D01*
X185053845Y-74700499D01*
X185208497Y-74669737D01*
X185354179Y-74609394D01*
X185485289Y-74521789D01*
X185596789Y-74410289D01*
X185684394Y-74279179D01*
X185744737Y-74133497D01*
X185775500Y-73978842D01*
X185775500Y-73821158D01*
X185775500Y-73821155D01*
X185775499Y-73821153D01*
X185770495Y-73795997D01*
X185744737Y-73666503D01*
X185731808Y-73635289D01*
X185684397Y-73520827D01*
X185684390Y-73520814D01*
X185596789Y-73389711D01*
X185596786Y-73389707D01*
X185485292Y-73278213D01*
X185485288Y-73278210D01*
X185482210Y-73276153D01*
X186947500Y-73276153D01*
X186947500Y-73433846D01*
X186978261Y-73588489D01*
X186978264Y-73588501D01*
X187038602Y-73734172D01*
X187038609Y-73734185D01*
X187126210Y-73865288D01*
X187126213Y-73865292D01*
X187237710Y-73976789D01*
X187278719Y-74004190D01*
X187368821Y-74064394D01*
X187422953Y-74086815D01*
X187477355Y-74130655D01*
X187499421Y-74196948D01*
X187499500Y-74201376D01*
X187499500Y-74203846D01*
X187530261Y-74358489D01*
X187530264Y-74358501D01*
X187590602Y-74504172D01*
X187590609Y-74504185D01*
X187678210Y-74635288D01*
X187678213Y-74635292D01*
X187789707Y-74746786D01*
X187789711Y-74746789D01*
X187920814Y-74834390D01*
X187920827Y-74834397D01*
X188066498Y-74894735D01*
X188066503Y-74894737D01*
X188221153Y-74925499D01*
X188221156Y-74925500D01*
X188221158Y-74925500D01*
X188378844Y-74925500D01*
X188378845Y-74925499D01*
X188533497Y-74894737D01*
X188679179Y-74834394D01*
X188810289Y-74746789D01*
X188921789Y-74635289D01*
X189009394Y-74504179D01*
X189069737Y-74358497D01*
X189070861Y-74352842D01*
X189103246Y-74290933D01*
X189163961Y-74256358D01*
X189233730Y-74260097D01*
X189252653Y-74269568D01*
X189252946Y-74269021D01*
X189258327Y-74271897D01*
X189403998Y-74332235D01*
X189404003Y-74332237D01*
X189495812Y-74350499D01*
X189558653Y-74362999D01*
X189558656Y-74363000D01*
X189558658Y-74363000D01*
X189716344Y-74363000D01*
X189716345Y-74362999D01*
X189870997Y-74332237D01*
X190016679Y-74271894D01*
X190147789Y-74184289D01*
X190259289Y-74072789D01*
X190346894Y-73941679D01*
X190407237Y-73795997D01*
X190438000Y-73641342D01*
X190438000Y-73483658D01*
X190436896Y-73478109D01*
X190435512Y-73471153D01*
X191024500Y-73471153D01*
X191024500Y-73628846D01*
X191055261Y-73783489D01*
X191055264Y-73783501D01*
X191115602Y-73929172D01*
X191115609Y-73929185D01*
X191203210Y-74060288D01*
X191203213Y-74060292D01*
X191314707Y-74171786D01*
X191314711Y-74171789D01*
X191445814Y-74259390D01*
X191445827Y-74259397D01*
X191591498Y-74319735D01*
X191591503Y-74319737D01*
X191746153Y-74350499D01*
X191746156Y-74350500D01*
X191746158Y-74350500D01*
X191903844Y-74350500D01*
X191903845Y-74350499D01*
X192058497Y-74319737D01*
X192204179Y-74259394D01*
X192335289Y-74171789D01*
X192446789Y-74060289D01*
X192534394Y-73929179D01*
X192594737Y-73783497D01*
X192625500Y-73628842D01*
X192625500Y-73471158D01*
X192625500Y-73471155D01*
X192625499Y-73471153D01*
X192617541Y-73431144D01*
X192594737Y-73316503D01*
X192578026Y-73276158D01*
X192534397Y-73170827D01*
X192534390Y-73170814D01*
X192493058Y-73108957D01*
X192451093Y-73046153D01*
X193999500Y-73046153D01*
X193999500Y-73203846D01*
X194030261Y-73358489D01*
X194030264Y-73358501D01*
X194090602Y-73504172D01*
X194090609Y-73504185D01*
X194178210Y-73635288D01*
X194178213Y-73635292D01*
X194289707Y-73746786D01*
X194289711Y-73746789D01*
X194420814Y-73834390D01*
X194420827Y-73834397D01*
X194565351Y-73894260D01*
X194566503Y-73894737D01*
X194721153Y-73925499D01*
X194721156Y-73925500D01*
X194721158Y-73925500D01*
X194878844Y-73925500D01*
X194878845Y-73925499D01*
X195033497Y-73894737D01*
X195179179Y-73834394D01*
X195310289Y-73746789D01*
X195421789Y-73635289D01*
X195509394Y-73504179D01*
X195569737Y-73358497D01*
X195600500Y-73203842D01*
X195600500Y-73046158D01*
X195600500Y-73046155D01*
X195600499Y-73046153D01*
X195586509Y-72975821D01*
X195569737Y-72891503D01*
X195557429Y-72861789D01*
X195509397Y-72745827D01*
X195509390Y-72745814D01*
X195421789Y-72614711D01*
X195421786Y-72614707D01*
X195310292Y-72503213D01*
X195310288Y-72503210D01*
X195262312Y-72471153D01*
X196799500Y-72471153D01*
X196799500Y-72628846D01*
X196830261Y-72783489D01*
X196830264Y-72783501D01*
X196890602Y-72929172D01*
X196890609Y-72929185D01*
X196978210Y-73060288D01*
X196978213Y-73060292D01*
X197089707Y-73171786D01*
X197089711Y-73171789D01*
X197220814Y-73259390D01*
X197220827Y-73259397D01*
X197358683Y-73316498D01*
X197366503Y-73319737D01*
X197515331Y-73349341D01*
X197521153Y-73350499D01*
X197521156Y-73350500D01*
X197521158Y-73350500D01*
X197678844Y-73350500D01*
X197678845Y-73350499D01*
X197833497Y-73319737D01*
X197979179Y-73259394D01*
X198110289Y-73171789D01*
X198221789Y-73060289D01*
X198309394Y-72929179D01*
X198369737Y-72783497D01*
X198400500Y-72628842D01*
X198400500Y-72471158D01*
X198400500Y-72471155D01*
X198386116Y-72398845D01*
X198386116Y-72398844D01*
X198382111Y-72378711D01*
X205649500Y-72378711D01*
X205649500Y-72621288D01*
X205681161Y-72861785D01*
X205743947Y-73096104D01*
X205836773Y-73320205D01*
X205836777Y-73320214D01*
X205841857Y-73329013D01*
X205958064Y-73530289D01*
X205958066Y-73530292D01*
X205958067Y-73530293D01*
X206105733Y-73722736D01*
X206105739Y-73722743D01*
X206277256Y-73894260D01*
X206277263Y-73894266D01*
X206277877Y-73894737D01*
X206469711Y-74041936D01*
X206679788Y-74163224D01*
X206903900Y-74256054D01*
X207138211Y-74318838D01*
X207318586Y-74342584D01*
X207378711Y-74350500D01*
X207378712Y-74350500D01*
X207621289Y-74350500D01*
X207669388Y-74344167D01*
X207861789Y-74318838D01*
X208096100Y-74256054D01*
X208320212Y-74163224D01*
X208530289Y-74041936D01*
X208722738Y-73894265D01*
X208894265Y-73722738D01*
X209041936Y-73530289D01*
X209163224Y-73320212D01*
X209256054Y-73096100D01*
X209318838Y-72861789D01*
X209350500Y-72621288D01*
X209350500Y-72378712D01*
X209318838Y-72138211D01*
X209256054Y-71903900D01*
X209163224Y-71679788D01*
X209041936Y-71469711D01*
X208972473Y-71379185D01*
X208894266Y-71277263D01*
X208894260Y-71277256D01*
X208722743Y-71105739D01*
X208722736Y-71105733D01*
X208530293Y-70958067D01*
X208530292Y-70958066D01*
X208530289Y-70958064D01*
X208320212Y-70836776D01*
X208320205Y-70836773D01*
X208096104Y-70743947D01*
X207861785Y-70681161D01*
X207621289Y-70649500D01*
X207621288Y-70649500D01*
X207378712Y-70649500D01*
X207378711Y-70649500D01*
X207138214Y-70681161D01*
X206903895Y-70743947D01*
X206679794Y-70836773D01*
X206679785Y-70836777D01*
X206469706Y-70958067D01*
X206277263Y-71105733D01*
X206277256Y-71105739D01*
X206105739Y-71277256D01*
X206105733Y-71277263D01*
X205958067Y-71469706D01*
X205836777Y-71679785D01*
X205836773Y-71679794D01*
X205743947Y-71903895D01*
X205681161Y-72138214D01*
X205649500Y-72378711D01*
X198382111Y-72378711D01*
X198377446Y-72355261D01*
X198369737Y-72316503D01*
X198369735Y-72316498D01*
X198309397Y-72170827D01*
X198309390Y-72170814D01*
X198221789Y-72039711D01*
X198221786Y-72039707D01*
X198110292Y-71928213D01*
X198110288Y-71928210D01*
X197979185Y-71840609D01*
X197979172Y-71840602D01*
X197833501Y-71780264D01*
X197833489Y-71780261D01*
X197678845Y-71749500D01*
X197678842Y-71749500D01*
X197521158Y-71749500D01*
X197521155Y-71749500D01*
X197366510Y-71780261D01*
X197366498Y-71780264D01*
X197220827Y-71840602D01*
X197220814Y-71840609D01*
X197089711Y-71928210D01*
X197089707Y-71928213D01*
X196978213Y-72039707D01*
X196978210Y-72039711D01*
X196890609Y-72170814D01*
X196890602Y-72170827D01*
X196830264Y-72316498D01*
X196830261Y-72316510D01*
X196799500Y-72471153D01*
X195262312Y-72471153D01*
X195179185Y-72415609D01*
X195179172Y-72415602D01*
X195033501Y-72355264D01*
X195033489Y-72355261D01*
X194878845Y-72324500D01*
X194878842Y-72324500D01*
X194721158Y-72324500D01*
X194721155Y-72324500D01*
X194566510Y-72355261D01*
X194566498Y-72355264D01*
X194420827Y-72415602D01*
X194420814Y-72415609D01*
X194289711Y-72503210D01*
X194289707Y-72503213D01*
X194178213Y-72614707D01*
X194178210Y-72614711D01*
X194090609Y-72745814D01*
X194090602Y-72745827D01*
X194030264Y-72891498D01*
X194030261Y-72891510D01*
X193999500Y-73046153D01*
X192451093Y-73046153D01*
X192446789Y-73039711D01*
X192446786Y-73039707D01*
X192335292Y-72928213D01*
X192335287Y-72928209D01*
X192204185Y-72840609D01*
X192204172Y-72840602D01*
X192058501Y-72780264D01*
X192058489Y-72780261D01*
X191903845Y-72749500D01*
X191903842Y-72749500D01*
X191746158Y-72749500D01*
X191746155Y-72749500D01*
X191591510Y-72780261D01*
X191591498Y-72780264D01*
X191445827Y-72840602D01*
X191445814Y-72840609D01*
X191314713Y-72928209D01*
X191314707Y-72928213D01*
X191203213Y-73039707D01*
X191203210Y-73039711D01*
X191115609Y-73170814D01*
X191115602Y-73170827D01*
X191055264Y-73316498D01*
X191055261Y-73316510D01*
X191024500Y-73471153D01*
X190435512Y-73471153D01*
X190414882Y-73367439D01*
X190407237Y-73329003D01*
X190386199Y-73278213D01*
X190346897Y-73183327D01*
X190346890Y-73183314D01*
X190259289Y-73052211D01*
X190259286Y-73052207D01*
X190147792Y-72940713D01*
X190147788Y-72940710D01*
X190016685Y-72853109D01*
X190016672Y-72853102D01*
X189871001Y-72792764D01*
X189870989Y-72792761D01*
X189716345Y-72762000D01*
X189716342Y-72762000D01*
X189558658Y-72762000D01*
X189558655Y-72762000D01*
X189404010Y-72792761D01*
X189403998Y-72792764D01*
X189258327Y-72853102D01*
X189258314Y-72853109D01*
X189127211Y-72940710D01*
X189127207Y-72940713D01*
X189015713Y-73052207D01*
X189015710Y-73052211D01*
X188928109Y-73183314D01*
X188928102Y-73183327D01*
X188867764Y-73328998D01*
X188867760Y-73329013D01*
X188866635Y-73334667D01*
X188834245Y-73396575D01*
X188773526Y-73431144D01*
X188703757Y-73427398D01*
X188684846Y-73417932D01*
X188684554Y-73418479D01*
X188679179Y-73415606D01*
X188625046Y-73393183D01*
X188570643Y-73349341D01*
X188548579Y-73283047D01*
X188548500Y-73278622D01*
X188548500Y-73276155D01*
X188548499Y-73276153D01*
X188531483Y-73190609D01*
X188517737Y-73121503D01*
X188508623Y-73099500D01*
X188457397Y-72975827D01*
X188457390Y-72975814D01*
X188369789Y-72844711D01*
X188369786Y-72844707D01*
X188258292Y-72733213D01*
X188258288Y-72733210D01*
X188127185Y-72645609D01*
X188127172Y-72645602D01*
X187981501Y-72585264D01*
X187981489Y-72585261D01*
X187826845Y-72554500D01*
X187826842Y-72554500D01*
X187669158Y-72554500D01*
X187669155Y-72554500D01*
X187514510Y-72585261D01*
X187514498Y-72585264D01*
X187368827Y-72645602D01*
X187368814Y-72645609D01*
X187237711Y-72733210D01*
X187237707Y-72733213D01*
X187126213Y-72844707D01*
X187126210Y-72844711D01*
X187038609Y-72975814D01*
X187038602Y-72975827D01*
X186978264Y-73121498D01*
X186978261Y-73121510D01*
X186947500Y-73276153D01*
X185482210Y-73276153D01*
X185354185Y-73190609D01*
X185354172Y-73190602D01*
X185208501Y-73130264D01*
X185208489Y-73130261D01*
X185053845Y-73099500D01*
X185053842Y-73099500D01*
X184896158Y-73099500D01*
X184896155Y-73099500D01*
X184741510Y-73130261D01*
X184741498Y-73130264D01*
X184595827Y-73190602D01*
X184595814Y-73190609D01*
X184464711Y-73278210D01*
X184375482Y-73367439D01*
X184314158Y-73400923D01*
X184263611Y-73401375D01*
X184261338Y-73400923D01*
X184222426Y-73393183D01*
X184191342Y-73387000D01*
X184033658Y-73387000D01*
X184033655Y-73387000D01*
X183879010Y-73417761D01*
X183878998Y-73417764D01*
X183733327Y-73478102D01*
X183733314Y-73478109D01*
X183602211Y-73565710D01*
X183602207Y-73565713D01*
X183490713Y-73677207D01*
X183490710Y-73677211D01*
X183403109Y-73808314D01*
X183403102Y-73808327D01*
X183342764Y-73953998D01*
X183342761Y-73954010D01*
X183312000Y-74108653D01*
X173414732Y-74108653D01*
X173530289Y-74041936D01*
X173722738Y-73894265D01*
X173894265Y-73722738D01*
X174041936Y-73530289D01*
X174163224Y-73320212D01*
X174256054Y-73096100D01*
X174318838Y-72861789D01*
X174350500Y-72621288D01*
X174350500Y-72378712D01*
X174318838Y-72138211D01*
X174256054Y-71903900D01*
X174163224Y-71679788D01*
X174041936Y-71469711D01*
X173972473Y-71379185D01*
X173894266Y-71277263D01*
X173894260Y-71277256D01*
X173722743Y-71105739D01*
X173722736Y-71105733D01*
X173530293Y-70958067D01*
X173530292Y-70958066D01*
X173530289Y-70958064D01*
X173320212Y-70836776D01*
X173320205Y-70836773D01*
X173096104Y-70743947D01*
X172861785Y-70681161D01*
X172621289Y-70649500D01*
X172621288Y-70649500D01*
X172378712Y-70649500D01*
X172378711Y-70649500D01*
X172138214Y-70681161D01*
X171903895Y-70743947D01*
X171679794Y-70836773D01*
X171679785Y-70836777D01*
X171469706Y-70958067D01*
X171277263Y-71105733D01*
X171277256Y-71105739D01*
X171105739Y-71277256D01*
X171105733Y-71277263D01*
X170958067Y-71469706D01*
X170836777Y-71679785D01*
X170836773Y-71679794D01*
X170743947Y-71903895D01*
X170681161Y-72138214D01*
X170649500Y-72378711D01*
X168000500Y-72378711D01*
X168000500Y-70421153D01*
X180449500Y-70421153D01*
X180449500Y-70578846D01*
X180480261Y-70733489D01*
X180480264Y-70733501D01*
X180540602Y-70879172D01*
X180540609Y-70879185D01*
X180628210Y-71010288D01*
X180628213Y-71010292D01*
X180739707Y-71121786D01*
X180739711Y-71121789D01*
X180870814Y-71209390D01*
X180870827Y-71209397D01*
X181016498Y-71269735D01*
X181016503Y-71269737D01*
X181171153Y-71300499D01*
X181171156Y-71300500D01*
X181171158Y-71300500D01*
X181328844Y-71300500D01*
X181328845Y-71300499D01*
X181483497Y-71269737D01*
X181629179Y-71209394D01*
X181760289Y-71121789D01*
X181871789Y-71010289D01*
X181931348Y-70921153D01*
X189699500Y-70921153D01*
X189699500Y-71078846D01*
X189730261Y-71233489D01*
X189730264Y-71233501D01*
X189790602Y-71379172D01*
X189790609Y-71379185D01*
X189878210Y-71510288D01*
X189878213Y-71510292D01*
X189989707Y-71621786D01*
X189989711Y-71621789D01*
X190120814Y-71709390D01*
X190120827Y-71709397D01*
X190217646Y-71749500D01*
X190266503Y-71769737D01*
X190421153Y-71800499D01*
X190421156Y-71800500D01*
X190421158Y-71800500D01*
X190578844Y-71800500D01*
X190578845Y-71800499D01*
X190733497Y-71769737D01*
X190879179Y-71709394D01*
X191010289Y-71621789D01*
X191121789Y-71510289D01*
X191209394Y-71379179D01*
X191269737Y-71233497D01*
X191300500Y-71078842D01*
X191300500Y-70921158D01*
X191300500Y-70921155D01*
X191300499Y-70921153D01*
X191283715Y-70836776D01*
X191269737Y-70766503D01*
X191234388Y-70681162D01*
X191209397Y-70620827D01*
X191209390Y-70620814D01*
X191121790Y-70489712D01*
X191121784Y-70489705D01*
X191053232Y-70421153D01*
X192699500Y-70421153D01*
X192699500Y-70578846D01*
X192730261Y-70733489D01*
X192730264Y-70733501D01*
X192790602Y-70879172D01*
X192790609Y-70879185D01*
X192878210Y-71010288D01*
X192878213Y-71010292D01*
X192989707Y-71121786D01*
X192989711Y-71121789D01*
X193120814Y-71209390D01*
X193120827Y-71209397D01*
X193266498Y-71269735D01*
X193266503Y-71269737D01*
X193421153Y-71300499D01*
X193421156Y-71300500D01*
X193421158Y-71300500D01*
X193578844Y-71300500D01*
X193578845Y-71300499D01*
X193733497Y-71269737D01*
X193879179Y-71209394D01*
X194010289Y-71121789D01*
X194121789Y-71010289D01*
X194209394Y-70879179D01*
X194269737Y-70733497D01*
X194282138Y-70671153D01*
X197699500Y-70671153D01*
X197699500Y-70828846D01*
X197730261Y-70983489D01*
X197730264Y-70983501D01*
X197790602Y-71129172D01*
X197790609Y-71129185D01*
X197878210Y-71260288D01*
X197878213Y-71260292D01*
X197989707Y-71371786D01*
X197989711Y-71371789D01*
X198120814Y-71459390D01*
X198120827Y-71459397D01*
X198266498Y-71519735D01*
X198266503Y-71519737D01*
X198421153Y-71550499D01*
X198421156Y-71550500D01*
X198421158Y-71550500D01*
X198578844Y-71550500D01*
X198578845Y-71550499D01*
X198733497Y-71519737D01*
X198879179Y-71459394D01*
X199010289Y-71371789D01*
X199121789Y-71260289D01*
X199209394Y-71129179D01*
X199269737Y-70983497D01*
X199300500Y-70828842D01*
X199300500Y-70671158D01*
X199300500Y-70671155D01*
X199300499Y-70671153D01*
X199269738Y-70516510D01*
X199269737Y-70516503D01*
X199258640Y-70489712D01*
X199209397Y-70370827D01*
X199209390Y-70370814D01*
X199121789Y-70239711D01*
X199121786Y-70239707D01*
X199010292Y-70128213D01*
X199010288Y-70128210D01*
X198879185Y-70040609D01*
X198879172Y-70040602D01*
X198733501Y-69980264D01*
X198733489Y-69980261D01*
X198578845Y-69949500D01*
X198578842Y-69949500D01*
X198421158Y-69949500D01*
X198421155Y-69949500D01*
X198266510Y-69980261D01*
X198266498Y-69980264D01*
X198120827Y-70040602D01*
X198120814Y-70040609D01*
X197989711Y-70128210D01*
X197989707Y-70128213D01*
X197878213Y-70239707D01*
X197878210Y-70239711D01*
X197790609Y-70370814D01*
X197790602Y-70370827D01*
X197730264Y-70516498D01*
X197730261Y-70516510D01*
X197699500Y-70671153D01*
X194282138Y-70671153D01*
X194292151Y-70620814D01*
X194300500Y-70578844D01*
X194300500Y-70421155D01*
X194300499Y-70421153D01*
X194274531Y-70290606D01*
X194269737Y-70266503D01*
X194269735Y-70266498D01*
X194209397Y-70120827D01*
X194209390Y-70120814D01*
X194121789Y-69989711D01*
X194121786Y-69989707D01*
X194010292Y-69878213D01*
X194010288Y-69878210D01*
X193879185Y-69790609D01*
X193879172Y-69790602D01*
X193733501Y-69730264D01*
X193733489Y-69730261D01*
X193578845Y-69699500D01*
X193578842Y-69699500D01*
X193421158Y-69699500D01*
X193421155Y-69699500D01*
X193266510Y-69730261D01*
X193266498Y-69730264D01*
X193120827Y-69790602D01*
X193120814Y-69790609D01*
X192989711Y-69878210D01*
X192989707Y-69878213D01*
X192878213Y-69989707D01*
X192878210Y-69989711D01*
X192790609Y-70120814D01*
X192790602Y-70120827D01*
X192730264Y-70266498D01*
X192730261Y-70266510D01*
X192699500Y-70421153D01*
X191053232Y-70421153D01*
X191010292Y-70378213D01*
X191010288Y-70378210D01*
X190879185Y-70290609D01*
X190879172Y-70290602D01*
X190733501Y-70230264D01*
X190733489Y-70230261D01*
X190578845Y-70199500D01*
X190578842Y-70199500D01*
X190421158Y-70199500D01*
X190421155Y-70199500D01*
X190266510Y-70230261D01*
X190266498Y-70230264D01*
X190120827Y-70290602D01*
X190120814Y-70290609D01*
X189989711Y-70378210D01*
X189989707Y-70378213D01*
X189878213Y-70489707D01*
X189878210Y-70489711D01*
X189790609Y-70620814D01*
X189790602Y-70620827D01*
X189730264Y-70766498D01*
X189730261Y-70766510D01*
X189699500Y-70921153D01*
X181931348Y-70921153D01*
X181959394Y-70879179D01*
X182019737Y-70733497D01*
X182050500Y-70578842D01*
X182050500Y-70421158D01*
X182050500Y-70421155D01*
X182050499Y-70421153D01*
X182024531Y-70290606D01*
X182019737Y-70266503D01*
X182019735Y-70266498D01*
X181959397Y-70120827D01*
X181959390Y-70120814D01*
X181871789Y-69989711D01*
X181871786Y-69989707D01*
X181760292Y-69878213D01*
X181760288Y-69878210D01*
X181629185Y-69790609D01*
X181629172Y-69790602D01*
X181483501Y-69730264D01*
X181483489Y-69730261D01*
X181328845Y-69699500D01*
X181328842Y-69699500D01*
X181171158Y-69699500D01*
X181171155Y-69699500D01*
X181016510Y-69730261D01*
X181016498Y-69730264D01*
X180870827Y-69790602D01*
X180870814Y-69790609D01*
X180739711Y-69878210D01*
X180739707Y-69878213D01*
X180628213Y-69989707D01*
X180628210Y-69989711D01*
X180540609Y-70120814D01*
X180540602Y-70120827D01*
X180480264Y-70266498D01*
X180480261Y-70266510D01*
X180449500Y-70421153D01*
X168000500Y-70421153D01*
X168000500Y-68124500D01*
X168020185Y-68057461D01*
X168072989Y-68011706D01*
X168124500Y-68000500D01*
X211875500Y-68000500D01*
X211942539Y-68020185D01*
G37*
%TD.AperFunction*%
%TD*%
M02*
