%TF.GenerationSoftware,KiCad,Pcbnew,10.0.6*%
%TF.CreationDate,2026-09-24T20:33:40+03:00*%
%TF.ProjectId,drone-fc,64726f6e-652d-4666-932e-6b696361645f,rev?*%
%TF.SameCoordinates,Original*%
%TF.FileFunction,Soldermask,Bot*%
%TF.FilePolarity,Negative*%
%FSLAX46Y46*%
G04 Gerber Fmt 4.6, Leading zero omitted, Abs format (unit mm)*
G04 Created by KiCad (PCBNEW 10.0.6) date 2026-09-24 20:33:40*
%MOMM*%
%LPD*%
G01*
G04 APERTURE LIST*
G04 Aperture macros list*
%AMRoundRect*
0 Rectangle with rounded corners*
0 $1 Rounding radius*
0 $2 $3 $4 $5 $6 $7 $8 $9 X,Y pos of 4 corners*
0 Add a 4 corners polygon primitive as box body*
4,1,4,$2,$3,$4,$5,$6,$7,$8,$9,$2,$3,0*
0 Add four circle primitives for the rounded corners*
1,1,$1+$1,$2,$3*
1,1,$1+$1,$4,$5*
1,1,$1+$1,$6,$7*
1,1,$1+$1,$8,$9*
0 Add four rect primitives between the rounded corners*
20,1,$1+$1,$2,$3,$4,$5,0*
20,1,$1+$1,$4,$5,$6,$7,0*
20,1,$1+$1,$6,$7,$8,$9,0*
20,1,$1+$1,$8,$9,$2,$3,0*%
G04 Aperture macros list end*
%ADD10C,3.200000*%
%ADD11RoundRect,0.140000X-0.140000X-0.170000X0.140000X-0.170000X0.140000X0.170000X-0.140000X0.170000X0*%
%ADD12RoundRect,0.140000X0.170000X-0.140000X0.170000X0.140000X-0.170000X0.140000X-0.170000X-0.140000X0*%
%ADD13C,1.000000*%
%ADD14RoundRect,0.135000X0.135000X0.185000X-0.135000X0.185000X-0.135000X-0.185000X0.135000X-0.185000X0*%
%ADD15RoundRect,0.225000X0.250000X-0.225000X0.250000X0.225000X-0.250000X0.225000X-0.250000X-0.225000X0*%
%ADD16RoundRect,0.135000X-0.135000X-0.185000X0.135000X-0.185000X0.135000X0.185000X-0.135000X0.185000X0*%
%ADD17RoundRect,0.250000X0.475000X-0.250000X0.475000X0.250000X-0.475000X0.250000X-0.475000X-0.250000X0*%
%ADD18RoundRect,0.140000X0.140000X0.170000X-0.140000X0.170000X-0.140000X-0.170000X0.140000X-0.170000X0*%
%ADD19RoundRect,0.250000X-0.250000X-0.475000X0.250000X-0.475000X0.250000X0.475000X-0.250000X0.475000X0*%
%ADD20RoundRect,0.075000X-0.725000X-0.075000X0.725000X-0.075000X0.725000X0.075000X-0.725000X0.075000X0*%
%ADD21RoundRect,0.075000X-0.075000X-0.725000X0.075000X-0.725000X0.075000X0.725000X-0.075000X0.725000X0*%
%ADD22R,3.000000X1.000000*%
%ADD23RoundRect,0.500000X1.500000X-0.500000X1.500000X0.500000X-1.500000X0.500000X-1.500000X-0.500000X0*%
%ADD24RoundRect,0.140000X-0.170000X0.140000X-0.170000X-0.140000X0.170000X-0.140000X0.170000X0.140000X0*%
%ADD25RoundRect,0.135000X0.185000X-0.135000X0.185000X0.135000X-0.185000X0.135000X-0.185000X-0.135000X0*%
%ADD26RoundRect,0.062500X-0.312500X-0.062500X0.312500X-0.062500X0.312500X0.062500X-0.312500X0.062500X0*%
%ADD27R,0.840000X2.400000*%
%ADD28RoundRect,0.062500X0.312500X0.062500X-0.312500X0.062500X-0.312500X-0.062500X0.312500X-0.062500X0*%
%ADD29RoundRect,0.250000X0.350000X-0.650000X0.350000X0.650000X-0.350000X0.650000X-0.350000X-0.650000X0*%
%ADD30R,1.000000X3.000000*%
G04 APERTURE END LIST*
D10*
%TO.C,REF\u002A\u002A*%
X207500000Y-107500000D03*
%TD*%
%TO.C,REF\u002A\u002A*%
X207500000Y-72500000D03*
%TD*%
%TO.C,REF\u002A\u002A*%
X172500000Y-107500000D03*
%TD*%
%TO.C,REF\u002A\u002A*%
X172500000Y-72500000D03*
%TD*%
D11*
%TO.C,C20*%
X203590000Y-77750000D03*
X204550000Y-77750000D03*
%TD*%
D12*
%TO.C,C19*%
X186575000Y-83025000D03*
X186575000Y-82065000D03*
%TD*%
D13*
%TO.C,J4*%
X196500000Y-100350000D03*
%TD*%
D14*
%TO.C,R5*%
X196360000Y-76530000D03*
X195340000Y-76530000D03*
%TD*%
D11*
%TO.C,C38*%
X182390000Y-91225000D03*
X183350000Y-91225000D03*
%TD*%
D13*
%TO.C,NRST1*%
X192900000Y-72825000D03*
%TD*%
D15*
%TO.C,C32*%
X201275000Y-76275000D03*
X201275000Y-74725000D03*
%TD*%
D16*
%TO.C,R13*%
X184900000Y-97800000D03*
X185920000Y-97800000D03*
%TD*%
D17*
%TO.C,C30*%
X191500000Y-106100000D03*
X191500000Y-104200000D03*
%TD*%
D18*
%TO.C,C17*%
X190480000Y-76400000D03*
X189520000Y-76400000D03*
%TD*%
D13*
%TO.C,SWDIO1*%
X188900000Y-72825000D03*
%TD*%
%TO.C,SWCLK1*%
X190900000Y-72825000D03*
%TD*%
D19*
%TO.C,C2*%
X179800000Y-97700000D03*
X181700000Y-97700000D03*
%TD*%
D20*
%TO.C,U2*%
X188125000Y-92075000D03*
X188125000Y-91575000D03*
X188125000Y-91075000D03*
X188125000Y-90575000D03*
X188125000Y-90075000D03*
X188125000Y-89575000D03*
X188125000Y-89075000D03*
X188125000Y-88575000D03*
X188125000Y-88075000D03*
X188125000Y-87575000D03*
X188125000Y-87075000D03*
X188125000Y-86575000D03*
X188125000Y-86075000D03*
X188125000Y-85575000D03*
X188125000Y-85075000D03*
X188125000Y-84575000D03*
X188125000Y-84075000D03*
X188125000Y-83575000D03*
X188125000Y-83075000D03*
X188125000Y-82575000D03*
X188125000Y-82075000D03*
X188125000Y-81575000D03*
X188125000Y-81075000D03*
X188125000Y-80575000D03*
X188125000Y-80075000D03*
D21*
X189800000Y-78400000D03*
X190300000Y-78400000D03*
X190800000Y-78400000D03*
X191300000Y-78400000D03*
X191800000Y-78400000D03*
X192300000Y-78400000D03*
X192800000Y-78400000D03*
X193300000Y-78400000D03*
X193800000Y-78400000D03*
X194300000Y-78400000D03*
X194800000Y-78400000D03*
X195300000Y-78400000D03*
X195800000Y-78400000D03*
X196300000Y-78400000D03*
X196800000Y-78400000D03*
X197300000Y-78400000D03*
X197800000Y-78400000D03*
X198300000Y-78400000D03*
X198800000Y-78400000D03*
X199300000Y-78400000D03*
X199800000Y-78400000D03*
X200300000Y-78400000D03*
X200800000Y-78400000D03*
X201300000Y-78400000D03*
X201800000Y-78400000D03*
D20*
X203475000Y-80075000D03*
X203475000Y-80575000D03*
X203475000Y-81075000D03*
X203475000Y-81575000D03*
X203475000Y-82075000D03*
X203475000Y-82575000D03*
X203475000Y-83075000D03*
X203475000Y-83575000D03*
X203475000Y-84075000D03*
X203475000Y-84575000D03*
X203475000Y-85075000D03*
X203475000Y-85575000D03*
X203475000Y-86075000D03*
X203475000Y-86575000D03*
X203475000Y-87075000D03*
X203475000Y-87575000D03*
X203475000Y-88075000D03*
X203475000Y-88575000D03*
X203475000Y-89075000D03*
X203475000Y-89575000D03*
X203475000Y-90075000D03*
X203475000Y-90575000D03*
X203475000Y-91075000D03*
X203475000Y-91575000D03*
X203475000Y-92075000D03*
D21*
X201800000Y-93750000D03*
X201300000Y-93750000D03*
X200800000Y-93750000D03*
X200300000Y-93750000D03*
X199800000Y-93750000D03*
X199300000Y-93750000D03*
X198800000Y-93750000D03*
X198300000Y-93750000D03*
X197800000Y-93750000D03*
X197300000Y-93750000D03*
X196800000Y-93750000D03*
X196300000Y-93750000D03*
X195800000Y-93750000D03*
X195300000Y-93750000D03*
X194800000Y-93750000D03*
X194300000Y-93750000D03*
X193800000Y-93750000D03*
X193300000Y-93750000D03*
X192800000Y-93750000D03*
X192300000Y-93750000D03*
X191800000Y-93750000D03*
X191300000Y-93750000D03*
X190800000Y-93750000D03*
X190300000Y-93750000D03*
X189800000Y-93750000D03*
%TD*%
D17*
%TO.C,C1*%
X184500000Y-101650000D03*
X184500000Y-99750000D03*
%TD*%
D18*
%TO.C,C15*%
X188960000Y-94375000D03*
X188000000Y-94375000D03*
%TD*%
D11*
%TO.C,C36*%
X198590000Y-76180000D03*
X199550000Y-76180000D03*
%TD*%
D22*
%TO.C,L1*%
X176000000Y-100500000D03*
X176000000Y-102500000D03*
%TD*%
D23*
%TO.C,+2*%
X180440000Y-108250000D03*
%TD*%
D16*
%TO.C,R1*%
X176000000Y-104800000D03*
X177020000Y-104800000D03*
%TD*%
D14*
%TO.C,R6*%
X194420000Y-76570000D03*
X193400000Y-76570000D03*
%TD*%
D24*
%TO.C,C18*%
X186575000Y-89650000D03*
X186575000Y-90610000D03*
%TD*%
D15*
%TO.C,C33*%
X207000000Y-90775000D03*
X207000000Y-89225000D03*
%TD*%
D23*
%TO.C,-2*%
X187500000Y-108300000D03*
%TD*%
D11*
%TO.C,C39*%
X185490000Y-85050000D03*
X186450000Y-85050000D03*
%TD*%
D25*
%TO.C,R2*%
X194300000Y-96435000D03*
X194300000Y-95415000D03*
%TD*%
D26*
%TO.C,U8*%
X186800000Y-103300000D03*
X186800000Y-102800000D03*
X186800000Y-102300000D03*
X186800000Y-101800000D03*
X186800000Y-101300000D03*
X188800000Y-101300000D03*
X188800000Y-101800000D03*
X188800000Y-102300000D03*
X188800000Y-102800000D03*
X188800000Y-103300000D03*
D27*
X187800000Y-102300000D03*
%TD*%
D28*
%TO.C,U1*%
X181800000Y-100650000D03*
X181800000Y-101150000D03*
X181800000Y-101650000D03*
X181800000Y-102150000D03*
X181800000Y-102650000D03*
X179800000Y-102650000D03*
X179800000Y-102150000D03*
X179800000Y-101650000D03*
X179800000Y-101150000D03*
X179800000Y-100650000D03*
D27*
X180800000Y-101650000D03*
%TD*%
D13*
%TO.C,-1*%
X186900000Y-72825000D03*
%TD*%
D12*
%TO.C,C14*%
X205705000Y-92605000D03*
X205705000Y-91645000D03*
%TD*%
D25*
%TO.C,R9*%
X188075000Y-79235000D03*
X188075000Y-78215000D03*
%TD*%
D29*
%TO.C,Y1*%
X181750000Y-89600000D03*
X181750000Y-85600000D03*
X184150000Y-85600000D03*
X184150000Y-89600000D03*
%TD*%
D13*
%TO.C,+1*%
X184900000Y-72825000D03*
%TD*%
D16*
%TO.C,R12*%
X186100000Y-98900000D03*
X187120000Y-98900000D03*
%TD*%
D30*
%TO.C,L3*%
X191325000Y-97800000D03*
X189325000Y-97800000D03*
%TD*%
M02*
