%TF.GenerationSoftware,KiCad,Pcbnew,10.0.6*%
%TF.CreationDate,2026-09-24T20:33:39+03:00*%
%TF.ProjectId,drone-fc,64726f6e-652d-4666-932e-6b696361645f,rev?*%
%TF.SameCoordinates,Original*%
%TF.FileFunction,Copper,L3,Inr*%
%TF.FilePolarity,Positive*%
%FSLAX46Y46*%
G04 Gerber Fmt 4.6, Leading zero omitted, Abs format (unit mm)*
G04 Created by KiCad (PCBNEW 10.0.6) date 2026-09-24 20:33:39*
%MOMM*%
%LPD*%
G01*
G04 APERTURE LIST*
%TA.AperFunction,HeatsinkPad*%
%ADD10C,0.500000*%
%TD*%
%TA.AperFunction,ViaPad*%
%ADD11C,0.600000*%
%TD*%
%TA.AperFunction,Conductor*%
%ADD12C,0.200000*%
%TD*%
G04 APERTURE END LIST*
D10*
%TO.N,GND*%
%TO.C,U8*%
X187800000Y-101350000D03*
X187800000Y-102300000D03*
X187800000Y-103250000D03*
%TD*%
%TO.N,GND*%
%TO.C,U1*%
X180800000Y-102600000D03*
X180800000Y-101650000D03*
X180800000Y-100700000D03*
%TD*%
D11*
%TO.N,+3V3*%
X194950000Y-97225000D03*
X193500000Y-70500000D03*
X178600000Y-100100000D03*
X189700000Y-83400000D03*
X184975000Y-73900000D03*
X181275000Y-79375000D03*
X204500000Y-93500000D03*
X207050000Y-94625000D03*
X178500000Y-99300000D03*
X179400000Y-98900000D03*
X168348823Y-86105615D03*
X203700000Y-93125000D03*
X186675000Y-89075000D03*
X179900000Y-99300000D03*
X189000000Y-93500000D03*
X168500000Y-87500000D03*
X173700000Y-102500000D03*
X188300000Y-77375000D03*
X196750000Y-81500000D03*
X173700000Y-103300000D03*
X192311039Y-90386039D03*
X173700000Y-101800000D03*
X179200000Y-99500000D03*
X202300000Y-77525000D03*
X170000000Y-87500000D03*
X209225000Y-78375000D03*
X198500000Y-70750000D03*
X191850000Y-76625000D03*
X190500000Y-71000000D03*
X191109988Y-87434988D03*
X181250000Y-70500000D03*
X199525000Y-81975000D03*
X199994873Y-92462581D03*
%TO.N,/SDA*%
X193200000Y-95100000D03*
X208925000Y-92575000D03*
%TO.N,GND*%
X182800000Y-96825000D03*
X208450000Y-102025000D03*
X203300000Y-70175000D03*
X210550000Y-103425000D03*
X187700000Y-105700000D03*
X168525000Y-78500000D03*
X210550000Y-102025000D03*
X169925000Y-77100000D03*
X185775000Y-82200000D03*
X169225000Y-75700000D03*
X190100000Y-90100000D03*
X209150000Y-103425000D03*
X204000000Y-68775000D03*
X203300000Y-68775000D03*
X182750000Y-92450000D03*
X179975000Y-86100000D03*
X183600000Y-99100000D03*
X201900000Y-69475000D03*
X208450000Y-102725000D03*
X192700000Y-92425000D03*
X209150000Y-102025000D03*
X209850000Y-103425000D03*
X207750000Y-103425000D03*
X180000000Y-84625000D03*
X193310000Y-75730000D03*
X187000000Y-105000000D03*
X168525000Y-75700000D03*
X169925000Y-75000000D03*
X192625000Y-97250000D03*
X207050000Y-103425000D03*
X181150000Y-92250000D03*
X188400000Y-106400000D03*
X202600000Y-69475000D03*
X169000000Y-85000000D03*
X201200000Y-69475000D03*
X192500000Y-99000000D03*
X186900000Y-100400000D03*
X199700000Y-75420000D03*
X186300000Y-106400000D03*
X176375000Y-109825000D03*
X204000000Y-69475000D03*
X204825000Y-76875000D03*
X204000000Y-70175000D03*
X209850000Y-102025000D03*
X210550000Y-102725000D03*
X207050000Y-102725000D03*
X201200000Y-68775000D03*
X180050000Y-89350000D03*
X175400000Y-110675000D03*
X185600000Y-105700000D03*
X182975000Y-83875000D03*
X169225000Y-74300000D03*
X209850000Y-102725000D03*
X199500000Y-97800000D03*
X169225000Y-76400000D03*
X187700000Y-105000000D03*
X189950000Y-84525000D03*
X192700000Y-86075000D03*
X185600000Y-106400000D03*
X201900000Y-70175000D03*
X189100000Y-106400000D03*
X189800000Y-105700000D03*
X211250000Y-103425000D03*
X169000000Y-90000000D03*
X180950000Y-83825000D03*
X171500000Y-83000000D03*
X207050000Y-102025000D03*
X199800000Y-68775000D03*
X174500000Y-96000000D03*
X186300000Y-105000000D03*
X202600000Y-70175000D03*
X200500000Y-69475000D03*
X203300000Y-69475000D03*
X168525000Y-74300000D03*
X169925000Y-78500000D03*
X187000000Y-106400000D03*
X208725000Y-96625000D03*
X202500000Y-75000000D03*
X169925000Y-75700000D03*
X186900000Y-73625000D03*
X169225000Y-77100000D03*
X189100000Y-105000000D03*
X207750000Y-102025000D03*
X168525000Y-76400000D03*
X169925000Y-77800000D03*
X183900000Y-92525000D03*
X199800000Y-69475000D03*
X209150000Y-102725000D03*
X185500000Y-83100000D03*
X202600000Y-68775000D03*
X207100000Y-92425000D03*
X189100000Y-105700000D03*
X170225000Y-100525000D03*
X206700000Y-96625000D03*
X186625000Y-84275000D03*
X211250000Y-102725000D03*
X180050000Y-87825000D03*
X188400000Y-105700000D03*
X209750000Y-81675000D03*
X169925000Y-74300000D03*
X180025000Y-90925000D03*
X170900000Y-90200000D03*
X185200000Y-93000000D03*
X168525000Y-75000000D03*
X169225000Y-77800000D03*
X199800000Y-70175000D03*
X187700000Y-106400000D03*
X201900000Y-68775000D03*
X169225000Y-75000000D03*
X181900000Y-100200000D03*
X183600000Y-78275000D03*
X200500000Y-68775000D03*
X186650000Y-91425000D03*
X186300000Y-105700000D03*
X169225000Y-78500000D03*
X187000000Y-105700000D03*
X208450000Y-103425000D03*
X182419390Y-102183955D03*
X188400000Y-105000000D03*
X202220000Y-91750000D03*
X184350000Y-81400000D03*
X203775000Y-94150000D03*
X168525000Y-77100000D03*
X188698529Y-75801470D03*
X211250000Y-102025000D03*
X185600000Y-105000000D03*
X168525000Y-77800000D03*
X174500000Y-79500000D03*
X207750000Y-102725000D03*
X201200000Y-70175000D03*
X207100000Y-92425000D03*
X189800000Y-105000000D03*
X200500000Y-70175000D03*
X189800000Y-106400000D03*
X169925000Y-76400000D03*
%TO.N,/RADIO_TX*%
X201400000Y-81025000D03*
%TO.N,/RADIO_RX*%
X200750000Y-79950000D03*
%TO.N,+5V*%
X195600000Y-99200000D03*
X190600000Y-100000000D03*
X191740528Y-101990528D03*
X197300000Y-99200000D03*
X190800000Y-102400000D03*
%TO.N,/DSHOT4*%
X197600000Y-72550000D03*
%TO.N,/LED1_G*%
X197600000Y-86500000D03*
%TO.N,/SCL*%
X208100000Y-88350000D03*
%TO.N,/MISO*%
X192025000Y-81225000D03*
%TO.N,/INT1*%
X191438235Y-91363235D03*
%TO.N,/INT2*%
X194011032Y-81113974D03*
X192675000Y-83275000D03*
%TO.N,/CS*%
X191350000Y-80150000D03*
%TO.N,/CLK*%
X190750000Y-81000000D03*
%TO.N,/MOSI*%
X190350000Y-82300000D03*
%TO.N,/ALT_SCK*%
X204411765Y-94863235D03*
%TO.N,/ALT_MOSI*%
X203359265Y-95715735D03*
%TO.N,/ALT_MISO*%
X202327847Y-95600000D03*
%TO.N,/ALT_CS*%
X204150000Y-97550000D03*
%TO.N,/ALT_INT*%
X202550000Y-96950000D03*
%TO.N,/DSHOT1*%
X184112500Y-74187500D03*
%TO.N,Net-(U2-BOOT0)*%
X191375000Y-95425000D03*
%TO.N,/VBAT*%
X196920000Y-76650000D03*
X194675000Y-86968334D03*
X193234477Y-91829738D03*
X179250000Y-104500000D03*
X179975000Y-104400000D03*
X180800000Y-104525000D03*
%TO.N,/LED2_R*%
X196725000Y-91725000D03*
%TO.N,/DSHOT3*%
X194800000Y-73125000D03*
%TO.N,/DSHOT2*%
X188300000Y-74125000D03*
%TO.N,/LED1_R*%
X200100000Y-91075000D03*
X198675000Y-92350000D03*
X197600000Y-85644400D03*
%TO.N,/NRST*%
X189375000Y-85575000D03*
X187748000Y-73355000D03*
%TO.N,/LED2_G*%
X196749715Y-90925382D03*
%TO.N,Net-(U8-PG)*%
X189500000Y-100800000D03*
%TO.N,/GPS_TIMEPULSE*%
X177075000Y-96050000D03*
%TO.N,/GPS_RX*%
X189900000Y-80064152D03*
%TO.N,/GPS_TX*%
X186900000Y-80150000D03*
%TO.N,/GPS_RESET*%
X186950000Y-79075000D03*
%TO.N,/SWDIO*%
X189637500Y-73562500D03*
X204842252Y-90280856D03*
%TO.N,/SWCLK*%
X191825000Y-73550000D03*
X202550000Y-94200000D03*
%TD*%
%TO.N,/INT2*%
D12*
X192675000Y-83275000D02*
X194011032Y-81938968D01*
X194011032Y-81938968D02*
X194011032Y-81113974D01*
%TD*%
%TA.AperFunction,Conductor*%
%TO.N,+3V3*%
G36*
X199210098Y-68020185D02*
G01*
X199255853Y-68072989D01*
X199265797Y-68142147D01*
X199236772Y-68205703D01*
X199230740Y-68212181D01*
X199178213Y-68264707D01*
X199178210Y-68264711D01*
X199090609Y-68395814D01*
X199090602Y-68395827D01*
X199030264Y-68541498D01*
X199030261Y-68541510D01*
X198999500Y-68696153D01*
X198999500Y-68853846D01*
X199030260Y-69008488D01*
X199030262Y-69008493D01*
X199030263Y-69008497D01*
X199058864Y-69077547D01*
X199058865Y-69077549D01*
X199066333Y-69147018D01*
X199058865Y-69172447D01*
X199030263Y-69241503D01*
X199030262Y-69241506D01*
X199030260Y-69241511D01*
X198999500Y-69396153D01*
X198999500Y-69553846D01*
X199030260Y-69708488D01*
X199030262Y-69708493D01*
X199030263Y-69708497D01*
X199058864Y-69777547D01*
X199058865Y-69777549D01*
X199066333Y-69847018D01*
X199058865Y-69872447D01*
X199030263Y-69941503D01*
X199030262Y-69941506D01*
X199030260Y-69941511D01*
X198999500Y-70096153D01*
X198999500Y-70253846D01*
X199030261Y-70408489D01*
X199030264Y-70408501D01*
X199090602Y-70554172D01*
X199090609Y-70554185D01*
X199178210Y-70685288D01*
X199178213Y-70685292D01*
X199289707Y-70796786D01*
X199289711Y-70796789D01*
X199420814Y-70884390D01*
X199420827Y-70884397D01*
X199566498Y-70944735D01*
X199566503Y-70944737D01*
X199721153Y-70975499D01*
X199721156Y-70975500D01*
X199721158Y-70975500D01*
X199878844Y-70975500D01*
X199878845Y-70975499D01*
X200033497Y-70944737D01*
X200102549Y-70916134D01*
X200172016Y-70908666D01*
X200197447Y-70916133D01*
X200266503Y-70944737D01*
X200421153Y-70975499D01*
X200421156Y-70975500D01*
X200421158Y-70975500D01*
X200578844Y-70975500D01*
X200578845Y-70975499D01*
X200733497Y-70944737D01*
X200802549Y-70916134D01*
X200872016Y-70908666D01*
X200897447Y-70916133D01*
X200966503Y-70944737D01*
X201121153Y-70975499D01*
X201121156Y-70975500D01*
X201121158Y-70975500D01*
X201278844Y-70975500D01*
X201278845Y-70975499D01*
X201433497Y-70944737D01*
X201502549Y-70916134D01*
X201572016Y-70908666D01*
X201597447Y-70916133D01*
X201666503Y-70944737D01*
X201821153Y-70975499D01*
X201821156Y-70975500D01*
X201821158Y-70975500D01*
X201978844Y-70975500D01*
X201978845Y-70975499D01*
X202133497Y-70944737D01*
X202202549Y-70916134D01*
X202272016Y-70908666D01*
X202297447Y-70916133D01*
X202366503Y-70944737D01*
X202521153Y-70975499D01*
X202521156Y-70975500D01*
X202521158Y-70975500D01*
X202678844Y-70975500D01*
X202678845Y-70975499D01*
X202833497Y-70944737D01*
X202902549Y-70916134D01*
X202972016Y-70908666D01*
X202997447Y-70916133D01*
X203066503Y-70944737D01*
X203221153Y-70975499D01*
X203221156Y-70975500D01*
X203221158Y-70975500D01*
X203378844Y-70975500D01*
X203378845Y-70975499D01*
X203533497Y-70944737D01*
X203602549Y-70916134D01*
X203672016Y-70908666D01*
X203697447Y-70916133D01*
X203766503Y-70944737D01*
X203921153Y-70975499D01*
X203921156Y-70975500D01*
X203921158Y-70975500D01*
X204078844Y-70975500D01*
X204078845Y-70975499D01*
X204233497Y-70944737D01*
X204379179Y-70884394D01*
X204510289Y-70796789D01*
X204621789Y-70685289D01*
X204709394Y-70554179D01*
X204769737Y-70408497D01*
X204800500Y-70253842D01*
X204800500Y-70096158D01*
X204800500Y-70096155D01*
X204800499Y-70096153D01*
X204769737Y-69941503D01*
X204741134Y-69872450D01*
X204733666Y-69802984D01*
X204741133Y-69777552D01*
X204769737Y-69708497D01*
X204800500Y-69553842D01*
X204800500Y-69396158D01*
X204800500Y-69396155D01*
X204800499Y-69396153D01*
X204769737Y-69241503D01*
X204741134Y-69172450D01*
X204733666Y-69102984D01*
X204741133Y-69077552D01*
X204769737Y-69008497D01*
X204800500Y-68853842D01*
X204800500Y-68696158D01*
X204800500Y-68696155D01*
X204800499Y-68696153D01*
X204769738Y-68541510D01*
X204769737Y-68541503D01*
X204769735Y-68541498D01*
X204709397Y-68395827D01*
X204709390Y-68395814D01*
X204621789Y-68264711D01*
X204621786Y-68264707D01*
X204569260Y-68212181D01*
X204535775Y-68150858D01*
X204540759Y-68081166D01*
X204582631Y-68025233D01*
X204648095Y-68000816D01*
X204656941Y-68000500D01*
X211875500Y-68000500D01*
X211942539Y-68020185D01*
X211988294Y-68072989D01*
X211999500Y-68124500D01*
X211999500Y-101343059D01*
X211979815Y-101410098D01*
X211927011Y-101455853D01*
X211857853Y-101465797D01*
X211794297Y-101436772D01*
X211787819Y-101430740D01*
X211760292Y-101403213D01*
X211760288Y-101403210D01*
X211629185Y-101315609D01*
X211629172Y-101315602D01*
X211483501Y-101255264D01*
X211483489Y-101255261D01*
X211328845Y-101224500D01*
X211328842Y-101224500D01*
X211171158Y-101224500D01*
X211171155Y-101224500D01*
X211016511Y-101255260D01*
X211016506Y-101255262D01*
X211016504Y-101255262D01*
X211016503Y-101255263D01*
X210947449Y-101283865D01*
X210877982Y-101291333D01*
X210852552Y-101283865D01*
X210783497Y-101255263D01*
X210783493Y-101255262D01*
X210783488Y-101255260D01*
X210628845Y-101224500D01*
X210628842Y-101224500D01*
X210471158Y-101224500D01*
X210471155Y-101224500D01*
X210316511Y-101255260D01*
X210316506Y-101255262D01*
X210316504Y-101255262D01*
X210316503Y-101255263D01*
X210247449Y-101283865D01*
X210177982Y-101291333D01*
X210152552Y-101283865D01*
X210083497Y-101255263D01*
X210083493Y-101255262D01*
X210083488Y-101255260D01*
X209928845Y-101224500D01*
X209928842Y-101224500D01*
X209771158Y-101224500D01*
X209771155Y-101224500D01*
X209616511Y-101255260D01*
X209616506Y-101255262D01*
X209616504Y-101255262D01*
X209616503Y-101255263D01*
X209547449Y-101283865D01*
X209477982Y-101291333D01*
X209452552Y-101283865D01*
X209383497Y-101255263D01*
X209383493Y-101255262D01*
X209383488Y-101255260D01*
X209228845Y-101224500D01*
X209228842Y-101224500D01*
X209071158Y-101224500D01*
X209071155Y-101224500D01*
X208916511Y-101255260D01*
X208916506Y-101255262D01*
X208916504Y-101255262D01*
X208916503Y-101255263D01*
X208847449Y-101283865D01*
X208777982Y-101291333D01*
X208752552Y-101283865D01*
X208683497Y-101255263D01*
X208683493Y-101255262D01*
X208683488Y-101255260D01*
X208528845Y-101224500D01*
X208528842Y-101224500D01*
X208371158Y-101224500D01*
X208371155Y-101224500D01*
X208216511Y-101255260D01*
X208216506Y-101255262D01*
X208216504Y-101255262D01*
X208216503Y-101255263D01*
X208147449Y-101283865D01*
X208077982Y-101291333D01*
X208052552Y-101283865D01*
X207983497Y-101255263D01*
X207983493Y-101255262D01*
X207983488Y-101255260D01*
X207828845Y-101224500D01*
X207828842Y-101224500D01*
X207671158Y-101224500D01*
X207671155Y-101224500D01*
X207516511Y-101255260D01*
X207516506Y-101255262D01*
X207516504Y-101255262D01*
X207516503Y-101255263D01*
X207447449Y-101283865D01*
X207377982Y-101291333D01*
X207352552Y-101283865D01*
X207283497Y-101255263D01*
X207283493Y-101255262D01*
X207283488Y-101255260D01*
X207128845Y-101224500D01*
X207128842Y-101224500D01*
X206971158Y-101224500D01*
X206971155Y-101224500D01*
X206816510Y-101255261D01*
X206816498Y-101255264D01*
X206670827Y-101315602D01*
X206670814Y-101315609D01*
X206539711Y-101403210D01*
X206539707Y-101403213D01*
X206428213Y-101514707D01*
X206428210Y-101514711D01*
X206340609Y-101645814D01*
X206340602Y-101645827D01*
X206280264Y-101791498D01*
X206280261Y-101791510D01*
X206249500Y-101946153D01*
X206249500Y-102103846D01*
X206280260Y-102258488D01*
X206280262Y-102258493D01*
X206280263Y-102258497D01*
X206308865Y-102327549D01*
X206316333Y-102397018D01*
X206308865Y-102422447D01*
X206285506Y-102478846D01*
X206280262Y-102491506D01*
X206280260Y-102491511D01*
X206249500Y-102646153D01*
X206249500Y-102803846D01*
X206280260Y-102958488D01*
X206280262Y-102958493D01*
X206280263Y-102958497D01*
X206306478Y-103021786D01*
X206308865Y-103027549D01*
X206316333Y-103097018D01*
X206308865Y-103122447D01*
X206280263Y-103191503D01*
X206280262Y-103191506D01*
X206280260Y-103191511D01*
X206249500Y-103346153D01*
X206249500Y-103503846D01*
X206280261Y-103658489D01*
X206280264Y-103658501D01*
X206340602Y-103804172D01*
X206340609Y-103804185D01*
X206428210Y-103935288D01*
X206428213Y-103935292D01*
X206539707Y-104046786D01*
X206539711Y-104046789D01*
X206670814Y-104134390D01*
X206670827Y-104134397D01*
X206814545Y-104193926D01*
X206816503Y-104194737D01*
X206971153Y-104225499D01*
X206971156Y-104225500D01*
X206971158Y-104225500D01*
X207128844Y-104225500D01*
X207128845Y-104225499D01*
X207283497Y-104194737D01*
X207352549Y-104166134D01*
X207422016Y-104158666D01*
X207447447Y-104166133D01*
X207516503Y-104194737D01*
X207671153Y-104225499D01*
X207671156Y-104225500D01*
X207671158Y-104225500D01*
X207828844Y-104225500D01*
X207828845Y-104225499D01*
X207983497Y-104194737D01*
X208052549Y-104166134D01*
X208122016Y-104158666D01*
X208147447Y-104166133D01*
X208216503Y-104194737D01*
X208371153Y-104225499D01*
X208371156Y-104225500D01*
X208371158Y-104225500D01*
X208528844Y-104225500D01*
X208528845Y-104225499D01*
X208683497Y-104194737D01*
X208752549Y-104166134D01*
X208822016Y-104158666D01*
X208847447Y-104166133D01*
X208916503Y-104194737D01*
X209071153Y-104225499D01*
X209071156Y-104225500D01*
X209071158Y-104225500D01*
X209228844Y-104225500D01*
X209228845Y-104225499D01*
X209383497Y-104194737D01*
X209452549Y-104166134D01*
X209522016Y-104158666D01*
X209547447Y-104166133D01*
X209616503Y-104194737D01*
X209771153Y-104225499D01*
X209771156Y-104225500D01*
X209771158Y-104225500D01*
X209928844Y-104225500D01*
X209928845Y-104225499D01*
X210083497Y-104194737D01*
X210152549Y-104166134D01*
X210222016Y-104158666D01*
X210247447Y-104166133D01*
X210316503Y-104194737D01*
X210471153Y-104225499D01*
X210471156Y-104225500D01*
X210471158Y-104225500D01*
X210628844Y-104225500D01*
X210628845Y-104225499D01*
X210783497Y-104194737D01*
X210852549Y-104166134D01*
X210922016Y-104158666D01*
X210947447Y-104166133D01*
X211016503Y-104194737D01*
X211171153Y-104225499D01*
X211171156Y-104225500D01*
X211171158Y-104225500D01*
X211328844Y-104225500D01*
X211328845Y-104225499D01*
X211483497Y-104194737D01*
X211601592Y-104145821D01*
X211629172Y-104134397D01*
X211629172Y-104134396D01*
X211629179Y-104134394D01*
X211760289Y-104046789D01*
X211760292Y-104046786D01*
X211787819Y-104019260D01*
X211849142Y-103985775D01*
X211918834Y-103990759D01*
X211974767Y-104032631D01*
X211999184Y-104098095D01*
X211999500Y-104106941D01*
X211999500Y-111875500D01*
X211979815Y-111942539D01*
X211927011Y-111988294D01*
X211875500Y-111999500D01*
X168124500Y-111999500D01*
X168057461Y-111979815D01*
X168011706Y-111927011D01*
X168000500Y-111875500D01*
X168000500Y-110596153D01*
X174599500Y-110596153D01*
X174599500Y-110753846D01*
X174630261Y-110908489D01*
X174630264Y-110908501D01*
X174690602Y-111054172D01*
X174690609Y-111054185D01*
X174778210Y-111185288D01*
X174778213Y-111185292D01*
X174889707Y-111296786D01*
X174889711Y-111296789D01*
X175020814Y-111384390D01*
X175020827Y-111384397D01*
X175166498Y-111444735D01*
X175166503Y-111444737D01*
X175321153Y-111475499D01*
X175321156Y-111475500D01*
X175321158Y-111475500D01*
X175478844Y-111475500D01*
X175478845Y-111475499D01*
X175633497Y-111444737D01*
X175779179Y-111384394D01*
X175910289Y-111296789D01*
X176021789Y-111185289D01*
X176109394Y-111054179D01*
X176142943Y-110973183D01*
X192650000Y-110973183D01*
X203178300Y-111000000D01*
X203205059Y-107378711D01*
X205649500Y-107378711D01*
X205649500Y-107621288D01*
X205681161Y-107861785D01*
X205743947Y-108096104D01*
X205836773Y-108320205D01*
X205836776Y-108320212D01*
X205958064Y-108530289D01*
X205958066Y-108530292D01*
X205958067Y-108530293D01*
X206105733Y-108722736D01*
X206105739Y-108722743D01*
X206277256Y-108894260D01*
X206277262Y-108894265D01*
X206469711Y-109041936D01*
X206679788Y-109163224D01*
X206903900Y-109256054D01*
X207138211Y-109318838D01*
X207318586Y-109342584D01*
X207378711Y-109350500D01*
X207378712Y-109350500D01*
X207621289Y-109350500D01*
X207669388Y-109344167D01*
X207861789Y-109318838D01*
X208096100Y-109256054D01*
X208320212Y-109163224D01*
X208530289Y-109041936D01*
X208722738Y-108894265D01*
X208894265Y-108722738D01*
X209041936Y-108530289D01*
X209163224Y-108320212D01*
X209256054Y-108096100D01*
X209318838Y-107861789D01*
X209350500Y-107621288D01*
X209350500Y-107378712D01*
X209318838Y-107138211D01*
X209256054Y-106903900D01*
X209163224Y-106679788D01*
X209041936Y-106469711D01*
X208894265Y-106277262D01*
X208894260Y-106277256D01*
X208722743Y-106105739D01*
X208722736Y-106105733D01*
X208530293Y-105958067D01*
X208530292Y-105958066D01*
X208530289Y-105958064D01*
X208320212Y-105836776D01*
X208320205Y-105836773D01*
X208096104Y-105743947D01*
X207861785Y-105681161D01*
X207621289Y-105649500D01*
X207621288Y-105649500D01*
X207378712Y-105649500D01*
X207378711Y-105649500D01*
X207138214Y-105681161D01*
X206903895Y-105743947D01*
X206679794Y-105836773D01*
X206679785Y-105836777D01*
X206469706Y-105958067D01*
X206277263Y-106105733D01*
X206277256Y-106105739D01*
X206105739Y-106277256D01*
X206105733Y-106277263D01*
X205958067Y-106469706D01*
X205836777Y-106679785D01*
X205836773Y-106679794D01*
X205743947Y-106903895D01*
X205681161Y-107138214D01*
X205649500Y-107378711D01*
X203205059Y-107378711D01*
X203217463Y-105700000D01*
X192650000Y-105700000D01*
X192650000Y-110973183D01*
X176142943Y-110973183D01*
X176169737Y-110908497D01*
X176200500Y-110753842D01*
X176200500Y-110749500D01*
X176220185Y-110682461D01*
X176272989Y-110636706D01*
X176324500Y-110625500D01*
X176453844Y-110625500D01*
X176453845Y-110625499D01*
X176608497Y-110594737D01*
X176754179Y-110534394D01*
X176885289Y-110446789D01*
X176996789Y-110335289D01*
X177084394Y-110204179D01*
X177144737Y-110058497D01*
X177175500Y-109903842D01*
X177175500Y-109746158D01*
X177175500Y-109746155D01*
X177175499Y-109746153D01*
X177144738Y-109591510D01*
X177144737Y-109591503D01*
X177144735Y-109591498D01*
X177084397Y-109445827D01*
X177084390Y-109445814D01*
X176996789Y-109314711D01*
X176996786Y-109314707D01*
X176885292Y-109203213D01*
X176885288Y-109203210D01*
X176754185Y-109115609D01*
X176754172Y-109115602D01*
X176608501Y-109055264D01*
X176608489Y-109055261D01*
X176453845Y-109024500D01*
X176453842Y-109024500D01*
X176296158Y-109024500D01*
X176296155Y-109024500D01*
X176141510Y-109055261D01*
X176141498Y-109055264D01*
X175995827Y-109115602D01*
X175995814Y-109115609D01*
X175864711Y-109203210D01*
X175864707Y-109203213D01*
X175753213Y-109314707D01*
X175753210Y-109314711D01*
X175665609Y-109445814D01*
X175665602Y-109445827D01*
X175605264Y-109591498D01*
X175605261Y-109591510D01*
X175574500Y-109746153D01*
X175574500Y-109750500D01*
X175554815Y-109817539D01*
X175502011Y-109863294D01*
X175450500Y-109874500D01*
X175321155Y-109874500D01*
X175166510Y-109905261D01*
X175166498Y-109905264D01*
X175020827Y-109965602D01*
X175020814Y-109965609D01*
X174889711Y-110053210D01*
X174889707Y-110053213D01*
X174778213Y-110164707D01*
X174778210Y-110164711D01*
X174690609Y-110295814D01*
X174690602Y-110295827D01*
X174630264Y-110441498D01*
X174630261Y-110441510D01*
X174599500Y-110596153D01*
X168000500Y-110596153D01*
X168000500Y-107378711D01*
X170649500Y-107378711D01*
X170649500Y-107621288D01*
X170681161Y-107861785D01*
X170743947Y-108096104D01*
X170836773Y-108320205D01*
X170836776Y-108320212D01*
X170958064Y-108530289D01*
X170958066Y-108530292D01*
X170958067Y-108530293D01*
X171105733Y-108722736D01*
X171105739Y-108722743D01*
X171277256Y-108894260D01*
X171277262Y-108894265D01*
X171469711Y-109041936D01*
X171679788Y-109163224D01*
X171903900Y-109256054D01*
X172138211Y-109318838D01*
X172318586Y-109342584D01*
X172378711Y-109350500D01*
X172378712Y-109350500D01*
X172621289Y-109350500D01*
X172669388Y-109344167D01*
X172861789Y-109318838D01*
X173096100Y-109256054D01*
X173320212Y-109163224D01*
X173530289Y-109041936D01*
X173722738Y-108894265D01*
X173894265Y-108722738D01*
X174041936Y-108530289D01*
X174163224Y-108320212D01*
X174256054Y-108096100D01*
X174318838Y-107861789D01*
X174350500Y-107621288D01*
X174350500Y-107378712D01*
X174318838Y-107138211D01*
X174256054Y-106903900D01*
X174163224Y-106679788D01*
X174041936Y-106469711D01*
X173894265Y-106277262D01*
X173894260Y-106277256D01*
X173722743Y-106105739D01*
X173722736Y-106105733D01*
X173530293Y-105958067D01*
X173530292Y-105958066D01*
X173530289Y-105958064D01*
X173320212Y-105836776D01*
X173320205Y-105836773D01*
X173096104Y-105743947D01*
X172861785Y-105681161D01*
X172621289Y-105649500D01*
X172621288Y-105649500D01*
X172378712Y-105649500D01*
X172378711Y-105649500D01*
X172138214Y-105681161D01*
X171903895Y-105743947D01*
X171679794Y-105836773D01*
X171679785Y-105836777D01*
X171469706Y-105958067D01*
X171277263Y-106105733D01*
X171277256Y-106105739D01*
X171105739Y-106277256D01*
X171105733Y-106277263D01*
X170958067Y-106469706D01*
X170836777Y-106679785D01*
X170836773Y-106679794D01*
X170743947Y-106903895D01*
X170681161Y-107138214D01*
X170649500Y-107378711D01*
X168000500Y-107378711D01*
X168000500Y-104421153D01*
X178449500Y-104421153D01*
X178449500Y-104578846D01*
X178480261Y-104733489D01*
X178480264Y-104733501D01*
X178540602Y-104879172D01*
X178540609Y-104879185D01*
X178628210Y-105010288D01*
X178628213Y-105010292D01*
X178739707Y-105121786D01*
X178739711Y-105121789D01*
X178870814Y-105209390D01*
X178870827Y-105209397D01*
X179016498Y-105269735D01*
X179016503Y-105269737D01*
X179142176Y-105294735D01*
X179171153Y-105300499D01*
X179171156Y-105300500D01*
X179171158Y-105300500D01*
X179328844Y-105300500D01*
X179328845Y-105300499D01*
X179483497Y-105269737D01*
X179629179Y-105209394D01*
X179657974Y-105190152D01*
X179724648Y-105169274D01*
X179751053Y-105171636D01*
X179811128Y-105183586D01*
X179896155Y-105200500D01*
X179896158Y-105200500D01*
X180053844Y-105200500D01*
X180053845Y-105200499D01*
X180208497Y-105169737D01*
X180208502Y-105169734D01*
X180208505Y-105169734D01*
X180218597Y-105165554D01*
X180288066Y-105158084D01*
X180334942Y-105177012D01*
X180420814Y-105234390D01*
X180420827Y-105234397D01*
X180566498Y-105294735D01*
X180566503Y-105294737D01*
X180721153Y-105325499D01*
X180721156Y-105325500D01*
X180721158Y-105325500D01*
X180878844Y-105325500D01*
X180878845Y-105325499D01*
X181033497Y-105294737D01*
X181179179Y-105234394D01*
X181310289Y-105146789D01*
X181421789Y-105035289D01*
X181498052Y-104921153D01*
X184799500Y-104921153D01*
X184799500Y-105078846D01*
X184830260Y-105233488D01*
X184830262Y-105233493D01*
X184830263Y-105233497D01*
X184858016Y-105300500D01*
X184858865Y-105302549D01*
X184866333Y-105372018D01*
X184858865Y-105397447D01*
X184830263Y-105466503D01*
X184830262Y-105466506D01*
X184830260Y-105466511D01*
X184799500Y-105621153D01*
X184799500Y-105778846D01*
X184830260Y-105933488D01*
X184830262Y-105933493D01*
X184830263Y-105933497D01*
X184858864Y-106002547D01*
X184858865Y-106002549D01*
X184866333Y-106072018D01*
X184858865Y-106097447D01*
X184830263Y-106166503D01*
X184830262Y-106166506D01*
X184830260Y-106166511D01*
X184799500Y-106321153D01*
X184799500Y-106478846D01*
X184830261Y-106633489D01*
X184830264Y-106633501D01*
X184890602Y-106779172D01*
X184890609Y-106779185D01*
X184978210Y-106910288D01*
X184978213Y-106910292D01*
X185089707Y-107021786D01*
X185089711Y-107021789D01*
X185220814Y-107109390D01*
X185220827Y-107109397D01*
X185366498Y-107169735D01*
X185366503Y-107169737D01*
X185521153Y-107200499D01*
X185521156Y-107200500D01*
X185521158Y-107200500D01*
X185678844Y-107200500D01*
X185678845Y-107200499D01*
X185833497Y-107169737D01*
X185902549Y-107141134D01*
X185972016Y-107133666D01*
X185997447Y-107141133D01*
X186066503Y-107169737D01*
X186221153Y-107200499D01*
X186221156Y-107200500D01*
X186221158Y-107200500D01*
X186378844Y-107200500D01*
X186378845Y-107200499D01*
X186533497Y-107169737D01*
X186602549Y-107141134D01*
X186672016Y-107133666D01*
X186697447Y-107141133D01*
X186766503Y-107169737D01*
X186921153Y-107200499D01*
X186921156Y-107200500D01*
X186921158Y-107200500D01*
X187078844Y-107200500D01*
X187078845Y-107200499D01*
X187233497Y-107169737D01*
X187302549Y-107141134D01*
X187372016Y-107133666D01*
X187397447Y-107141133D01*
X187466503Y-107169737D01*
X187621153Y-107200499D01*
X187621156Y-107200500D01*
X187621158Y-107200500D01*
X187778844Y-107200500D01*
X187778845Y-107200499D01*
X187933497Y-107169737D01*
X188002549Y-107141134D01*
X188072016Y-107133666D01*
X188097447Y-107141133D01*
X188166503Y-107169737D01*
X188321153Y-107200499D01*
X188321156Y-107200500D01*
X188321158Y-107200500D01*
X188478844Y-107200500D01*
X188478845Y-107200499D01*
X188633497Y-107169737D01*
X188702549Y-107141134D01*
X188772016Y-107133666D01*
X188797447Y-107141133D01*
X188866503Y-107169737D01*
X189021153Y-107200499D01*
X189021156Y-107200500D01*
X189021158Y-107200500D01*
X189178844Y-107200500D01*
X189178845Y-107200499D01*
X189333497Y-107169737D01*
X189402549Y-107141134D01*
X189472016Y-107133666D01*
X189497447Y-107141133D01*
X189566503Y-107169737D01*
X189721153Y-107200499D01*
X189721156Y-107200500D01*
X189721158Y-107200500D01*
X189878844Y-107200500D01*
X189878845Y-107200499D01*
X190033497Y-107169737D01*
X190179179Y-107109394D01*
X190310289Y-107021789D01*
X190421789Y-106910289D01*
X190509394Y-106779179D01*
X190569737Y-106633497D01*
X190600500Y-106478842D01*
X190600500Y-106321158D01*
X190600500Y-106321155D01*
X190600499Y-106321153D01*
X190591767Y-106277256D01*
X190569737Y-106166503D01*
X190541134Y-106097450D01*
X190533666Y-106027984D01*
X190541133Y-106002552D01*
X190569737Y-105933497D01*
X190600500Y-105778842D01*
X190600500Y-105621158D01*
X190600500Y-105621155D01*
X190600499Y-105621153D01*
X190569737Y-105466503D01*
X190541134Y-105397450D01*
X190533666Y-105327984D01*
X190541133Y-105302552D01*
X190569737Y-105233497D01*
X190600500Y-105078842D01*
X190600500Y-104921158D01*
X190600500Y-104921155D01*
X190600499Y-104921153D01*
X190569738Y-104766510D01*
X190569737Y-104766503D01*
X190569735Y-104766498D01*
X190509397Y-104620827D01*
X190509390Y-104620814D01*
X190421789Y-104489711D01*
X190421786Y-104489707D01*
X190310292Y-104378213D01*
X190310288Y-104378210D01*
X190179185Y-104290609D01*
X190179172Y-104290602D01*
X190033501Y-104230264D01*
X190033489Y-104230261D01*
X189878845Y-104199500D01*
X189878842Y-104199500D01*
X189721158Y-104199500D01*
X189721155Y-104199500D01*
X189566511Y-104230260D01*
X189566506Y-104230262D01*
X189566504Y-104230262D01*
X189566503Y-104230263D01*
X189497449Y-104258865D01*
X189427982Y-104266333D01*
X189402552Y-104258865D01*
X189333497Y-104230263D01*
X189333493Y-104230262D01*
X189333488Y-104230260D01*
X189178845Y-104199500D01*
X189178842Y-104199500D01*
X189021158Y-104199500D01*
X189021155Y-104199500D01*
X188866511Y-104230260D01*
X188866506Y-104230262D01*
X188866504Y-104230262D01*
X188866503Y-104230263D01*
X188797449Y-104258865D01*
X188727982Y-104266333D01*
X188702552Y-104258865D01*
X188633497Y-104230263D01*
X188633493Y-104230262D01*
X188633488Y-104230260D01*
X188478845Y-104199500D01*
X188478842Y-104199500D01*
X188321158Y-104199500D01*
X188321155Y-104199500D01*
X188166511Y-104230260D01*
X188166506Y-104230262D01*
X188166504Y-104230262D01*
X188166503Y-104230263D01*
X188097449Y-104258865D01*
X188027982Y-104266333D01*
X188002552Y-104258865D01*
X187933497Y-104230263D01*
X187933493Y-104230262D01*
X187927662Y-104228493D01*
X187928340Y-104226256D01*
X187875621Y-104198649D01*
X187841073Y-104137919D01*
X187844843Y-104068151D01*
X187885735Y-104011497D01*
X187937569Y-103987838D01*
X188018913Y-103971658D01*
X188155495Y-103915084D01*
X188278416Y-103832951D01*
X188382951Y-103728416D01*
X188465084Y-103605495D01*
X188521658Y-103468913D01*
X188531096Y-103421462D01*
X188550500Y-103323920D01*
X188550500Y-103176079D01*
X188521659Y-103031092D01*
X188521658Y-103031091D01*
X188521658Y-103031087D01*
X188517807Y-103021789D01*
X188465087Y-102894511D01*
X188465084Y-102894506D01*
X188465084Y-102894505D01*
X188431265Y-102843891D01*
X188410387Y-102777214D01*
X188428871Y-102709834D01*
X188431265Y-102706109D01*
X188442447Y-102689372D01*
X188465084Y-102655495D01*
X188521658Y-102518913D01*
X188541840Y-102417456D01*
X188550500Y-102373920D01*
X188550500Y-102321153D01*
X189999500Y-102321153D01*
X189999500Y-102478846D01*
X190030261Y-102633489D01*
X190030264Y-102633501D01*
X190090602Y-102779172D01*
X190090609Y-102779185D01*
X190178210Y-102910288D01*
X190178213Y-102910292D01*
X190289707Y-103021786D01*
X190289711Y-103021789D01*
X190420814Y-103109390D01*
X190420827Y-103109397D01*
X190566498Y-103169735D01*
X190566503Y-103169737D01*
X190675968Y-103191511D01*
X190721153Y-103200499D01*
X190721156Y-103200500D01*
X190721158Y-103200500D01*
X190878844Y-103200500D01*
X190878845Y-103200499D01*
X191033497Y-103169737D01*
X191179179Y-103109394D01*
X191310289Y-103021789D01*
X191421789Y-102910289D01*
X191466155Y-102843891D01*
X191474241Y-102831790D01*
X191527853Y-102786984D01*
X191597178Y-102778277D01*
X191601535Y-102779063D01*
X191661684Y-102791028D01*
X191661686Y-102791028D01*
X191819372Y-102791028D01*
X191819373Y-102791027D01*
X191974025Y-102760265D01*
X192119707Y-102699922D01*
X192250817Y-102612317D01*
X192362317Y-102500817D01*
X192449922Y-102369707D01*
X192510265Y-102224025D01*
X192541028Y-102069370D01*
X192541028Y-101911686D01*
X192541028Y-101911683D01*
X192541027Y-101911681D01*
X192519762Y-101804776D01*
X192510265Y-101757031D01*
X192496549Y-101723918D01*
X192449925Y-101611355D01*
X192449918Y-101611342D01*
X192362317Y-101480239D01*
X192362314Y-101480235D01*
X192250820Y-101368741D01*
X192250816Y-101368738D01*
X192119713Y-101281137D01*
X192119700Y-101281130D01*
X191974029Y-101220792D01*
X191974017Y-101220789D01*
X191819373Y-101190028D01*
X191819370Y-101190028D01*
X191661686Y-101190028D01*
X191661683Y-101190028D01*
X191507038Y-101220789D01*
X191507026Y-101220792D01*
X191361355Y-101281130D01*
X191361342Y-101281137D01*
X191230239Y-101368738D01*
X191230235Y-101368741D01*
X191118741Y-101480235D01*
X191118736Y-101480241D01*
X191066285Y-101558739D01*
X191012673Y-101603543D01*
X190943348Y-101612250D01*
X190938993Y-101611464D01*
X190878846Y-101599500D01*
X190878842Y-101599500D01*
X190721158Y-101599500D01*
X190721155Y-101599500D01*
X190566510Y-101630261D01*
X190566498Y-101630264D01*
X190420827Y-101690602D01*
X190420814Y-101690609D01*
X190289711Y-101778210D01*
X190289707Y-101778213D01*
X190178213Y-101889707D01*
X190178210Y-101889711D01*
X190090609Y-102020814D01*
X190090602Y-102020827D01*
X190030264Y-102166498D01*
X190030261Y-102166510D01*
X189999500Y-102321153D01*
X188550500Y-102321153D01*
X188550500Y-102226079D01*
X188521659Y-102081092D01*
X188521658Y-102081091D01*
X188521658Y-102081087D01*
X188516806Y-102069374D01*
X188465087Y-101944511D01*
X188465084Y-101944506D01*
X188465084Y-101944505D01*
X188431265Y-101893891D01*
X188410387Y-101827214D01*
X188428871Y-101759834D01*
X188431265Y-101756109D01*
X188442447Y-101739372D01*
X188465084Y-101705495D01*
X188521658Y-101568913D01*
X188533498Y-101509390D01*
X188550500Y-101423920D01*
X188550500Y-101276079D01*
X188538576Y-101216136D01*
X188538575Y-101216133D01*
X188521658Y-101131087D01*
X188476560Y-101022210D01*
X188465087Y-100994511D01*
X188465080Y-100994498D01*
X188382951Y-100871584D01*
X188382948Y-100871580D01*
X188278419Y-100767051D01*
X188278415Y-100767048D01*
X188209729Y-100721153D01*
X188699500Y-100721153D01*
X188699500Y-100878846D01*
X188713344Y-100948447D01*
X188713347Y-100948458D01*
X188730263Y-101033497D01*
X188775356Y-101142363D01*
X188775360Y-101142374D01*
X188790602Y-101179172D01*
X188790609Y-101179185D01*
X188878210Y-101310288D01*
X188878213Y-101310292D01*
X188989707Y-101421786D01*
X188989711Y-101421789D01*
X189120814Y-101509390D01*
X189120827Y-101509397D01*
X189264523Y-101568917D01*
X189266503Y-101569737D01*
X189416131Y-101599500D01*
X189421153Y-101600499D01*
X189421156Y-101600500D01*
X189421158Y-101600500D01*
X189578844Y-101600500D01*
X189578845Y-101600499D01*
X189733497Y-101569737D01*
X189879179Y-101509394D01*
X190010289Y-101421789D01*
X190121789Y-101310289D01*
X190209394Y-101179179D01*
X190269737Y-101033497D01*
X190299697Y-100882877D01*
X190332081Y-100820967D01*
X190392797Y-100786393D01*
X190445506Y-100785452D01*
X190521155Y-100800500D01*
X190521158Y-100800500D01*
X190678844Y-100800500D01*
X190678845Y-100800499D01*
X190833497Y-100769737D01*
X190979179Y-100709394D01*
X191110289Y-100621789D01*
X191221789Y-100510289D01*
X191309394Y-100379179D01*
X191369737Y-100233497D01*
X191400500Y-100078842D01*
X191400500Y-99921158D01*
X191400500Y-99921155D01*
X191400499Y-99921153D01*
X191380734Y-99821789D01*
X191369737Y-99766503D01*
X191365081Y-99755263D01*
X191309397Y-99620827D01*
X191309390Y-99620814D01*
X191221789Y-99489711D01*
X191221786Y-99489707D01*
X191110292Y-99378213D01*
X191110288Y-99378210D01*
X190979185Y-99290609D01*
X190979172Y-99290602D01*
X190833501Y-99230264D01*
X190833489Y-99230261D01*
X190678845Y-99199500D01*
X190678842Y-99199500D01*
X190521158Y-99199500D01*
X190521155Y-99199500D01*
X190366510Y-99230261D01*
X190366498Y-99230264D01*
X190220827Y-99290602D01*
X190220814Y-99290609D01*
X190089711Y-99378210D01*
X190089707Y-99378213D01*
X189978213Y-99489707D01*
X189978210Y-99489711D01*
X189890609Y-99620814D01*
X189890602Y-99620827D01*
X189830264Y-99766498D01*
X189830261Y-99766508D01*
X189800302Y-99917122D01*
X189767917Y-99979033D01*
X189707201Y-100013607D01*
X189654494Y-100014547D01*
X189578846Y-99999500D01*
X189578842Y-99999500D01*
X189421158Y-99999500D01*
X189421155Y-99999500D01*
X189266510Y-100030261D01*
X189266498Y-100030264D01*
X189120827Y-100090602D01*
X189120814Y-100090609D01*
X188989711Y-100178210D01*
X188989707Y-100178213D01*
X188878213Y-100289707D01*
X188878210Y-100289711D01*
X188790609Y-100420814D01*
X188790602Y-100420827D01*
X188730264Y-100566498D01*
X188730261Y-100566510D01*
X188699500Y-100721153D01*
X188209729Y-100721153D01*
X188155501Y-100684919D01*
X188155488Y-100684912D01*
X188018917Y-100628343D01*
X188018907Y-100628340D01*
X187873920Y-100599500D01*
X187873918Y-100599500D01*
X187824500Y-100599500D01*
X187757461Y-100579815D01*
X187711706Y-100527011D01*
X187700500Y-100475500D01*
X187700500Y-100321155D01*
X187700499Y-100321153D01*
X187694244Y-100289707D01*
X187669737Y-100166503D01*
X187661170Y-100145821D01*
X187609397Y-100020827D01*
X187609390Y-100020814D01*
X187521789Y-99889711D01*
X187521786Y-99889707D01*
X187410292Y-99778213D01*
X187410288Y-99778210D01*
X187279185Y-99690609D01*
X187279172Y-99690602D01*
X187133501Y-99630264D01*
X187133489Y-99630261D01*
X186978845Y-99599500D01*
X186978842Y-99599500D01*
X186821158Y-99599500D01*
X186821155Y-99599500D01*
X186666510Y-99630261D01*
X186666498Y-99630264D01*
X186520827Y-99690602D01*
X186520814Y-99690609D01*
X186389711Y-99778210D01*
X186389707Y-99778213D01*
X186278213Y-99889707D01*
X186278210Y-99889711D01*
X186190609Y-100020814D01*
X186190602Y-100020827D01*
X186130264Y-100166498D01*
X186130261Y-100166510D01*
X186099500Y-100321153D01*
X186099500Y-100478846D01*
X186130261Y-100633489D01*
X186130264Y-100633501D01*
X186190602Y-100779172D01*
X186190609Y-100779185D01*
X186278210Y-100910288D01*
X186278213Y-100910292D01*
X186389707Y-101021786D01*
X186389711Y-101021789D01*
X186520814Y-101109390D01*
X186520827Y-101109397D01*
X186611101Y-101146789D01*
X186666503Y-101169737D01*
X186821153Y-101200499D01*
X186821156Y-101200500D01*
X186925500Y-101200500D01*
X186992539Y-101220185D01*
X187038294Y-101272989D01*
X187049500Y-101324500D01*
X187049500Y-101423918D01*
X187049500Y-101423920D01*
X187049499Y-101423920D01*
X187078340Y-101568907D01*
X187078343Y-101568917D01*
X187134914Y-101705493D01*
X187134915Y-101705495D01*
X187168735Y-101756111D01*
X187189612Y-101822789D01*
X187171126Y-101890168D01*
X187168735Y-101893889D01*
X187134915Y-101944504D01*
X187134914Y-101944506D01*
X187078343Y-102081082D01*
X187078340Y-102081092D01*
X187049500Y-102226079D01*
X187049500Y-102226082D01*
X187049500Y-102373918D01*
X187049500Y-102373920D01*
X187049499Y-102373920D01*
X187078340Y-102518907D01*
X187078343Y-102518917D01*
X187134914Y-102655493D01*
X187134915Y-102655495D01*
X187168735Y-102706111D01*
X187189612Y-102772789D01*
X187171126Y-102840168D01*
X187168735Y-102843889D01*
X187134915Y-102894504D01*
X187134914Y-102894506D01*
X187078343Y-103031082D01*
X187078340Y-103031092D01*
X187049500Y-103176079D01*
X187049500Y-103176082D01*
X187049500Y-103323918D01*
X187049500Y-103323920D01*
X187049499Y-103323920D01*
X187078340Y-103468907D01*
X187078343Y-103468917D01*
X187134912Y-103605488D01*
X187134919Y-103605501D01*
X187217048Y-103728415D01*
X187217051Y-103728419D01*
X187321580Y-103832948D01*
X187321584Y-103832951D01*
X187444498Y-103915080D01*
X187444511Y-103915087D01*
X187586714Y-103973989D01*
X187585785Y-103976230D01*
X187635283Y-104008644D01*
X187663761Y-104072446D01*
X187653224Y-104141517D01*
X187607018Y-104193926D01*
X187565068Y-104210656D01*
X187466509Y-104230261D01*
X187466506Y-104230262D01*
X187466504Y-104230262D01*
X187466503Y-104230263D01*
X187397449Y-104258865D01*
X187327982Y-104266333D01*
X187302552Y-104258865D01*
X187233497Y-104230263D01*
X187233493Y-104230262D01*
X187233488Y-104230260D01*
X187078845Y-104199500D01*
X187078842Y-104199500D01*
X186921158Y-104199500D01*
X186921155Y-104199500D01*
X186766511Y-104230260D01*
X186766506Y-104230262D01*
X186766504Y-104230262D01*
X186766503Y-104230263D01*
X186697449Y-104258865D01*
X186627982Y-104266333D01*
X186602552Y-104258865D01*
X186533497Y-104230263D01*
X186533493Y-104230262D01*
X186533488Y-104230260D01*
X186378845Y-104199500D01*
X186378842Y-104199500D01*
X186221158Y-104199500D01*
X186221155Y-104199500D01*
X186066511Y-104230260D01*
X186066506Y-104230262D01*
X186066504Y-104230262D01*
X186066503Y-104230263D01*
X185997449Y-104258865D01*
X185927982Y-104266333D01*
X185902552Y-104258865D01*
X185833497Y-104230263D01*
X185833493Y-104230262D01*
X185833488Y-104230260D01*
X185678845Y-104199500D01*
X185678842Y-104199500D01*
X185521158Y-104199500D01*
X185521155Y-104199500D01*
X185366510Y-104230261D01*
X185366498Y-104230264D01*
X185220827Y-104290602D01*
X185220814Y-104290609D01*
X185089711Y-104378210D01*
X185089707Y-104378213D01*
X184978213Y-104489707D01*
X184978210Y-104489711D01*
X184890609Y-104620814D01*
X184890602Y-104620827D01*
X184830264Y-104766498D01*
X184830261Y-104766510D01*
X184799500Y-104921153D01*
X181498052Y-104921153D01*
X181509394Y-104904179D01*
X181519747Y-104879185D01*
X181524540Y-104867614D01*
X181569735Y-104758501D01*
X181569737Y-104758497D01*
X181600500Y-104603842D01*
X181600500Y-104446158D01*
X181600500Y-104446155D01*
X181600499Y-104446153D01*
X181569738Y-104291510D01*
X181569737Y-104291503D01*
X181569367Y-104290609D01*
X181509397Y-104145827D01*
X181509390Y-104145814D01*
X181421789Y-104014711D01*
X181421786Y-104014707D01*
X181310292Y-103903213D01*
X181310288Y-103903210D01*
X181179185Y-103815609D01*
X181179172Y-103815602D01*
X181033501Y-103755264D01*
X181033489Y-103755261D01*
X180878845Y-103724500D01*
X180878842Y-103724500D01*
X180721158Y-103724500D01*
X180721155Y-103724500D01*
X180566511Y-103755260D01*
X180566506Y-103755262D01*
X180566504Y-103755262D01*
X180566503Y-103755263D01*
X180556396Y-103759449D01*
X180486929Y-103766915D01*
X180440058Y-103747988D01*
X180354185Y-103690609D01*
X180354172Y-103690602D01*
X180208501Y-103630264D01*
X180208489Y-103630261D01*
X180053845Y-103599500D01*
X180053842Y-103599500D01*
X179896158Y-103599500D01*
X179896155Y-103599500D01*
X179741510Y-103630261D01*
X179741498Y-103630264D01*
X179595828Y-103690602D01*
X179595817Y-103690608D01*
X179567023Y-103709848D01*
X179500345Y-103730725D01*
X179473941Y-103728362D01*
X179328844Y-103699500D01*
X179328842Y-103699500D01*
X179171158Y-103699500D01*
X179171155Y-103699500D01*
X179016510Y-103730261D01*
X179016498Y-103730264D01*
X178870827Y-103790602D01*
X178870814Y-103790609D01*
X178739711Y-103878210D01*
X178739707Y-103878213D01*
X178628213Y-103989707D01*
X178628210Y-103989711D01*
X178540609Y-104120814D01*
X178540602Y-104120827D01*
X178480264Y-104266498D01*
X178480261Y-104266510D01*
X178449500Y-104421153D01*
X168000500Y-104421153D01*
X168000500Y-100446153D01*
X169424500Y-100446153D01*
X169424500Y-100603846D01*
X169455261Y-100758489D01*
X169455264Y-100758501D01*
X169515602Y-100904172D01*
X169515609Y-100904185D01*
X169603210Y-101035288D01*
X169603213Y-101035292D01*
X169714707Y-101146786D01*
X169714711Y-101146789D01*
X169845814Y-101234390D01*
X169845827Y-101234397D01*
X169958662Y-101281134D01*
X169991503Y-101294737D01*
X170141131Y-101324500D01*
X170146153Y-101325499D01*
X170146156Y-101325500D01*
X170146158Y-101325500D01*
X170303844Y-101325500D01*
X170303845Y-101325499D01*
X170458497Y-101294737D01*
X170604179Y-101234394D01*
X170735289Y-101146789D01*
X170846789Y-101035289D01*
X170934394Y-100904179D01*
X170988349Y-100773920D01*
X180049499Y-100773920D01*
X180078340Y-100918907D01*
X180078343Y-100918917D01*
X180134914Y-101055493D01*
X180134915Y-101055495D01*
X180168735Y-101106111D01*
X180189612Y-101172789D01*
X180171126Y-101240168D01*
X180168735Y-101243889D01*
X180134915Y-101294504D01*
X180134914Y-101294506D01*
X180078343Y-101431082D01*
X180078340Y-101431092D01*
X180049500Y-101576079D01*
X180049500Y-101576082D01*
X180049500Y-101723918D01*
X180049500Y-101723920D01*
X180049499Y-101723920D01*
X180078340Y-101868907D01*
X180078343Y-101868917D01*
X180134914Y-102005493D01*
X180134915Y-102005495D01*
X180168735Y-102056111D01*
X180189612Y-102122789D01*
X180171126Y-102190168D01*
X180168735Y-102193889D01*
X180134915Y-102244504D01*
X180134914Y-102244506D01*
X180078343Y-102381082D01*
X180078340Y-102381092D01*
X180049500Y-102526079D01*
X180049500Y-102526082D01*
X180049500Y-102673918D01*
X180049500Y-102673920D01*
X180049499Y-102673920D01*
X180078340Y-102818907D01*
X180078343Y-102818917D01*
X180134912Y-102955488D01*
X180134919Y-102955501D01*
X180217048Y-103078415D01*
X180217051Y-103078419D01*
X180321580Y-103182948D01*
X180321584Y-103182951D01*
X180444498Y-103265080D01*
X180444511Y-103265087D01*
X180581082Y-103321656D01*
X180581087Y-103321658D01*
X180581091Y-103321658D01*
X180581092Y-103321659D01*
X180726079Y-103350500D01*
X180726082Y-103350500D01*
X180873920Y-103350500D01*
X181007551Y-103323918D01*
X181018913Y-103321658D01*
X181155495Y-103265084D01*
X181278416Y-103182951D01*
X181382951Y-103078416D01*
X181465084Y-102955495D01*
X181465831Y-102953693D01*
X181511312Y-102843891D01*
X181521658Y-102818913D01*
X181545667Y-102698215D01*
X181578052Y-102636304D01*
X181638768Y-102601730D01*
X181708537Y-102605469D01*
X181765209Y-102646336D01*
X181770386Y-102653515D01*
X181797600Y-102694243D01*
X181797603Y-102694247D01*
X181909097Y-102805741D01*
X181909101Y-102805744D01*
X182040204Y-102893345D01*
X182040217Y-102893352D01*
X182185888Y-102953690D01*
X182185893Y-102953692D01*
X182340543Y-102984454D01*
X182340546Y-102984455D01*
X182340548Y-102984455D01*
X182498234Y-102984455D01*
X182498235Y-102984454D01*
X182652887Y-102953692D01*
X182798569Y-102893349D01*
X182929679Y-102805744D01*
X183041179Y-102694244D01*
X183128784Y-102563134D01*
X183189127Y-102417452D01*
X183219890Y-102262797D01*
X183219890Y-102105113D01*
X183219890Y-102105110D01*
X183219889Y-102105108D01*
X183203122Y-102020814D01*
X183189127Y-101950458D01*
X183173065Y-101911681D01*
X183128787Y-101804782D01*
X183128780Y-101804769D01*
X183041179Y-101673666D01*
X183041176Y-101673662D01*
X182929682Y-101562168D01*
X182929678Y-101562165D01*
X182798575Y-101474564D01*
X182798562Y-101474557D01*
X182652891Y-101414219D01*
X182652879Y-101414216D01*
X182498235Y-101383455D01*
X182498232Y-101383455D01*
X182340548Y-101383455D01*
X182340545Y-101383455D01*
X182185900Y-101414216D01*
X182185888Y-101414219D01*
X182040217Y-101474557D01*
X182040204Y-101474564D01*
X181909101Y-101562165D01*
X181909097Y-101562168D01*
X181797603Y-101673662D01*
X181797598Y-101673668D01*
X181777601Y-101703596D01*
X181723988Y-101748401D01*
X181654663Y-101757107D01*
X181591636Y-101726951D01*
X181554918Y-101667508D01*
X181550500Y-101634704D01*
X181550500Y-101576079D01*
X181521659Y-101431092D01*
X181521658Y-101431091D01*
X181521658Y-101431087D01*
X181517807Y-101421789D01*
X181465087Y-101294511D01*
X181465084Y-101294506D01*
X181465084Y-101294505D01*
X181452772Y-101276079D01*
X181431265Y-101243891D01*
X181410387Y-101177214D01*
X181428871Y-101109834D01*
X181431265Y-101106109D01*
X181442447Y-101089372D01*
X181465084Y-101055495D01*
X181477447Y-101025645D01*
X181521287Y-100971242D01*
X181587581Y-100949176D01*
X181639461Y-100958535D01*
X181666503Y-100969737D01*
X181821153Y-101000499D01*
X181821156Y-101000500D01*
X181821158Y-101000500D01*
X181978844Y-101000500D01*
X181978845Y-101000499D01*
X182133497Y-100969737D01*
X182279179Y-100909394D01*
X182410289Y-100821789D01*
X182521789Y-100710289D01*
X182609394Y-100579179D01*
X182669737Y-100433497D01*
X182700500Y-100278842D01*
X182700500Y-100121158D01*
X182700500Y-100121155D01*
X182700499Y-100121153D01*
X182694422Y-100090602D01*
X182669737Y-99966503D01*
X182650955Y-99921158D01*
X182609397Y-99820827D01*
X182609390Y-99820814D01*
X182521789Y-99689711D01*
X182521786Y-99689707D01*
X182410292Y-99578213D01*
X182410288Y-99578210D01*
X182279185Y-99490609D01*
X182279172Y-99490602D01*
X182133501Y-99430264D01*
X182133489Y-99430261D01*
X181978845Y-99399500D01*
X181978842Y-99399500D01*
X181821158Y-99399500D01*
X181821155Y-99399500D01*
X181666510Y-99430261D01*
X181666498Y-99430264D01*
X181520827Y-99490602D01*
X181520814Y-99490609D01*
X181389711Y-99578210D01*
X181389707Y-99578213D01*
X181278213Y-99689707D01*
X181278210Y-99689711D01*
X181190609Y-99820814D01*
X181190604Y-99820824D01*
X181156199Y-99903885D01*
X181112357Y-99958289D01*
X181046063Y-99980353D01*
X181017447Y-99978049D01*
X180873922Y-99949500D01*
X180873918Y-99949500D01*
X180726082Y-99949500D01*
X180726080Y-99949500D01*
X180581092Y-99978340D01*
X180581082Y-99978343D01*
X180444511Y-100034912D01*
X180444498Y-100034919D01*
X180321584Y-100117048D01*
X180321580Y-100117051D01*
X180217051Y-100221580D01*
X180217048Y-100221584D01*
X180134919Y-100344498D01*
X180134912Y-100344511D01*
X180078343Y-100481082D01*
X180078340Y-100481092D01*
X180049500Y-100626079D01*
X180049500Y-100626082D01*
X180049500Y-100773918D01*
X180049500Y-100773920D01*
X180049499Y-100773920D01*
X170988349Y-100773920D01*
X170994737Y-100758497D01*
X171010048Y-100681520D01*
X171025500Y-100603845D01*
X171025500Y-100446155D01*
X171025499Y-100446153D01*
X171012177Y-100379179D01*
X170994737Y-100291503D01*
X170970712Y-100233501D01*
X170934397Y-100145827D01*
X170934390Y-100145814D01*
X170846789Y-100014711D01*
X170846786Y-100014707D01*
X170735292Y-99903213D01*
X170735288Y-99903210D01*
X170604185Y-99815609D01*
X170604172Y-99815602D01*
X170458501Y-99755264D01*
X170458489Y-99755261D01*
X170303845Y-99724500D01*
X170303842Y-99724500D01*
X170146158Y-99724500D01*
X170146155Y-99724500D01*
X169991510Y-99755261D01*
X169991498Y-99755264D01*
X169845827Y-99815602D01*
X169845814Y-99815609D01*
X169714711Y-99903210D01*
X169714707Y-99903213D01*
X169603213Y-100014707D01*
X169603210Y-100014711D01*
X169515609Y-100145814D01*
X169515602Y-100145827D01*
X169455264Y-100291498D01*
X169455261Y-100291510D01*
X169424500Y-100446153D01*
X168000500Y-100446153D01*
X168000500Y-99021153D01*
X182799500Y-99021153D01*
X182799500Y-99178846D01*
X182830261Y-99333489D01*
X182830264Y-99333501D01*
X182890602Y-99479172D01*
X182890609Y-99479185D01*
X182978210Y-99610288D01*
X182978213Y-99610292D01*
X183089707Y-99721786D01*
X183089711Y-99721789D01*
X183220814Y-99809390D01*
X183220827Y-99809397D01*
X183366498Y-99869735D01*
X183366503Y-99869737D01*
X183521153Y-99900499D01*
X183521156Y-99900500D01*
X183521158Y-99900500D01*
X183678844Y-99900500D01*
X183678845Y-99900499D01*
X183833497Y-99869737D01*
X183951592Y-99820821D01*
X183979172Y-99809397D01*
X183979172Y-99809396D01*
X183979179Y-99809394D01*
X184110289Y-99721789D01*
X184221789Y-99610289D01*
X184309394Y-99479179D01*
X184369737Y-99333497D01*
X184400500Y-99178842D01*
X184400500Y-99021158D01*
X184400500Y-99021155D01*
X184384209Y-98939258D01*
X184384209Y-98939257D01*
X184380608Y-98921153D01*
X191699500Y-98921153D01*
X191699500Y-99078846D01*
X191730261Y-99233489D01*
X191730264Y-99233501D01*
X191790602Y-99379172D01*
X191790609Y-99379185D01*
X191878210Y-99510288D01*
X191878213Y-99510292D01*
X191989707Y-99621786D01*
X191989711Y-99621789D01*
X192120814Y-99709390D01*
X192120827Y-99709397D01*
X192258683Y-99766498D01*
X192266503Y-99769737D01*
X192421153Y-99800499D01*
X192421156Y-99800500D01*
X192421158Y-99800500D01*
X192578844Y-99800500D01*
X192578845Y-99800499D01*
X192733497Y-99769737D01*
X192879179Y-99709394D01*
X193010289Y-99621789D01*
X193121789Y-99510289D01*
X193209394Y-99379179D01*
X193269737Y-99233497D01*
X193292083Y-99121158D01*
X193292084Y-99121153D01*
X194799500Y-99121153D01*
X194799500Y-99278846D01*
X194830261Y-99433489D01*
X194830264Y-99433501D01*
X194890602Y-99579172D01*
X194890609Y-99579185D01*
X194978210Y-99710288D01*
X194978213Y-99710292D01*
X195089707Y-99821786D01*
X195089711Y-99821789D01*
X195220814Y-99909390D01*
X195220827Y-99909397D01*
X195358683Y-99966498D01*
X195366503Y-99969737D01*
X195516131Y-99999500D01*
X195521153Y-100000499D01*
X195521156Y-100000500D01*
X195521158Y-100000500D01*
X195678844Y-100000500D01*
X195678845Y-100000499D01*
X195833497Y-99969737D01*
X195979179Y-99909394D01*
X196110289Y-99821789D01*
X196221789Y-99710289D01*
X196309394Y-99579179D01*
X196335439Y-99516301D01*
X196379279Y-99461897D01*
X196445573Y-99439832D01*
X196513273Y-99457111D01*
X196560884Y-99508248D01*
X196564561Y-99516301D01*
X196590602Y-99579172D01*
X196590609Y-99579185D01*
X196678210Y-99710288D01*
X196678213Y-99710292D01*
X196789707Y-99821786D01*
X196789711Y-99821789D01*
X196920814Y-99909390D01*
X196920827Y-99909397D01*
X197058683Y-99966498D01*
X197066503Y-99969737D01*
X197216131Y-99999500D01*
X197221153Y-100000499D01*
X197221156Y-100000500D01*
X197221158Y-100000500D01*
X197378844Y-100000500D01*
X197378845Y-100000499D01*
X197533497Y-99969737D01*
X197679179Y-99909394D01*
X197810289Y-99821789D01*
X197921789Y-99710289D01*
X198009394Y-99579179D01*
X198069737Y-99433497D01*
X198100500Y-99278842D01*
X198100500Y-99121158D01*
X198100500Y-99121155D01*
X198100499Y-99121153D01*
X198094476Y-99090874D01*
X198069737Y-98966503D01*
X198067113Y-98960167D01*
X198009397Y-98820827D01*
X198009390Y-98820814D01*
X197921789Y-98689711D01*
X197921786Y-98689707D01*
X197810292Y-98578213D01*
X197810288Y-98578210D01*
X197679185Y-98490609D01*
X197679172Y-98490602D01*
X197533501Y-98430264D01*
X197533489Y-98430261D01*
X197378845Y-98399500D01*
X197378842Y-98399500D01*
X197221158Y-98399500D01*
X197221155Y-98399500D01*
X197066510Y-98430261D01*
X197066498Y-98430264D01*
X196920827Y-98490602D01*
X196920814Y-98490609D01*
X196789711Y-98578210D01*
X196789707Y-98578213D01*
X196678213Y-98689707D01*
X196678210Y-98689711D01*
X196590609Y-98820814D01*
X196590604Y-98820823D01*
X196564561Y-98883699D01*
X196520720Y-98938102D01*
X196454426Y-98960167D01*
X196386727Y-98942888D01*
X196339116Y-98891751D01*
X196335439Y-98883699D01*
X196309395Y-98820823D01*
X196309390Y-98820814D01*
X196221789Y-98689711D01*
X196221786Y-98689707D01*
X196110292Y-98578213D01*
X196110288Y-98578210D01*
X195979185Y-98490609D01*
X195979172Y-98490602D01*
X195833501Y-98430264D01*
X195833489Y-98430261D01*
X195678845Y-98399500D01*
X195678842Y-98399500D01*
X195521158Y-98399500D01*
X195521155Y-98399500D01*
X195366510Y-98430261D01*
X195366498Y-98430264D01*
X195220827Y-98490602D01*
X195220814Y-98490609D01*
X195089711Y-98578210D01*
X195089707Y-98578213D01*
X194978213Y-98689707D01*
X194978210Y-98689711D01*
X194890609Y-98820814D01*
X194890602Y-98820827D01*
X194830264Y-98966498D01*
X194830261Y-98966510D01*
X194799500Y-99121153D01*
X193292084Y-99121153D01*
X193298107Y-99090875D01*
X193298107Y-99090874D01*
X193300500Y-99078844D01*
X193300500Y-98921155D01*
X193300499Y-98921153D01*
X193269737Y-98766503D01*
X193237929Y-98689711D01*
X193209397Y-98620827D01*
X193209390Y-98620814D01*
X193121789Y-98489711D01*
X193121786Y-98489707D01*
X193010292Y-98378213D01*
X193010288Y-98378210D01*
X192879185Y-98290609D01*
X192879175Y-98290604D01*
X192808342Y-98261264D01*
X192753939Y-98217423D01*
X192731874Y-98151129D01*
X192749153Y-98083429D01*
X192800291Y-98035819D01*
X192831601Y-98025086D01*
X192858497Y-98019737D01*
X193004179Y-97959394D01*
X193135289Y-97871789D01*
X193246789Y-97760289D01*
X193272939Y-97721153D01*
X198699500Y-97721153D01*
X198699500Y-97878846D01*
X198730261Y-98033489D01*
X198730264Y-98033501D01*
X198790602Y-98179172D01*
X198790609Y-98179185D01*
X198878210Y-98310288D01*
X198878213Y-98310292D01*
X198989707Y-98421786D01*
X198989711Y-98421789D01*
X199120814Y-98509390D01*
X199120827Y-98509397D01*
X199266498Y-98569735D01*
X199266503Y-98569737D01*
X199421153Y-98600499D01*
X199421156Y-98600500D01*
X199421158Y-98600500D01*
X199578844Y-98600500D01*
X199578845Y-98600499D01*
X199733497Y-98569737D01*
X199879179Y-98509394D01*
X200010289Y-98421789D01*
X200121789Y-98310289D01*
X200209394Y-98179179D01*
X200269737Y-98033497D01*
X200300500Y-97878842D01*
X200300500Y-97721158D01*
X200300500Y-97721155D01*
X200300499Y-97721153D01*
X200285585Y-97646175D01*
X200269737Y-97566503D01*
X200269735Y-97566498D01*
X200209397Y-97420827D01*
X200209390Y-97420814D01*
X200121789Y-97289711D01*
X200121786Y-97289707D01*
X200010292Y-97178213D01*
X200010288Y-97178210D01*
X199879185Y-97090609D01*
X199879172Y-97090602D01*
X199733501Y-97030264D01*
X199733489Y-97030261D01*
X199578845Y-96999500D01*
X199578842Y-96999500D01*
X199421158Y-96999500D01*
X199421155Y-96999500D01*
X199266510Y-97030261D01*
X199266498Y-97030264D01*
X199120827Y-97090602D01*
X199120814Y-97090609D01*
X198989711Y-97178210D01*
X198989707Y-97178213D01*
X198878213Y-97289707D01*
X198878210Y-97289711D01*
X198790609Y-97420814D01*
X198790602Y-97420827D01*
X198730264Y-97566498D01*
X198730261Y-97566510D01*
X198699500Y-97721153D01*
X193272939Y-97721153D01*
X193334394Y-97629179D01*
X193394737Y-97483497D01*
X193425500Y-97328842D01*
X193425500Y-97171158D01*
X193425500Y-97171155D01*
X193425499Y-97171153D01*
X193418365Y-97135288D01*
X193394737Y-97016503D01*
X193387694Y-96999500D01*
X193334397Y-96870827D01*
X193334390Y-96870814D01*
X193246789Y-96739711D01*
X193246786Y-96739707D01*
X193135292Y-96628213D01*
X193135288Y-96628210D01*
X193004185Y-96540609D01*
X193004172Y-96540602D01*
X192858501Y-96480264D01*
X192858489Y-96480261D01*
X192703845Y-96449500D01*
X192703842Y-96449500D01*
X192546158Y-96449500D01*
X192546155Y-96449500D01*
X192391510Y-96480261D01*
X192391498Y-96480264D01*
X192245827Y-96540602D01*
X192245814Y-96540609D01*
X192114711Y-96628210D01*
X192114707Y-96628213D01*
X192003213Y-96739707D01*
X192003210Y-96739711D01*
X191915609Y-96870814D01*
X191915602Y-96870827D01*
X191855264Y-97016498D01*
X191855261Y-97016510D01*
X191824500Y-97171153D01*
X191824500Y-97328846D01*
X191855261Y-97483489D01*
X191855264Y-97483501D01*
X191915602Y-97629172D01*
X191915609Y-97629185D01*
X192003210Y-97760288D01*
X192003213Y-97760292D01*
X192114707Y-97871786D01*
X192114711Y-97871789D01*
X192245814Y-97959390D01*
X192245827Y-97959397D01*
X192316656Y-97988735D01*
X192371060Y-98032576D01*
X192393125Y-98098870D01*
X192375846Y-98166569D01*
X192324709Y-98214180D01*
X192293396Y-98224913D01*
X192266508Y-98230261D01*
X192266498Y-98230264D01*
X192120827Y-98290602D01*
X192120814Y-98290609D01*
X191989711Y-98378210D01*
X191989707Y-98378213D01*
X191878213Y-98489707D01*
X191878210Y-98489711D01*
X191790609Y-98620814D01*
X191790602Y-98620827D01*
X191730264Y-98766498D01*
X191730261Y-98766510D01*
X191699500Y-98921153D01*
X184380608Y-98921153D01*
X184374759Y-98891751D01*
X184369737Y-98866503D01*
X184328314Y-98766498D01*
X184309397Y-98720827D01*
X184309390Y-98720814D01*
X184221789Y-98589711D01*
X184221786Y-98589707D01*
X184110292Y-98478213D01*
X184110288Y-98478210D01*
X183979185Y-98390609D01*
X183979172Y-98390602D01*
X183833501Y-98330264D01*
X183833489Y-98330261D01*
X183678845Y-98299500D01*
X183678842Y-98299500D01*
X183521158Y-98299500D01*
X183521155Y-98299500D01*
X183366510Y-98330261D01*
X183366498Y-98330264D01*
X183220827Y-98390602D01*
X183220814Y-98390609D01*
X183089711Y-98478210D01*
X183089707Y-98478213D01*
X182978213Y-98589707D01*
X182978210Y-98589711D01*
X182890609Y-98720814D01*
X182890602Y-98720827D01*
X182830264Y-98866498D01*
X182830261Y-98866510D01*
X182799500Y-99021153D01*
X168000500Y-99021153D01*
X168000500Y-95921153D01*
X173699500Y-95921153D01*
X173699500Y-96078846D01*
X173730261Y-96233489D01*
X173730264Y-96233501D01*
X173790602Y-96379172D01*
X173790609Y-96379185D01*
X173878210Y-96510288D01*
X173878213Y-96510292D01*
X173989707Y-96621786D01*
X173989711Y-96621789D01*
X174120814Y-96709390D01*
X174120827Y-96709397D01*
X174266498Y-96769735D01*
X174266503Y-96769737D01*
X174421153Y-96800499D01*
X174421156Y-96800500D01*
X174421158Y-96800500D01*
X174578844Y-96800500D01*
X174578845Y-96800499D01*
X174733497Y-96769737D01*
X174879179Y-96709394D01*
X175010289Y-96621789D01*
X175121789Y-96510289D01*
X175209394Y-96379179D01*
X175269737Y-96233497D01*
X175300500Y-96078842D01*
X175300500Y-95971153D01*
X176274500Y-95971153D01*
X176274500Y-96128846D01*
X176305261Y-96283489D01*
X176305264Y-96283501D01*
X176365602Y-96429172D01*
X176365609Y-96429185D01*
X176453210Y-96560288D01*
X176453213Y-96560292D01*
X176564707Y-96671786D01*
X176564711Y-96671789D01*
X176695814Y-96759390D01*
X176695827Y-96759397D01*
X176795060Y-96800500D01*
X176841503Y-96819737D01*
X176996153Y-96850499D01*
X176996156Y-96850500D01*
X176996158Y-96850500D01*
X177153844Y-96850500D01*
X177153845Y-96850499D01*
X177308497Y-96819737D01*
X177454179Y-96759394D01*
X177473996Y-96746153D01*
X181999500Y-96746153D01*
X181999500Y-96903846D01*
X182030261Y-97058489D01*
X182030264Y-97058501D01*
X182090602Y-97204172D01*
X182090609Y-97204185D01*
X182178210Y-97335288D01*
X182178213Y-97335292D01*
X182289707Y-97446786D01*
X182289711Y-97446789D01*
X182420814Y-97534390D01*
X182420827Y-97534397D01*
X182511101Y-97571789D01*
X182566503Y-97594737D01*
X182721153Y-97625499D01*
X182721156Y-97625500D01*
X182721158Y-97625500D01*
X182878844Y-97625500D01*
X182878845Y-97625499D01*
X183033497Y-97594737D01*
X183179179Y-97534394D01*
X183310289Y-97446789D01*
X183421789Y-97335289D01*
X183509394Y-97204179D01*
X183569737Y-97058497D01*
X183600500Y-96903842D01*
X183600500Y-96746158D01*
X183600500Y-96746155D01*
X183600499Y-96746153D01*
X183593186Y-96709390D01*
X183569737Y-96591503D01*
X183561170Y-96570821D01*
X183509397Y-96445827D01*
X183509390Y-96445814D01*
X183421789Y-96314711D01*
X183421786Y-96314707D01*
X183310292Y-96203213D01*
X183310288Y-96203210D01*
X183179185Y-96115609D01*
X183179172Y-96115602D01*
X183033501Y-96055264D01*
X183033489Y-96055261D01*
X182878845Y-96024500D01*
X182878842Y-96024500D01*
X182721158Y-96024500D01*
X182721155Y-96024500D01*
X182566510Y-96055261D01*
X182566498Y-96055264D01*
X182420827Y-96115602D01*
X182420814Y-96115609D01*
X182289711Y-96203210D01*
X182289707Y-96203213D01*
X182178213Y-96314707D01*
X182178210Y-96314711D01*
X182090609Y-96445814D01*
X182090602Y-96445827D01*
X182030264Y-96591498D01*
X182030261Y-96591510D01*
X181999500Y-96746153D01*
X177473996Y-96746153D01*
X177585289Y-96671789D01*
X177585292Y-96671786D01*
X177604694Y-96652385D01*
X177696786Y-96560292D01*
X177696789Y-96560289D01*
X177784394Y-96429179D01*
X177844737Y-96283497D01*
X177875500Y-96128842D01*
X177875500Y-95971158D01*
X177875500Y-95971155D01*
X177875499Y-95971153D01*
X177865553Y-95921153D01*
X177844737Y-95816503D01*
X177829777Y-95780386D01*
X177784397Y-95670827D01*
X177784390Y-95670814D01*
X177696789Y-95539711D01*
X177696786Y-95539707D01*
X177585292Y-95428213D01*
X177585288Y-95428210D01*
X177462482Y-95346153D01*
X190574500Y-95346153D01*
X190574500Y-95503846D01*
X190605261Y-95658489D01*
X190605264Y-95658501D01*
X190665602Y-95804172D01*
X190665609Y-95804185D01*
X190753210Y-95935288D01*
X190753213Y-95935292D01*
X190864707Y-96046786D01*
X190864711Y-96046789D01*
X190995814Y-96134390D01*
X190995827Y-96134397D01*
X191141498Y-96194735D01*
X191141503Y-96194737D01*
X191277487Y-96221786D01*
X191296153Y-96225499D01*
X191296156Y-96225500D01*
X191296158Y-96225500D01*
X191453844Y-96225500D01*
X191453845Y-96225499D01*
X191608497Y-96194737D01*
X191754179Y-96134394D01*
X191885289Y-96046789D01*
X191996789Y-95935289D01*
X192084394Y-95804179D01*
X192144737Y-95658497D01*
X192175500Y-95503842D01*
X192175500Y-95346158D01*
X192175500Y-95346155D01*
X192175499Y-95346153D01*
X192172980Y-95333489D01*
X192144737Y-95191503D01*
X192084394Y-95045821D01*
X192084391Y-95045816D01*
X192084390Y-95045814D01*
X192067912Y-95021153D01*
X192399500Y-95021153D01*
X192399500Y-95178846D01*
X192430261Y-95333489D01*
X192430264Y-95333501D01*
X192490602Y-95479172D01*
X192490609Y-95479185D01*
X192578210Y-95610288D01*
X192578213Y-95610292D01*
X192689707Y-95721786D01*
X192689711Y-95721789D01*
X192820814Y-95809390D01*
X192820827Y-95809397D01*
X192966498Y-95869735D01*
X192966503Y-95869737D01*
X193121153Y-95900499D01*
X193121156Y-95900500D01*
X193121158Y-95900500D01*
X193278844Y-95900500D01*
X193278845Y-95900499D01*
X193433497Y-95869737D01*
X193579179Y-95809394D01*
X193710289Y-95721789D01*
X193821789Y-95610289D01*
X193881348Y-95521153D01*
X201527347Y-95521153D01*
X201527347Y-95678846D01*
X201558108Y-95833489D01*
X201558111Y-95833501D01*
X201618449Y-95979172D01*
X201618456Y-95979185D01*
X201706057Y-96110288D01*
X201706060Y-96110292D01*
X201817554Y-96221786D01*
X201817558Y-96221789D01*
X201891621Y-96271277D01*
X201936426Y-96324889D01*
X201945133Y-96394214D01*
X201925832Y-96443270D01*
X201840609Y-96570814D01*
X201840602Y-96570827D01*
X201780264Y-96716498D01*
X201780261Y-96716510D01*
X201749500Y-96871153D01*
X201749500Y-97028846D01*
X201780261Y-97183489D01*
X201780264Y-97183501D01*
X201840602Y-97329172D01*
X201840609Y-97329185D01*
X201928210Y-97460288D01*
X201928213Y-97460292D01*
X202039707Y-97571786D01*
X202039711Y-97571789D01*
X202170814Y-97659390D01*
X202170827Y-97659397D01*
X202316498Y-97719735D01*
X202316503Y-97719737D01*
X202471153Y-97750499D01*
X202471156Y-97750500D01*
X202471158Y-97750500D01*
X202628844Y-97750500D01*
X202628845Y-97750499D01*
X202783497Y-97719737D01*
X202929179Y-97659394D01*
X203060289Y-97571789D01*
X203097688Y-97534390D01*
X203137819Y-97494260D01*
X203199142Y-97460775D01*
X203268834Y-97465759D01*
X203324767Y-97507631D01*
X203349184Y-97573095D01*
X203349500Y-97581941D01*
X203349500Y-97628846D01*
X203380261Y-97783489D01*
X203380264Y-97783501D01*
X203440602Y-97929172D01*
X203440609Y-97929185D01*
X203528210Y-98060288D01*
X203528213Y-98060292D01*
X203639707Y-98171786D01*
X203639711Y-98171789D01*
X203770814Y-98259390D01*
X203770827Y-98259397D01*
X203916498Y-98319735D01*
X203916503Y-98319737D01*
X204071153Y-98350499D01*
X204071156Y-98350500D01*
X204071158Y-98350500D01*
X204228844Y-98350500D01*
X204228845Y-98350499D01*
X204383497Y-98319737D01*
X204496166Y-98273067D01*
X204529172Y-98259397D01*
X204529172Y-98259396D01*
X204529179Y-98259394D01*
X204660289Y-98171789D01*
X204771789Y-98060289D01*
X204859394Y-97929179D01*
X204919737Y-97783497D01*
X204950500Y-97628842D01*
X204950500Y-97471158D01*
X204950500Y-97471155D01*
X204950499Y-97471153D01*
X204923474Y-97335292D01*
X204919737Y-97316503D01*
X204919735Y-97316498D01*
X204859397Y-97170827D01*
X204859390Y-97170814D01*
X204771789Y-97039711D01*
X204771786Y-97039707D01*
X204660292Y-96928213D01*
X204660288Y-96928210D01*
X204529185Y-96840609D01*
X204529172Y-96840602D01*
X204383501Y-96780264D01*
X204383489Y-96780261D01*
X204228845Y-96749500D01*
X204228842Y-96749500D01*
X204071158Y-96749500D01*
X204071155Y-96749500D01*
X203916510Y-96780261D01*
X203916498Y-96780264D01*
X203770827Y-96840602D01*
X203770814Y-96840609D01*
X203639711Y-96928210D01*
X203639707Y-96928213D01*
X203562181Y-97005740D01*
X203500858Y-97039225D01*
X203431166Y-97034241D01*
X203375233Y-96992369D01*
X203350816Y-96926905D01*
X203350500Y-96918059D01*
X203350500Y-96871155D01*
X203350499Y-96871153D01*
X203330326Y-96769737D01*
X203319737Y-96716503D01*
X203307800Y-96687686D01*
X203300332Y-96618219D01*
X203331607Y-96555740D01*
X203347765Y-96546153D01*
X205899500Y-96546153D01*
X205899500Y-96703846D01*
X205930261Y-96858489D01*
X205930264Y-96858501D01*
X205990602Y-97004172D01*
X205990609Y-97004185D01*
X206078210Y-97135288D01*
X206078213Y-97135292D01*
X206189707Y-97246786D01*
X206189711Y-97246789D01*
X206320814Y-97334390D01*
X206320827Y-97334397D01*
X206466498Y-97394735D01*
X206466503Y-97394737D01*
X206621153Y-97425499D01*
X206621156Y-97425500D01*
X206621158Y-97425500D01*
X206778844Y-97425500D01*
X206778845Y-97425499D01*
X206933497Y-97394737D01*
X207079179Y-97334394D01*
X207210289Y-97246789D01*
X207321789Y-97135289D01*
X207409394Y-97004179D01*
X207469737Y-96858497D01*
X207500500Y-96703842D01*
X207500500Y-96546158D01*
X207500500Y-96546155D01*
X207500499Y-96546153D01*
X207924500Y-96546153D01*
X207924500Y-96703846D01*
X207955261Y-96858489D01*
X207955264Y-96858501D01*
X208015602Y-97004172D01*
X208015609Y-97004185D01*
X208103210Y-97135288D01*
X208103213Y-97135292D01*
X208214707Y-97246786D01*
X208214711Y-97246789D01*
X208345814Y-97334390D01*
X208345827Y-97334397D01*
X208491498Y-97394735D01*
X208491503Y-97394737D01*
X208646153Y-97425499D01*
X208646156Y-97425500D01*
X208646158Y-97425500D01*
X208803844Y-97425500D01*
X208803845Y-97425499D01*
X208958497Y-97394737D01*
X209104179Y-97334394D01*
X209235289Y-97246789D01*
X209346789Y-97135289D01*
X209434394Y-97004179D01*
X209494737Y-96858497D01*
X209525500Y-96703842D01*
X209525500Y-96546158D01*
X209525500Y-96546155D01*
X209525499Y-96546153D01*
X209512393Y-96480264D01*
X209494737Y-96391503D01*
X209474055Y-96341571D01*
X209434397Y-96245827D01*
X209434390Y-96245814D01*
X209346789Y-96114711D01*
X209346786Y-96114707D01*
X209235292Y-96003213D01*
X209235288Y-96003210D01*
X209104185Y-95915609D01*
X209104172Y-95915602D01*
X208958501Y-95855264D01*
X208958489Y-95855261D01*
X208803845Y-95824500D01*
X208803842Y-95824500D01*
X208646158Y-95824500D01*
X208646155Y-95824500D01*
X208491510Y-95855261D01*
X208491498Y-95855264D01*
X208345827Y-95915602D01*
X208345814Y-95915609D01*
X208214711Y-96003210D01*
X208214707Y-96003213D01*
X208103213Y-96114707D01*
X208103210Y-96114711D01*
X208015609Y-96245814D01*
X208015602Y-96245827D01*
X207955264Y-96391498D01*
X207955261Y-96391510D01*
X207924500Y-96546153D01*
X207500499Y-96546153D01*
X207487393Y-96480264D01*
X207469737Y-96391503D01*
X207449055Y-96341571D01*
X207409397Y-96245827D01*
X207409390Y-96245814D01*
X207321789Y-96114711D01*
X207321786Y-96114707D01*
X207210292Y-96003213D01*
X207210288Y-96003210D01*
X207079185Y-95915609D01*
X207079172Y-95915602D01*
X206933501Y-95855264D01*
X206933489Y-95855261D01*
X206778845Y-95824500D01*
X206778842Y-95824500D01*
X206621158Y-95824500D01*
X206621155Y-95824500D01*
X206466510Y-95855261D01*
X206466498Y-95855264D01*
X206320827Y-95915602D01*
X206320814Y-95915609D01*
X206189711Y-96003210D01*
X206189707Y-96003213D01*
X206078213Y-96114707D01*
X206078210Y-96114711D01*
X205990609Y-96245814D01*
X205990602Y-96245827D01*
X205930264Y-96391498D01*
X205930261Y-96391510D01*
X205899500Y-96546153D01*
X203347765Y-96546153D01*
X203391695Y-96520087D01*
X203422362Y-96516235D01*
X203438109Y-96516235D01*
X203438110Y-96516234D01*
X203592762Y-96485472D01*
X203679607Y-96449500D01*
X203737538Y-96425505D01*
X203737538Y-96425504D01*
X203737988Y-96425317D01*
X203738435Y-96425133D01*
X203738437Y-96425131D01*
X203738444Y-96425129D01*
X203869554Y-96337524D01*
X203981054Y-96226024D01*
X204068659Y-96094914D01*
X204129002Y-95949232D01*
X204159765Y-95794577D01*
X204159765Y-95780386D01*
X204179450Y-95713347D01*
X204232254Y-95667592D01*
X204301412Y-95657648D01*
X204307953Y-95658768D01*
X204317312Y-95660629D01*
X204332922Y-95663735D01*
X204332923Y-95663735D01*
X204490609Y-95663735D01*
X204490610Y-95663734D01*
X204645262Y-95632972D01*
X204790944Y-95572629D01*
X204922054Y-95485024D01*
X205033554Y-95373524D01*
X205121159Y-95242414D01*
X205181502Y-95096732D01*
X205212265Y-94942077D01*
X205212265Y-94784393D01*
X205212265Y-94784390D01*
X205212264Y-94784388D01*
X205199621Y-94720827D01*
X205181502Y-94629738D01*
X205179332Y-94624500D01*
X205121162Y-94484062D01*
X205121155Y-94484049D01*
X205033554Y-94352946D01*
X205033551Y-94352942D01*
X204922057Y-94241448D01*
X204922053Y-94241445D01*
X204790950Y-94153844D01*
X204790937Y-94153837D01*
X204639635Y-94091167D01*
X204640259Y-94089658D01*
X204588418Y-94055670D01*
X204561250Y-93999516D01*
X204544738Y-93916510D01*
X204544737Y-93916503D01*
X204505102Y-93820814D01*
X204484397Y-93770827D01*
X204484390Y-93770814D01*
X204396789Y-93639711D01*
X204396786Y-93639707D01*
X204285292Y-93528213D01*
X204285288Y-93528210D01*
X204154185Y-93440609D01*
X204154172Y-93440602D01*
X204008501Y-93380264D01*
X204008489Y-93380261D01*
X203853845Y-93349500D01*
X203853842Y-93349500D01*
X203696158Y-93349500D01*
X203696155Y-93349500D01*
X203541510Y-93380261D01*
X203541498Y-93380264D01*
X203395827Y-93440602D01*
X203395814Y-93440609D01*
X203264711Y-93528210D01*
X203264706Y-93528214D01*
X203224572Y-93568348D01*
X203163249Y-93601833D01*
X203093557Y-93596847D01*
X203065825Y-93580888D01*
X203065354Y-93581595D01*
X202929185Y-93490609D01*
X202929172Y-93490602D01*
X202783501Y-93430264D01*
X202783489Y-93430261D01*
X202628845Y-93399500D01*
X202628842Y-93399500D01*
X202471158Y-93399500D01*
X202471155Y-93399500D01*
X202316510Y-93430261D01*
X202316498Y-93430264D01*
X202170827Y-93490602D01*
X202170814Y-93490609D01*
X202039711Y-93578210D01*
X202039707Y-93578213D01*
X201928213Y-93689707D01*
X201928210Y-93689711D01*
X201840609Y-93820814D01*
X201840602Y-93820827D01*
X201780264Y-93966498D01*
X201780261Y-93966510D01*
X201749500Y-94121153D01*
X201749500Y-94278846D01*
X201780261Y-94433489D01*
X201780264Y-94433501D01*
X201840602Y-94579172D01*
X201840609Y-94579185D01*
X201928210Y-94710288D01*
X201928213Y-94710292D01*
X201937656Y-94719735D01*
X201971141Y-94781058D01*
X201966157Y-94850750D01*
X201924285Y-94906683D01*
X201918866Y-94910518D01*
X201817558Y-94978210D01*
X201817554Y-94978213D01*
X201706060Y-95089707D01*
X201706057Y-95089711D01*
X201618456Y-95220814D01*
X201618449Y-95220827D01*
X201558111Y-95366498D01*
X201558108Y-95366510D01*
X201527347Y-95521153D01*
X193881348Y-95521153D01*
X193909394Y-95479179D01*
X193969737Y-95333497D01*
X194000500Y-95178842D01*
X194000500Y-95021158D01*
X194000500Y-95021155D01*
X194000499Y-95021153D01*
X193991957Y-94978210D01*
X193969737Y-94866503D01*
X193943521Y-94803211D01*
X193909397Y-94720827D01*
X193909390Y-94720814D01*
X193821789Y-94589711D01*
X193821786Y-94589707D01*
X193710292Y-94478213D01*
X193710288Y-94478210D01*
X193579185Y-94390609D01*
X193579172Y-94390602D01*
X193433501Y-94330264D01*
X193433489Y-94330261D01*
X193278845Y-94299500D01*
X193278842Y-94299500D01*
X193121158Y-94299500D01*
X193121155Y-94299500D01*
X192966510Y-94330261D01*
X192966498Y-94330264D01*
X192820827Y-94390602D01*
X192820814Y-94390609D01*
X192689711Y-94478210D01*
X192689707Y-94478213D01*
X192578213Y-94589707D01*
X192578210Y-94589711D01*
X192490609Y-94720814D01*
X192490602Y-94720827D01*
X192430264Y-94866498D01*
X192430261Y-94866510D01*
X192399500Y-95021153D01*
X192067912Y-95021153D01*
X191996789Y-94914711D01*
X191996786Y-94914707D01*
X191885292Y-94803213D01*
X191885288Y-94803210D01*
X191754185Y-94715609D01*
X191754172Y-94715602D01*
X191608501Y-94655264D01*
X191608489Y-94655261D01*
X191453845Y-94624500D01*
X191453842Y-94624500D01*
X191296158Y-94624500D01*
X191296155Y-94624500D01*
X191141510Y-94655261D01*
X191141498Y-94655264D01*
X190995827Y-94715602D01*
X190995814Y-94715609D01*
X190864711Y-94803210D01*
X190864707Y-94803213D01*
X190753213Y-94914707D01*
X190753210Y-94914711D01*
X190665609Y-95045814D01*
X190665602Y-95045827D01*
X190605264Y-95191498D01*
X190605261Y-95191510D01*
X190574500Y-95346153D01*
X177462482Y-95346153D01*
X177454185Y-95340609D01*
X177454172Y-95340602D01*
X177308501Y-95280264D01*
X177308489Y-95280261D01*
X177153845Y-95249500D01*
X177153842Y-95249500D01*
X176996158Y-95249500D01*
X176996155Y-95249500D01*
X176841510Y-95280261D01*
X176841498Y-95280264D01*
X176695827Y-95340602D01*
X176695814Y-95340609D01*
X176564711Y-95428210D01*
X176564707Y-95428213D01*
X176453213Y-95539707D01*
X176453210Y-95539711D01*
X176365609Y-95670814D01*
X176365602Y-95670827D01*
X176305264Y-95816498D01*
X176305261Y-95816510D01*
X176274500Y-95971153D01*
X175300500Y-95971153D01*
X175300500Y-95921158D01*
X175300500Y-95921155D01*
X175300499Y-95921153D01*
X175287393Y-95855264D01*
X175269737Y-95766503D01*
X175228767Y-95667592D01*
X175209397Y-95620827D01*
X175209390Y-95620814D01*
X175121789Y-95489711D01*
X175121786Y-95489707D01*
X175010292Y-95378213D01*
X175010288Y-95378210D01*
X174879185Y-95290609D01*
X174879172Y-95290602D01*
X174733501Y-95230264D01*
X174733489Y-95230261D01*
X174578845Y-95199500D01*
X174578842Y-95199500D01*
X174421158Y-95199500D01*
X174421155Y-95199500D01*
X174266510Y-95230261D01*
X174266498Y-95230264D01*
X174120827Y-95290602D01*
X174120814Y-95290609D01*
X173989711Y-95378210D01*
X173989707Y-95378213D01*
X173878213Y-95489707D01*
X173878210Y-95489711D01*
X173790609Y-95620814D01*
X173790602Y-95620827D01*
X173730264Y-95766498D01*
X173730261Y-95766510D01*
X173699500Y-95921153D01*
X168000500Y-95921153D01*
X168000500Y-90302190D01*
X168020185Y-90235151D01*
X168072989Y-90189396D01*
X168142147Y-90179452D01*
X168205703Y-90208477D01*
X168239061Y-90254738D01*
X168290602Y-90379172D01*
X168290609Y-90379185D01*
X168378210Y-90510288D01*
X168378213Y-90510292D01*
X168489707Y-90621786D01*
X168489711Y-90621789D01*
X168620814Y-90709390D01*
X168620827Y-90709397D01*
X168766498Y-90769735D01*
X168766503Y-90769737D01*
X168874123Y-90791144D01*
X168921153Y-90800499D01*
X168921156Y-90800500D01*
X168921158Y-90800500D01*
X169078844Y-90800500D01*
X169078845Y-90800499D01*
X169233497Y-90769737D01*
X169364182Y-90715606D01*
X169379172Y-90709397D01*
X169379172Y-90709396D01*
X169379179Y-90709394D01*
X169510289Y-90621789D01*
X169621789Y-90510289D01*
X169709394Y-90379179D01*
X169769737Y-90233497D01*
X169789327Y-90135013D01*
X169792084Y-90121153D01*
X170099500Y-90121153D01*
X170099500Y-90278846D01*
X170130261Y-90433489D01*
X170130264Y-90433501D01*
X170190602Y-90579172D01*
X170190609Y-90579185D01*
X170278210Y-90710288D01*
X170278213Y-90710292D01*
X170389707Y-90821786D01*
X170389711Y-90821789D01*
X170520814Y-90909390D01*
X170520827Y-90909397D01*
X170617646Y-90949500D01*
X170666503Y-90969737D01*
X170821153Y-91000499D01*
X170821156Y-91000500D01*
X170821158Y-91000500D01*
X170978844Y-91000500D01*
X170978845Y-91000499D01*
X171133497Y-90969737D01*
X171279179Y-90909394D01*
X171410289Y-90821789D01*
X171521789Y-90710289D01*
X171609394Y-90579179D01*
X171615389Y-90564707D01*
X171637929Y-90510288D01*
X171669737Y-90433497D01*
X171700500Y-90278842D01*
X171700500Y-90121158D01*
X171700500Y-90121155D01*
X171700499Y-90121153D01*
X171689752Y-90067125D01*
X171669737Y-89966503D01*
X171650955Y-89921158D01*
X171609397Y-89820827D01*
X171609390Y-89820814D01*
X171521789Y-89689711D01*
X171521786Y-89689707D01*
X171410292Y-89578213D01*
X171410288Y-89578210D01*
X171279185Y-89490609D01*
X171279172Y-89490602D01*
X171133501Y-89430264D01*
X171133489Y-89430261D01*
X170978845Y-89399500D01*
X170978842Y-89399500D01*
X170821158Y-89399500D01*
X170821155Y-89399500D01*
X170666510Y-89430261D01*
X170666498Y-89430264D01*
X170520827Y-89490602D01*
X170520814Y-89490609D01*
X170389711Y-89578210D01*
X170389707Y-89578213D01*
X170278213Y-89689707D01*
X170278210Y-89689711D01*
X170190609Y-89820814D01*
X170190602Y-89820827D01*
X170130264Y-89966498D01*
X170130261Y-89966510D01*
X170099500Y-90121153D01*
X169792084Y-90121153D01*
X169798107Y-90090875D01*
X169798107Y-90090874D01*
X169800500Y-90078844D01*
X169800500Y-89921155D01*
X169800499Y-89921153D01*
X169780543Y-89820827D01*
X169769737Y-89766503D01*
X169760938Y-89745261D01*
X169709397Y-89620827D01*
X169709390Y-89620814D01*
X169621789Y-89489711D01*
X169621786Y-89489707D01*
X169510292Y-89378213D01*
X169510288Y-89378210D01*
X169379185Y-89290609D01*
X169379172Y-89290602D01*
X169233501Y-89230264D01*
X169233489Y-89230261D01*
X169078845Y-89199500D01*
X169078842Y-89199500D01*
X168921158Y-89199500D01*
X168921155Y-89199500D01*
X168766510Y-89230261D01*
X168766498Y-89230264D01*
X168620827Y-89290602D01*
X168620814Y-89290609D01*
X168489711Y-89378210D01*
X168489707Y-89378213D01*
X168378213Y-89489707D01*
X168378210Y-89489711D01*
X168290609Y-89620814D01*
X168290602Y-89620827D01*
X168239061Y-89745261D01*
X168195220Y-89799665D01*
X168128926Y-89821730D01*
X168061227Y-89804451D01*
X168013616Y-89753314D01*
X168000500Y-89697809D01*
X168000500Y-86021153D01*
X179174500Y-86021153D01*
X179174500Y-86178846D01*
X179205261Y-86333489D01*
X179205264Y-86333501D01*
X179265602Y-86479172D01*
X179265609Y-86479185D01*
X179353210Y-86610288D01*
X179353213Y-86610292D01*
X179464707Y-86721786D01*
X179464711Y-86721789D01*
X179595814Y-86809390D01*
X179595826Y-86809397D01*
X179699641Y-86852397D01*
X179726376Y-86863471D01*
X179780780Y-86907311D01*
X179802845Y-86973605D01*
X179785566Y-87041305D01*
X179734429Y-87088915D01*
X179726378Y-87092593D01*
X179670821Y-87115606D01*
X179670814Y-87115609D01*
X179539711Y-87203210D01*
X179539707Y-87203213D01*
X179428213Y-87314707D01*
X179428210Y-87314711D01*
X179340609Y-87445814D01*
X179340602Y-87445827D01*
X179280264Y-87591498D01*
X179280261Y-87591510D01*
X179249500Y-87746153D01*
X179249500Y-87903846D01*
X179280261Y-88058489D01*
X179280264Y-88058501D01*
X179340602Y-88204172D01*
X179340609Y-88204185D01*
X179428210Y-88335288D01*
X179428213Y-88335292D01*
X179539707Y-88446786D01*
X179539711Y-88446789D01*
X179595996Y-88484398D01*
X179640801Y-88538010D01*
X179649508Y-88607335D01*
X179619353Y-88670363D01*
X179595996Y-88690602D01*
X179539711Y-88728210D01*
X179539707Y-88728213D01*
X179428213Y-88839707D01*
X179428210Y-88839711D01*
X179340609Y-88970814D01*
X179340602Y-88970827D01*
X179280264Y-89116498D01*
X179280261Y-89116510D01*
X179249500Y-89271153D01*
X179249500Y-89428846D01*
X179280261Y-89583489D01*
X179280264Y-89583501D01*
X179340602Y-89729172D01*
X179340609Y-89729185D01*
X179428210Y-89860288D01*
X179428213Y-89860292D01*
X179539707Y-89971786D01*
X179539715Y-89971792D01*
X179620910Y-90026045D01*
X179665716Y-90079657D01*
X179674423Y-90148982D01*
X179644269Y-90212009D01*
X179620911Y-90232249D01*
X179514711Y-90303210D01*
X179514707Y-90303213D01*
X179403213Y-90414707D01*
X179403210Y-90414711D01*
X179315609Y-90545814D01*
X179315602Y-90545827D01*
X179255264Y-90691498D01*
X179255261Y-90691510D01*
X179224500Y-90846153D01*
X179224500Y-91003846D01*
X179255261Y-91158489D01*
X179255264Y-91158501D01*
X179315602Y-91304172D01*
X179315609Y-91304185D01*
X179403210Y-91435288D01*
X179403213Y-91435292D01*
X179514707Y-91546786D01*
X179514711Y-91546789D01*
X179645814Y-91634390D01*
X179645827Y-91634397D01*
X179772143Y-91686718D01*
X179791503Y-91694737D01*
X179941131Y-91724500D01*
X179946153Y-91725499D01*
X179946156Y-91725500D01*
X179946158Y-91725500D01*
X180103844Y-91725500D01*
X180103845Y-91725499D01*
X180258497Y-91694737D01*
X180295319Y-91679484D01*
X180364787Y-91672016D01*
X180427267Y-91703291D01*
X180462919Y-91763380D01*
X180460425Y-91833205D01*
X180445874Y-91862935D01*
X180440611Y-91870811D01*
X180440602Y-91870827D01*
X180380264Y-92016498D01*
X180380261Y-92016510D01*
X180349500Y-92171153D01*
X180349500Y-92328846D01*
X180380261Y-92483489D01*
X180380264Y-92483501D01*
X180440602Y-92629172D01*
X180440609Y-92629185D01*
X180528210Y-92760288D01*
X180528213Y-92760292D01*
X180639707Y-92871786D01*
X180639711Y-92871789D01*
X180770814Y-92959390D01*
X180770827Y-92959397D01*
X180916498Y-93019735D01*
X180916503Y-93019737D01*
X181052487Y-93046786D01*
X181071153Y-93050499D01*
X181071156Y-93050500D01*
X181071158Y-93050500D01*
X181228844Y-93050500D01*
X181228845Y-93050499D01*
X181383497Y-93019737D01*
X181529179Y-92959394D01*
X181660289Y-92871789D01*
X181771789Y-92760289D01*
X181791234Y-92731188D01*
X181844846Y-92686383D01*
X181914171Y-92677676D01*
X181977198Y-92707830D01*
X182008897Y-92752627D01*
X182040602Y-92829172D01*
X182040609Y-92829185D01*
X182128210Y-92960288D01*
X182128213Y-92960292D01*
X182239707Y-93071786D01*
X182239711Y-93071789D01*
X182370814Y-93159390D01*
X182370827Y-93159397D01*
X182461101Y-93196789D01*
X182516503Y-93219737D01*
X182671153Y-93250499D01*
X182671156Y-93250500D01*
X182671158Y-93250500D01*
X182828844Y-93250500D01*
X182828845Y-93250499D01*
X182983497Y-93219737D01*
X183129179Y-93159394D01*
X183208299Y-93106527D01*
X183274975Y-93085650D01*
X183342355Y-93104134D01*
X183364870Y-93121949D01*
X183389707Y-93146786D01*
X183389711Y-93146789D01*
X183520814Y-93234390D01*
X183520827Y-93234397D01*
X183665962Y-93294513D01*
X183666503Y-93294737D01*
X183821153Y-93325499D01*
X183821156Y-93325500D01*
X183821158Y-93325500D01*
X183978844Y-93325500D01*
X183978845Y-93325499D01*
X184133497Y-93294737D01*
X184279179Y-93234394D01*
X184279179Y-93234393D01*
X184282515Y-93232611D01*
X184284466Y-93232204D01*
X184284808Y-93232063D01*
X184284834Y-93232127D01*
X184350916Y-93218364D01*
X184416162Y-93243360D01*
X184455536Y-93294513D01*
X184490602Y-93379172D01*
X184490609Y-93379185D01*
X184578210Y-93510288D01*
X184578213Y-93510292D01*
X184689707Y-93621786D01*
X184689711Y-93621789D01*
X184820814Y-93709390D01*
X184820827Y-93709397D01*
X184966498Y-93769735D01*
X184966503Y-93769737D01*
X185121153Y-93800499D01*
X185121156Y-93800500D01*
X185121158Y-93800500D01*
X185278844Y-93800500D01*
X185278845Y-93800499D01*
X185433497Y-93769737D01*
X185579179Y-93709394D01*
X185710289Y-93621789D01*
X185821789Y-93510289D01*
X185909394Y-93379179D01*
X185969737Y-93233497D01*
X186000500Y-93078842D01*
X186000500Y-92921158D01*
X186000500Y-92921155D01*
X186000499Y-92921153D01*
X185982204Y-92829179D01*
X185969737Y-92766503D01*
X185967163Y-92760288D01*
X185909397Y-92620827D01*
X185909390Y-92620814D01*
X185821789Y-92489711D01*
X185821786Y-92489707D01*
X185710292Y-92378213D01*
X185710288Y-92378210D01*
X185579185Y-92290609D01*
X185579172Y-92290602D01*
X185433501Y-92230264D01*
X185433489Y-92230261D01*
X185278845Y-92199500D01*
X185278842Y-92199500D01*
X185121158Y-92199500D01*
X185121155Y-92199500D01*
X184966510Y-92230261D01*
X184966498Y-92230264D01*
X184820814Y-92290608D01*
X184817469Y-92292396D01*
X184815517Y-92292802D01*
X184815192Y-92292937D01*
X184815166Y-92292875D01*
X184749066Y-92306633D01*
X184683824Y-92281629D01*
X184644464Y-92230489D01*
X184609394Y-92145821D01*
X184609392Y-92145818D01*
X184609390Y-92145814D01*
X184521789Y-92014711D01*
X184521786Y-92014707D01*
X184410292Y-91903213D01*
X184410288Y-91903210D01*
X184279185Y-91815609D01*
X184279172Y-91815602D01*
X184133501Y-91755264D01*
X184133489Y-91755261D01*
X183978845Y-91724500D01*
X183978842Y-91724500D01*
X183821158Y-91724500D01*
X183821155Y-91724500D01*
X183666510Y-91755261D01*
X183666498Y-91755264D01*
X183520827Y-91815602D01*
X183520816Y-91815608D01*
X183441700Y-91868472D01*
X183375023Y-91889349D01*
X183307643Y-91870864D01*
X183285129Y-91853050D01*
X183260292Y-91828213D01*
X183260288Y-91828210D01*
X183129185Y-91740609D01*
X183129172Y-91740602D01*
X182983501Y-91680264D01*
X182983489Y-91680261D01*
X182828845Y-91649500D01*
X182828842Y-91649500D01*
X182671158Y-91649500D01*
X182671155Y-91649500D01*
X182516510Y-91680261D01*
X182516498Y-91680264D01*
X182370827Y-91740602D01*
X182370814Y-91740609D01*
X182239711Y-91828210D01*
X182239707Y-91828213D01*
X182128213Y-91939707D01*
X182128209Y-91939712D01*
X182108763Y-91968814D01*
X182055149Y-92013618D01*
X181985824Y-92022323D01*
X181922797Y-91992166D01*
X181891102Y-91947373D01*
X181859394Y-91870821D01*
X181859390Y-91870814D01*
X181771789Y-91739711D01*
X181771786Y-91739707D01*
X181660292Y-91628213D01*
X181660288Y-91628210D01*
X181529185Y-91540609D01*
X181529172Y-91540602D01*
X181383501Y-91480264D01*
X181383491Y-91480261D01*
X181290092Y-91461683D01*
X181290091Y-91461682D01*
X181228845Y-91449500D01*
X181228842Y-91449500D01*
X181071158Y-91449500D01*
X181071155Y-91449500D01*
X180916510Y-91480261D01*
X180916498Y-91480264D01*
X180879678Y-91495515D01*
X180810208Y-91502982D01*
X180747730Y-91471706D01*
X180712079Y-91411616D01*
X180714419Y-91346153D01*
X185849500Y-91346153D01*
X185849500Y-91503846D01*
X185880261Y-91658489D01*
X185880264Y-91658501D01*
X185940602Y-91804172D01*
X185940609Y-91804185D01*
X186028210Y-91935288D01*
X186028213Y-91935292D01*
X186139707Y-92046786D01*
X186139711Y-92046789D01*
X186270814Y-92134390D01*
X186270827Y-92134397D01*
X186408683Y-92191498D01*
X186416503Y-92194737D01*
X186571153Y-92225499D01*
X186571156Y-92225500D01*
X186571158Y-92225500D01*
X186728844Y-92225500D01*
X186728845Y-92225499D01*
X186883497Y-92194737D01*
X187001599Y-92145818D01*
X187029172Y-92134397D01*
X187029172Y-92134396D01*
X187029179Y-92134394D01*
X187160289Y-92046789D01*
X187271789Y-91935289D01*
X187359394Y-91804179D01*
X187419737Y-91658497D01*
X187450500Y-91503842D01*
X187450500Y-91346158D01*
X187450500Y-91346155D01*
X187450499Y-91346153D01*
X187443716Y-91312054D01*
X187438213Y-91284388D01*
X190637735Y-91284388D01*
X190637735Y-91442081D01*
X190668496Y-91596724D01*
X190668499Y-91596736D01*
X190728837Y-91742407D01*
X190728844Y-91742420D01*
X190816445Y-91873523D01*
X190816448Y-91873527D01*
X190927942Y-91985021D01*
X190927946Y-91985024D01*
X191059049Y-92072625D01*
X191059062Y-92072632D01*
X191182107Y-92123598D01*
X191204738Y-92132972D01*
X191359388Y-92163734D01*
X191359391Y-92163735D01*
X191359393Y-92163735D01*
X191517079Y-92163735D01*
X191517080Y-92163734D01*
X191671732Y-92132972D01*
X191751836Y-92099791D01*
X191821305Y-92092323D01*
X191883784Y-92123598D01*
X191919436Y-92183687D01*
X191920905Y-92238544D01*
X191899500Y-92346153D01*
X191899500Y-92503846D01*
X191930261Y-92658489D01*
X191930264Y-92658501D01*
X191990602Y-92804172D01*
X191990609Y-92804185D01*
X192078210Y-92935288D01*
X192078213Y-92935292D01*
X192189707Y-93046786D01*
X192189711Y-93046789D01*
X192320814Y-93134390D01*
X192320827Y-93134397D01*
X192466498Y-93194735D01*
X192466503Y-93194737D01*
X192592176Y-93219735D01*
X192621153Y-93225499D01*
X192621156Y-93225500D01*
X192621158Y-93225500D01*
X192778844Y-93225500D01*
X192778845Y-93225499D01*
X192933497Y-93194737D01*
X193079179Y-93134394D01*
X193210289Y-93046789D01*
X193321789Y-92935289D01*
X193409394Y-92804179D01*
X193469737Y-92658497D01*
X193469757Y-92658392D01*
X193469782Y-92658345D01*
X193471506Y-92652664D01*
X193472582Y-92652990D01*
X193502136Y-92596482D01*
X193543921Y-92568016D01*
X193613656Y-92539132D01*
X193744766Y-92451527D01*
X193856266Y-92340027D01*
X193943871Y-92208917D01*
X193949296Y-92195821D01*
X193975328Y-92132972D01*
X194004214Y-92063235D01*
X194034977Y-91908580D01*
X194034977Y-91750896D01*
X194034977Y-91750893D01*
X194034976Y-91750891D01*
X194017744Y-91664257D01*
X194014143Y-91646153D01*
X195924500Y-91646153D01*
X195924500Y-91803846D01*
X195955261Y-91958489D01*
X195955264Y-91958501D01*
X196015602Y-92104172D01*
X196015609Y-92104185D01*
X196103210Y-92235288D01*
X196103213Y-92235292D01*
X196214707Y-92346786D01*
X196214711Y-92346789D01*
X196345814Y-92434390D01*
X196345827Y-92434397D01*
X196465497Y-92483965D01*
X196491503Y-92494737D01*
X196598575Y-92516035D01*
X196646153Y-92525499D01*
X196646156Y-92525500D01*
X196646158Y-92525500D01*
X196803844Y-92525500D01*
X196803845Y-92525499D01*
X196958497Y-92494737D01*
X197104179Y-92434394D01*
X197235289Y-92346789D01*
X197310925Y-92271153D01*
X197874500Y-92271153D01*
X197874500Y-92428846D01*
X197905261Y-92583489D01*
X197905264Y-92583501D01*
X197965602Y-92729172D01*
X197965609Y-92729185D01*
X198053210Y-92860288D01*
X198053213Y-92860292D01*
X198164707Y-92971786D01*
X198164711Y-92971789D01*
X198295814Y-93059390D01*
X198295827Y-93059397D01*
X198409613Y-93106528D01*
X198441503Y-93119737D01*
X198566065Y-93144514D01*
X198596153Y-93150499D01*
X198596156Y-93150500D01*
X198596158Y-93150500D01*
X198753844Y-93150500D01*
X198753845Y-93150499D01*
X198908497Y-93119737D01*
X199054179Y-93059394D01*
X199185289Y-92971789D01*
X199296789Y-92860289D01*
X199384394Y-92729179D01*
X199444737Y-92583497D01*
X199475500Y-92428842D01*
X199475500Y-92271158D01*
X199475500Y-92271155D01*
X199475499Y-92271153D01*
X199464628Y-92216503D01*
X199444737Y-92116503D01*
X199437815Y-92099792D01*
X199384397Y-91970827D01*
X199384390Y-91970814D01*
X199296789Y-91839711D01*
X199296786Y-91839707D01*
X199185292Y-91728213D01*
X199185288Y-91728210D01*
X199054185Y-91640609D01*
X199054172Y-91640602D01*
X198908501Y-91580264D01*
X198908489Y-91580261D01*
X198753845Y-91549500D01*
X198753842Y-91549500D01*
X198596158Y-91549500D01*
X198596155Y-91549500D01*
X198441510Y-91580261D01*
X198441498Y-91580264D01*
X198295827Y-91640602D01*
X198295814Y-91640609D01*
X198164711Y-91728210D01*
X198164707Y-91728213D01*
X198053213Y-91839707D01*
X198053210Y-91839711D01*
X197965609Y-91970814D01*
X197965602Y-91970827D01*
X197905264Y-92116498D01*
X197905261Y-92116510D01*
X197874500Y-92271153D01*
X197310925Y-92271153D01*
X197346789Y-92235289D01*
X197369245Y-92201681D01*
X197372925Y-92196174D01*
X197372926Y-92196172D01*
X197394601Y-92163734D01*
X197434394Y-92104179D01*
X197494737Y-91958497D01*
X197525500Y-91803842D01*
X197525500Y-91646158D01*
X197525500Y-91646155D01*
X197525499Y-91646153D01*
X197515595Y-91596363D01*
X197494737Y-91491503D01*
X197457860Y-91402475D01*
X197450392Y-91333009D01*
X197457861Y-91307572D01*
X197459106Y-91304564D01*
X197459109Y-91304561D01*
X197519452Y-91158879D01*
X197550215Y-91004224D01*
X197550215Y-90996153D01*
X199299500Y-90996153D01*
X199299500Y-91153846D01*
X199330261Y-91308489D01*
X199330264Y-91308501D01*
X199390602Y-91454172D01*
X199390609Y-91454185D01*
X199478210Y-91585288D01*
X199478213Y-91585292D01*
X199589707Y-91696786D01*
X199589711Y-91696789D01*
X199720814Y-91784390D01*
X199720827Y-91784397D01*
X199828138Y-91828846D01*
X199866503Y-91844737D01*
X200011219Y-91873523D01*
X200021153Y-91875499D01*
X200021156Y-91875500D01*
X200021158Y-91875500D01*
X200178844Y-91875500D01*
X200178845Y-91875499D01*
X200333497Y-91844737D01*
X200479179Y-91784394D01*
X200610289Y-91696789D01*
X200635925Y-91671153D01*
X201419500Y-91671153D01*
X201419500Y-91828846D01*
X201450261Y-91983489D01*
X201450264Y-91983501D01*
X201510602Y-92129172D01*
X201510609Y-92129185D01*
X201598210Y-92260288D01*
X201598213Y-92260292D01*
X201709707Y-92371786D01*
X201709711Y-92371789D01*
X201840814Y-92459390D01*
X201840827Y-92459397D01*
X201986498Y-92519735D01*
X201986503Y-92519737D01*
X202084008Y-92539132D01*
X202141153Y-92550499D01*
X202141156Y-92550500D01*
X202141158Y-92550500D01*
X202298844Y-92550500D01*
X202298845Y-92550499D01*
X202453497Y-92519737D01*
X202599179Y-92459394D01*
X202730289Y-92371789D01*
X202755925Y-92346153D01*
X206299500Y-92346153D01*
X206299500Y-92503846D01*
X206330261Y-92658489D01*
X206330264Y-92658501D01*
X206390602Y-92804172D01*
X206390609Y-92804185D01*
X206478210Y-92935288D01*
X206478213Y-92935292D01*
X206589707Y-93046786D01*
X206589711Y-93046789D01*
X206720814Y-93134390D01*
X206720827Y-93134397D01*
X206866498Y-93194735D01*
X206866503Y-93194737D01*
X206992176Y-93219735D01*
X207021153Y-93225499D01*
X207021156Y-93225500D01*
X207021158Y-93225500D01*
X207178844Y-93225500D01*
X207178845Y-93225499D01*
X207333497Y-93194737D01*
X207479179Y-93134394D01*
X207610289Y-93046789D01*
X207721789Y-92935289D01*
X207809394Y-92804179D01*
X207869737Y-92658497D01*
X207877230Y-92620827D01*
X207878883Y-92612520D01*
X207911268Y-92550609D01*
X207971984Y-92516035D01*
X208041753Y-92519774D01*
X208098425Y-92560641D01*
X208124006Y-92625659D01*
X208124500Y-92636711D01*
X208124500Y-92653846D01*
X208155261Y-92808489D01*
X208155264Y-92808501D01*
X208215602Y-92954172D01*
X208215609Y-92954185D01*
X208303210Y-93085288D01*
X208303213Y-93085292D01*
X208414707Y-93196786D01*
X208414711Y-93196789D01*
X208545814Y-93284390D01*
X208545827Y-93284397D01*
X208645060Y-93325500D01*
X208691503Y-93344737D01*
X208846153Y-93375499D01*
X208846156Y-93375500D01*
X208846158Y-93375500D01*
X209003844Y-93375500D01*
X209003845Y-93375499D01*
X209158497Y-93344737D01*
X209304179Y-93284394D01*
X209435289Y-93196789D01*
X209546789Y-93085289D01*
X209634394Y-92954179D01*
X209694737Y-92808497D01*
X209725500Y-92653842D01*
X209725500Y-92496158D01*
X209725500Y-92496155D01*
X209725499Y-92496153D01*
X209722980Y-92483489D01*
X209694737Y-92341503D01*
X209689493Y-92328842D01*
X209634397Y-92195827D01*
X209634390Y-92195814D01*
X209546789Y-92064711D01*
X209546786Y-92064707D01*
X209435292Y-91953213D01*
X209435288Y-91953210D01*
X209304185Y-91865609D01*
X209304172Y-91865602D01*
X209158501Y-91805264D01*
X209158489Y-91805261D01*
X209003845Y-91774500D01*
X209003842Y-91774500D01*
X208846158Y-91774500D01*
X208846155Y-91774500D01*
X208691510Y-91805261D01*
X208691498Y-91805264D01*
X208545827Y-91865602D01*
X208545814Y-91865609D01*
X208414711Y-91953210D01*
X208414707Y-91953213D01*
X208303213Y-92064707D01*
X208303210Y-92064711D01*
X208215609Y-92195814D01*
X208215602Y-92195827D01*
X208155264Y-92341498D01*
X208155261Y-92341508D01*
X208146117Y-92387480D01*
X208113732Y-92449391D01*
X208053016Y-92483965D01*
X207983246Y-92480224D01*
X207926575Y-92439358D01*
X207900993Y-92374340D01*
X207900500Y-92363288D01*
X207900500Y-92346155D01*
X207900499Y-92346153D01*
X207892638Y-92306633D01*
X207869737Y-92191503D01*
X207846080Y-92134390D01*
X207809397Y-92045827D01*
X207809390Y-92045814D01*
X207721789Y-91914711D01*
X207721786Y-91914707D01*
X207610292Y-91803213D01*
X207610288Y-91803210D01*
X207479185Y-91715609D01*
X207479172Y-91715602D01*
X207333501Y-91655264D01*
X207333489Y-91655261D01*
X207178845Y-91624500D01*
X207178842Y-91624500D01*
X207021158Y-91624500D01*
X207021155Y-91624500D01*
X206866510Y-91655261D01*
X206866498Y-91655264D01*
X206720827Y-91715602D01*
X206720814Y-91715609D01*
X206589711Y-91803210D01*
X206589707Y-91803213D01*
X206478213Y-91914707D01*
X206478210Y-91914711D01*
X206390609Y-92045814D01*
X206390602Y-92045827D01*
X206330264Y-92191498D01*
X206330261Y-92191510D01*
X206299500Y-92346153D01*
X202755925Y-92346153D01*
X202841789Y-92260289D01*
X202929394Y-92129179D01*
X202989737Y-91983497D01*
X203020500Y-91828842D01*
X203020500Y-91671158D01*
X203020500Y-91671155D01*
X203020499Y-91671153D01*
X203015527Y-91646158D01*
X202989737Y-91516503D01*
X202984493Y-91503842D01*
X202929397Y-91370827D01*
X202929390Y-91370814D01*
X202841789Y-91239711D01*
X202841786Y-91239707D01*
X202730292Y-91128213D01*
X202730288Y-91128210D01*
X202599185Y-91040609D01*
X202599172Y-91040602D01*
X202453501Y-90980264D01*
X202453489Y-90980261D01*
X202298845Y-90949500D01*
X202298842Y-90949500D01*
X202141158Y-90949500D01*
X202141155Y-90949500D01*
X201986510Y-90980261D01*
X201986498Y-90980264D01*
X201840827Y-91040602D01*
X201840814Y-91040609D01*
X201709711Y-91128210D01*
X201709707Y-91128213D01*
X201598213Y-91239707D01*
X201598210Y-91239711D01*
X201510609Y-91370814D01*
X201510602Y-91370827D01*
X201450264Y-91516498D01*
X201450261Y-91516510D01*
X201419500Y-91671153D01*
X200635925Y-91671153D01*
X200721789Y-91585289D01*
X200809394Y-91454179D01*
X200810894Y-91450559D01*
X200843922Y-91370821D01*
X200869737Y-91308497D01*
X200900500Y-91153842D01*
X200900500Y-90996158D01*
X200900500Y-90996155D01*
X200900499Y-90996153D01*
X200895245Y-90969738D01*
X200869737Y-90841503D01*
X200861570Y-90821786D01*
X200809397Y-90695827D01*
X200809390Y-90695814D01*
X200721789Y-90564711D01*
X200721786Y-90564707D01*
X200610292Y-90453213D01*
X200610288Y-90453210D01*
X200479185Y-90365609D01*
X200479172Y-90365602D01*
X200346100Y-90310483D01*
X200333501Y-90305264D01*
X200333489Y-90305261D01*
X200178845Y-90274500D01*
X200178842Y-90274500D01*
X200021158Y-90274500D01*
X200021155Y-90274500D01*
X199866510Y-90305261D01*
X199866498Y-90305264D01*
X199720827Y-90365602D01*
X199720814Y-90365609D01*
X199589711Y-90453210D01*
X199589707Y-90453213D01*
X199478213Y-90564707D01*
X199478210Y-90564711D01*
X199390609Y-90695814D01*
X199390602Y-90695827D01*
X199330264Y-90841498D01*
X199330261Y-90841510D01*
X199299500Y-90996153D01*
X197550215Y-90996153D01*
X197550215Y-90846540D01*
X197550215Y-90846537D01*
X197550214Y-90846535D01*
X197534937Y-90769735D01*
X197519452Y-90691885D01*
X197506262Y-90660041D01*
X197459112Y-90546209D01*
X197459105Y-90546196D01*
X197371504Y-90415093D01*
X197371501Y-90415089D01*
X197260007Y-90303595D01*
X197260003Y-90303592D01*
X197128900Y-90215991D01*
X197128887Y-90215984D01*
X197095148Y-90202009D01*
X204041752Y-90202009D01*
X204041752Y-90359702D01*
X204072513Y-90514345D01*
X204072516Y-90514357D01*
X204132854Y-90660028D01*
X204132861Y-90660041D01*
X204220462Y-90791144D01*
X204220465Y-90791148D01*
X204331959Y-90902642D01*
X204331963Y-90902645D01*
X204463066Y-90990246D01*
X204463079Y-90990253D01*
X204557199Y-91029238D01*
X204608755Y-91050593D01*
X204763405Y-91081355D01*
X204763408Y-91081356D01*
X204763410Y-91081356D01*
X204921096Y-91081356D01*
X204921097Y-91081355D01*
X205075749Y-91050593D01*
X205221431Y-90990250D01*
X205352541Y-90902645D01*
X205464041Y-90791145D01*
X205551646Y-90660035D01*
X205553624Y-90655261D01*
X205591132Y-90564707D01*
X205611989Y-90514353D01*
X205642752Y-90359698D01*
X205642752Y-90202014D01*
X205642752Y-90202011D01*
X205642751Y-90202009D01*
X205633529Y-90155646D01*
X205611989Y-90047359D01*
X205601134Y-90021153D01*
X205551649Y-89901683D01*
X205551642Y-89901670D01*
X205464041Y-89770567D01*
X205464038Y-89770563D01*
X205352544Y-89659069D01*
X205352540Y-89659066D01*
X205221437Y-89571465D01*
X205221424Y-89571458D01*
X205075753Y-89511120D01*
X205075741Y-89511117D01*
X204921097Y-89480356D01*
X204921094Y-89480356D01*
X204763410Y-89480356D01*
X204763407Y-89480356D01*
X204608762Y-89511117D01*
X204608750Y-89511120D01*
X204463079Y-89571458D01*
X204463066Y-89571465D01*
X204331963Y-89659066D01*
X204331959Y-89659069D01*
X204220465Y-89770563D01*
X204220462Y-89770567D01*
X204132861Y-89901670D01*
X204132854Y-89901683D01*
X204072516Y-90047354D01*
X204072513Y-90047366D01*
X204041752Y-90202009D01*
X197095148Y-90202009D01*
X196983216Y-90155646D01*
X196983204Y-90155643D01*
X196828560Y-90124882D01*
X196828557Y-90124882D01*
X196670873Y-90124882D01*
X196670870Y-90124882D01*
X196516225Y-90155643D01*
X196516213Y-90155646D01*
X196370542Y-90215984D01*
X196370529Y-90215991D01*
X196239426Y-90303592D01*
X196239422Y-90303595D01*
X196127928Y-90415089D01*
X196127925Y-90415093D01*
X196040324Y-90546196D01*
X196040317Y-90546209D01*
X195979979Y-90691880D01*
X195979976Y-90691892D01*
X195949215Y-90846535D01*
X195949215Y-91004228D01*
X195979976Y-91158871D01*
X195979979Y-91158883D01*
X196016853Y-91247905D01*
X196024322Y-91317374D01*
X196016853Y-91342809D01*
X195955264Y-91491498D01*
X195955261Y-91491510D01*
X195924500Y-91646153D01*
X194014143Y-91646153D01*
X194004215Y-91596246D01*
X194004214Y-91596245D01*
X194004214Y-91596241D01*
X193984932Y-91549689D01*
X193943874Y-91450565D01*
X193943867Y-91450552D01*
X193856266Y-91319449D01*
X193856263Y-91319445D01*
X193744769Y-91207951D01*
X193744765Y-91207948D01*
X193613662Y-91120347D01*
X193613649Y-91120340D01*
X193467978Y-91060002D01*
X193467966Y-91059999D01*
X193313322Y-91029238D01*
X193313319Y-91029238D01*
X193155635Y-91029238D01*
X193155632Y-91029238D01*
X193000987Y-91059999D01*
X193000975Y-91060002D01*
X192855304Y-91120340D01*
X192855291Y-91120347D01*
X192724188Y-91207948D01*
X192724184Y-91207951D01*
X192612690Y-91319445D01*
X192612687Y-91319449D01*
X192525086Y-91450552D01*
X192525079Y-91450565D01*
X192464741Y-91596236D01*
X192464737Y-91596250D01*
X192464715Y-91596363D01*
X192464687Y-91596416D01*
X192462971Y-91602073D01*
X192461897Y-91601747D01*
X192432324Y-91658271D01*
X192390561Y-91686718D01*
X192386407Y-91688439D01*
X192316938Y-91695912D01*
X192254457Y-91664642D01*
X192218800Y-91604556D01*
X192217329Y-91549689D01*
X192217907Y-91546786D01*
X192231140Y-91480261D01*
X192238735Y-91442079D01*
X192238735Y-91284390D01*
X192238734Y-91284388D01*
X192229846Y-91239707D01*
X192207972Y-91129738D01*
X192179086Y-91060001D01*
X192147632Y-90984062D01*
X192147625Y-90984049D01*
X192060024Y-90852946D01*
X192060021Y-90852942D01*
X191948527Y-90741448D01*
X191948523Y-90741445D01*
X191817420Y-90653844D01*
X191817407Y-90653837D01*
X191671736Y-90593499D01*
X191671724Y-90593496D01*
X191517080Y-90562735D01*
X191517077Y-90562735D01*
X191359393Y-90562735D01*
X191359390Y-90562735D01*
X191204745Y-90593496D01*
X191204733Y-90593499D01*
X191059062Y-90653837D01*
X191059049Y-90653844D01*
X190929475Y-90740423D01*
X190929471Y-90740426D01*
X190927946Y-90741446D01*
X190816446Y-90852946D01*
X190791042Y-90890965D01*
X190791037Y-90890971D01*
X190728844Y-90984049D01*
X190728837Y-90984062D01*
X190668499Y-91129733D01*
X190668496Y-91129745D01*
X190637735Y-91284388D01*
X187438213Y-91284388D01*
X187419737Y-91191503D01*
X187419735Y-91191498D01*
X187359397Y-91045827D01*
X187359390Y-91045814D01*
X187271789Y-90914711D01*
X187271786Y-90914707D01*
X187160292Y-90803213D01*
X187160288Y-90803210D01*
X187029185Y-90715609D01*
X187029172Y-90715602D01*
X186883501Y-90655264D01*
X186883489Y-90655261D01*
X186728845Y-90624500D01*
X186728842Y-90624500D01*
X186571158Y-90624500D01*
X186571155Y-90624500D01*
X186416510Y-90655261D01*
X186416498Y-90655264D01*
X186270827Y-90715602D01*
X186270814Y-90715609D01*
X186139711Y-90803210D01*
X186139707Y-90803213D01*
X186028213Y-90914707D01*
X186028210Y-90914711D01*
X185940609Y-91045814D01*
X185940602Y-91045827D01*
X185880264Y-91191498D01*
X185880261Y-91191510D01*
X185849500Y-91346153D01*
X180714419Y-91346153D01*
X180714575Y-91341791D01*
X180729128Y-91312060D01*
X180734394Y-91304179D01*
X180794737Y-91158497D01*
X180825500Y-91003842D01*
X180825500Y-90846158D01*
X180825500Y-90846155D01*
X180825499Y-90846153D01*
X180810298Y-90769735D01*
X180794737Y-90691503D01*
X180781700Y-90660028D01*
X180734397Y-90545827D01*
X180734390Y-90545814D01*
X180646789Y-90414711D01*
X180646786Y-90414707D01*
X180535289Y-90303210D01*
X180454088Y-90248954D01*
X180435661Y-90226905D01*
X180415043Y-90206892D01*
X180413536Y-90200431D01*
X180409283Y-90195342D01*
X180405702Y-90166831D01*
X180399177Y-90138847D01*
X180401402Y-90132597D01*
X180400576Y-90126017D01*
X180412976Y-90100098D01*
X180422617Y-90073027D01*
X180428751Y-90067125D01*
X180430730Y-90062990D01*
X180447200Y-90047702D01*
X180450561Y-90045106D01*
X180486410Y-90021153D01*
X189299500Y-90021153D01*
X189299500Y-90178846D01*
X189330261Y-90333489D01*
X189330264Y-90333501D01*
X189390602Y-90479172D01*
X189390609Y-90479185D01*
X189478210Y-90610288D01*
X189478213Y-90610292D01*
X189589707Y-90721786D01*
X189589711Y-90721789D01*
X189720814Y-90809390D01*
X189720827Y-90809397D01*
X189866498Y-90869735D01*
X189866503Y-90869737D01*
X189973253Y-90890971D01*
X190021153Y-90900499D01*
X190021156Y-90900500D01*
X190021158Y-90900500D01*
X190178844Y-90900500D01*
X190178845Y-90900499D01*
X190333497Y-90869737D01*
X190479179Y-90809394D01*
X190610289Y-90721789D01*
X190721789Y-90610289D01*
X190809394Y-90479179D01*
X190869737Y-90333497D01*
X190900500Y-90178842D01*
X190900500Y-90021158D01*
X190900500Y-90021155D01*
X190900499Y-90021153D01*
X190880730Y-89921770D01*
X190869737Y-89866503D01*
X190850812Y-89820814D01*
X190809397Y-89720827D01*
X190809390Y-89720814D01*
X190721789Y-89589711D01*
X190721786Y-89589707D01*
X190610292Y-89478213D01*
X190610288Y-89478210D01*
X190479185Y-89390609D01*
X190479172Y-89390602D01*
X190333501Y-89330264D01*
X190333489Y-89330261D01*
X190178845Y-89299500D01*
X190178842Y-89299500D01*
X190021158Y-89299500D01*
X190021155Y-89299500D01*
X189866510Y-89330261D01*
X189866498Y-89330264D01*
X189720827Y-89390602D01*
X189720814Y-89390609D01*
X189589711Y-89478210D01*
X189589707Y-89478213D01*
X189478213Y-89589707D01*
X189478210Y-89589711D01*
X189390609Y-89720814D01*
X189390602Y-89720827D01*
X189330264Y-89866498D01*
X189330261Y-89866510D01*
X189299500Y-90021153D01*
X180486410Y-90021153D01*
X180560289Y-89971789D01*
X180671789Y-89860289D01*
X180759394Y-89729179D01*
X180762854Y-89720827D01*
X180788435Y-89659067D01*
X180819737Y-89583497D01*
X180850500Y-89428842D01*
X180850500Y-89271158D01*
X180850500Y-89271155D01*
X180850499Y-89271153D01*
X180819738Y-89116510D01*
X180819737Y-89116503D01*
X180759794Y-88971786D01*
X180759397Y-88970827D01*
X180759390Y-88970814D01*
X180671789Y-88839711D01*
X180671786Y-88839707D01*
X180560291Y-88728212D01*
X180537015Y-88712659D01*
X180504003Y-88690601D01*
X180459198Y-88636991D01*
X180450491Y-88567666D01*
X180480645Y-88504638D01*
X180504003Y-88484398D01*
X180560289Y-88446789D01*
X180671789Y-88335289D01*
X180714643Y-88271153D01*
X207299500Y-88271153D01*
X207299500Y-88428846D01*
X207330261Y-88583489D01*
X207330264Y-88583501D01*
X207390602Y-88729172D01*
X207390609Y-88729185D01*
X207478210Y-88860288D01*
X207478213Y-88860292D01*
X207589707Y-88971786D01*
X207589711Y-88971789D01*
X207720814Y-89059390D01*
X207720827Y-89059397D01*
X207858683Y-89116498D01*
X207866503Y-89119737D01*
X208021153Y-89150499D01*
X208021156Y-89150500D01*
X208021158Y-89150500D01*
X208178844Y-89150500D01*
X208178845Y-89150499D01*
X208333497Y-89119737D01*
X208479179Y-89059394D01*
X208610289Y-88971789D01*
X208721789Y-88860289D01*
X208809394Y-88729179D01*
X208869737Y-88583497D01*
X208900500Y-88428842D01*
X208900500Y-88271158D01*
X208900500Y-88271155D01*
X208900499Y-88271153D01*
X208887176Y-88204174D01*
X208869737Y-88116503D01*
X208845712Y-88058501D01*
X208809397Y-87970827D01*
X208809390Y-87970814D01*
X208721789Y-87839711D01*
X208721786Y-87839707D01*
X208610292Y-87728213D01*
X208610288Y-87728210D01*
X208479185Y-87640609D01*
X208479172Y-87640602D01*
X208333501Y-87580264D01*
X208333489Y-87580261D01*
X208178845Y-87549500D01*
X208178842Y-87549500D01*
X208021158Y-87549500D01*
X208021155Y-87549500D01*
X207866510Y-87580261D01*
X207866498Y-87580264D01*
X207720827Y-87640602D01*
X207720814Y-87640609D01*
X207589711Y-87728210D01*
X207589707Y-87728213D01*
X207478213Y-87839707D01*
X207478210Y-87839711D01*
X207390609Y-87970814D01*
X207390602Y-87970827D01*
X207330264Y-88116498D01*
X207330261Y-88116510D01*
X207299500Y-88271153D01*
X180714643Y-88271153D01*
X180759394Y-88204179D01*
X180819737Y-88058497D01*
X180850500Y-87903842D01*
X180850500Y-87746158D01*
X180850500Y-87746155D01*
X180850499Y-87746153D01*
X180836888Y-87677728D01*
X180819737Y-87591503D01*
X180815081Y-87580263D01*
X180759397Y-87445827D01*
X180759390Y-87445814D01*
X180671789Y-87314711D01*
X180671786Y-87314707D01*
X180560292Y-87203213D01*
X180560288Y-87203210D01*
X180429185Y-87115609D01*
X180429172Y-87115602D01*
X180298623Y-87061528D01*
X180244219Y-87017687D01*
X180222154Y-86951393D01*
X180237954Y-86889487D01*
X193874500Y-86889487D01*
X193874500Y-87047180D01*
X193905261Y-87201823D01*
X193905264Y-87201835D01*
X193965602Y-87347506D01*
X193965609Y-87347519D01*
X194053210Y-87478622D01*
X194053213Y-87478626D01*
X194164707Y-87590120D01*
X194164711Y-87590123D01*
X194295814Y-87677724D01*
X194295827Y-87677731D01*
X194441498Y-87738069D01*
X194441503Y-87738071D01*
X194596153Y-87768833D01*
X194596156Y-87768834D01*
X194596158Y-87768834D01*
X194753844Y-87768834D01*
X194753845Y-87768833D01*
X194908497Y-87738071D01*
X195054179Y-87677728D01*
X195185289Y-87590123D01*
X195296789Y-87478623D01*
X195384394Y-87347513D01*
X195444737Y-87201831D01*
X195475500Y-87047176D01*
X195475500Y-86889492D01*
X195475500Y-86889489D01*
X195475499Y-86889487D01*
X195466598Y-86844738D01*
X195444737Y-86734837D01*
X195428976Y-86696786D01*
X195384397Y-86589161D01*
X195384390Y-86589148D01*
X195296789Y-86458045D01*
X195296786Y-86458041D01*
X195185292Y-86346547D01*
X195185288Y-86346544D01*
X195054185Y-86258943D01*
X195054172Y-86258936D01*
X194908501Y-86198598D01*
X194908489Y-86198595D01*
X194753845Y-86167834D01*
X194753842Y-86167834D01*
X194596158Y-86167834D01*
X194596155Y-86167834D01*
X194441510Y-86198595D01*
X194441498Y-86198598D01*
X194295827Y-86258936D01*
X194295814Y-86258943D01*
X194164711Y-86346544D01*
X194164707Y-86346547D01*
X194053213Y-86458041D01*
X194053210Y-86458045D01*
X193965609Y-86589148D01*
X193965602Y-86589161D01*
X193905264Y-86734832D01*
X193905261Y-86734844D01*
X193874500Y-86889487D01*
X180237954Y-86889487D01*
X180239433Y-86883694D01*
X180290570Y-86836083D01*
X180298623Y-86832406D01*
X180310132Y-86827638D01*
X180354179Y-86809394D01*
X180485289Y-86721789D01*
X180596789Y-86610289D01*
X180684394Y-86479179D01*
X180744737Y-86333497D01*
X180775500Y-86178842D01*
X180775500Y-86021158D01*
X180775500Y-86021155D01*
X180775499Y-86021153D01*
X180770527Y-85996158D01*
X180744737Y-85866503D01*
X180720712Y-85808501D01*
X180684397Y-85720827D01*
X180684390Y-85720814D01*
X180596789Y-85589711D01*
X180596786Y-85589707D01*
X180585818Y-85578739D01*
X180585795Y-85578717D01*
X180503231Y-85496153D01*
X188574500Y-85496153D01*
X188574500Y-85653846D01*
X188605261Y-85808489D01*
X188605264Y-85808501D01*
X188665602Y-85954172D01*
X188665609Y-85954185D01*
X188753210Y-86085288D01*
X188753213Y-86085292D01*
X188864707Y-86196786D01*
X188864711Y-86196789D01*
X188995814Y-86284390D01*
X188995827Y-86284397D01*
X189141498Y-86344735D01*
X189141503Y-86344737D01*
X189296153Y-86375499D01*
X189296156Y-86375500D01*
X189296158Y-86375500D01*
X189453844Y-86375500D01*
X189453845Y-86375499D01*
X189608497Y-86344737D01*
X189754179Y-86284394D01*
X189885289Y-86196789D01*
X189996789Y-86085289D01*
X190056348Y-85996153D01*
X191899500Y-85996153D01*
X191899500Y-86153846D01*
X191930261Y-86308489D01*
X191930264Y-86308501D01*
X191990602Y-86454172D01*
X191990609Y-86454185D01*
X192078210Y-86585288D01*
X192078213Y-86585292D01*
X192189707Y-86696786D01*
X192189711Y-86696789D01*
X192320814Y-86784390D01*
X192320827Y-86784397D01*
X192436733Y-86832406D01*
X192466503Y-86844737D01*
X192560685Y-86863471D01*
X192621153Y-86875499D01*
X192621156Y-86875500D01*
X192621158Y-86875500D01*
X192778844Y-86875500D01*
X192778845Y-86875499D01*
X192933497Y-86844737D01*
X193079179Y-86784394D01*
X193079185Y-86784390D01*
X193085310Y-86780298D01*
X193155346Y-86733501D01*
X193210289Y-86696789D01*
X193321789Y-86585289D01*
X193409394Y-86454179D01*
X193469737Y-86308497D01*
X193500500Y-86153842D01*
X193500500Y-85996158D01*
X193500500Y-85996155D01*
X193500499Y-85996153D01*
X193476976Y-85877897D01*
X193469737Y-85841503D01*
X193419752Y-85720827D01*
X193409397Y-85695827D01*
X193409395Y-85695823D01*
X193409394Y-85695821D01*
X193381346Y-85653844D01*
X193364316Y-85628357D01*
X193364315Y-85628355D01*
X193322352Y-85565553D01*
X196799500Y-85565553D01*
X196799500Y-85723246D01*
X196830261Y-85877889D01*
X196830264Y-85877901D01*
X196891090Y-86024748D01*
X196898559Y-86094217D01*
X196891090Y-86119652D01*
X196830264Y-86266498D01*
X196830261Y-86266510D01*
X196799500Y-86421153D01*
X196799500Y-86578846D01*
X196830261Y-86733489D01*
X196830264Y-86733501D01*
X196890602Y-86879172D01*
X196890609Y-86879185D01*
X196978210Y-87010288D01*
X196978213Y-87010292D01*
X197089707Y-87121786D01*
X197089711Y-87121789D01*
X197220814Y-87209390D01*
X197220827Y-87209397D01*
X197366498Y-87269735D01*
X197366503Y-87269737D01*
X197521153Y-87300499D01*
X197521156Y-87300500D01*
X197521158Y-87300500D01*
X197678844Y-87300500D01*
X197678845Y-87300499D01*
X197833497Y-87269737D01*
X197979179Y-87209394D01*
X198110289Y-87121789D01*
X198221789Y-87010289D01*
X198309394Y-86879179D01*
X198369737Y-86733497D01*
X198400500Y-86578842D01*
X198400500Y-86421158D01*
X198400500Y-86421155D01*
X198400499Y-86421153D01*
X198378090Y-86308497D01*
X198369737Y-86266503D01*
X198340861Y-86196789D01*
X198308910Y-86119652D01*
X198301441Y-86050183D01*
X198308910Y-86024748D01*
X198369735Y-85877901D01*
X198369737Y-85877897D01*
X198400500Y-85723242D01*
X198400500Y-85565558D01*
X198400500Y-85565555D01*
X198400499Y-85565553D01*
X198379599Y-85460482D01*
X198369737Y-85410903D01*
X198354442Y-85373977D01*
X198309397Y-85265227D01*
X198309390Y-85265214D01*
X198221789Y-85134111D01*
X198221786Y-85134107D01*
X198110292Y-85022613D01*
X198110288Y-85022610D01*
X197979185Y-84935009D01*
X197979172Y-84935002D01*
X197833501Y-84874664D01*
X197833489Y-84874661D01*
X197678845Y-84843900D01*
X197678842Y-84843900D01*
X197521158Y-84843900D01*
X197521155Y-84843900D01*
X197366510Y-84874661D01*
X197366498Y-84874664D01*
X197220827Y-84935002D01*
X197220814Y-84935009D01*
X197089711Y-85022610D01*
X197089707Y-85022613D01*
X196978213Y-85134107D01*
X196978210Y-85134111D01*
X196890609Y-85265214D01*
X196890602Y-85265227D01*
X196830264Y-85410898D01*
X196830261Y-85410910D01*
X196799500Y-85565553D01*
X193322352Y-85565553D01*
X193321792Y-85564715D01*
X193321786Y-85564707D01*
X193210292Y-85453213D01*
X193210288Y-85453210D01*
X193079185Y-85365609D01*
X193079172Y-85365602D01*
X192933501Y-85305264D01*
X192933489Y-85305261D01*
X192778845Y-85274500D01*
X192778842Y-85274500D01*
X192621158Y-85274500D01*
X192621155Y-85274500D01*
X192466510Y-85305261D01*
X192466498Y-85305264D01*
X192320827Y-85365602D01*
X192320814Y-85365609D01*
X192189711Y-85453210D01*
X192189707Y-85453213D01*
X192078213Y-85564707D01*
X192078210Y-85564711D01*
X191990609Y-85695814D01*
X191990602Y-85695827D01*
X191930264Y-85841498D01*
X191930261Y-85841510D01*
X191899500Y-85996153D01*
X190056348Y-85996153D01*
X190084394Y-85954179D01*
X190144737Y-85808497D01*
X190175500Y-85653842D01*
X190175500Y-85496158D01*
X190175500Y-85496155D01*
X190175499Y-85496153D01*
X190158947Y-85412938D01*
X190165174Y-85343347D01*
X190208037Y-85288169D01*
X190233112Y-85274186D01*
X190329172Y-85234397D01*
X190329172Y-85234396D01*
X190329179Y-85234394D01*
X190460289Y-85146789D01*
X190571789Y-85035289D01*
X190659394Y-84904179D01*
X190719737Y-84758497D01*
X190750500Y-84603842D01*
X190750500Y-84446158D01*
X190750500Y-84446155D01*
X190750499Y-84446153D01*
X190728447Y-84335292D01*
X190719737Y-84291503D01*
X190719367Y-84290609D01*
X190659397Y-84145827D01*
X190659390Y-84145814D01*
X190571789Y-84014711D01*
X190571786Y-84014707D01*
X190460292Y-83903213D01*
X190460288Y-83903210D01*
X190329185Y-83815609D01*
X190329172Y-83815602D01*
X190183501Y-83755264D01*
X190183489Y-83755261D01*
X190028845Y-83724500D01*
X190028842Y-83724500D01*
X189871158Y-83724500D01*
X189871155Y-83724500D01*
X189716510Y-83755261D01*
X189716498Y-83755264D01*
X189570827Y-83815602D01*
X189570814Y-83815609D01*
X189439711Y-83903210D01*
X189439707Y-83903213D01*
X189328213Y-84014707D01*
X189328210Y-84014711D01*
X189240609Y-84145814D01*
X189240602Y-84145827D01*
X189180264Y-84291498D01*
X189180261Y-84291510D01*
X189149500Y-84446153D01*
X189149500Y-84446158D01*
X189149500Y-84603842D01*
X189149501Y-84603846D01*
X189166053Y-84687062D01*
X189159825Y-84756653D01*
X189116961Y-84811830D01*
X189091888Y-84825813D01*
X188995824Y-84865604D01*
X188995814Y-84865609D01*
X188864711Y-84953210D01*
X188864707Y-84953213D01*
X188753213Y-85064707D01*
X188753210Y-85064711D01*
X188665609Y-85195814D01*
X188665602Y-85195827D01*
X188605264Y-85341498D01*
X188605261Y-85341510D01*
X188574500Y-85496153D01*
X180503231Y-85496153D01*
X180485289Y-85478211D01*
X180469932Y-85467950D01*
X180462121Y-85460482D01*
X180449867Y-85439192D01*
X180434114Y-85420344D01*
X180432744Y-85409445D01*
X180427266Y-85399927D01*
X180428467Y-85375394D01*
X180425405Y-85351019D01*
X180430145Y-85341109D01*
X180430683Y-85330141D01*
X180444956Y-85310151D01*
X180455559Y-85287991D01*
X180469256Y-85276122D01*
X180471286Y-85273280D01*
X180473603Y-85272355D01*
X180478920Y-85267749D01*
X180510289Y-85246789D01*
X180621789Y-85135289D01*
X180709394Y-85004179D01*
X180769737Y-84858497D01*
X180776238Y-84825813D01*
X180796231Y-84725308D01*
X180828616Y-84663397D01*
X180889332Y-84628823D01*
X180917848Y-84625500D01*
X181028844Y-84625500D01*
X181028845Y-84625499D01*
X181183497Y-84594737D01*
X181329179Y-84534394D01*
X181460289Y-84446789D01*
X181571789Y-84335289D01*
X181659394Y-84204179D01*
X181662719Y-84196153D01*
X181683569Y-84145814D01*
X181719737Y-84058497D01*
X181750500Y-83903842D01*
X181750500Y-83796153D01*
X182174500Y-83796153D01*
X182174500Y-83953846D01*
X182205261Y-84108489D01*
X182205264Y-84108501D01*
X182265602Y-84254172D01*
X182265609Y-84254185D01*
X182353210Y-84385288D01*
X182353213Y-84385292D01*
X182464707Y-84496786D01*
X182464711Y-84496789D01*
X182595814Y-84584390D01*
X182595827Y-84584397D01*
X182741498Y-84644735D01*
X182741503Y-84644737D01*
X182835313Y-84663397D01*
X182896153Y-84675499D01*
X182896156Y-84675500D01*
X182896158Y-84675500D01*
X183053844Y-84675500D01*
X183053845Y-84675499D01*
X183208497Y-84644737D01*
X183354179Y-84584394D01*
X183485289Y-84496789D01*
X183596789Y-84385289D01*
X183684394Y-84254179D01*
X183687854Y-84245827D01*
X183705102Y-84204185D01*
X183744737Y-84108497D01*
X183775500Y-83953842D01*
X183775500Y-83796158D01*
X183775500Y-83796155D01*
X183775499Y-83796153D01*
X183770245Y-83769738D01*
X183744737Y-83641503D01*
X183731808Y-83610289D01*
X183684397Y-83495827D01*
X183684390Y-83495814D01*
X183596789Y-83364711D01*
X183596786Y-83364707D01*
X183485292Y-83253213D01*
X183485288Y-83253210D01*
X183354185Y-83165609D01*
X183354172Y-83165602D01*
X183208501Y-83105264D01*
X183208489Y-83105261D01*
X183053845Y-83074500D01*
X183053842Y-83074500D01*
X182896158Y-83074500D01*
X182896155Y-83074500D01*
X182741510Y-83105261D01*
X182741498Y-83105264D01*
X182595827Y-83165602D01*
X182595814Y-83165609D01*
X182464711Y-83253210D01*
X182464707Y-83253213D01*
X182353213Y-83364707D01*
X182353210Y-83364711D01*
X182265609Y-83495814D01*
X182265602Y-83495827D01*
X182205264Y-83641498D01*
X182205261Y-83641510D01*
X182174500Y-83796153D01*
X181750500Y-83796153D01*
X181750500Y-83746158D01*
X181750500Y-83746155D01*
X181750499Y-83746153D01*
X181732204Y-83654179D01*
X181719737Y-83591503D01*
X181719735Y-83591498D01*
X181659397Y-83445827D01*
X181659390Y-83445814D01*
X181571789Y-83314711D01*
X181571786Y-83314707D01*
X181460292Y-83203213D01*
X181460288Y-83203210D01*
X181329185Y-83115609D01*
X181329172Y-83115602D01*
X181183501Y-83055264D01*
X181183489Y-83055261D01*
X181028845Y-83024500D01*
X181028842Y-83024500D01*
X180871158Y-83024500D01*
X180871155Y-83024500D01*
X180716510Y-83055261D01*
X180716498Y-83055264D01*
X180570827Y-83115602D01*
X180570814Y-83115609D01*
X180439711Y-83203210D01*
X180439707Y-83203213D01*
X180328213Y-83314707D01*
X180328210Y-83314711D01*
X180240609Y-83445814D01*
X180240602Y-83445827D01*
X180180264Y-83591498D01*
X180180261Y-83591508D01*
X180153769Y-83724692D01*
X180121384Y-83786603D01*
X180060668Y-83821177D01*
X180032152Y-83824500D01*
X179921155Y-83824500D01*
X179766510Y-83855261D01*
X179766498Y-83855264D01*
X179620827Y-83915602D01*
X179620814Y-83915609D01*
X179489711Y-84003210D01*
X179489707Y-84003213D01*
X179378213Y-84114707D01*
X179378210Y-84114711D01*
X179290609Y-84245814D01*
X179290602Y-84245827D01*
X179230264Y-84391498D01*
X179230261Y-84391510D01*
X179199500Y-84546153D01*
X179199500Y-84703846D01*
X179230261Y-84858489D01*
X179230264Y-84858501D01*
X179290602Y-85004172D01*
X179290609Y-85004185D01*
X179378210Y-85135288D01*
X179378213Y-85135292D01*
X179489707Y-85246786D01*
X179489710Y-85246788D01*
X179489711Y-85246789D01*
X179496078Y-85251043D01*
X179540884Y-85304653D01*
X179549594Y-85373977D01*
X179519442Y-85437006D01*
X179496082Y-85457248D01*
X179464714Y-85478208D01*
X179464707Y-85478213D01*
X179353213Y-85589707D01*
X179353210Y-85589711D01*
X179265609Y-85720814D01*
X179265602Y-85720827D01*
X179205264Y-85866498D01*
X179205261Y-85866510D01*
X179174500Y-86021153D01*
X168000500Y-86021153D01*
X168000500Y-85302190D01*
X168020185Y-85235151D01*
X168072989Y-85189396D01*
X168142147Y-85179452D01*
X168205703Y-85208477D01*
X168239061Y-85254738D01*
X168290602Y-85379172D01*
X168290609Y-85379185D01*
X168378210Y-85510288D01*
X168378213Y-85510292D01*
X168489707Y-85621786D01*
X168489711Y-85621789D01*
X168620814Y-85709390D01*
X168620827Y-85709397D01*
X168766498Y-85769735D01*
X168766503Y-85769737D01*
X168921153Y-85800499D01*
X168921156Y-85800500D01*
X168921158Y-85800500D01*
X169078844Y-85800500D01*
X169078845Y-85800499D01*
X169233497Y-85769737D01*
X169351592Y-85720821D01*
X169379172Y-85709397D01*
X169379172Y-85709396D01*
X169379179Y-85709394D01*
X169510289Y-85621789D01*
X169621789Y-85510289D01*
X169709394Y-85379179D01*
X169769737Y-85233497D01*
X169800500Y-85078842D01*
X169800500Y-84921158D01*
X169800500Y-84921155D01*
X169800499Y-84921153D01*
X169791252Y-84874664D01*
X169769737Y-84766503D01*
X169769735Y-84766498D01*
X169709397Y-84620827D01*
X169709390Y-84620814D01*
X169621789Y-84489711D01*
X169621786Y-84489707D01*
X169510292Y-84378213D01*
X169510288Y-84378210D01*
X169379185Y-84290609D01*
X169379172Y-84290602D01*
X169233501Y-84230264D01*
X169233489Y-84230261D01*
X169078845Y-84199500D01*
X169078842Y-84199500D01*
X168921158Y-84199500D01*
X168921155Y-84199500D01*
X168766510Y-84230261D01*
X168766498Y-84230264D01*
X168620827Y-84290602D01*
X168620814Y-84290609D01*
X168489711Y-84378210D01*
X168489707Y-84378213D01*
X168378213Y-84489707D01*
X168378210Y-84489711D01*
X168290609Y-84620814D01*
X168290602Y-84620827D01*
X168239061Y-84745261D01*
X168195220Y-84799665D01*
X168128926Y-84821730D01*
X168061227Y-84804451D01*
X168013616Y-84753314D01*
X168000500Y-84697809D01*
X168000500Y-82921153D01*
X170699500Y-82921153D01*
X170699500Y-83078846D01*
X170730261Y-83233489D01*
X170730264Y-83233501D01*
X170790602Y-83379172D01*
X170790609Y-83379185D01*
X170878210Y-83510288D01*
X170878213Y-83510292D01*
X170989707Y-83621786D01*
X170989711Y-83621789D01*
X171120814Y-83709390D01*
X171120827Y-83709397D01*
X171254359Y-83764707D01*
X171266503Y-83769737D01*
X171421153Y-83800499D01*
X171421156Y-83800500D01*
X171421158Y-83800500D01*
X171578844Y-83800500D01*
X171578845Y-83800499D01*
X171733497Y-83769737D01*
X171879179Y-83709394D01*
X172010289Y-83621789D01*
X172121789Y-83510289D01*
X172209394Y-83379179D01*
X172215389Y-83364707D01*
X172236099Y-83314707D01*
X172269737Y-83233497D01*
X172300500Y-83078842D01*
X172300500Y-82921158D01*
X172300500Y-82921155D01*
X172300499Y-82921153D01*
X172278447Y-82810292D01*
X172269737Y-82766503D01*
X172233569Y-82679185D01*
X172209397Y-82620827D01*
X172209390Y-82620814D01*
X172121789Y-82489711D01*
X172121786Y-82489707D01*
X172010292Y-82378213D01*
X172010288Y-82378210D01*
X171879185Y-82290609D01*
X171879172Y-82290602D01*
X171733501Y-82230264D01*
X171733489Y-82230261D01*
X171578845Y-82199500D01*
X171578842Y-82199500D01*
X171421158Y-82199500D01*
X171421155Y-82199500D01*
X171266510Y-82230261D01*
X171266498Y-82230264D01*
X171120827Y-82290602D01*
X171120814Y-82290609D01*
X170989711Y-82378210D01*
X170989707Y-82378213D01*
X170878213Y-82489707D01*
X170878210Y-82489711D01*
X170790609Y-82620814D01*
X170790602Y-82620827D01*
X170730264Y-82766498D01*
X170730261Y-82766510D01*
X170699500Y-82921153D01*
X168000500Y-82921153D01*
X168000500Y-81321153D01*
X183549500Y-81321153D01*
X183549500Y-81478846D01*
X183580261Y-81633489D01*
X183580264Y-81633501D01*
X183640602Y-81779172D01*
X183640609Y-81779185D01*
X183728210Y-81910288D01*
X183728213Y-81910292D01*
X183839707Y-82021786D01*
X183839711Y-82021789D01*
X183970814Y-82109390D01*
X183970827Y-82109397D01*
X184005950Y-82123945D01*
X184116503Y-82169737D01*
X184266131Y-82199500D01*
X184271153Y-82200499D01*
X184271156Y-82200500D01*
X184271158Y-82200500D01*
X184428844Y-82200500D01*
X184428845Y-82200499D01*
X184583497Y-82169737D01*
X184729179Y-82109394D01*
X184729184Y-82109390D01*
X184729187Y-82109389D01*
X184781608Y-82074362D01*
X184848285Y-82053483D01*
X184915665Y-82071967D01*
X184962356Y-82123945D01*
X184974500Y-82177463D01*
X184974500Y-82278846D01*
X184997170Y-82392815D01*
X184990943Y-82462406D01*
X184963234Y-82504687D01*
X184878213Y-82589707D01*
X184878210Y-82589711D01*
X184790609Y-82720814D01*
X184790602Y-82720827D01*
X184730264Y-82866498D01*
X184730261Y-82866510D01*
X184699500Y-83021153D01*
X184699500Y-83178846D01*
X184730261Y-83333489D01*
X184730264Y-83333501D01*
X184790602Y-83479172D01*
X184790609Y-83479185D01*
X184878210Y-83610288D01*
X184878213Y-83610292D01*
X184989707Y-83721786D01*
X184989711Y-83721789D01*
X185120814Y-83809390D01*
X185120827Y-83809397D01*
X185266498Y-83869735D01*
X185266503Y-83869737D01*
X185402487Y-83896786D01*
X185421153Y-83900499D01*
X185421156Y-83900500D01*
X185421158Y-83900500D01*
X185578844Y-83900500D01*
X185646358Y-83887070D01*
X185716202Y-83873177D01*
X185785793Y-83879404D01*
X185840970Y-83922266D01*
X185864215Y-83988156D01*
X185856130Y-84035402D01*
X185857031Y-84035676D01*
X185855261Y-84041510D01*
X185824500Y-84196153D01*
X185824500Y-84353846D01*
X185855261Y-84508489D01*
X185855264Y-84508501D01*
X185915602Y-84654172D01*
X185915609Y-84654185D01*
X186003210Y-84785288D01*
X186003213Y-84785292D01*
X186114707Y-84896786D01*
X186114711Y-84896789D01*
X186245814Y-84984390D01*
X186245827Y-84984397D01*
X186391498Y-85044735D01*
X186391503Y-85044737D01*
X186546153Y-85075499D01*
X186546156Y-85075500D01*
X186546158Y-85075500D01*
X186703844Y-85075500D01*
X186703845Y-85075499D01*
X186858497Y-85044737D01*
X187004179Y-84984394D01*
X187135289Y-84896789D01*
X187246789Y-84785289D01*
X187334394Y-84654179D01*
X187394737Y-84508497D01*
X187425500Y-84353842D01*
X187425500Y-84196158D01*
X187425500Y-84196155D01*
X187425499Y-84196153D01*
X187398117Y-84058497D01*
X187394737Y-84041503D01*
X187392210Y-84035402D01*
X187334397Y-83895827D01*
X187334390Y-83895814D01*
X187246789Y-83764711D01*
X187246786Y-83764707D01*
X187135292Y-83653213D01*
X187135288Y-83653210D01*
X187004185Y-83565609D01*
X187004172Y-83565602D01*
X186858501Y-83505264D01*
X186858489Y-83505261D01*
X186703845Y-83474500D01*
X186703842Y-83474500D01*
X186546158Y-83474500D01*
X186546153Y-83474500D01*
X186408797Y-83501822D01*
X186339206Y-83495595D01*
X186284028Y-83452732D01*
X186260784Y-83386842D01*
X186268874Y-83339598D01*
X186267969Y-83339324D01*
X186269731Y-83333509D01*
X186269737Y-83333497D01*
X186297057Y-83196153D01*
X191874500Y-83196153D01*
X191874500Y-83353846D01*
X191905261Y-83508489D01*
X191905264Y-83508501D01*
X191965602Y-83654172D01*
X191965609Y-83654185D01*
X192053210Y-83785288D01*
X192053213Y-83785292D01*
X192164707Y-83896786D01*
X192164711Y-83896789D01*
X192295814Y-83984390D01*
X192295827Y-83984397D01*
X192433683Y-84041498D01*
X192441503Y-84044737D01*
X192596153Y-84075499D01*
X192596156Y-84075500D01*
X192596158Y-84075500D01*
X192753844Y-84075500D01*
X192753845Y-84075499D01*
X192908497Y-84044737D01*
X193054179Y-83984394D01*
X193185289Y-83896789D01*
X193296789Y-83785289D01*
X193384394Y-83654179D01*
X193444737Y-83508497D01*
X193473339Y-83364707D01*
X193475638Y-83353150D01*
X193508023Y-83291239D01*
X193509516Y-83289718D01*
X194491552Y-82307684D01*
X194570609Y-82170752D01*
X194611533Y-82018025D01*
X194611533Y-81859910D01*
X194611533Y-81852315D01*
X194611532Y-81852297D01*
X194611532Y-81693739D01*
X194631217Y-81626700D01*
X194632430Y-81624848D01*
X194651604Y-81596153D01*
X194720426Y-81493153D01*
X194780769Y-81347471D01*
X194811532Y-81192816D01*
X194811532Y-81035132D01*
X194811532Y-81035129D01*
X194811531Y-81035127D01*
X194780769Y-80880477D01*
X194774214Y-80864651D01*
X194720429Y-80734801D01*
X194720422Y-80734788D01*
X194632821Y-80603685D01*
X194632818Y-80603681D01*
X194521324Y-80492187D01*
X194521320Y-80492184D01*
X194390217Y-80404583D01*
X194390204Y-80404576D01*
X194244533Y-80344238D01*
X194244521Y-80344235D01*
X194089877Y-80313474D01*
X194089874Y-80313474D01*
X193932190Y-80313474D01*
X193932187Y-80313474D01*
X193777542Y-80344235D01*
X193777530Y-80344238D01*
X193631859Y-80404576D01*
X193631846Y-80404583D01*
X193500743Y-80492184D01*
X193500739Y-80492187D01*
X193389245Y-80603681D01*
X193389242Y-80603685D01*
X193301641Y-80734788D01*
X193301634Y-80734801D01*
X193241296Y-80880472D01*
X193241293Y-80880484D01*
X193210532Y-81035127D01*
X193210532Y-81192820D01*
X193241293Y-81347463D01*
X193241296Y-81347475D01*
X193301634Y-81493146D01*
X193301641Y-81493159D01*
X193367656Y-81591956D01*
X193388534Y-81658633D01*
X193370050Y-81726013D01*
X193352235Y-81748528D01*
X192660339Y-82440425D01*
X192599016Y-82473910D01*
X192596850Y-82474361D01*
X192441508Y-82505261D01*
X192441498Y-82505264D01*
X192295827Y-82565602D01*
X192295814Y-82565609D01*
X192164711Y-82653210D01*
X192164707Y-82653213D01*
X192053213Y-82764707D01*
X192053210Y-82764711D01*
X191965609Y-82895814D01*
X191965602Y-82895827D01*
X191905264Y-83041498D01*
X191905261Y-83041510D01*
X191874500Y-83196153D01*
X186297057Y-83196153D01*
X186300500Y-83178842D01*
X186300500Y-83021158D01*
X186300500Y-83021155D01*
X186280734Y-82921789D01*
X186277829Y-82907184D01*
X186284056Y-82837593D01*
X186311764Y-82795313D01*
X186396789Y-82710289D01*
X186484394Y-82579179D01*
X186544737Y-82433497D01*
X186575500Y-82278842D01*
X186575500Y-82121158D01*
X186575500Y-82121155D01*
X186575499Y-82121153D01*
X186562177Y-82054179D01*
X186544737Y-81966503D01*
X186544735Y-81966498D01*
X186484397Y-81820827D01*
X186484390Y-81820814D01*
X186396789Y-81689711D01*
X186396786Y-81689707D01*
X186285292Y-81578213D01*
X186285288Y-81578210D01*
X186154185Y-81490609D01*
X186154172Y-81490602D01*
X186008501Y-81430264D01*
X186008489Y-81430261D01*
X185853845Y-81399500D01*
X185853842Y-81399500D01*
X185696158Y-81399500D01*
X185696155Y-81399500D01*
X185541510Y-81430261D01*
X185541498Y-81430264D01*
X185395827Y-81490602D01*
X185395814Y-81490609D01*
X185343391Y-81525638D01*
X185276713Y-81546516D01*
X185209333Y-81528031D01*
X185162643Y-81476053D01*
X185150500Y-81422536D01*
X185150500Y-81321155D01*
X185150499Y-81321153D01*
X185133061Y-81233489D01*
X185119737Y-81166503D01*
X185083427Y-81078842D01*
X185059397Y-81020827D01*
X185059390Y-81020814D01*
X184971789Y-80889711D01*
X184971786Y-80889707D01*
X184860292Y-80778213D01*
X184860288Y-80778210D01*
X184729185Y-80690609D01*
X184729172Y-80690602D01*
X184583501Y-80630264D01*
X184583489Y-80630261D01*
X184428845Y-80599500D01*
X184428842Y-80599500D01*
X184271158Y-80599500D01*
X184271155Y-80599500D01*
X184116510Y-80630261D01*
X184116498Y-80630264D01*
X183970827Y-80690602D01*
X183970814Y-80690609D01*
X183839711Y-80778210D01*
X183839707Y-80778213D01*
X183728213Y-80889707D01*
X183728210Y-80889711D01*
X183640609Y-81020814D01*
X183640602Y-81020827D01*
X183580264Y-81166498D01*
X183580261Y-81166510D01*
X183549500Y-81321153D01*
X168000500Y-81321153D01*
X168000500Y-79421153D01*
X173699500Y-79421153D01*
X173699500Y-79578846D01*
X173730261Y-79733489D01*
X173730264Y-79733501D01*
X173790602Y-79879172D01*
X173790609Y-79879185D01*
X173878210Y-80010288D01*
X173878213Y-80010292D01*
X173989707Y-80121786D01*
X173989711Y-80121789D01*
X174120814Y-80209390D01*
X174120827Y-80209397D01*
X174266498Y-80269735D01*
X174266503Y-80269737D01*
X174406785Y-80297641D01*
X174421153Y-80300499D01*
X174421156Y-80300500D01*
X174421158Y-80300500D01*
X174578844Y-80300500D01*
X174578845Y-80300499D01*
X174733497Y-80269737D01*
X174879179Y-80209394D01*
X175010289Y-80121789D01*
X175060925Y-80071153D01*
X186099500Y-80071153D01*
X186099500Y-80228846D01*
X186130261Y-80383489D01*
X186130264Y-80383501D01*
X186190602Y-80529172D01*
X186190609Y-80529185D01*
X186278210Y-80660288D01*
X186278213Y-80660292D01*
X186389707Y-80771786D01*
X186389711Y-80771789D01*
X186520814Y-80859390D01*
X186520827Y-80859397D01*
X186666498Y-80919735D01*
X186666503Y-80919737D01*
X186821153Y-80950499D01*
X186821156Y-80950500D01*
X186821158Y-80950500D01*
X186978844Y-80950500D01*
X186978845Y-80950499D01*
X187133497Y-80919737D01*
X187266485Y-80864652D01*
X187279172Y-80859397D01*
X187279172Y-80859396D01*
X187279179Y-80859394D01*
X187410289Y-80771789D01*
X187521789Y-80660289D01*
X187609394Y-80529179D01*
X187615389Y-80514707D01*
X187642120Y-80450171D01*
X187669737Y-80383497D01*
X187700500Y-80228842D01*
X187700500Y-80071158D01*
X187700500Y-80071155D01*
X187687024Y-80003410D01*
X187687024Y-80003409D01*
X187683423Y-79985305D01*
X189099500Y-79985305D01*
X189099500Y-80142998D01*
X189130261Y-80297641D01*
X189130264Y-80297653D01*
X189190602Y-80443324D01*
X189190609Y-80443337D01*
X189278210Y-80574440D01*
X189278213Y-80574444D01*
X189389707Y-80685938D01*
X189389711Y-80685941D01*
X189520814Y-80773542D01*
X189520827Y-80773549D01*
X189666498Y-80833887D01*
X189666503Y-80833889D01*
X189794740Y-80859397D01*
X189821153Y-80864651D01*
X189821156Y-80864652D01*
X189821158Y-80864652D01*
X189825500Y-80864652D01*
X189892539Y-80884337D01*
X189938294Y-80937141D01*
X189949500Y-80988652D01*
X189949500Y-81078846D01*
X189980261Y-81233489D01*
X189980264Y-81233501D01*
X190040602Y-81379172D01*
X190040609Y-81379185D01*
X190052181Y-81396503D01*
X190073059Y-81463180D01*
X190054575Y-81530560D01*
X190002596Y-81577251D01*
X189996535Y-81579954D01*
X189970823Y-81590604D01*
X189970814Y-81590609D01*
X189839711Y-81678210D01*
X189839707Y-81678213D01*
X189728213Y-81789707D01*
X189728210Y-81789711D01*
X189640609Y-81920814D01*
X189640602Y-81920827D01*
X189580264Y-82066498D01*
X189580261Y-82066510D01*
X189549500Y-82221153D01*
X189549500Y-82378846D01*
X189580261Y-82533489D01*
X189580264Y-82533501D01*
X189640602Y-82679172D01*
X189640609Y-82679185D01*
X189728210Y-82810288D01*
X189728213Y-82810292D01*
X189839707Y-82921786D01*
X189839711Y-82921789D01*
X189970814Y-83009390D01*
X189970827Y-83009397D01*
X190116498Y-83069735D01*
X190116503Y-83069737D01*
X190271153Y-83100499D01*
X190271156Y-83100500D01*
X190271158Y-83100500D01*
X190428844Y-83100500D01*
X190428845Y-83100499D01*
X190583497Y-83069737D01*
X190729179Y-83009394D01*
X190860289Y-82921789D01*
X190971789Y-82810289D01*
X191059394Y-82679179D01*
X191119737Y-82533497D01*
X191150500Y-82378842D01*
X191150500Y-82221158D01*
X191150500Y-82221155D01*
X191150499Y-82221153D01*
X191140474Y-82170753D01*
X191119737Y-82066503D01*
X191078314Y-81966498D01*
X191059397Y-81920827D01*
X191059389Y-81920813D01*
X191047819Y-81903497D01*
X191026940Y-81836820D01*
X191045424Y-81769440D01*
X191097402Y-81722749D01*
X191103458Y-81720047D01*
X191129179Y-81709394D01*
X191203566Y-81659689D01*
X191270240Y-81638813D01*
X191337621Y-81657297D01*
X191375557Y-81693903D01*
X191403207Y-81735284D01*
X191403213Y-81735292D01*
X191514707Y-81846786D01*
X191514711Y-81846789D01*
X191645814Y-81934390D01*
X191645827Y-81934397D01*
X191723356Y-81966510D01*
X191791503Y-81994737D01*
X191908569Y-82018023D01*
X191946153Y-82025499D01*
X191946156Y-82025500D01*
X191946158Y-82025500D01*
X192103844Y-82025500D01*
X192103845Y-82025499D01*
X192258497Y-81994737D01*
X192404179Y-81934394D01*
X192535289Y-81846789D01*
X192646789Y-81735289D01*
X192734394Y-81604179D01*
X192737719Y-81596153D01*
X192773284Y-81510289D01*
X192794737Y-81458497D01*
X192825500Y-81303842D01*
X192825500Y-81146158D01*
X192825500Y-81146155D01*
X192825499Y-81146153D01*
X192794737Y-80991503D01*
X192793556Y-80988652D01*
X192734397Y-80845827D01*
X192734390Y-80845814D01*
X192646789Y-80714711D01*
X192646786Y-80714707D01*
X192535292Y-80603213D01*
X192535288Y-80603210D01*
X192404185Y-80515609D01*
X192404172Y-80515602D01*
X192258501Y-80455264D01*
X192258494Y-80455262D01*
X192232901Y-80450171D01*
X192170991Y-80417784D01*
X192136418Y-80357068D01*
X192135478Y-80304362D01*
X192150500Y-80228844D01*
X192150500Y-80071155D01*
X192150499Y-80071153D01*
X192119737Y-79916503D01*
X192118084Y-79912512D01*
X192100953Y-79871153D01*
X199949500Y-79871153D01*
X199949500Y-80028846D01*
X199980261Y-80183489D01*
X199980264Y-80183501D01*
X200040602Y-80329172D01*
X200040609Y-80329185D01*
X200128210Y-80460288D01*
X200128213Y-80460292D01*
X200239707Y-80571786D01*
X200239711Y-80571789D01*
X200370814Y-80659390D01*
X200370827Y-80659397D01*
X200446164Y-80690602D01*
X200516503Y-80719737D01*
X200518039Y-80720042D01*
X200518768Y-80720423D01*
X200522338Y-80721507D01*
X200522132Y-80722183D01*
X200579951Y-80752422D01*
X200614530Y-80813135D01*
X200615473Y-80865852D01*
X200599500Y-80946153D01*
X200599500Y-81103846D01*
X200630261Y-81258489D01*
X200630264Y-81258501D01*
X200690602Y-81404172D01*
X200690609Y-81404185D01*
X200778210Y-81535288D01*
X200778213Y-81535292D01*
X200889707Y-81646786D01*
X200889711Y-81646789D01*
X201020814Y-81734390D01*
X201020827Y-81734397D01*
X201154359Y-81789707D01*
X201166503Y-81794737D01*
X201321153Y-81825499D01*
X201321156Y-81825500D01*
X201321158Y-81825500D01*
X201478844Y-81825500D01*
X201478845Y-81825499D01*
X201633497Y-81794737D01*
X201777021Y-81735288D01*
X201779172Y-81734397D01*
X201779172Y-81734396D01*
X201779179Y-81734394D01*
X201910289Y-81646789D01*
X201960925Y-81596153D01*
X208949500Y-81596153D01*
X208949500Y-81753846D01*
X208980261Y-81908489D01*
X208980264Y-81908501D01*
X209040602Y-82054172D01*
X209040609Y-82054185D01*
X209128210Y-82185288D01*
X209128213Y-82185292D01*
X209239707Y-82296786D01*
X209239711Y-82296789D01*
X209370814Y-82384390D01*
X209370827Y-82384397D01*
X209506093Y-82440425D01*
X209516503Y-82444737D01*
X209663165Y-82473910D01*
X209671153Y-82475499D01*
X209671156Y-82475500D01*
X209671158Y-82475500D01*
X209828844Y-82475500D01*
X209828845Y-82475499D01*
X209983497Y-82444737D01*
X210129179Y-82384394D01*
X210260289Y-82296789D01*
X210371789Y-82185289D01*
X210459394Y-82054179D01*
X210519737Y-81908497D01*
X210550500Y-81753842D01*
X210550500Y-81596158D01*
X210550500Y-81596155D01*
X210550499Y-81596153D01*
X210546739Y-81577251D01*
X210519737Y-81441503D01*
X210515081Y-81430263D01*
X210459397Y-81295827D01*
X210459390Y-81295814D01*
X210371789Y-81164711D01*
X210371786Y-81164707D01*
X210260292Y-81053213D01*
X210260288Y-81053210D01*
X210129185Y-80965609D01*
X210129172Y-80965602D01*
X209983501Y-80905264D01*
X209983489Y-80905261D01*
X209828845Y-80874500D01*
X209828842Y-80874500D01*
X209671158Y-80874500D01*
X209671155Y-80874500D01*
X209516510Y-80905261D01*
X209516498Y-80905264D01*
X209370827Y-80965602D01*
X209370814Y-80965609D01*
X209239711Y-81053210D01*
X209239707Y-81053213D01*
X209128213Y-81164707D01*
X209128210Y-81164711D01*
X209040609Y-81295814D01*
X209040602Y-81295827D01*
X208980264Y-81441498D01*
X208980261Y-81441510D01*
X208949500Y-81596153D01*
X201960925Y-81596153D01*
X202021789Y-81535289D01*
X202038494Y-81510289D01*
X202109390Y-81404185D01*
X202109390Y-81404184D01*
X202109394Y-81404179D01*
X202112574Y-81396503D01*
X202150954Y-81303844D01*
X202169737Y-81258497D01*
X202200500Y-81103842D01*
X202200500Y-80946158D01*
X202200500Y-80946155D01*
X202200499Y-80946153D01*
X202195245Y-80919738D01*
X202169737Y-80791503D01*
X202150933Y-80746105D01*
X202109397Y-80645827D01*
X202109390Y-80645814D01*
X202021789Y-80514711D01*
X202021786Y-80514707D01*
X201910292Y-80403213D01*
X201910288Y-80403210D01*
X201779185Y-80315609D01*
X201779172Y-80315602D01*
X201633501Y-80255264D01*
X201633494Y-80255262D01*
X201631949Y-80254955D01*
X201631214Y-80254570D01*
X201627665Y-80253494D01*
X201627869Y-80252820D01*
X201570039Y-80222568D01*
X201535466Y-80161852D01*
X201534526Y-80109147D01*
X201550500Y-80028842D01*
X201550500Y-79871158D01*
X201550500Y-79871155D01*
X201550499Y-79871153D01*
X201530543Y-79770827D01*
X201519737Y-79716503D01*
X201519735Y-79716498D01*
X201459397Y-79570827D01*
X201459390Y-79570814D01*
X201371789Y-79439711D01*
X201371786Y-79439707D01*
X201260292Y-79328213D01*
X201260288Y-79328210D01*
X201129185Y-79240609D01*
X201129172Y-79240602D01*
X200983501Y-79180264D01*
X200983489Y-79180261D01*
X200828845Y-79149500D01*
X200828842Y-79149500D01*
X200671158Y-79149500D01*
X200671155Y-79149500D01*
X200516510Y-79180261D01*
X200516498Y-79180264D01*
X200370827Y-79240602D01*
X200370814Y-79240609D01*
X200239711Y-79328210D01*
X200239707Y-79328213D01*
X200128213Y-79439707D01*
X200128210Y-79439711D01*
X200040609Y-79570814D01*
X200040602Y-79570827D01*
X199980264Y-79716498D01*
X199980261Y-79716510D01*
X199949500Y-79871153D01*
X192100953Y-79871153D01*
X192059397Y-79770827D01*
X192059390Y-79770814D01*
X191971789Y-79639711D01*
X191971786Y-79639707D01*
X191860292Y-79528213D01*
X191860288Y-79528210D01*
X191729185Y-79440609D01*
X191729172Y-79440602D01*
X191583501Y-79380264D01*
X191583489Y-79380261D01*
X191428845Y-79349500D01*
X191428842Y-79349500D01*
X191271158Y-79349500D01*
X191271155Y-79349500D01*
X191116510Y-79380261D01*
X191116498Y-79380264D01*
X190970827Y-79440602D01*
X190970814Y-79440609D01*
X190839711Y-79528210D01*
X190745695Y-79622226D01*
X190684371Y-79655710D01*
X190614680Y-79650726D01*
X190558747Y-79608854D01*
X190554912Y-79603434D01*
X190521792Y-79553867D01*
X190521786Y-79553859D01*
X190410292Y-79442365D01*
X190410288Y-79442362D01*
X190279185Y-79354761D01*
X190279172Y-79354754D01*
X190133501Y-79294416D01*
X190133489Y-79294413D01*
X189978845Y-79263652D01*
X189978842Y-79263652D01*
X189821158Y-79263652D01*
X189821155Y-79263652D01*
X189666510Y-79294413D01*
X189666498Y-79294416D01*
X189520827Y-79354754D01*
X189520814Y-79354761D01*
X189389711Y-79442362D01*
X189389707Y-79442365D01*
X189278213Y-79553859D01*
X189278210Y-79553863D01*
X189190609Y-79684966D01*
X189190602Y-79684979D01*
X189130264Y-79830650D01*
X189130261Y-79830662D01*
X189099500Y-79985305D01*
X187683423Y-79985305D01*
X187669738Y-79916510D01*
X187669737Y-79916503D01*
X187668084Y-79912512D01*
X187609397Y-79770827D01*
X187609387Y-79770809D01*
X187574639Y-79718804D01*
X187553761Y-79652127D01*
X187572246Y-79584747D01*
X187574639Y-79581023D01*
X187576095Y-79578844D01*
X187659394Y-79454179D01*
X187664288Y-79442365D01*
X187690011Y-79380263D01*
X187719737Y-79308497D01*
X187750500Y-79153842D01*
X187750500Y-78996158D01*
X187750500Y-78996155D01*
X187750499Y-78996153D01*
X187730734Y-78896789D01*
X187719737Y-78841503D01*
X187698655Y-78790606D01*
X187659397Y-78695827D01*
X187659390Y-78695814D01*
X187571789Y-78564711D01*
X187571786Y-78564707D01*
X187460292Y-78453213D01*
X187460288Y-78453210D01*
X187329185Y-78365609D01*
X187329172Y-78365602D01*
X187183501Y-78305264D01*
X187183489Y-78305261D01*
X187028845Y-78274500D01*
X187028842Y-78274500D01*
X186871158Y-78274500D01*
X186871155Y-78274500D01*
X186716510Y-78305261D01*
X186716498Y-78305264D01*
X186570827Y-78365602D01*
X186570814Y-78365609D01*
X186439711Y-78453210D01*
X186439707Y-78453213D01*
X186328213Y-78564707D01*
X186328210Y-78564711D01*
X186240609Y-78695814D01*
X186240602Y-78695827D01*
X186180264Y-78841498D01*
X186180261Y-78841510D01*
X186149500Y-78996153D01*
X186149500Y-79153846D01*
X186180261Y-79308489D01*
X186180264Y-79308501D01*
X186240602Y-79454172D01*
X186240608Y-79454183D01*
X186275361Y-79506195D01*
X186296238Y-79572873D01*
X186277753Y-79640253D01*
X186275360Y-79643975D01*
X186190612Y-79770809D01*
X186190602Y-79770827D01*
X186130264Y-79916498D01*
X186130261Y-79916510D01*
X186099500Y-80071153D01*
X175060925Y-80071153D01*
X175121789Y-80010289D01*
X175138480Y-79985310D01*
X175209390Y-79879185D01*
X175209390Y-79879184D01*
X175209394Y-79879179D01*
X175212719Y-79871153D01*
X175229495Y-79830650D01*
X175269737Y-79733497D01*
X175300500Y-79578842D01*
X175300500Y-79421158D01*
X175300500Y-79421155D01*
X175300499Y-79421153D01*
X175282012Y-79328213D01*
X175269737Y-79266503D01*
X175259229Y-79241135D01*
X175209397Y-79120827D01*
X175209390Y-79120814D01*
X175121789Y-78989711D01*
X175121786Y-78989707D01*
X175010292Y-78878213D01*
X175010288Y-78878210D01*
X174879185Y-78790609D01*
X174879172Y-78790602D01*
X174733501Y-78730264D01*
X174733489Y-78730261D01*
X174578845Y-78699500D01*
X174578842Y-78699500D01*
X174421158Y-78699500D01*
X174421155Y-78699500D01*
X174266510Y-78730261D01*
X174266498Y-78730264D01*
X174120827Y-78790602D01*
X174120814Y-78790609D01*
X173989711Y-78878210D01*
X173989707Y-78878213D01*
X173878213Y-78989707D01*
X173878210Y-78989711D01*
X173790609Y-79120814D01*
X173790602Y-79120827D01*
X173730264Y-79266498D01*
X173730261Y-79266510D01*
X173699500Y-79421153D01*
X168000500Y-79421153D01*
X168000500Y-79334779D01*
X168020185Y-79267740D01*
X168072989Y-79221985D01*
X168142147Y-79212041D01*
X168171952Y-79220218D01*
X168204419Y-79233666D01*
X168291503Y-79269737D01*
X168415557Y-79294413D01*
X168446153Y-79300499D01*
X168446156Y-79300500D01*
X168446158Y-79300500D01*
X168603844Y-79300500D01*
X168603845Y-79300499D01*
X168758497Y-79269737D01*
X168827549Y-79241134D01*
X168897016Y-79233666D01*
X168922447Y-79241133D01*
X168991503Y-79269737D01*
X169115557Y-79294413D01*
X169146153Y-79300499D01*
X169146156Y-79300500D01*
X169146158Y-79300500D01*
X169303844Y-79300500D01*
X169303845Y-79300499D01*
X169458497Y-79269737D01*
X169527549Y-79241134D01*
X169597016Y-79233666D01*
X169622447Y-79241133D01*
X169691503Y-79269737D01*
X169815557Y-79294413D01*
X169846153Y-79300499D01*
X169846156Y-79300500D01*
X169846158Y-79300500D01*
X170003844Y-79300500D01*
X170003845Y-79300499D01*
X170014179Y-79298443D01*
X170039287Y-79293450D01*
X170039292Y-79293449D01*
X170124800Y-79276439D01*
X170158497Y-79269737D01*
X170304179Y-79209394D01*
X170435289Y-79121789D01*
X170546789Y-79010289D01*
X170634394Y-78879179D01*
X170694737Y-78733497D01*
X170725500Y-78578842D01*
X170725500Y-78421158D01*
X170725500Y-78421155D01*
X170725499Y-78421153D01*
X170694737Y-78266503D01*
X170666134Y-78197450D01*
X170665995Y-78196153D01*
X182799500Y-78196153D01*
X182799500Y-78353846D01*
X182830261Y-78508489D01*
X182830264Y-78508501D01*
X182890602Y-78654172D01*
X182890609Y-78654185D01*
X182978210Y-78785288D01*
X182978213Y-78785292D01*
X183089707Y-78896786D01*
X183089711Y-78896789D01*
X183220814Y-78984390D01*
X183220827Y-78984397D01*
X183366498Y-79044735D01*
X183366503Y-79044737D01*
X183521153Y-79075499D01*
X183521156Y-79075500D01*
X183521158Y-79075500D01*
X183678844Y-79075500D01*
X183678845Y-79075499D01*
X183833497Y-79044737D01*
X183979179Y-78984394D01*
X184110289Y-78896789D01*
X184221789Y-78785289D01*
X184309394Y-78654179D01*
X184369737Y-78508497D01*
X184400500Y-78353842D01*
X184400500Y-78196158D01*
X184400500Y-78196155D01*
X184400499Y-78196153D01*
X184369737Y-78041503D01*
X184366418Y-78033489D01*
X184309397Y-77895827D01*
X184309390Y-77895814D01*
X184221789Y-77764711D01*
X184221786Y-77764707D01*
X184110292Y-77653213D01*
X184110288Y-77653210D01*
X183979185Y-77565609D01*
X183979172Y-77565602D01*
X183833501Y-77505264D01*
X183833489Y-77505261D01*
X183678845Y-77474500D01*
X183678842Y-77474500D01*
X183521158Y-77474500D01*
X183521155Y-77474500D01*
X183366510Y-77505261D01*
X183366498Y-77505264D01*
X183220827Y-77565602D01*
X183220814Y-77565609D01*
X183089711Y-77653210D01*
X183089707Y-77653213D01*
X182978213Y-77764707D01*
X182978210Y-77764711D01*
X182890609Y-77895814D01*
X182890602Y-77895827D01*
X182830264Y-78041498D01*
X182830261Y-78041510D01*
X182799500Y-78196153D01*
X170665995Y-78196153D01*
X170658666Y-78127984D01*
X170666133Y-78102552D01*
X170694737Y-78033497D01*
X170725500Y-77878842D01*
X170725500Y-77721158D01*
X170725500Y-77721155D01*
X170725499Y-77721153D01*
X170698296Y-77584397D01*
X170694737Y-77566503D01*
X170666134Y-77497450D01*
X170658666Y-77427984D01*
X170666133Y-77402552D01*
X170694737Y-77333497D01*
X170725500Y-77178842D01*
X170725500Y-77021158D01*
X170725500Y-77021155D01*
X170725499Y-77021153D01*
X170698117Y-76883497D01*
X170694737Y-76866503D01*
X170666134Y-76797450D01*
X170658666Y-76727984D01*
X170666133Y-76702552D01*
X170694737Y-76633497D01*
X170725500Y-76478842D01*
X170725500Y-76321158D01*
X170725500Y-76321155D01*
X170725499Y-76321153D01*
X170711984Y-76253210D01*
X170694737Y-76166503D01*
X170666134Y-76097450D01*
X170658666Y-76027984D01*
X170666133Y-76002552D01*
X170694737Y-75933497D01*
X170725500Y-75778842D01*
X170725500Y-75621158D01*
X170725500Y-75621155D01*
X170725499Y-75621153D01*
X170703447Y-75510292D01*
X170694737Y-75466503D01*
X170666134Y-75397450D01*
X170658666Y-75327984D01*
X170666133Y-75302552D01*
X170694737Y-75233497D01*
X170725500Y-75078842D01*
X170725500Y-74921158D01*
X170725500Y-74921155D01*
X170725499Y-74921153D01*
X170720674Y-74896897D01*
X170694737Y-74766503D01*
X170666134Y-74697450D01*
X170658666Y-74627984D01*
X170666133Y-74602552D01*
X170694737Y-74533497D01*
X170725500Y-74378842D01*
X170725500Y-74221158D01*
X170725500Y-74221155D01*
X170725499Y-74221153D01*
X170715679Y-74171786D01*
X170694737Y-74066503D01*
X170684561Y-74041936D01*
X170634397Y-73920827D01*
X170634390Y-73920814D01*
X170546789Y-73789711D01*
X170546786Y-73789707D01*
X170435292Y-73678213D01*
X170435288Y-73678210D01*
X170304185Y-73590609D01*
X170304172Y-73590602D01*
X170158501Y-73530264D01*
X170158489Y-73530261D01*
X170003845Y-73499500D01*
X170003842Y-73499500D01*
X169846158Y-73499500D01*
X169846155Y-73499500D01*
X169691511Y-73530260D01*
X169691506Y-73530262D01*
X169691504Y-73530262D01*
X169691503Y-73530263D01*
X169622449Y-73558865D01*
X169552982Y-73566333D01*
X169527552Y-73558865D01*
X169458497Y-73530263D01*
X169458493Y-73530262D01*
X169458488Y-73530260D01*
X169303845Y-73499500D01*
X169303842Y-73499500D01*
X169146158Y-73499500D01*
X169146155Y-73499500D01*
X168991511Y-73530260D01*
X168991506Y-73530262D01*
X168991504Y-73530262D01*
X168991503Y-73530263D01*
X168922449Y-73558865D01*
X168852982Y-73566333D01*
X168827552Y-73558865D01*
X168758497Y-73530263D01*
X168758493Y-73530262D01*
X168758488Y-73530260D01*
X168603845Y-73499500D01*
X168603842Y-73499500D01*
X168446158Y-73499500D01*
X168446155Y-73499500D01*
X168291510Y-73530261D01*
X168291507Y-73530262D01*
X168291506Y-73530262D01*
X168291503Y-73530263D01*
X168229431Y-73555974D01*
X168171952Y-73579782D01*
X168102482Y-73587250D01*
X168040003Y-73555974D01*
X168004351Y-73495885D01*
X168000500Y-73465220D01*
X168000500Y-72378711D01*
X170649500Y-72378711D01*
X170649500Y-72621288D01*
X170681161Y-72861785D01*
X170743947Y-73096104D01*
X170836773Y-73320205D01*
X170836777Y-73320214D01*
X170841857Y-73329013D01*
X170958064Y-73530289D01*
X170958066Y-73530292D01*
X170958067Y-73530293D01*
X171105733Y-73722736D01*
X171105739Y-73722743D01*
X171277256Y-73894260D01*
X171277263Y-73894266D01*
X171311878Y-73920827D01*
X171469711Y-74041936D01*
X171679788Y-74163224D01*
X171903900Y-74256054D01*
X172138211Y-74318838D01*
X172309848Y-74341434D01*
X172378711Y-74350500D01*
X172378712Y-74350500D01*
X172621289Y-74350500D01*
X172690152Y-74341434D01*
X172861789Y-74318838D01*
X173096100Y-74256054D01*
X173320212Y-74163224D01*
X173414732Y-74108653D01*
X183312000Y-74108653D01*
X183312000Y-74266346D01*
X183342761Y-74420989D01*
X183342764Y-74421001D01*
X183403102Y-74566672D01*
X183403109Y-74566685D01*
X183490710Y-74697788D01*
X183490713Y-74697792D01*
X183602207Y-74809286D01*
X183602211Y-74809289D01*
X183733314Y-74896890D01*
X183733327Y-74896897D01*
X183878998Y-74957235D01*
X183879003Y-74957237D01*
X184013333Y-74983957D01*
X184033653Y-74987999D01*
X184033656Y-74988000D01*
X184033658Y-74988000D01*
X184191344Y-74988000D01*
X184191345Y-74987999D01*
X184345997Y-74957237D01*
X184491679Y-74896894D01*
X184622789Y-74809289D01*
X184734289Y-74697789D01*
X184821894Y-74566679D01*
X184882237Y-74420997D01*
X184913000Y-74266342D01*
X184913000Y-74108658D01*
X184913000Y-74108655D01*
X184912999Y-74108653D01*
X184903379Y-74060289D01*
X184882237Y-73954003D01*
X184870431Y-73925500D01*
X184821897Y-73808327D01*
X184821890Y-73808314D01*
X184734289Y-73677211D01*
X184734286Y-73677207D01*
X184622792Y-73565713D01*
X184622788Y-73565710D01*
X184593519Y-73546153D01*
X186099500Y-73546153D01*
X186099500Y-73703846D01*
X186130261Y-73858489D01*
X186130264Y-73858501D01*
X186190602Y-74004172D01*
X186190609Y-74004185D01*
X186278210Y-74135288D01*
X186278213Y-74135292D01*
X186389707Y-74246786D01*
X186389711Y-74246789D01*
X186520814Y-74334390D01*
X186520827Y-74334397D01*
X186628138Y-74378846D01*
X186666503Y-74394737D01*
X186798480Y-74420989D01*
X186821153Y-74425499D01*
X186821156Y-74425500D01*
X186821158Y-74425500D01*
X186978844Y-74425500D01*
X186978845Y-74425499D01*
X187133497Y-74394737D01*
X187279179Y-74334394D01*
X187279184Y-74334390D01*
X187279187Y-74334389D01*
X187342849Y-74291851D01*
X187409526Y-74270972D01*
X187476907Y-74289456D01*
X187523597Y-74341434D01*
X187529648Y-74357013D01*
X187590602Y-74504172D01*
X187590609Y-74504185D01*
X187678210Y-74635288D01*
X187678213Y-74635292D01*
X187789707Y-74746786D01*
X187789711Y-74746789D01*
X187920814Y-74834390D01*
X187920827Y-74834397D01*
X188066498Y-74894735D01*
X188066503Y-74894737D01*
X188141762Y-74909707D01*
X188195322Y-74920361D01*
X188257233Y-74952746D01*
X188291807Y-75013461D01*
X188288068Y-75083231D01*
X188247202Y-75139903D01*
X188240023Y-75145079D01*
X188188242Y-75179678D01*
X188188236Y-75179683D01*
X188076742Y-75291177D01*
X188076739Y-75291181D01*
X187989138Y-75422284D01*
X187989131Y-75422297D01*
X187928793Y-75567968D01*
X187928790Y-75567980D01*
X187898029Y-75722623D01*
X187898029Y-75880316D01*
X187928790Y-76034959D01*
X187928793Y-76034971D01*
X187989131Y-76180642D01*
X187989138Y-76180655D01*
X188076739Y-76311758D01*
X188076742Y-76311762D01*
X188188236Y-76423256D01*
X188188240Y-76423259D01*
X188319343Y-76510860D01*
X188319356Y-76510867D01*
X188464906Y-76571155D01*
X188465032Y-76571207D01*
X188619682Y-76601969D01*
X188619685Y-76601970D01*
X188619687Y-76601970D01*
X188777373Y-76601970D01*
X188777374Y-76601969D01*
X188932026Y-76571207D01*
X188932156Y-76571153D01*
X196119500Y-76571153D01*
X196119500Y-76728846D01*
X196150261Y-76883489D01*
X196150264Y-76883501D01*
X196210602Y-77029172D01*
X196210609Y-77029185D01*
X196298210Y-77160288D01*
X196298213Y-77160292D01*
X196409707Y-77271786D01*
X196409711Y-77271789D01*
X196540814Y-77359390D01*
X196540827Y-77359397D01*
X196645002Y-77402547D01*
X196686503Y-77419737D01*
X196838644Y-77450000D01*
X196841153Y-77450499D01*
X196841156Y-77450500D01*
X196841158Y-77450500D01*
X196998844Y-77450500D01*
X196998845Y-77450499D01*
X197153497Y-77419737D01*
X197299179Y-77359394D01*
X197430289Y-77271789D01*
X197541789Y-77160289D01*
X197629394Y-77029179D01*
X197632719Y-77021153D01*
X197660598Y-76953846D01*
X197689737Y-76883497D01*
X197707111Y-76796153D01*
X204024500Y-76796153D01*
X204024500Y-76953846D01*
X204055261Y-77108489D01*
X204055264Y-77108501D01*
X204115602Y-77254172D01*
X204115609Y-77254185D01*
X204203210Y-77385288D01*
X204203213Y-77385292D01*
X204314707Y-77496786D01*
X204314711Y-77496789D01*
X204445814Y-77584390D01*
X204445827Y-77584397D01*
X204591498Y-77644735D01*
X204591503Y-77644737D01*
X204746153Y-77675499D01*
X204746156Y-77675500D01*
X204746158Y-77675500D01*
X204903844Y-77675500D01*
X204903845Y-77675499D01*
X205058497Y-77644737D01*
X205204179Y-77584394D01*
X205335289Y-77496789D01*
X205446789Y-77385289D01*
X205534394Y-77254179D01*
X205594737Y-77108497D01*
X205625500Y-76953842D01*
X205625500Y-76796158D01*
X205625500Y-76796155D01*
X205625499Y-76796153D01*
X205619476Y-76765874D01*
X205594737Y-76641503D01*
X205565619Y-76571205D01*
X205534397Y-76495827D01*
X205534390Y-76495814D01*
X205446789Y-76364711D01*
X205446786Y-76364707D01*
X205335292Y-76253213D01*
X205335288Y-76253210D01*
X205204185Y-76165609D01*
X205204172Y-76165602D01*
X205058501Y-76105264D01*
X205058489Y-76105261D01*
X204903845Y-76074500D01*
X204903842Y-76074500D01*
X204746158Y-76074500D01*
X204746155Y-76074500D01*
X204591510Y-76105261D01*
X204591498Y-76105264D01*
X204445827Y-76165602D01*
X204445814Y-76165609D01*
X204314711Y-76253210D01*
X204314707Y-76253213D01*
X204203213Y-76364707D01*
X204203210Y-76364711D01*
X204115609Y-76495814D01*
X204115602Y-76495827D01*
X204055264Y-76641498D01*
X204055261Y-76641510D01*
X204024500Y-76796153D01*
X197707111Y-76796153D01*
X197713134Y-76765874D01*
X197720500Y-76728844D01*
X197720500Y-76571155D01*
X197720499Y-76571153D01*
X197689737Y-76416503D01*
X197650242Y-76321153D01*
X197629397Y-76270827D01*
X197629390Y-76270814D01*
X197541789Y-76139711D01*
X197541786Y-76139707D01*
X197430292Y-76028213D01*
X197430288Y-76028210D01*
X197299185Y-75940609D01*
X197299172Y-75940602D01*
X197153501Y-75880264D01*
X197153489Y-75880261D01*
X196998845Y-75849500D01*
X196998842Y-75849500D01*
X196841158Y-75849500D01*
X196841155Y-75849500D01*
X196686510Y-75880261D01*
X196686498Y-75880264D01*
X196540827Y-75940602D01*
X196540814Y-75940609D01*
X196409711Y-76028210D01*
X196409707Y-76028213D01*
X196298213Y-76139707D01*
X196298210Y-76139711D01*
X196210609Y-76270814D01*
X196210602Y-76270827D01*
X196150264Y-76416498D01*
X196150261Y-76416510D01*
X196119500Y-76571153D01*
X188932156Y-76571153D01*
X189077708Y-76510864D01*
X189208818Y-76423259D01*
X189320318Y-76311759D01*
X189407923Y-76180649D01*
X189468266Y-76034967D01*
X189499029Y-75880312D01*
X189499029Y-75722628D01*
X189499029Y-75722625D01*
X189488413Y-75669258D01*
X189488413Y-75669257D01*
X189484812Y-75651153D01*
X192509500Y-75651153D01*
X192509500Y-75808846D01*
X192540261Y-75963489D01*
X192540264Y-75963501D01*
X192600602Y-76109172D01*
X192600609Y-76109185D01*
X192688210Y-76240288D01*
X192688213Y-76240292D01*
X192799707Y-76351786D01*
X192799711Y-76351789D01*
X192930814Y-76439390D01*
X192930827Y-76439397D01*
X193026062Y-76478844D01*
X193076503Y-76499737D01*
X193231153Y-76530499D01*
X193231156Y-76530500D01*
X193231158Y-76530500D01*
X193388844Y-76530500D01*
X193388845Y-76530499D01*
X193543497Y-76499737D01*
X193662354Y-76450505D01*
X193662355Y-76450505D01*
X193675113Y-76445220D01*
X193689179Y-76439394D01*
X193820289Y-76351789D01*
X193931789Y-76240289D01*
X194019394Y-76109179D01*
X194079737Y-75963497D01*
X194110500Y-75808842D01*
X194110500Y-75651158D01*
X194110500Y-75651155D01*
X194110499Y-75651153D01*
X194104658Y-75621789D01*
X194079737Y-75496503D01*
X194067311Y-75466503D01*
X194032524Y-75382518D01*
X194019395Y-75350824D01*
X194019394Y-75350821D01*
X194019392Y-75350818D01*
X194019390Y-75350814D01*
X194012935Y-75341153D01*
X198899500Y-75341153D01*
X198899500Y-75498846D01*
X198930261Y-75653489D01*
X198930264Y-75653501D01*
X198990602Y-75799172D01*
X198990609Y-75799185D01*
X199078210Y-75930288D01*
X199078213Y-75930292D01*
X199189707Y-76041786D01*
X199189711Y-76041789D01*
X199320814Y-76129390D01*
X199320827Y-76129397D01*
X199444562Y-76180649D01*
X199466503Y-76189737D01*
X199621153Y-76220499D01*
X199621156Y-76220500D01*
X199621158Y-76220500D01*
X199778844Y-76220500D01*
X199778845Y-76220499D01*
X199933497Y-76189737D01*
X200079179Y-76129394D01*
X200210289Y-76041789D01*
X200321789Y-75930289D01*
X200409394Y-75799179D01*
X200469737Y-75653497D01*
X200500500Y-75498842D01*
X200500500Y-75341158D01*
X200500500Y-75341155D01*
X200500499Y-75341153D01*
X200469737Y-75186503D01*
X200450435Y-75139903D01*
X200409397Y-75040827D01*
X200409390Y-75040814D01*
X200371399Y-74983957D01*
X200329434Y-74921153D01*
X201699500Y-74921153D01*
X201699500Y-75078846D01*
X201730261Y-75233489D01*
X201730264Y-75233501D01*
X201790602Y-75379172D01*
X201790609Y-75379185D01*
X201878210Y-75510288D01*
X201878213Y-75510292D01*
X201989707Y-75621786D01*
X201989711Y-75621789D01*
X202120814Y-75709390D01*
X202120827Y-75709397D01*
X202266498Y-75769735D01*
X202266503Y-75769737D01*
X202414482Y-75799172D01*
X202421153Y-75800499D01*
X202421156Y-75800500D01*
X202421158Y-75800500D01*
X202578844Y-75800500D01*
X202578845Y-75800499D01*
X202733497Y-75769737D01*
X202879179Y-75709394D01*
X203010289Y-75621789D01*
X203121789Y-75510289D01*
X203209394Y-75379179D01*
X203269737Y-75233497D01*
X203300500Y-75078842D01*
X203300500Y-74921158D01*
X203300500Y-74921155D01*
X203300499Y-74921153D01*
X203295674Y-74896897D01*
X203269737Y-74766503D01*
X203261571Y-74746789D01*
X203209397Y-74620827D01*
X203209390Y-74620814D01*
X203121789Y-74489711D01*
X203121786Y-74489707D01*
X203010292Y-74378213D01*
X203010288Y-74378210D01*
X202879185Y-74290609D01*
X202879172Y-74290602D01*
X202733501Y-74230264D01*
X202733489Y-74230261D01*
X202578845Y-74199500D01*
X202578842Y-74199500D01*
X202421158Y-74199500D01*
X202421155Y-74199500D01*
X202266510Y-74230261D01*
X202266498Y-74230264D01*
X202120827Y-74290602D01*
X202120814Y-74290609D01*
X201989711Y-74378210D01*
X201989707Y-74378213D01*
X201878213Y-74489707D01*
X201878210Y-74489711D01*
X201790609Y-74620814D01*
X201790602Y-74620827D01*
X201730264Y-74766498D01*
X201730261Y-74766510D01*
X201699500Y-74921153D01*
X200329434Y-74921153D01*
X200321789Y-74909711D01*
X200321786Y-74909707D01*
X200210292Y-74798213D01*
X200210288Y-74798210D01*
X200079185Y-74710609D01*
X200079172Y-74710602D01*
X199933501Y-74650264D01*
X199933489Y-74650261D01*
X199778845Y-74619500D01*
X199778842Y-74619500D01*
X199621158Y-74619500D01*
X199621155Y-74619500D01*
X199466510Y-74650261D01*
X199466498Y-74650264D01*
X199320827Y-74710602D01*
X199320814Y-74710609D01*
X199189711Y-74798210D01*
X199189707Y-74798213D01*
X199078213Y-74909707D01*
X199078210Y-74909711D01*
X198990609Y-75040814D01*
X198990602Y-75040827D01*
X198930264Y-75186498D01*
X198930261Y-75186510D01*
X198899500Y-75341153D01*
X194012935Y-75341153D01*
X193931789Y-75219711D01*
X193931786Y-75219707D01*
X193820292Y-75108213D01*
X193820288Y-75108210D01*
X193689185Y-75020609D01*
X193689172Y-75020602D01*
X193543501Y-74960264D01*
X193543489Y-74960261D01*
X193388845Y-74929500D01*
X193388842Y-74929500D01*
X193231158Y-74929500D01*
X193231155Y-74929500D01*
X193076510Y-74960261D01*
X193076498Y-74960264D01*
X192930827Y-75020602D01*
X192930814Y-75020609D01*
X192799711Y-75108210D01*
X192799707Y-75108213D01*
X192688213Y-75219707D01*
X192688210Y-75219711D01*
X192600609Y-75350814D01*
X192600602Y-75350827D01*
X192540264Y-75496498D01*
X192540261Y-75496510D01*
X192509500Y-75651153D01*
X189484812Y-75651153D01*
X189468267Y-75567980D01*
X189468266Y-75567973D01*
X189444373Y-75510289D01*
X189407926Y-75422297D01*
X189407919Y-75422284D01*
X189320318Y-75291181D01*
X189320315Y-75291177D01*
X189208821Y-75179683D01*
X189208817Y-75179680D01*
X189077714Y-75092079D01*
X189077701Y-75092072D01*
X188932030Y-75031734D01*
X188932020Y-75031731D01*
X188803205Y-75006108D01*
X188741294Y-74973723D01*
X188706720Y-74913007D01*
X188710460Y-74843238D01*
X188751327Y-74786566D01*
X188758494Y-74781397D01*
X188810289Y-74746789D01*
X188921789Y-74635289D01*
X189009394Y-74504179D01*
X189015389Y-74489707D01*
X189043852Y-74420989D01*
X189069737Y-74358497D01*
X189070861Y-74352842D01*
X189103246Y-74290933D01*
X189163961Y-74256358D01*
X189233730Y-74260097D01*
X189252653Y-74269568D01*
X189252946Y-74269021D01*
X189258327Y-74271897D01*
X189403998Y-74332235D01*
X189404003Y-74332237D01*
X189495812Y-74350499D01*
X189558653Y-74362999D01*
X189558656Y-74363000D01*
X189558658Y-74363000D01*
X189716344Y-74363000D01*
X189716345Y-74362999D01*
X189870997Y-74332237D01*
X190016679Y-74271894D01*
X190147789Y-74184289D01*
X190259289Y-74072789D01*
X190346894Y-73941679D01*
X190407237Y-73795997D01*
X190438000Y-73641342D01*
X190438000Y-73483658D01*
X190436896Y-73478109D01*
X190435512Y-73471153D01*
X191024500Y-73471153D01*
X191024500Y-73628846D01*
X191055261Y-73783489D01*
X191055264Y-73783501D01*
X191115602Y-73929172D01*
X191115609Y-73929185D01*
X191203210Y-74060288D01*
X191203213Y-74060292D01*
X191314707Y-74171786D01*
X191314711Y-74171789D01*
X191445814Y-74259390D01*
X191445827Y-74259397D01*
X191591498Y-74319735D01*
X191591503Y-74319737D01*
X191746153Y-74350499D01*
X191746156Y-74350500D01*
X191746158Y-74350500D01*
X191903844Y-74350500D01*
X191903845Y-74350499D01*
X192058497Y-74319737D01*
X192204179Y-74259394D01*
X192335289Y-74171789D01*
X192446789Y-74060289D01*
X192534394Y-73929179D01*
X192537854Y-73920827D01*
X192548858Y-73894260D01*
X192594737Y-73783497D01*
X192625500Y-73628842D01*
X192625500Y-73471158D01*
X192625500Y-73471155D01*
X192625499Y-73471153D01*
X192617541Y-73431144D01*
X192594737Y-73316503D01*
X192578026Y-73276158D01*
X192534397Y-73170827D01*
X192534390Y-73170814D01*
X192493058Y-73108957D01*
X192451093Y-73046153D01*
X193999500Y-73046153D01*
X193999500Y-73203846D01*
X194030261Y-73358489D01*
X194030264Y-73358501D01*
X194090602Y-73504172D01*
X194090609Y-73504185D01*
X194178210Y-73635288D01*
X194178213Y-73635292D01*
X194289707Y-73746786D01*
X194289711Y-73746789D01*
X194420814Y-73834390D01*
X194420827Y-73834397D01*
X194565351Y-73894260D01*
X194566503Y-73894737D01*
X194721153Y-73925499D01*
X194721156Y-73925500D01*
X194721158Y-73925500D01*
X194878844Y-73925500D01*
X194878845Y-73925499D01*
X195033497Y-73894737D01*
X195179179Y-73834394D01*
X195310289Y-73746789D01*
X195421789Y-73635289D01*
X195509394Y-73504179D01*
X195512830Y-73495885D01*
X195546082Y-73415606D01*
X195569737Y-73358497D01*
X195600500Y-73203842D01*
X195600500Y-73046158D01*
X195600500Y-73046155D01*
X195600499Y-73046153D01*
X195586509Y-72975821D01*
X195569737Y-72891503D01*
X195557429Y-72861789D01*
X195509397Y-72745827D01*
X195509390Y-72745814D01*
X195421789Y-72614711D01*
X195421786Y-72614707D01*
X195310292Y-72503213D01*
X195310288Y-72503210D01*
X195262312Y-72471153D01*
X196799500Y-72471153D01*
X196799500Y-72628846D01*
X196830261Y-72783489D01*
X196830264Y-72783501D01*
X196890602Y-72929172D01*
X196890609Y-72929185D01*
X196978210Y-73060288D01*
X196978213Y-73060292D01*
X197089707Y-73171786D01*
X197089711Y-73171789D01*
X197220814Y-73259390D01*
X197220827Y-73259397D01*
X197358683Y-73316498D01*
X197366503Y-73319737D01*
X197515331Y-73349341D01*
X197521153Y-73350499D01*
X197521156Y-73350500D01*
X197521158Y-73350500D01*
X197678844Y-73350500D01*
X197678845Y-73350499D01*
X197833497Y-73319737D01*
X197979179Y-73259394D01*
X198110289Y-73171789D01*
X198221789Y-73060289D01*
X198309394Y-72929179D01*
X198369737Y-72783497D01*
X198400500Y-72628842D01*
X198400500Y-72471158D01*
X198400500Y-72471155D01*
X198386116Y-72398845D01*
X198386116Y-72398844D01*
X198382111Y-72378711D01*
X205649500Y-72378711D01*
X205649500Y-72621288D01*
X205681161Y-72861785D01*
X205743947Y-73096104D01*
X205836773Y-73320205D01*
X205836777Y-73320214D01*
X205841857Y-73329013D01*
X205958064Y-73530289D01*
X205958066Y-73530292D01*
X205958067Y-73530293D01*
X206105733Y-73722736D01*
X206105739Y-73722743D01*
X206277256Y-73894260D01*
X206277263Y-73894266D01*
X206311878Y-73920827D01*
X206469711Y-74041936D01*
X206679788Y-74163224D01*
X206903900Y-74256054D01*
X207138211Y-74318838D01*
X207309848Y-74341434D01*
X207378711Y-74350500D01*
X207378712Y-74350500D01*
X207621289Y-74350500D01*
X207690152Y-74341434D01*
X207861789Y-74318838D01*
X208096100Y-74256054D01*
X208320212Y-74163224D01*
X208530289Y-74041936D01*
X208722738Y-73894265D01*
X208894265Y-73722738D01*
X209041936Y-73530289D01*
X209163224Y-73320212D01*
X209256054Y-73096100D01*
X209318838Y-72861789D01*
X209350500Y-72621288D01*
X209350500Y-72378712D01*
X209318838Y-72138211D01*
X209256054Y-71903900D01*
X209163224Y-71679788D01*
X209041936Y-71469711D01*
X208894265Y-71277262D01*
X208894260Y-71277256D01*
X208722743Y-71105739D01*
X208722736Y-71105733D01*
X208530293Y-70958067D01*
X208530292Y-70958066D01*
X208530289Y-70958064D01*
X208320212Y-70836776D01*
X208223675Y-70796789D01*
X208096104Y-70743947D01*
X207861785Y-70681161D01*
X207621289Y-70649500D01*
X207621288Y-70649500D01*
X207378712Y-70649500D01*
X207378711Y-70649500D01*
X207138214Y-70681161D01*
X206903895Y-70743947D01*
X206679794Y-70836773D01*
X206679785Y-70836777D01*
X206469706Y-70958067D01*
X206277263Y-71105733D01*
X206277256Y-71105739D01*
X206105739Y-71277256D01*
X206105733Y-71277263D01*
X205958067Y-71469706D01*
X205836777Y-71679785D01*
X205836773Y-71679794D01*
X205743947Y-71903895D01*
X205681161Y-72138214D01*
X205649500Y-72378711D01*
X198382111Y-72378711D01*
X198377446Y-72355261D01*
X198369737Y-72316503D01*
X198369735Y-72316498D01*
X198309397Y-72170827D01*
X198309390Y-72170814D01*
X198221789Y-72039711D01*
X198221786Y-72039707D01*
X198110292Y-71928213D01*
X198110288Y-71928210D01*
X197979185Y-71840609D01*
X197979172Y-71840602D01*
X197833501Y-71780264D01*
X197833489Y-71780261D01*
X197678845Y-71749500D01*
X197678842Y-71749500D01*
X197521158Y-71749500D01*
X197521155Y-71749500D01*
X197366510Y-71780261D01*
X197366498Y-71780264D01*
X197220827Y-71840602D01*
X197220814Y-71840609D01*
X197089711Y-71928210D01*
X197089707Y-71928213D01*
X196978213Y-72039707D01*
X196978210Y-72039711D01*
X196890609Y-72170814D01*
X196890602Y-72170827D01*
X196830264Y-72316498D01*
X196830261Y-72316510D01*
X196799500Y-72471153D01*
X195262312Y-72471153D01*
X195179185Y-72415609D01*
X195179172Y-72415602D01*
X195033501Y-72355264D01*
X195033489Y-72355261D01*
X194878845Y-72324500D01*
X194878842Y-72324500D01*
X194721158Y-72324500D01*
X194721155Y-72324500D01*
X194566510Y-72355261D01*
X194566498Y-72355264D01*
X194420827Y-72415602D01*
X194420814Y-72415609D01*
X194289711Y-72503210D01*
X194289707Y-72503213D01*
X194178213Y-72614707D01*
X194178210Y-72614711D01*
X194090609Y-72745814D01*
X194090602Y-72745827D01*
X194030264Y-72891498D01*
X194030261Y-72891510D01*
X193999500Y-73046153D01*
X192451093Y-73046153D01*
X192446789Y-73039711D01*
X192446786Y-73039707D01*
X192335292Y-72928213D01*
X192335287Y-72928209D01*
X192204185Y-72840609D01*
X192204172Y-72840602D01*
X192058501Y-72780264D01*
X192058489Y-72780261D01*
X191903845Y-72749500D01*
X191903842Y-72749500D01*
X191746158Y-72749500D01*
X191746155Y-72749500D01*
X191591510Y-72780261D01*
X191591498Y-72780264D01*
X191445827Y-72840602D01*
X191445814Y-72840609D01*
X191314713Y-72928209D01*
X191314707Y-72928213D01*
X191203213Y-73039707D01*
X191203210Y-73039711D01*
X191115609Y-73170814D01*
X191115602Y-73170827D01*
X191055264Y-73316498D01*
X191055261Y-73316510D01*
X191024500Y-73471153D01*
X190435512Y-73471153D01*
X190418773Y-73387000D01*
X190407237Y-73329003D01*
X190385346Y-73276153D01*
X190346897Y-73183327D01*
X190346890Y-73183314D01*
X190259289Y-73052211D01*
X190259286Y-73052207D01*
X190147792Y-72940713D01*
X190147788Y-72940710D01*
X190016685Y-72853109D01*
X190016672Y-72853102D01*
X189871001Y-72792764D01*
X189870989Y-72792761D01*
X189716345Y-72762000D01*
X189716342Y-72762000D01*
X189558658Y-72762000D01*
X189558655Y-72762000D01*
X189404010Y-72792761D01*
X189403998Y-72792764D01*
X189258327Y-72853102D01*
X189258314Y-72853109D01*
X189127211Y-72940710D01*
X189127207Y-72940713D01*
X189015713Y-73052207D01*
X189015710Y-73052211D01*
X188928109Y-73183314D01*
X188928102Y-73183327D01*
X188867764Y-73328998D01*
X188867760Y-73329013D01*
X188866635Y-73334667D01*
X188834245Y-73396575D01*
X188773526Y-73431144D01*
X188703757Y-73427398D01*
X188684846Y-73417932D01*
X188684554Y-73418479D01*
X188679179Y-73415606D01*
X188625046Y-73393183D01*
X188570643Y-73349341D01*
X188548579Y-73283047D01*
X188548500Y-73278622D01*
X188548500Y-73276155D01*
X188548499Y-73276153D01*
X188542467Y-73245827D01*
X188517737Y-73121503D01*
X188512540Y-73108957D01*
X188457397Y-72975827D01*
X188457390Y-72975814D01*
X188369789Y-72844711D01*
X188369786Y-72844707D01*
X188258292Y-72733213D01*
X188258288Y-72733210D01*
X188127185Y-72645609D01*
X188127172Y-72645602D01*
X187981501Y-72585264D01*
X187981489Y-72585261D01*
X187826845Y-72554500D01*
X187826842Y-72554500D01*
X187669158Y-72554500D01*
X187669155Y-72554500D01*
X187514510Y-72585261D01*
X187514498Y-72585264D01*
X187368827Y-72645602D01*
X187368814Y-72645609D01*
X187237711Y-72733210D01*
X187237707Y-72733213D01*
X187165485Y-72805436D01*
X187104162Y-72838921D01*
X187053613Y-72839372D01*
X186978846Y-72824500D01*
X186978842Y-72824500D01*
X186821158Y-72824500D01*
X186821155Y-72824500D01*
X186666510Y-72855261D01*
X186666498Y-72855264D01*
X186520827Y-72915602D01*
X186520814Y-72915609D01*
X186389711Y-73003210D01*
X186389707Y-73003213D01*
X186278213Y-73114707D01*
X186278210Y-73114711D01*
X186190609Y-73245814D01*
X186190602Y-73245827D01*
X186130264Y-73391498D01*
X186130261Y-73391510D01*
X186099500Y-73546153D01*
X184593519Y-73546153D01*
X184491685Y-73478109D01*
X184491672Y-73478102D01*
X184346001Y-73417764D01*
X184345989Y-73417761D01*
X184191345Y-73387000D01*
X184191342Y-73387000D01*
X184033658Y-73387000D01*
X184033655Y-73387000D01*
X183879010Y-73417761D01*
X183878998Y-73417764D01*
X183733327Y-73478102D01*
X183733314Y-73478109D01*
X183602211Y-73565710D01*
X183602207Y-73565713D01*
X183490713Y-73677207D01*
X183490710Y-73677211D01*
X183403109Y-73808314D01*
X183403102Y-73808327D01*
X183342764Y-73953998D01*
X183342761Y-73954010D01*
X183312000Y-74108653D01*
X173414732Y-74108653D01*
X173530289Y-74041936D01*
X173579488Y-74004185D01*
X173660939Y-73941685D01*
X173722738Y-73894265D01*
X173894265Y-73722738D01*
X174041936Y-73530289D01*
X174163224Y-73320212D01*
X174256054Y-73096100D01*
X174318838Y-72861789D01*
X174350500Y-72621288D01*
X174350500Y-72378712D01*
X174318838Y-72138211D01*
X174256054Y-71903900D01*
X174163224Y-71679788D01*
X174041936Y-71469711D01*
X173894265Y-71277262D01*
X173894260Y-71277256D01*
X173722743Y-71105739D01*
X173722736Y-71105733D01*
X173530293Y-70958067D01*
X173530292Y-70958066D01*
X173530289Y-70958064D01*
X173320212Y-70836776D01*
X173223675Y-70796789D01*
X173096104Y-70743947D01*
X172861785Y-70681161D01*
X172621289Y-70649500D01*
X172621288Y-70649500D01*
X172378712Y-70649500D01*
X172378711Y-70649500D01*
X172138214Y-70681161D01*
X171903895Y-70743947D01*
X171679794Y-70836773D01*
X171679785Y-70836777D01*
X171469706Y-70958067D01*
X171277263Y-71105733D01*
X171277256Y-71105739D01*
X171105739Y-71277256D01*
X171105733Y-71277263D01*
X170958067Y-71469706D01*
X170836777Y-71679785D01*
X170836773Y-71679794D01*
X170743947Y-71903895D01*
X170681161Y-72138214D01*
X170649500Y-72378711D01*
X168000500Y-72378711D01*
X168000500Y-68124500D01*
X168020185Y-68057461D01*
X168072989Y-68011706D01*
X168124500Y-68000500D01*
X199143059Y-68000500D01*
X199210098Y-68020185D01*
G37*
%TD.AperFunction*%
%TD*%
M02*
